<?xml version="1.0" encoding="UTF-8"?>
<svg id="Capa_1" data-name="Capa 1" xmlns="http://www.w3.org/2000/svg" viewBox="0 0 1259 1191.04">
  <defs>
    <style>
      .cls-1 {
        fill: #a7acb1;
      }

      .cls-1, .cls-2, .cls-3 {
        opacity: .1;
        stroke-width: 0px;
      }

      .cls-2 {
        fill: #008d3e;
      }

      .cls-3 {
        fill: #006bab;
      }
    </style>
  </defs>
  <polygon class="cls-1" points="250.8 0 377.43 0 629.14 294.69 375.88 595.52 250.8 595.52 499.42 297.76 250.8 0"/>
  <polygon class="cls-3" points="460.4 0 587.03 0 838.75 294.69 585.49 595.52 460.4 595.52 709.03 297.76 460.4 0"/>
  <polygon class="cls-1" points="880.66 0 1007.29 0 1259 294.69 1005.74 595.52 880.66 595.52 1129.28 297.76 880.66 0"/>
  <polygon class="cls-2" points="670.01 0 796.64 0 1048.35 294.69 795.09 595.52 670.01 595.52 918.64 297.76 670.01 0"/>
  <polygon class="cls-2" points="40.15 0 166.78 0 418.49 294.69 165.23 595.52 40.15 595.52 288.77 297.76 40.15 0"/>
  <polygon class="cls-1" points="1004.03 1191.04 877.4 1191.04 625.69 896.35 878.95 595.52 1004.03 595.52 755.41 893.28 1004.03 1191.04"/>
  <polygon class="cls-1" points="378.34 1191.04 251.71 1191.04 0 896.35 253.26 595.52 378.34 595.52 129.72 893.28 378.34 1191.04"/>
  <polygon class="cls-2" points="794.43 1191.04 667.8 1191.04 416.08 896.35 669.34 595.52 794.43 595.52 545.8 893.28 794.43 1191.04"/>
  <polygon class="cls-3" points="584.82 1191.04 458.19 1191.04 206.48 896.35 459.74 595.52 584.82 595.52 336.2 893.28 584.82 1191.04"/>
</svg>