<?xml version="1.0" encoding="utf-8"?>
<!-- Generator: Adobe Illustrator 28.2.0, SVG Export Plug-In . SVG Version: 6.00 Build 0)  -->
<svg version="1.1" id="Capa_1" xmlns="http://www.w3.org/2000/svg" xmlns:xlink="http://www.w3.org/1999/xlink" x="0px" y="0px"
	 viewBox="0 0 629 1191" style="enable-background:new 0 0 629 1191;" xml:space="preserve">
<style type="text/css">
	.st0{opacity:0.1;fill:#A7ACB1;enable-background:new    ;}
	.st1{opacity:0.1;fill:#006BAB;enable-background:new    ;}
	.st2{opacity:0.1;fill:#008D3E;enable-background:new    ;}
</style>
<polygon class="st0" points="42.6,0 169.2,0 420.9,294.7 167.6,595.5 42.6,595.5 291.2,297.8 "/>
<polygon class="st1" points="252.2,0 378.8,0 630.5,294.7 377.3,595.5 252.2,595.5 500.8,297.8 "/>
<polygon class="st0" points="672.4,0 799.1,0 1050.8,294.7 797.5,595.5 672.4,595.5 921,297.8 "/>
<polygon class="st2" points="461.8,0 588.4,0 840.1,294.7 586.9,595.5 461.8,595.5 710.4,297.8 "/>
<polygon class="st2" points="-168.1,0 -41.5,0 210.3,294.7 -43,595.5 -168.1,595.5 80.5,297.8 "/>
<polygon class="st0" points="795.8,1191 669.2,1191 417.5,896.3 670.7,595.5 795.8,595.5 547.2,893.3 "/>
<polygon class="st0" points="170.1,1191 43.5,1191 -208.2,896.3 45,595.5 170.1,595.5 -78.5,893.3 "/>
<polygon class="st2" points="586.2,1191 459.6,1191 207.8,896.3 461.1,595.5 586.2,595.5 337.6,893.3 "/>
<polygon class="st1" points="376.6,1191 250,1191 -1.8,896.3 251.5,595.5 376.6,595.5 128,893.3 "/>
</svg>
