<?xml version="1.0" encoding="utf-8"?>
<!-- Generator: Adobe Illustrator 28.2.0, SVG Export Plug-In . SVG Version: 6.00 Build 0)  -->
<svg version="1.1" id="Capa_2_00000150060577844433915240000004274389739925471158_"
	 xmlns="http://www.w3.org/2000/svg" xmlns:xlink="http://www.w3.org/1999/xlink" x="0px" y="0px" viewBox="0 0 400.2 277.1"
	 style="enable-background:new 0 0 400.2 277.1;" xml:space="preserve">
<style type="text/css">
	.st0{fill:#DF6B56;}
	.st1{fill:#FDFDFD;}
	.st2{fill:#0A0909;}
	.st3{fill:#FBDABD;}
	.st4{fill:#BC9562;}
	.st5{fill:#ABB5C1;}
	.st6{fill:#B2CDDE;}
</style>
<g id="Capa_1-2">
	<g>
		<path class="st0" d="M390,27.9c-1.3-2-1.8-4.3-2.5-6.6c-0.8-2.6-1.8-5.1-3.4-7.3c-2.4-3.2-5.5-4.9-9.6-4.1
			c-0.4,0.1-0.8,0.2-1.1-0.2c-0.4-0.4-0.1-0.7,0.1-1.1c-0.8-0.3-1.7-0.5-2.6-0.8c-0.4,0.6-0.9,0.8-1.5,0.3c-6-4.6-12.5-4.5-19.2-1.7
			c-2.4,1-4.6,2.3-6.8,3.8s-4.5,2.9-7,4c-0.1,0-0.2,0.1-0.3,0.2v-0.1H336c-0.4,1.3-1.6,1.8-2.4,2.7c0.3,0.7-0.1,1-0.6,1.4
			c-3.8,3.2-5.7,7.5-6.3,12.4c-0.3,1.9,0.2,3.7,1.2,5.4c0.8,1.2,1.6,2.5,2.4,3.8c1,1.6,1.5,3.4,1.3,5.3c0.3,0,0.6-0.1,0.9-0.2
			c-0.1-0.9-0.2-1.9-0.3-2.8c0-0.4-0.2-0.6-0.5-0.8c-0.6-0.5-0.5-1.2,0.2-1.4c3.3-1.1,3.8-3.9,4-6.8c0.2-1.8,0.2-3.6,0.7-5.3
			c0.4-1.4,1-2.6,1.9-3.6c0.4-0.3,0.7-0.6,1.1-0.3h0.4c1,0,1.1,0,1.1-0.9c-0.7-1.1-1.6-1.9-3.3-1.7c-0.5,0-0.8-0.3-0.8-0.8
			s0.4-0.8,0.9-0.8c1.7-0.2,3.2,0.4,4.2,1.9c1.3,1.7,1.7,3.8,2.2,5.8c0.4,1.4,0.6,2.9,1,4.4c0.8,3.2,2.7,5.5,5.5,7.1
			c-0.1,0-0.1,0-0.2,0.1c0.2,0.2,0.5,0.4,0.9,0.4c0-0.2-0.2-0.4-0.3-0.4c0.3,0,0.5,0.1,0.6,0.4c0.2,0.1,0.5,0.2,0.7,0.2
			c0,0-0.1,0-0.1,0.1c0.2,0.1,0.4,0.2,0.7,0.3c0.6,0.4,1.4,0.2,2.1,0.2s1.2,0.2,1.3,1.1c1.3,0,2.5,0,3.9,0c-1.8-2.7-2.2-2.8-4.9-2.1
			c-0.6,0.2-1.2,0.6-1.8,0.7c0.1,0,0.1,0,0.2,0c-0.2-0.2-0.3-0.3-0.5-0.5c0.1,0,0.2,0,0.3,0c-0.1-0.7,0.3-1,0.8-1.2
			c1-0.4,2.2-0.6,3.4-0.8c-0.3-0.9-0.6-1.7-0.8-2.5c-0.2-0.5-0.1-1,0.5-1.2c0.6-0.1,0.9,0.3,1,0.8c0.1,0.3,0.1,0.5,0.2,0.8
			c0.3,1.4,0.9,2.7,2.6,2.8c0.2,0,0.4,0.1,0.6,0.2c0.4,0.2,1,0.4,0.9,1c-0.1,0.7-0.6,0.8-1.2,0.8c0,0.4,0.4,0.7,0.7,0.9
			c3.5,3.1,7.5,4.3,12.1,3.7c0.1,0,0.1,0,0.2,0c0.6-0.1,1.4-0.4,1.5,0.6c0,0.4-0.1,0.6-0.2,0.7h0.1c0.6,0,1.4,0,2.2,0
			c-0.1-0.6,0.5-0.7,1.1-0.9c2.9-0.8,5.2,0.1,6.8,2.7c1.9-4.2,3-8.5,3.3-13c0-0.7,0-1.4,0.9-1.6C390.4,31.5,390.1,29.7,390,27.9z
			 M359.6,12.1c-1.6,0.3-3.1,0.8-4.5,1.5c-1.8,0.9-3.5,2-4.2,4.1c-0.2,0.5-0.6,0.7-1.1,0.5s-0.6-0.6-0.4-1.1c0.4-1.1,1.1-2.1,2-2.9
			c2.4-2.1,5.2-3.1,8.2-3.7c0.7-0.1,1.1,0.2,1.1,0.8C360.7,11.9,360.2,12,359.6,12.1z"/>
		<path class="st1" d="M397.2,113.7c-0.4-6.7-2.1-13.5-6.3-18.7s-11.4-8.3-17.8-6.5c-4.1,1.2-7.4,4.2-11,6.6s-8,4.3-12.1,2.8
			s-6-7.7-2.5-10.1c-24.6,0.7-47,13.7-68.2,26.3c-10.9,6.5-21.9,13-33.6,17.9c-5.8,2.4-11.7,4.5-17.8,6c-4.1,1-8.3,1.2-12.4,1.7
			c0.9-0.4,1.9-0.9,2.8-1.3c10-4.2,20.1-8,30.3-11.8c0.7-0.3,1-0.6,1.1-1.3c0.5-3.2,0.9-6.3,1.2-9.5c0.7-7.4,1.1-14.9,0.6-22.4
			c-0.4-4.9-2.3-8.8-6.8-11.2c-2.2-1.2-4.6-2-7-2.6c-5.7-1.4-11.6-1.8-17.4-2.6c-0.4-0.1-0.6,0.2-0.8,0.5c-2.7,4.3-6.7,6.8-11.5,8.1
			c-7,1.8-13.7,0.8-20.1-2.3c-1.1-0.5-1.1-0.2-1.1,0.7c-0.1,1.9,0.5,3.5,1.7,4.9c1,1.1,2,2.2,3,3.3c1.6,1.9,2.2,4,1.8,6.5
			c-0.2,1.4-0.7,2.8-1.1,4.2c-0.5,1.9-0.1,3.5,1.5,4.8c0.1,0.1,0.3,0.2,0.4,0.4c0.4,0.3,0.4,0.7,0.1,1.1c-0.3,0.3-0.7,0.3-1,0.1
			c-0.4-0.3-0.8-0.6-1.2-0.9c-0.8,0.1-1.6,0.2-2.4,0.3c0.2,1.1-0.1,1.3-1.2,1.2c-1.3-0.1-2.4-0.6-3.4-1.3c-0.8,0.1-1.5-0.2-2.3-0.3
			c-0.3,0.6-0.7,0.8-1.4,0.5c-2.1-0.9-3.2-2.9-2.8-5.2c0.2-0.9,0.3-1.9,0.6-2.8c1.1-3.1,0.4-5.8-1.8-8.2c-0.7-0.8-1.4-1.6-2.1-2.4
			c-1-1.1-2-2.1-2.8-3.3c-1.7-2.5-3-5.2-2.6-8.4c0.1-0.7-0.4-0.5-0.7-0.5c-3.4,0.5-6.6,1.1-9.8,2.3c-6.2,2.3-9.5,6.6-9.9,13.3
			c-0.4,6-0.1,12,0.6,17.9c1.5,13.6,4.1,27,7.2,40.3c0,0.1,0.1,0.2,0.1,0.2c-0.8-0.2-1.6-0.4-2.4-0.5c-4.9-0.5-9.7,1.4-14.4,3.1
			s-9.5,3.4-14.4,2.7c-6.9-1-12.2-6.6-15.5-12.8s-4.9-13-7.8-19.3c-8-17.7-25.9-30.6-45.3-32.4c0.3,5.3-6.6,8.4-11.8,7.2
			c-5.2-1.2-9.6-4.8-14.8-6.2c-10.5-3-22,4.1-26.8,13.9s-4,21.5-1,32s8.1,20.2,11.9,30.5c4,11,6.5,22.6,7.3,34.4
			c0.7,10.1,0.3,20.5-1.6,30.4c-1.2,6.2-3.3,12.4,3.7,15.7c9.3,4.3,22.5,3.4,32.6,3.7c11.4,0.4,22.8,0.1,34.1-0.7
			c4.5-0.3,9.1-0.8,13.3-2.4s8.1-4.8,9.6-9c1.1-2.9,1-6.1,0.8-9.3c-0.9-11.4-4-22.7-9.1-33c6.6,0.4,12.6,4,18.7,6.6
			s13.4,4.3,19.2,1.1c5.4-2.9,8-10,6-15.7s-8.6-9.5-14.6-8.4c7.6-2.8,14.9-6.5,21.7-11c4.4-2.9,9-6.9,8.6-12.2
			c-0.3-3.6-3-6.4-6.3-7.9c3.5-0.2,7-0.4,10.4-0.5c3.2-0.1,6.4,0,9.7,0c0-0.3,0-0.4,0-0.6c-1.4-7.4-2.8-14.9-4.2-22.3
			c-1.3-6.9-2.5-13.8-3.7-20.7c-0.1-0.6-0.3-1.4,0.6-1.5c0.8-0.1,0.8,0.7,0.9,1.3c0.6,3.4,1.2,6.9,1.8,10.3
			c1.9,10.8,3.8,21.6,6,32.4c0.1,0.7,0.4,1,1.2,1c2.6,0,5.2,0.2,7.7,0.7c0.7,0.1,1.3,0.1,2-0.2c7.1-2.9,14.1-6.2,20.9-9.6
			c0.4-0.2,0.6-0.4,0.8-0.7c4.3,5.4,3.6,13.8,4.6,20.7c0.3,2.2,0.6,4.5,0.9,6.7c0.8,5.6,1.5,11.1,2.3,16.7c0.6,4.3,1.5,9.2,5,11.7
			c4.5,3.3,10.8,1.2,15.9-1c16.9-7.2,33.8-14.4,50.6-21.6c-2.1,16-4.1,32-6.2,48c-0.6,4.9-1.2,10.2,0.9,14.7c2.8,6.1,9.6,9.1,16,11
			c17.5,5.3,36.3,6.1,54.2,2.3c7.2-1.5,15.1-4.5,18-11.3c2.6-6.2,0-13.2-1.2-19.9c-3.5-18.1,2.9-36.5,9.8-53.6
			C390.7,149.8,398.3,132.1,397.2,113.7L397.2,113.7z M225.1,133.2c0.7-6.3,1.4-12.5,2.2-18.7c0.3-2.8,0.7-5.5,1-8.2
			c0.1-0.6,0.2-1.1,0.9-1s0.7,0.6,0.7,1.2c-1,8.9-2.1,17.8-3.1,26.6c-0.1,0.6-0.2,1.1-0.9,1.1C225.2,134.1,225,133.6,225.1,133.2
			L225.1,133.2z"/>
		<path class="st2" d="M378.8,242.3c-0.1-0.8-0.3-1.6,0.4-2.3c0.4-0.3,0.3-0.9,0.3-1.4c-0.1-5.4-0.6-10.7-1.2-16.1
			c-0.9-7.5-1.9-14.9-2.4-22.4c-0.1-0.6-0.1-1.3-0.9-1.2s-0.7,0.7-0.7,1.3c0.3,5.4,1,10.7,1.6,16.1c0.9,7.3,1.7,14.6,2,21.9
			c0.1,1-0.3,1.6-1,2.2c-1.5,1.1-3.2,2-4.9,2.7c-12.4,5-25.4,7.7-38.7,8.6c-11.1,0.8-22-0.6-32.7-3.4c-3.9-1.1-7.8-2.3-11.4-4.2
			c-1.1-0.6-1.5-1.3-1.5-2.7c0.3-10.5,0.8-21.1,1.7-31.6c0.9-10.7,2-21.4,3.6-32.1c0.1-0.7,0.5-1,1.1-1.3
			c10.1-4.1,20.1-8.4,30.1-12.8c16.2-7.2,32.4-14.6,49-21.1c0.1-0.1,0.3-0.1,0.4-0.2c0.3-0.2,0.6-0.5,0.4-0.9
			c-0.2-0.5-0.5-0.7-1-0.5c-0.2,0.1-0.5,0.2-0.7,0.3c-13.7,5.3-27.1,11.3-40.5,17.3c-28.2,12.6-56.8,24.3-85.8,35.2
			c-4.8,1.7-9.5,3.7-14.4,4.8c-1.4,0.3-2.3,0-3.1-1.1c-2-2.7-4.1-5.4-5.5-8.5c-1.9-4.2-3.2-8.5-3.3-13.2c0-0.8,0.2-1.3,1-1.7
			c11.3-5.2,22.4-10.7,33.6-16.1c9.2-4.5,18.7-8.5,27.6-13.6c15.9-9.1,31.9-18,47.6-27.5c13-7.9,26.1-15.5,39.9-21.8
			c0.1-0.1,0.3-0.1,0.4-0.2c0.3-0.3,0.5-0.6,0.3-1s-0.6-0.5-1-0.4c-0.3,0.1-0.5,0.3-0.8,0.4c-9,4.2-17.7,8.9-26.3,13.9
			c-12.4,7.2-24.8,14.5-37.2,21.8c-0.4,0.2-0.8,0.4-1.4,0.7c1.5-4.6,3-8.9,4.7-13.2c0-0.2,0.1-0.4,0.2-0.6c0.2-0.5,0.2-0.9-0.4-1.1
			s-0.9,0.1-1.1,0.6c-0.1,0.2-0.1,0.4-0.2,0.6c-1.8,4.6-3.5,9.3-5,14c-0.2,0.7-0.6,1.1-1.2,1.4c-4.2,2.3-8.5,4.6-12.6,7.1
			c-3.6,2.2-7.3,4.1-11.4,5.2c-0.8,0.2-1.6,0.5-2.4,0.8c-15.6,5.2-31.3,10.1-47.2,14.4c-0.9,0.2-1.8,0.4-2.6-0.4
			c-4.7-4.3-8-9.4-9.2-15.7c-0.3-1.8-0.2-1.9,1.4-2.6c9.2-4.1,18.6-7.7,28-11.1c16.1-5.9,31.8-12.7,46.6-21.4
			c8.2-4.9,16.4-9.9,24.7-14.7c4.8-2.8,10-4.3,15.5-5c4.9-0.6,9.8-0.7,14.7-1.5c0.8-0.4,2.1,0.1,2.5-1.2c-0.3-0.6-0.7-0.8-1.3-0.7
			c-4.6,1.1-9.3,1.2-13.9,1.6c-6.8,0.7-13.3,2.4-19.2,5.9c-5.3,3.2-10.6,6.3-15.9,9.5c-14.5,8.8-29.5,16.4-45.3,22.5
			c-0.4,0.2-0.8,0.4-1.3,0.4c0-0.2,0-0.3,0-0.4c1.2-8,2-16.1,2-24.3c0-2.8-0.2-5.6-0.4-8.4c-0.5-6.1-3.9-10-9.3-12.4
			c-4.7-2-9.7-2.7-14.7-3.4c-3.8-0.5-7.6-0.8-11.4-1.5c-2.3-0.5-3.3-1.8-3.7-4c-0.4-2.3-0.3-4.7-0.1-7.1c0-0.3,0.2-0.6,0.4-0.9
			c1.9-2.5,3.3-5.3,4.3-8.3c0.5-1.5,1.2-2.5,2.9-3.2c4.5-1.8,6-7.1,3.3-11.2c-0.2-0.3-0.1-0.5,0-0.8c2.9-6,3.3-12.3,1.5-18.7
			c-1-3.6-2.1-7-4.3-10.1c-2.1-3.1-5-5-8.8-5.4c-0.5,0-1-0.1-1.4,0.3c-0.2,0.7,0.1,1.1,0.9,1.2c4.3,0.4,7.2,2.8,9.1,6.5
			c3.3,6.7,5.1,13.8,3.1,21.3c-0.4,1.3-0.8,2.6-1.4,3.8c-0.1,0.4-0.3,0.7-0.8,0.5c-1.4-0.5-2.8-0.2-4.1,0.3
			c-0.1,0.1-0.3,0.1-0.4,0.2c-0.6,0.2-0.7,0.6-0.5,1.1c0.2,0.4,0.7,0.4,1.1,0.3c0.5-0.2,1-0.4,1.5-0.5c2.5-0.5,4.3,1,4.4,3.5
			c0.1,3-1.6,5.5-4.5,6.5c-0.3-0.1-0.1-0.3-0.1-0.5c0.1-0.6,0.4-1.3-0.5-1.5c-0.8-0.2-0.8,0.6-1,1.1c-0.4,1.4-0.8,2.8-1.3,4.2
			c-1.7,4.8-4.1,9-8.3,12.1c-2.7,2-5.7,3.2-8.9,4c-0.1,0-0.2,0-0.3,0c-3.2-0.8-6.3-1.7-8.8-3.9c-0.1,0-0.1-0.1-0.2-0.1
			c-5.8-3.9-8.2-9.9-9.7-16.3c0-0.1-0.1-0.2-0.1-0.3c-0.1-0.5-0.3-0.9-0.9-0.8c-0.5,0.1-0.7,0.5-0.6,1c0,0.3,0.2,0.6,0,0.8
			c-3.2-0.7-5.5-4.4-4.6-7.6c0.6-2.3,2.6-3.1,5.4-2.1c1.1,0.4,1.4,0.2,1.4-1c-1.8-1.1-3.8-1.4-5.8-0.5c-0.5,0.2-0.7,0.3-0.9-0.3
			c-4.7-13.5,1.1-30.6,16.7-35.4c4.1-1.2,8.2-1.6,12.4-0.6c2.2,0.5,4.1,1.3,4.8,3.8c0.2,0.4,0.5,0.6,1,0.5c0.5-0.2,0.6-0.6,0.5-1
			c-0.1-0.5-0.3-1.1-0.5-1.6c-1.5-1.9-3.5-3-5.9-3.4c-10.1-1.7-18.9,1.2-25.4,9.2c-7.2,8.8-8.4,18.9-4.8,29.6c0.1,0.3,0.3,0.6,0.2,1
			c-1.6,4.5-0.6,7.4,3.5,10.2c0.3,0.2,0.4,0.4,0.4,0.8c-0.1,2.2-0.3,4.4-0.9,6.5c-1.5,5-3.3,9.9-5.4,14.7c-0.5,1.1-0.6,2.7-1.4,3.3
			c-0.8,0.7-2.4,0.5-3.6,0.7c-4,0.7-8,1.7-11.5,3.8c-3.7,2.2-6,5.5-6.7,9.8c-0.6,3-0.8,6.1-0.7,9.1c0.2,11.2,2,22.2,4,33.2
			c1.1,6,2.3,12,3.7,17.9c0.1,0.3,0.4,0.8-0.5,0.9c-5.6,0.5-11.3,1.3-16.9,2.1c-6.3,0.8-12.5,1.7-18.8,2.6c-0.9,0.1-1.2-0.2-1.6-0.9
			c-5.1-10.1-10.2-20.2-15.7-30.1c-3.6-6.5-7.2-13.1-11.5-19.2c-2.9-4.2-6.6-7.2-11.2-9.2c-1.7-0.8-3.6-1.4-5.4-2
			c-5.2-1.6-10.6-2.1-15.7-4.1c-0.6-0.2-1,0-1.2,0.7c0.3,0.9,1.1,0.9,1.8,1.2c0.3,0.1,0.7,0.3,1.1,0.4c4.1,1,8.1,2,12.2,2.9
			c8.3,1.9,14.9,6.2,19.1,13.7c0.3,0.6,0.7,1.1,1.1,1.7c5.4,8.6,10.1,17.5,14.8,26.4c3.2,6,6.2,12.1,9.3,18.1c0.2,0.3,0.6,0.7,0,1.1
			c-2.2,1.6-3.3,3.8-4.3,6.2c-0.3,0.6-0.5,1.1,0.2,1.4c0.7,0.3,1-0.2,1.2-0.8c0.7-1.6,1.5-3.1,2.6-4.4c0.8-0.8,1.6-1.5,2.7-1.6
			c9.3-1,18.5-2.6,27.8-3.8c2.5-0.3,5-0.6,7.7-0.9c-0.2,0.5-0.4,0.9-0.6,1.2c-3,6.4-3.8,13-1.5,19.8c0.3,0.9,0.2,1.1-0.6,1.3
			c-5.7,1.6-11.3,3.3-16.9,5c-0.5,0.2-0.9,0.1-1.4-0.1c-9.1-3.6-18.3-7.2-27.3-11.2c-1.7-0.8-3.5-1.6-5.3-2.5
			c-0.8-0.4-1.5-0.8-1.6-1.8c-0.2-2.3-0.4-4.7-0.7-7.1c-0.5-4.1-0.7-8.2-1.5-12.2c-1.2-5.6-3.3-10.8-5.7-16
			c-1.8-3.9-3.4-7.7-4.2-11.9c-0.1-0.6-0.2-1.2-1-1.1c-0.8,0.2-0.6,0.9-0.5,1.5c0.7,3.5,1.9,6.9,3.4,10.2c1.9,4.4,3.9,8.7,5.3,13.3
			c1.6,5.3,1.9,10.8,2.5,16.3c0.2,1.9,0.4,3.7,0.6,5.7c-1.3-0.8-2.4-1.3-3.5-1.7c-0.6-0.2-1.2-0.5-1.5,0.3s0.4,1,1,1.2
			c1.4,0.5,2.9,1,3.8,2.3c1.2,1.6,2.7,2.6,4.5,3.4c1.3,0.6,2.7,1.3,4.1,1.9c14.6,6.3,29.5,12.1,44.4,17.7c0.9,0.3,1.1,0.7,1.1,1.6
			c-0.1,2.4-0.5,4.8-1,7.2c-0.9,4-2.4,7.8-5,11.1c-0.7,0.9-1.4,1.3-2.7,0.9c-13.6-3.9-27.3-7.7-40.6-12.7
			c-11.1-4.2-22-8.7-31.9-15.3c-16.7-11.2-32.3-23.8-47.4-37.2c-0.2-0.2-0.5-0.4-0.7-0.6c-0.4-0.4-0.8-0.4-1.2,0
			c-0.4,0.4-0.2,0.8,0.1,1.1c0.2,0.2,0.5,0.4,0.7,0.6c10.8,9.6,22,18.7,33.5,27.5c14.9,11.4,31.1,20.5,49,26.4
			c0.6,0.2,0.9,0.6,1,1.2c2.3,9.8,4.6,19.7,6.7,29.6c1,4.4,1.9,8.9,2.5,13.4c0.3,2,0.3,2.2-1.5,3.2c-1.2,0.7-2.5,1.3-3.8,1.8
			c-10,3.8-20.4,5.3-31,5.7c-7.9,0.3-15.8-0.3-23.6-1.1c-8.5-0.9-16.9-2.3-25.1-4.8c-3.1-0.9-6.2-2-9-3.6c-0.7-0.4-1-0.9-0.9-1.9
			c0.3-2.7,0.5-5.4,0.8-8.1c0.8-7.7,1.6-15.3,2.4-22.9c0.5-4.9,1.1-9.7,1.6-14.6c0-0.6,0-1.1-0.7-1.2c-0.7,0-0.8,0.5-0.9,1.1
			c-0.2,1.8-0.4,3.6-0.6,5.4c-1.5,13.7-3,27.3-4.3,41c-0.1,0.5-0.1,1.1,0.3,1.4c1.1,0.7,0.8,1.7,0.7,2.7c-0.1,1.4-0.3,2.8-0.5,4.2
			c-1,7.9-1.9,15.8-2.4,23.7c-0.1,0.7,0,1.3,0.4,1.8h0.9c0.2-0.3,0.3-0.6,0.5-0.9c0.2-4.8,0.7-9.7,1.2-14.5
			c0.5-4.7,1.1-9.5,1.7-14.2c0.1-0.6,0.1-0.9,0.8-0.6c6.9,3.2,14.3,4.9,21.8,6.2c11.3,2,22.7,3,34.2,2.8c10.9-0.2,21.7-1.7,32-5.6
			c1.2-0.4,2.4-1,3.6-1.6c0.4-0.2,0.6-0.3,0.7,0.3c1.1,9.1,1.9,18.1,2.4,27.2c0.3,0.4,0.5,0.8,1.1,0.6c0.6-0.2,0.5-0.7,0.5-1.2
			c-0.2-2.6-0.4-5.3-0.6-7.9c-0.5-6.3-1.1-12.7-1.9-19c-0.1-0.8-0.2-1.4,0.5-2c0.5-0.4,0.6-0.9,0.5-1.5c-0.1-0.9-0.1-1.9-0.3-2.8
			c-1.7-10.3-4.1-20.4-6.4-30.5c-0.9-3.8-1.8-7.5-2.7-11.4c0.4,0.1,0.6,0.2,0.9,0.3c11.3,3.8,22.7,7.1,34.2,10.3
			c2,0.6,3.4,0.1,4.6-1.5c0.3-0.4,0.6-0.7,0.8-1.1c0.3-0.6,0.8-0.6,1.4-0.5c1.8,0.5,3.7,0.9,5.6,1.3c0.9,0.2,1.2,0.5,1,1.5
			c-0.6,2.8-0.9,5.7-1.5,8.6c-0.3,1.2,0.1,2.1,1.1,2.6c0.6,0.4,0.8,0.8,0.7,1.5c-0.5,4.6-0.6,9.3-0.4,13.9
			c0.4,12.8,2.5,25.5,4.1,38.3c0.2,1,0.7,1.2,1.6,0.5c-0.4-4.1-0.9-8.1-1.5-12.6c-1.5-11.3-3-22.7-2.6-34.2c0.1-2.1,0.3-4.2,0.4-6.4
			c5.9,2.5,12.1,4,18.3,4.9c18.6,2.6,37.3,3.3,55.8-0.8c5.4-1.2,10.7-2.8,15.8-5.1c0.7-0.3,0.8-0.2,0.9,0.5
			c0.7,10.2,0.7,20.3,0.3,30.4c-0.3,7.6-0.8,15.3-1.5,22.9c0.2,0.4,0.5,0.7,1,0.5s0.6-0.6,0.6-1.1c0.1-2,0.3-4.1,0.5-6.2
			c1.2-15.5,1.7-31.1,0.6-46.7c0-0.8-0.1-1.6,0.8-2.1c0.6-0.4,0.4-1,0.3-1.6c-1.2-7.4-2.8-14.7-4.2-22.1c-0.1-0.8,0-1.1,0.8-1.4
			c10.5-3.9,20.8-8,31.1-12.2c4.3-1.7,8.6-3.4,12.8-5.1c0.1,0,0.2-0.1,0.2-0.1c0,0.1,0,0.2,0,0.3c-0.9,6.7-1.8,13.5-2.5,20.3
			c-1.5,14.7-2.5,29.4-2.8,44.1c0,1,0.2,1.8,1,2.3c0.6,0.4,0.7,0.9,0.7,1.6c-0.4,9.7-0.1,19.4,0,29.1c0,0.7,0.1,1.2,0.6,1.6h1
			c0.1-0.4,0.5-0.6,0.5-1.1c-0.3-9.8-0.5-19.6-0.1-29.4l0.1-0.1c14.2,5.8,29,8.1,44.2,7.1c15-1,29.7-4.1,43.4-10.9
			c0.4,1.6,0.5,3.3,0.6,5c0.7,8.9,0.4,17.7-0.5,26.5c-0.1,0.6-0.1,1.2-0.1,1.8c1,0.8,1.5,0.5,1.6-0.7c0.2-2.5,0.5-5,0.6-7.5
			C379.8,259,380,250.7,378.8,242.3z M222.8,192.8c0.6,1,0.4,1.2-0.6,1.4c-2.1,0.6-4.2,1-6.2,1.8c-4.9,1.9-10,2-15.1,1.9
			c-3.2-0.1-6.4-0.1-9.6-0.3c-4.4-0.3-8.5,0.7-12.6,2.1c-0.5,0.2-0.9,0.3-1.4,0.4c-2.8,1.1-5.6,2.1-8.3,3c-0.6,0.1-1.3,0.1-1.9,0.1
			c-1.1-0.1-1.3-0.5-0.7-1.5c0.3-0.5,0.8-1,1.2-1.4c0.5-0.5,0.8-0.8,1.6-0.2c1.2,0.9,2.5,0.5,3.7-0.3c0.5-0.4,0.8-0.6,1.5,0
			c0.8,0.7,1.9,0.5,2.9,0.2c2.3-1.1,3.6-3.2,5.2-5c0.5-0.7,0.9-1,1.8-0.6c1.3,0.5,2.4,0,3.5-0.8c1.5-1.1,2.6-2.4,3.8-3.8
			c1.8-2.1,3.6-4.2,5.4-6.3c0.9-1,1.9-1.9,2.8-3c1-1.2,2.1-1.5,3.8-1.3c4.5,0.6,9,0.1,13.3-1.5c0.7-0.3,0.9-0.2,1,0.6
			C218.4,183.5,220,188.4,222.8,192.8z M192.1,199.2c0.9,0.1,1.9-0.2,1.6,1.3c-0.1,0.6,0,1.3,0,2c-0.3,4.7-0.5,9.3-1.7,13.9
			c-0.2,0.9-0.5,1.8-1,2.6c-0.2,0.4-0.6,0.8-1.1,0.6s-0.2-0.7-0.1-1c1-6,1.2-12.1,1.3-18.2C191.1,199.6,191,199.1,192.1,199.2z
			 M193.6,216.6c0.2-0.6,0.3-1.2,0.5-2c0.9,0.7,1.6,1.3,2,2.2c0.5,0.8,0.2,1.3-0.7,1.5c-0.1,0.1-0.3,0.1-0.4,0.1
			C193.2,218.4,193.1,218.3,193.6,216.6z M195.1,213.4c-0.6-0.4-0.8-0.8-0.6-1.5c0.2-0.8,0.2-1.6,0.3-2.7c2.3,2,4.4,3.9,6.2,6
			c0.2,0.3,0.6,0.7,0.4,1.1c-0.2,0.5-0.8,0.6-1.3,0.5c-1.2-0.1-2.4-0.2-3.1-1.5C196.6,214.5,195.8,213.9,195.1,213.4z M196.6,208.8
			c-1.5-1.2-1.9-2.4-1.3-4.3c3,2.5,5.9,5.1,8.3,8.1c0.4,0.5,0.7,1,1,1.6c0.3,0.5,0.3,1.1-0.3,1.4c-0.5,0.3-1.2,0.3-1.6-0.3
			C201.2,212.7,199,210.6,196.6,208.8z M195.6,202.7c-0.8-0.7-0.1-1.7-0.2-2.6c3.7,3.1,7.6,6,9.2,10.8
			C201.8,208,198.7,205.3,195.6,202.7z M185.6,200.6c0-1,0.3-1.3,1.3-1.4c2.7-0.2,2.7-0.3,2.7,2.4c0,1,0,2.1,0,3.1
			c-0.4,5-0.5,10.1-1.7,15c-0.2,1-0.5,1.9-1,2.8c-0.6,0.9-1.2,0.9-1.7,0c-0.6-1.3-1-2.6-0.7-4C185.8,212.6,185.7,206.6,185.6,200.6z
			 M179.9,202.2c0-1,0.2-1.5,1.2-1.7c1-0.1,2.1-1,2.8-0.5c0.5,0.3,0.2,1.8,0.2,2.7c0,1.4,0,2.7,0,4.1c-0.1,4-0.3,8-1.2,12
			c-0.1,0.5-0.3,1-0.5,1.5s-0.5,1.1-1.1,1.1c-0.7,0-0.9-0.6-1.1-1.1c-0.6-1.8-1-3.7-0.7-5.5C180.2,210.6,180.2,206.4,179.9,202.2z
			 M177.9,215c-0.1,0.7-0.3,1.3-0.7,1.9c-0.2,0.5-0.6,0.8-1.1,0.7s-0.7-0.5-0.8-0.9c-0.5-1.5-0.5-3.1-0.7-4.7
			c-0.3-2.7-0.5-5.4-0.8-8.1c-0.1-0.6,0.1-0.9,0.7-1.1c1.1-0.3,2.1-0.7,3.2-1.1c0.6-0.2,0.8-0.1,0.8,0.5c0,1.4,0,2.9,0,4.4
			C178.6,209.4,178.5,212.3,177.9,215z M162,175.1c0.2-2.1,0.4-4,0.6-5.8c0-0.5,0.2-0.7,0.7-0.8c1.3-0.3,2.5-0.4,4.1-0.4
			C165.3,170.3,163.6,172.5,162,175.1z M169,168.6c0.4-0.4,0.7-0.4,1.3-0.1c-2,2-3.9,3.9-5.7,6c-0.1,0.1-0.2,0.2-0.3,0.3
			s-0.1,0.2-0.3,0c0,0,0.1-0.1,0.1-0.2c0.1-0.1,0.2-0.3,0.3-0.4C165.7,172.2,167.4,170.4,169,168.6z M164.2,177.5
			c2.2-3,4.9-5.6,7.5-8.2c0.9-0.8,1.5,0,2.4,0.1c-2.4,2.1-4.5,4.1-6.6,6.2c-1.3,1.3-2.7,2.7-3.8,4.3c-0.7,1-1.4,1.9-1.3,3.2
			c0,0.4-0.1,0.6-0.5,0.6s-0.7-0.2-0.7-0.6c0-0.5,0.2-1,0.4-1.5C162.3,180.1,163.2,178.8,164.2,177.5z M192.8,177.9
			c-0.3-0.2-0.6-0.2-0.9,0c-0.1,0.1-0.2,0.2-0.3,0.3c-2.8,3.6-5.8,7.2-7.6,11.4c-1.3,2.8-3.2,5-5.2,7.1c-0.7,0.7-1.3,1.5-2.3,1.8
			c-1.1,0.3-1.3,0.1-1.2-1c0.2-1.1,0.6-2.1,1.1-3c2.8-5.6,6.2-10.9,9.9-16c0.4-0.6,1.1-1,0.5-1.8c-0.3-0.3,0.2-0.4,0.4-0.5
			c3.2-1.6,6.6-3.1,10.1-4.2c0.6-0.2,1.2-0.5,1.6-1.1c0.3-0.6,0.9-0.9,1.6-0.6c1.7,0.7,3.4,1.3,5.1,1.9c0.1,0.1,0.2,0.3,0.3,0.4
			c-1.5,1.4-3,2.8-4.4,4.2c-3.7,3.3-7,7-10.1,10.9c-1.2,1.5-2.5,3-3.9,4.2c-0.5,0.5-1.1,1-1.9,1.1c-1,0.2-1.4-0.2-1-1.1
			c0.3-0.9,0.7-1.8,1.2-2.6c1.9-3.5,4.3-6.7,6.7-9.8c0.1-0.2,0.3-0.4,0.5-0.7C193.2,178.5,193.1,178.1,192.8,177.9z M169.8,198.2
			c0.2-1.3,0.6-2.5,1.1-3.6c2.3-5.1,5.1-9.8,8.1-14.5c0.1-0.2,0.2-0.5,0.6-0.6c1.8-0.4,3.4-1.3,5.1-2c0.1,0,0.1,0,0.1-0.1v0.1h-0.1
			c0.2,0.5-0.2,0.6-0.5,1c-3.5,4.9-6.7,10-9.4,15.4c-0.6,1.2-0.9,2.6-1.9,3.6c-0.7,0.7-1.4,1.4-2.4,1.5
			C170,199.1,169.7,198.9,169.8,198.2z M167.5,194.4c-0.6,0.1-0.8-0.2-0.8-0.8c0.2-1.1,0.6-2.2,1.1-3.2c1.5-3.4,3.3-6.7,5.2-9.9
			c0.7-1,1.8-1.6,2.7-2.4c0.3-0.3,0.4,0,0.5,0.2c0.2,0.6,1.2,0.7,1.1,1.4c-0.1,0.5-0.6,1-0.9,1.5c-2.2,3.6-4.3,7.4-6.2,11.2
			C169.7,193.6,168.7,194.2,167.5,194.4z M180.9,177.6c-0.6,0.2-1.3,0.4-1.9,0.5c-1.1,0.1-1.5-0.4-1.3-1.5c0.2-0.8,0.6-1.3,1.1-1.9
			c1.2-1.4,2.6-2.4,4.1-3.5c0.4-0.2,0.8-0.2,1.2-0.2c2.7,0.1,5.4,0.6,8.2,1.1C188.4,173.7,184.8,175.9,180.9,177.6z M176.4,175.7
			c-0.1,0.1-0.2,0.2-0.3,0.3c-2.7,2.2-5.4,4.5-8.3,6.4c-0.8,0.5-1.7,1-2.6,1.2c-0.4,0.1-0.8,0.1-1.1-0.2c-0.3-0.4-0.1-0.8,0-1.1
			c0.4-0.8,0.9-1.5,1.4-2.1c3.1-3.7,6.5-6.9,10-10c0.3-0.3,0.7-0.3,1.1-0.2c1.3,0.4,2.6,0.6,4.2,0.7
			C178.9,172.3,177.2,173.6,176.4,175.7z M164.8,185.3c-1.7,1.3-3.2,2.5-4.7,4c0.3-1.5,0.4-2.6,0.6-3.8c0-0.1,0.2-0.3,0.2-0.3
			C162.1,185.7,163.4,184.7,164.8,185.3z M169,184.4c0.1-0.1,0.1-0.1,0.2-0.1c0,0,0,0,0,0.1C169.1,184.4,169,184.4,169,184.4
			c-0.8,1.8-1.3,3.8-3.2,5.1c-2.7,1.8-5.2,3.8-7.5,6.1c-0.2,0.2-0.3,0.6-0.7,0.3c-0.3-0.2-0.2-0.5-0.1-0.8c0.2-0.3,0.3-0.6,0.5-0.9
			C160.9,190.1,164.7,187,169,184.4z M158.1,198.4c2-3,4.9-4.9,7.8-7.2c-0.3,1.2-0.7,2-0.6,2.9c0,0.5-0.3,0.6-0.6,0.8
			c-1.7,1.2-3.1,2.8-4.4,4.5c-0.3,0.3-0.5,0.6-0.9,0.7c-0.6,0.1-1.4,0.4-1.8-0.2C157.2,199.3,157.8,198.8,158.1,198.4z M161.2,200.7
			c1.3-1.8,3-3.1,4.5-4.6c0.2-0.2,0.4-0.4,0.8-0.3c0.7,0.3,1.4,0.1,2.2,0c-0.1,1.2-0.5,2.2-1.7,2.7c-0.8,0.4-1.4,1.1-1.9,1.9
			c-0.7,1.2-2,1.4-3.2,1.6c-0.4,0.1-0.8,0-1-0.4C160.7,201.3,161,201,161.2,200.7z M223.2,171.3c-1.2,0.7-2.5,1.3-3.8,1.8
			c-1,0.4-1.7,1-1.8,2.2c0,0.3,0,0.6-0.4,0.7c-4.6,1.7-9.3,2.3-14.4,1.6c1.5-1.6,3-3.2,4.4-4.7c0.2-0.2,0.5-0.2,0.8-0.1
			c1.9,0.6,3.6-0.3,5.3-0.7c1.6-0.4,1.9-1.8,1.1-3.3c-0.4-0.7-1.1-1.1-1-2c-0.7-1.3-1.7-2.4-2.9-3.1c2.2-1.5,4.3-2.7,6.6-3.6
			c0.6-0.3,1-0.3,1.3,0.4c0.6,1.2,1.1,2.4,1.4,3.7c0.1,0.6,0,0.8-0.6,0.9c-1.3,0.2-2.5,0.5-3.8,0.8c-0.6,0.1-1,0.4-0.9,1.1
			c0.3,0.5,0.8,0.6,1.3,0.4c0.9-0.4,1.4-0.1,1.8,0.7c0,0.1,0.2,0.2,0.3,0.4c1.5,2.1,3.3,3.2,5.9,2.1c0.4-0.2,0.7-0.4,1.2-0.2
			C224.4,170.9,223.8,171,223.2,171.3z M220.3,168.7c-0.7-0.8-1.2-1.4-1.6-2C220.4,166.1,220.4,166.1,220.3,168.7z M240.1,163.2
			l-0.1-0.1c0.1-0.1,0.1-0.1,0.2-0.1c0,0,0,0.1,0.1,0.1C240.2,163.1,240.1,163.2,240.1,163.2z M246.8,155.6
			c7.9-2.4,15.8-4.9,23.7-7.4c0.2-0.1,0.4-0.1,0.6,0l-0.4,0.2c-4,2-8,4-12,5.9c-5.7,2.7-11.4,5.4-17.1,8.2c-0.3,0.1-0.6,0.3-1.1,0.5
			c0.1-0.5,0.5-0.7,0.7-0.9c1.7-1.7,3.3-3.5,4.6-5.6C246,156.1,246.3,155.7,246.8,155.6z M219.8,159c0.3-0.2,0.7-0.4,1.1,0
			c0.7,0.7,1.4,1.3,2.1,1.9c1.1,0.8,2.2,1.1,3.6,0.7c5.3-1.6,10.6-3.1,16-4.6c0.3-0.1,0.6-0.1,0.9-0.2l0.3,0.1
			c-0.1,0-0.1,0.1-0.1,0.2c-2.7,3.7-6,6.5-10.1,8.4c-3.7,1.7-7.5,3.1-11.6,3.9c-0.1-1.1-0.1-2.2-0.2-3.3c-0.3-2.3-0.9-4.4-1.9-6.4
			C219.8,159.5,219.3,159.2,219.8,159z M219.5,157.3c-3.6,1.1-6.8,2.7-9.8,4.6c-0.4,0.3-0.6,0.3-1,0c-4.8-3.7-10.2-5.9-16-8.1
			c7-2.9,13.7-6,20.4-9.4C214.1,149.3,216.5,153.4,219.5,157.3z M187.5,80.4c0.9-4.6,0.9-9.2,0.9-14.1c2,1.7,4.3,2.6,6.6,3.9
			c4.6,2.7,9.3,2.8,14.1,0.8c1.1-0.5,2.1-0.9,3.2-1.4c0.3,3.8,1.5,6.9,6.1,7.2c-1.2,2-2.7,3.5-4.4,4.7c-4.5,3-9.5,3.9-14.8,3.5
			c-3.9-0.3-7.6-1.4-11-3.2C187.6,81.5,187.3,81.2,187.5,80.4z M150,111.8c-0.7-5.9-1-11.9-0.6-17.9c0.4-6.7,3.7-11,9.9-13.3
			c3.2-1.2,6.4-1.8,9.8-2.3c0.3-0.1,0.8-0.3,0.7,0.4c-0.4,3.2,0.9,5.9,2.6,8.4c0.8,1.2,1.8,2.2,2.8,3.3c0.7,0.8,1.4,1.6,2.1,2.4
			c2.2,2.4,2.9,5.1,1.8,8.2c-0.3,0.9-0.4,1.9-0.6,2.8c-0.4,2.3,0.7,4.3,2.8,5.2c0.7,0.3,1.1,0.1,1.4-0.5c0-0.6-0.4-0.9-0.8-1
			c-1.7-1-2.1-2-1.7-3.9c0.2-1,0.4-1.9,0.7-2.8c0.8-2.9,0.2-5.6-1.6-8c-1.3-1.7-2.8-3.2-4.2-4.8c-1.1-1.2-2-2.5-2.7-3.9
			c-1.2-2.4-1.4-4.9-0.5-7.4c0.5-1.4,1-2.7,1.6-4.1c2-4.9,4-9.8,5.2-14.9c0.3-1.5,0.5-3,0.6-4.5c0-0.4-0.2-0.9,0.3-1
			c0.6-0.1,0.6,0.5,0.7,0.9c0.5,1.9,1.2,3.7,2.1,5.5c0.7,1.5,1.5,3,2.6,4.3c0.6,0.7,0.7,1.5,0.8,2.3c1.1,5.6,1.1,11.2-0.3,16.7
			c-0.9,3.5-0.2,6.5,2.4,9.1c0.7,0.8,1.4,1.5,2.1,2.3c1.6,1.9,2.1,4,1.5,6.4c-0.3,1.1-0.6,2.1-0.9,3.2c-0.6,2.2-0.2,4.1,1.4,5.8
			c0.4,0.3,0.8,0.6,1.2,0.9c0.3,0.2,0.7,0.2,1-0.1c0.3-0.4,0.3-0.8-0.1-1.1c-0.1-0.2-0.3-0.3-0.4-0.4c-1.6-1.3-2-2.9-1.5-4.8
			c0.4-1.4,0.9-2.8,1.1-4.2c0.4-2.5-0.2-4.6-1.8-6.5c-1-1.1-2-2.2-3-3.3c-1.2-1.4-1.8-3-1.7-4.9c0-0.9,0-1.2,1.1-0.7
			c6.4,3.1,13.1,4.1,20.1,2.3c4.8-1.3,8.8-3.8,11.5-8.1c0.2-0.3,0.4-0.6,0.8-0.5c5.8,0.8,11.7,1.2,17.4,2.6c2.4,0.6,4.8,1.4,7,2.6
			c4.5,2.4,6.4,6.3,6.8,11.2c0.5,7.5,0.1,15-0.6,22.4c-0.3,3.2-0.7,6.3-1.2,9.5c-0.1,0.7-0.4,1-1.1,1.3
			c-10.2,3.8-20.3,7.6-30.3,11.8c-1.3,0.6-2.6,1.2-4,1.8c-0.7,0.3-1.2,0.8-1.2,1.6c-0.1,0.6-0.4,0.9-0.9,1.2
			c-6.8,3.4-13.8,6.7-20.9,9.6c-0.7,0.3-1.3,0.3-2,0.2c-2.5-0.5-5.1-0.7-7.7-0.7c-0.8,0-1.1-0.3-1.2-1c-2.2-10.8-4.1-21.6-6-32.4
			c-0.6-3.4-1.2-6.9-1.8-10.3c-0.1-0.6-0.1-1.4-0.9-1.3c-0.9,0.1-0.7,0.9-0.6,1.5c1.2,6.9,2.4,13.8,3.7,20.7
			c1.4,7.4,2.8,14.9,4.2,22.3c0,0.2,0,0.3,0,0.6c-3.3,0-6.5-0.1-9.7,0c-3.6,0.1-7.3,0.3-11,0.5c-0.7,0-0.9-0.2-1.1-0.9
			C154.1,138.8,151.5,125.4,150,111.8z M152.2,169.8c-0.5-5.1,0.2-10,2.5-14.6c0.4-0.8,1.1-0.7,1.7-0.7c4.1-0.2,8.1-0.5,12.2-0.6
			c5.7-0.2,11.4-0.3,17,0.1c2,0.1,4,0.5,6,1.1c4.6,1.6,9.1,3.6,13.4,6.1c0.6,0.4,0.6,0.4,1,1.1c-4.4-2.4-8.9-4.3-13.4-6
			c-0.6-0.2-1.1-0.4-1.4,0.3c-0.2,0.8,0.3,1,0.9,1.2c5.2,2,10.3,4.2,15.1,7.1c1.6,0.9,3.1,1.9,4.4,3.1c0.5,0.5,1,1,1.4,1.5
			c0.2,0.3,0.8,0.8,0.1,1.2s-0.5-0.5-0.7-0.8c-0.8-1.2-1.9-2-3.1-2.7c-4.3-2.5-8.8-4.6-13.4-6.4c-1.5-0.6-3-1.1-4.5-1.7
			c-0.6-0.3-1.3-0.6-1.6,0.2s0.4,1,1,1.2c5.4,1.9,10.6,4.1,15.6,6.8c1.4,0.7,2.8,1.5,4,2.6c0.3,0.3,0.7,0.6,0.5,1.1
			c-0.2,0.4-0.7,0.4-1.1,0.4c-1.5-0.1-3-0.5-4.4-1c-2.2-0.8-4.3-1.6-6.4-2.4c-0.2-0.1-0.5-0.2-0.6-0.3c-2.4-2.3-5.5-3-8.6-3.8
			c-1.9-0.5-3.7-0.9-5.4-1.8c-0.5-0.3-1-0.4-1.3,0.2c-0.3,0.5,0.1,0.9,0.6,1.1c1.8,1,3.8,1.4,5.8,1.9c2,0.4,4,1,5.9,2
			c0.8,0.4,1.4,0.8,1.9,1.5c0.5,0.8,0.3,1.4-0.7,1.6c-1.4,0.2-2.8,0-4.1-0.2c-3.4-0.5-6.8-1-10.3-1.1c-3,0-5.8-0.7-8.6-1.6
			c-4.8-1.5-9.4-1.4-14.1,0.3c-2.1,0.8-4.3,1.6-6.5,2.4C152.5,170.4,152.3,170.4,152.2,169.8z M155,171.3c-0.2,1.2-0.6,2.4-1.3,3.6
			c-0.2-0.3-0.2-0.4-0.3-0.6C152.6,171.7,152.3,172.2,155,171.3z M136.9,182.1c-0.2,0-0.4-0.1-0.8-0.3c5.8-1.8,11.3-3.5,17-5
			c1.4-0.4,2.2-1.2,2.7-2.5c0.2-0.6,0.5-1.2,0.6-1.8c0.1-1.5,1-2.3,2.5-2.6c0.7-0.1,1.4-0.4,2.2-0.7c-0.2,1.8-0.4,3.5-0.6,5.2
			c-0.7,5.3-1.5,10.7-2.2,16c-0.1,1.3-0.1,1.3-1.5,0.9c-0.9-0.3-1.7-0.6-2.6-0.9c-1-0.3-2-0.5-1.9-1.9c0-0.6-0.7-0.7-1.1-0.9
			C146.5,185.7,141.7,183.9,136.9,182.1z M149.2,206.5c-0.3-0.1-1,0-0.6-0.7c2.3-4.5,3.3-9.3,3.8-14.4c1.4,0.5,2.7,0.9,3.9,1.4
			c0.6,0.2,0.5,0.4,0.3,0.8c-0.7,1.2-1.4,2.5,0,3.7c0.4,0.3,0.1,0.6-0.1,0.9c-1.2,2.3-0.4,3.7,2.2,3.7c0.3,0,0.5-0.1,0.7,0.2
			c1.1,1.6,2,1.9,3.8,1.4c0.7-0.2,1.2-0.2,1.7,0.5c0.5,0.6,1.3,0.6,2,0.7c1.6,0.1,3.1-0.4,4.6-0.8c0.3-0.1,0.7-0.4,0.8,0.3
			c0.3,3,0.6,6,0.9,9.2c-2.8-0.8-5.3-1.6-7.9-2.5C160,209.1,154.7,207.6,149.2,206.5z M248.8,218.6c0.1,0.8-0.4,1-0.8,1.2
			c-3.2,1.7-6.6,2.8-10,3.9c-12.6,3.8-25.5,5-38.6,4.7c-9.6-0.3-19.2-1-28.6-2.9c-4.8-1-9.5-2.2-13.9-4.4c-2.3-1.1-1.8-0.8-1.5-2.9
			c0.4-2.5,0.8-4.9,1.2-7.4c0.2-0.9,0.4-1.1,1.3-0.8c4.9,1.6,9.9,3.1,14.9,4.7c0.5,0.2,0.6,0.4,0.7,0.8c0.1,0.7,0.2,1.4,0.5,2
			c0.8,1.9,2.2,2.2,4.2,0.9c0.2,1,0.3,1.9,0.8,2.7c1,2.1,2.6,2.4,4.3,0.8c0.3,0.6,0.5,1.1,0.8,1.6c1.1,1.7,3,1.7,4.1,0.1
			c0.2-0.3,0.4-0.6,0.5-0.9c0.3-0.9,0.6-1.6,1.9-1.4c0.6,0.1,1.1-0.4,1.4-0.9c0.4-0.7,0.9-0.6,1.6-0.5c0.6,0.1,1.3,0.1,2,0.1
			c0.5-0.1,1.2-0.2,1.4-0.6c0.7-1.6,2-1.1,3.2-1c0.1,0,0.1,0,0.2,0c1.7-0.3,3.1-1.2,4.8-1.5c1.2-0.2,1.5-1.9,0.9-3.2
			c-0.3-0.6-0.4-1.1-0.1-1.7c0.5-1.2,0.1-2.2-0.4-3.3c-0.9-1.9-2.1-3.4-3.5-4.8c-1.5-1.6-3.1-3-4.9-4.5c3,0,5.9-0.1,8.7,0
			c3.8,0.1,7.4-0.7,10.9-1.9c2.2-0.8,4.5-1.4,6.7-2.1c0.6-0.2,0.9-0.1,1.2,0.4c1,1.3,1.8,2.6,3,3.7c0.9,0.8,1.8,1.1,3,0.9
			c3.4-0.6,6.7-1.7,10-2.9c1-0.3,2-0.8,3-1.2c0.7-0.3,0.8-0.1,0.9,0.5C246,204.1,247.4,211.4,248.8,218.6z"/>
		<path class="st2" d="M400.2,116c-0.5,1.3-0.4,2.7-0.6,4.1c-1.1,9.5-3.4,18.7-6.1,27.8c-4.8,15.9-11,31.3-18,46.3
			c-0.1,0.2-0.2,0.5-0.4,0.7c-0.3,0.4-0.7,0.6-1.1,0.3c-0.3-0.2-0.5-0.6-0.3-1c0.1-0.3,0.3-0.6,0.4-0.9
			c8.4-17.9,15.6-36.2,20.5-55.3c2.1-8.1,3.6-16.3,4-24.7c0.2-3.7-0.2-7.3-1.4-10.8c-1.5-4.2-4-7.5-7.2-10.4c-2.5-2.2-5.2-4-7.8-6.1
			c-0.4-0.3-0.9-0.2-1.3-0.2c-2.3,0.3-4.4,1.2-6.5,2.1c-5,2.2-9.7,5-14.6,7.2c-2.5,1.1-5,2.1-7.8,2.3c-4.6,0.3-7.7-2.8-7.3-7.2
			c0-0.6,0.1-1.2,0.7-1.6c0.8,0,1.1,0.4,1,1.2c-0.2,0.9-0.2,1.7,0,2.6c0.7,2.5,3,3.8,6,3.5c2.7-0.3,5.2-1.4,7.6-2.5
			c6.7-3.1,12.9-7.3,20.3-9.1c-0.9-1.1-1.5-2.2-1.7-3.6c-0.8-5.5-0.7-11-0.6-16.5c0-0.6,0.2-1,0.9-1.1c0.7,0.2,0.7,0.8,0.7,1.4
			c0,4.2-0.1,8.5,0.2,12.7c0.1,0.9,0.2,1.9,0.3,2.8c0.1,1.7,1,2.9,2.2,4c1.7,1.5,3.6,2.8,5.4,4.2c3.5,2.7,6.8,5.6,9,9.5
			c1.8,3.1,2.8,6.4,3.3,9.9c0,0.2-0.1,0.6,0.2,0.7L400.2,116L400.2,116z"/>
		<path class="st1" d="M288.4,277.1c0.2-0.4,0.6-0.6,0.5-1.1c8,0,16,0,24,0c0.2,0.4,0.3,0.8,0.5,1.1H288.4L288.4,277.1z"/>
		<path class="st2" d="M313.5,277.1c-0.2-0.4-0.3-0.8-0.5-1.1c0-0.1,0-0.1,0-0.2c-0.9-4.5-2.1-8.9-4.4-12.9c-0.3-0.5-0.5-1,0.1-1.4
			c0.7-0.4,1,0.1,1.3,0.6c0.3,0.6,0.7,1.3,1,1.9c1.8,3.8,2.8,7.9,3.7,12c0,0.4-0.1,0.8-0.3,1.1H313.5L313.5,277.1z"/>
		<g>
			<path class="st3" d="M341.1,23v0.1l0,0C341.1,23.1,341.1,23.1,341.1,23z"/>
			<path class="st3" d="M340,24.1h-0.4c0.1,0,0.1,0.1,0.2,0.1c0.4,0.4,0.3,0.9-0.1,1.3c-1.6,1.8-2.1,4-2.2,6.4
				c-0.1,2.3-0.4,4.6-1.4,6.8c0.3,0.3,0.6,0,0.8-0.1c1.9-0.6,3.6-0.5,5.4,0.1c0.5,0.2,0.9,0.5,0.7,1.1c-0.2,0.6-0.7,0.6-1.2,0.4
				c-1.7-0.6-3.4-0.6-5.1,0.2c-0.7,0.4-1,0-1.3-0.6c-0.1,0.1-0.1,0.1-0.2,0.1c-1.8,0.8-1.6,2.3-1.3,3.9c0.4,2,0.9,4.1,1.3,6.2
				c0.6,3,0.4,6,0.6,9c0.2,2.8,1.1,5.3,2.1,7.8c1.7,4.2,4.3,8,7.5,11.3c3.4,3.4,7.2,4.4,11.8,2.6c4-1.5,7.8-3.6,11.2-6.3
				c2-1.6,3.5-3.8,4.8-6c0.3-0.5,0.6-1.1,1.3-0.7c0.7,0.4,0.4,1,0.1,1.5c-1.7,3-3.7,5.7-6.6,7.6c-1.7,1.1-3.1,2.6-4.6,3.9
				c-3.3,2.8-6.8,4.8-11.2,5.1c-0.6,0.1-0.7,0.3-0.7,0.8s0,1.1,0,1.6c0,0.6,0.1,1.3-0.8,1.3c-0.8,0-0.8-0.8-0.8-1.4
				c0-0.8-0.1-1.5-0.1-2.2c-0.7,0-1.2,0.3-1.8,0.5c-0.4,1.3-1.7,0.8-2.5,1.2c-0.1,0.3-0.1,0.7-0.2,1c0.8,0,1.2,0.4,1,1.2
				c-0.2,0.9-0.2,1.7,0,2.6c0.7,2.5,3,3.8,6,3.5c2.7-0.3,5.1-1.4,7.6-2.5c6.7-3.1,12.9-7.3,20.3-9.1c-0.9-1.1-1.5-2.2-1.7-3.6
				c-0.8-5.5-0.6-11-0.6-16.5c0-0.7,0.2-1.1,0.9-1.1c0.1-0.7,0.1-1.5,0-2.3c-0.5,0-1-0.1-1.1-0.7c-0.1-0.7,0.5-0.8,1-1
				c3-0.9,5.3-2.5,6.2-5.6c0.3-1.1,0.5-2.2,0.2-3.4c-0.6-2.8-2.6-4-5.4-3.3c-0.5,0.1-1.2,0.4-1.4-0.4c0-0.1-0.1-0.1-0.1-0.2
				c-0.8,0-1.7,0-2.2,0h-0.2c-0.3,0.2-0.7,0.2-1.1,0.2c-5.6,0.7-10.5-0.9-14.5-4.9c-0.1-0.1-0.3-0.3-0.4-0.4c-1.1,0-2.1,0-2.9,0.1
				c-0.3,0.7-0.9,0.7-1.5,0.7c-3.1,0.1-5.7-1-8-3.1c-2.6-2.4-3.8-5.5-4.4-8.9c-0.3-1.8-0.7-3.5-1.3-5.2c-0.2-0.6-0.4-1.1-0.7-1.6
				C341.1,24,341,24.1,340,24.1z M379,53.3c0.4-0.8,1-1.5,1.7-2.1c0.3-0.2,0.6-0.3,0.9-0.1c0.2,0.1,0.4,0.4,0.4,0.7
				c-0.1,0.1-0.1,0.4-0.2,0.6c-0.6,0.5-1.1,1.1-1.5,1.7c-0.3,0.4-0.7,0.5-1.1,0.3C378.8,54.1,378.8,53.7,379,53.3z M359.5,46.7
				c1.2,0,2.2,1.2,2.2,2.7c0,1.3-0.9,2.5-2,2.5c-1.2,0-2.2-1.2-2.2-2.7C357.5,47.8,358.4,46.8,359.5,46.7z M349.1,53.5
				c-0.3-1.8-0.8-3.6-1.5-5.3c-0.2-0.6-0.5-1.2,0.2-1.5c0.8-0.4,1,0.3,1.2,0.9c0.9,2.2,1.6,4.5,1.7,6.9c0.1,1.5-0.6,2.7-1.7,3.8
				c-1.2,1.1-1.2,1.4-0.1,2.6c0.2,0.3,0.4,0.5,0.6,0.7c0.3,0.4,0.3,0.8-0.1,1.1c-0.3,0.3-0.7,0.3-1,0c-2.2-2.1-2.6-3.7-0.5-5.5
				C349.1,56.2,349.3,55,349.1,53.5z M345,68c0.2-0.7,0.8-0.5,1.3-0.3c4.1,1.2,8,0.5,11.8-1.2c0.2-0.1,0.4-0.4,0.6-0.6
				c0.4-0.3,0.9-0.5,1.3,0s0.4,1-0.2,1.4c-0.5,0.3-0.9,0.6-1.4,0.8c-2.7,1.2-5.4,1.8-8.3,1.8c-1.5,0-3-0.1-4.2-0.7
				C345.3,69,344.7,68.8,345,68z M343.5,50.6c0,1.4-0.7,2.5-1.7,2.5c-0.9,0.1-1.8-0.7-2.1-1.9c-0.3-1.1-0.2-2.1,0.7-2.9
				c0.5-0.4,1-0.5,1.6-0.2C343.1,48.6,343.4,49.6,343.5,50.6z"/>
		</g>
		<path class="st0" d="M78.4,58.7c0,0.8-0.1,1.5-0.1,2.3c-1.9-4-3.9-8-6.2-11.9c-2.1-3.5-3.8-7.1-5.2-11c-0.8-2.2-1.6-4.4-2.4-6.6
			c-0.4-1.3-1-2.5-2-3.4c-1.7-1.8-3.9-1.9-5.7-0.2c-0.4,0.4-0.7,0.7-0.3,1.3c0.4,0.5,0.8,0.3,1.3,0c2-1.5,3.6-0.9,4.5,1.5
			c-0.2,0-0.4,0.1-0.5,0c-2.1-0.6-4.3-0.7-6.5-0.4c-2.7-2.2-5-1.8-6.7,1.2c-0.5,0.8-0.8,1.6-1.2,2.5c-1.1,2.5-2,5.1-3.2,7.6
			c-0.5,1.1-1.1,2.1-2.5,2.3c-0.3,0-0.7,0.3-1,0.5c-0.4,0.2-0.8,0.5-0.7,1c0.2,0.6,0.6,0.7,1.2,0.5c0.1,0.1,0.1,0.2,0.2,0.2
			c-2.8,4.2-6.5,5.6-11.3,4.4c-1.1-0.3-1.4,0-1.2,1.2c-0.8,0-1.6,0-2.5,0c-0.2-0.4-0.6-0.5-1-0.7c-3.2-0.8-6.1,0.9-6.9,4.1
			c-0.9,3.6,1.1,7.6,4.6,9.4c1,0.5,2.1,0.8,3.2,1.2c0.1,0.8,0.2,1.7,0.3,2.5c-0.6,0.3-0.6,0.9-0.5,1.5c0.3,2.8,0.4,5.5,0.2,8.3
			c-0.1,2.2-0.4,4.4-1.1,6.6c-0.2,0.7-0.5,0.9-1.2,0.8c-3.5-0.5-5.1-2.2-5.6-5.8c-0.1-0.6-0.2-1.1-0.9-1.1c-0.7,0.1-0.7,0.6-0.7,1.2
			c0.1,1.3,0.5,2.6,1.1,3.8c-1.8,0.2-3.5,0.5-5.3,0.4c1.2-0.9,2.2-2,2.5-3.5c0.1-0.5,0-1-0.6-1.2c-0.6-0.1-0.8,0.2-1,0.7
			C12.9,82,11.4,83,9.3,83c-0.6,0-1,0.2-1.1,0.7c-1.1-0.2-2.2-0.4-3-1.2c3.7-2.8,3.3-6.8,0.4-9.6c-0.7-0.7-1.3-1.5-1.9-2.2
			c-1.8-2.3-2.3-5-1.9-7.8C2.1,60.5,3,58.2,4,56.1c1.6-3.4,3.3-6.8,4.9-10.3c2-4.3,3.1-9,4.6-13.5c1.7-4.9,3.7-9.6,8.2-12.7
			c0.5-0.4,0.4-0.8,0.2-1.3c0.9-0.8,1.8-1.4,2.8-1.8c-0.1,0.4-0.1,0.9,0.4,1.1c0.5,0.2,0.9-0.1,1.2-0.4c1-1,2.2-1.7,3.5-2.3
			c2.8-1.1,5.8-1.6,8.9-1.6c6.9-0.1,13.7,0.4,20,3.8c0.6,0.3,1.1,0.2,1.2-0.6c1,0.5,1.8,1.2,2.4,2.1c-0.5,0.2-1.1,0.3-1,1
			c0.1,0.6,0.5,0.7,1,0.6c3.1-0.3,5.4,1.1,7.4,3.2c1.6,1.7,2.7,3.7,3.4,5.8c3.3,9.1,5.2,18.4,4.8,28.1C77.9,57.9,78,58.3,78.4,58.7
			L78.4,58.7z M48.2,18.2c-0.4,0.1-0.7,0.2-0.8,0.6c-0.1,0.5,0.2,0.8,0.7,1c1.8,0.6,3,1.9,3.9,3.5c0.5,0.7,0.8,1.5,1.2,2.3
			c0.2,0.4,0.6,0.6,1,0.4s0.6-0.6,0.4-1c-1.1-2.7-2.7-5.1-5.5-6.4C48.8,18.4,48.5,18.3,48.2,18.2L48.2,18.2z"/>
		<path class="st4" d="M211.7,4.7c-0.2,0.8,0.1,1.2,0.9,1.2c4.3,0.4,7.2,2.9,9.1,6.7c3.4,6.9,5.2,14.2,3.1,21.8
			c-0.4,1.3-0.8,2.7-1.4,3.9c-0.2,0.4-0.3,0.6-0.8,0.5c-1.4-0.4-2.8-0.2-4.1,0.3c-1-0.4-2.2-0.2-3-1.1c0.6,0,1.5,0.4,1.7-0.6
			c0.2-0.9-0.7-0.9-1.3-1.1c-1.6-0.5-2.9-1.5-4-2.8c-0.2-0.2-0.6-0.4-0.2-0.7c1-0.9,0.2-1.4-0.5-1.7c-0.6-0.3-1.2-0.5-1.3-1.2
			c-0.1-0.5-0.2-1-0.3-1.5c-0.2-0.9-0.6-1.3-1.5-0.7c-0.3-0.7-0.7-1.4-0.8-2.3c0-0.3,0-0.6,0.1-0.9c0.5-2.1,0.6-4.2,0.1-6.4
			c-0.1-0.5-0.4-1.1-1-0.9c-0.7,0.1-0.7,0.7-0.6,1.2c0.1,0.3,0.1,0.6,0.2,0.9c0.9,6.1-3,12.1-7.9,13.2c-0.6,0.1-1,0.3-1,1
			c-0.8,0-1.5,0.2-2.3-0.1c2.1-2.1,3.9-4.2,5-7c0.2-0.6,0.5-1.2-0.3-1.5s-1,0.4-1.2,1c-0.9,2.5-2.5,4.4-4.5,6.2
			c-0.2-0.6-0.6-0.9-1.1-1c-1.9-0.7-3.9-0.6-5.7,0.3c-0.5,0.3-1.2,0.5-0.9,1.3c0.4,0.8,1,0.4,1.5,0.1c1.7-0.8,3.3-0.8,5,0
			c-0.1,0.1-0.1,0.2-0.1,0.2c-3.2,2.4-6.7,3.8-10.7,3c-0.6-0.1-1,0-1.2,0.5c-0.2,0.6,0.2,0.9,0.8,1c0.3,0.1,0.7,0.1,1,0.2
			c1.8,0.4,3.6-0.1,5.4-0.3c-0.1,0.4-0.6,0.5-0.9,0.6c-1.7,0.8-3.5,1.3-5.4,1.4c-1.9-1.2-3.8-1.5-5.8-0.5c-0.5,0.2-0.7,0.3-0.9-0.3
			c-4.7-13.8,1.1-31.4,16.7-36.3c4.1-1.3,8.2-1.6,12.4-0.6c2.2,0.5,4.1,1.3,4.8,3.9c0.1,0.5,0.5,0.7,1,0.5c0.5-0.1,0.6-0.5,0.5-1
			c-0.1-0.6-0.3-1.1-0.5-1.6C210.6,3.7,211.2,4.1,211.7,4.7L211.7,4.7z"/>
		<path class="st3" d="M26.3,51.6c0.8,0,1.6,0,2.5,0c3.1,1.2,6.2,1.2,9.2-0.4c2.2-1.2,3.8-3,5.2-5c1.1-1.6,1.3-1.7,3.2-1.2
			c0.3,0.1,0.7,0.2,1,0.3c0.5,0.2,1,0.2,1.2-0.5c0.2-0.6-0.2-0.8-0.7-1c-0.9-0.3-1.8-0.5-2.8-0.6c0.3-0.8,0.7-1.5,1-2.2
			c1.2-2.8,2.3-5.7,3.6-8.4c1-2.1,2.2-2.4,4.2-1.4c0.9,0.5,1.3,0.2,1.3-0.9c2.2-0.3,4.3-0.2,6.5,0.4c0.2,0,0.4,0,0.5,0l0,0
			c0,0.2,0.1,0.2,0.2,0.3c0.4,0.4,0.5,0.9,0.7,1.4c1.4,3.9,2.7,7.9,4.5,11.6c0.7,1.5,1.1,3.2,0.8,4.9c-0.6,4.3-1.2,8.7-1.3,13.1
			c0,1.7-0.2,3.3-0.5,5c-1,5.3-4,9.4-7.6,13.2c-3.5,3.6-7.6,4.9-12.5,3.1c-5.3-1.9-10.2-4.2-13.5-9.1c-0.3-0.4-0.7-0.7-1.1-0.4
			c-0.5,0.3-0.4,0.8-0.1,1.3c1.1,1.8,2.5,3.3,4.2,4.6c2,1.4,3.9,3,5.8,4.6c2.9,2.4,6.2,4,10,4.5c0.7,0.1,0.7,0.4,0.7,0.9
			c0,1,0,2.1,0,3.1c0,0.6,0.2,1,0.8,1s0.8-0.5,0.8-1.1c0-0.5,0-1.1,0-1.6c1,0.1,1.9,0.5,2.8,0.9c0.3,0.9,1.2,0.9,1.8,1.2
			c0.4,0.2,0.8,0.3,1.1,0.4c-0.1,0.2-0.2,0.4-0.3,0.7c-0.7-0.2-1,0.1-1.3,0.7c-1,2.2-2.8,3.6-5,4.4c-1.6,0.6-3.3,0.9-5,0.9
			c-3.8,0-7.3-1.1-10.7-2.8c-3.8-1.9-7.4-4.2-11-6.3c-0.9-0.5-1.8-1.1-2.8-1.6c1.7-1.5,2.6-3.4,3.1-5.4c1.3-4.9,1.1-9.9,0.6-14.9
			c-0.1-0.6-0.4-1-1-1c-0.1-0.8-0.2-1.7-0.3-2.5c0.5,0,1-0.1,1.1-0.7c0.1-0.7-0.5-0.8-1-1c-0.3-0.1-0.6-0.2-0.9-0.2
			c-3-0.9-4.9-2.8-5.5-5.9c-0.7-3.8,2-6.5,5.1-5.4C25.8,52.8,26.3,52.5,26.3,51.6L26.3,51.6z M52.6,77.9c1.1,0,2.5-0.7,3.8-1.9
			c1.4-1.3,2.3-3,3-4.8c0.7-1.7,0.7-2.5-1.5-2.2c-0.4,0.1-0.8,0-1.2,0.1c-3.6,0.1-7.2-0.1-10.8-0.6c-1.5-0.2-1.7,0.1-1.4,1.5
			c0.4,1.9,1.1,3.6,2.3,5.2C48,76.9,49.8,77.9,52.6,77.9L52.6,77.9z M55.7,51.8c0.1-0.5-0.1-0.9-0.5-1c-0.5-0.1-0.8,0.2-0.9,0.6
			c-0.8,2.3-1.5,4.6-1.5,7.1c0,1,0.2,2,1,2.7c1.5,1.3,2.2,2.5,0.4,4.1c-0.3,0.3-0.2,1,0.2,1.3c0.5,0.3,0.9,0,1.1-0.5
			c0.2-0.4,0.6-0.8,0.9-1.2c0.9-1.4,0.9-2.5-0.5-3.6c-1.6-1.3-1.9-2.9-1.5-4.8C54.7,54.8,55.1,53.3,55.7,51.8z M46,53.9
			c0-1.4-0.9-2.5-1.9-2.5c-1.1,0-2,1.1-2,2.5s0.8,2.5,1.9,2.5C45.1,56.4,46,55.2,46,53.9z M63.1,54.2c0-1.3-0.8-2.3-1.7-2.3
			c-1,0-1.9,1.2-1.9,2.7c0,1.3,0.8,2.3,1.7,2.3C62.2,56.9,63.1,55.6,63.1,54.2L63.1,54.2z M66.7,45.1c0-0.4-0.2-0.7-0.6-0.8
			c-2-1.1-4.1-1.1-6.2-0.2c-0.5,0.2-0.7,0.6-0.5,1.1c0.2,0.4,0.6,0.5,1.1,0.3c1.7-0.7,3.4-0.7,5,0.2C66.2,46.1,66.5,45.7,66.7,45.1
			L66.7,45.1z M23.5,56.2c-0.3,0.1-0.6,0.2-0.7,0.5s0,0.6,0.2,0.8c0.6,0.5,1.1,1,1.5,1.7c0.2,0.3,0.5,0.4,0.8,0.3
			c0.3-0.1,0.5-0.3,0.6-0.6C26.1,58.2,24.3,56.2,23.5,56.2L23.5,56.2z"/>
		<path class="st0" d="M74.6,88.6c-0.5,0-0.9,0-1.4-0.1c-0.3-0.6-0.8-0.6-1.3-0.8c-2.4-0.6-3.7-2.3-3.8-4.8c0-0.2,0-0.4,0-0.6
			c0-0.4-0.3-0.7-0.7-0.8c-0.5,0-0.8,0.3-0.8,0.8c0,0.2,0,0.4,0,0.7c-0.1,1.7,0.8,3.1,1.6,4.5C66.5,87.1,65,86,63.6,85
			c0.2-0.5,0.3-1,0.5-1.5c0.1-0.5,0-0.9-0.5-1.1c-0.5-0.1-0.9,0.2-1,0.7c-0.7,2.6-2.4,3.8-5,4c-0.8,0.1-1.1,0.4-1,1.2
			c-0.8,0-1.6,0.1-2.4,0.1c0-1,0.1-2,0.2-2.9c0-0.4,0.2-0.6,0.5-0.8c4.1-1.8,6.9-5.1,9.4-8.7c2.3-3.3,3.9-7,4.1-11.2
			c0.2-3.1,0.3-6.2,0.6-9.3c0.2-2.2,0.7-4.4,1-6.9c2.9,5,5.5,9.9,7.6,15c2.2,5.4,2.1,10.6-1.4,15.5c-0.9,1.3-1.7,2.7-2.3,4.2
			C73.3,85.2,73.3,87,74.6,88.6L74.6,88.6z"/>
		<path class="st2" d="M26.5,68.2c0.6,0,0.9,0.4,1,1c0.5,5,0.6,10-0.6,14.9c-0.5,2.1-1.5,3.9-3.1,5.4c1,0.6,1.9,1.1,2.8,1.6
			c3.7,2.2,7.2,4.5,11,6.3c3.4,1.7,6.9,2.8,10.7,2.8c1.7,0,3.4-0.3,5-0.9c2.2-0.9,3.9-2.3,5-4.4c0.3-0.6,0.7-0.9,1.3-0.7
			c0.5,0.6,0.2,1.1,0,1.7c-2,3.7-5.4,5.3-9.4,5.8c-4.4,0.6-8.5-0.6-12.4-2.4c-4.2-1.9-8.1-4.3-11.9-6.8c-2.2-1.4-3.9-1.8-6.1,0
			c-1.8,1.4-3.9,2.3-5.9,3.4c-6.6,3.7-9.7,9.4-10,16.9c-0.3,6.8,0.8,13.4,2.2,20c4,19.4,10.1,38.2,16.8,56.8
			c0.1,0.2,0.1,0.4,0.2,0.5c0.2,0.6,0.4,1.2-0.3,1.4c-0.8,0.3-1-0.4-1.1-0.9c-4.9-13.2-9.2-26.5-12.9-40.1c-2.3-8.5-4.4-17-5.6-25.8
			c-0.8-5.5-1.3-11.1-0.1-16.6c1.1-5,3.6-9,7.8-12c2.5-1.8,5.3-3.2,8-4.7c1.9-1.1,3.6-2.2,5-3.9c0.1-0.1,0.1-0.2,0.3-0.5
			c-2.5-0.4-4.7-1.3-6.1-3.4c-0.6-1.2-1-2.4-1.1-3.8c0-0.6,0-1.1,0.7-1.2s0.8,0.5,0.9,1.1c0.5,3.6,2.2,5.3,5.6,5.8
			c0.7,0.1,1-0.1,1.2-0.8c0.7-2.1,1-4.3,1.1-6.6c0.1-2.8,0-5.5-0.2-8.3C25.9,69.1,25.8,68.5,26.5,68.2L26.5,68.2z"/>
		<path class="st2" d="M74.6,88.6c-1.3-1.6-1.3-3.4-0.6-5.2c0.6-1.5,1.4-2.9,2.3-4.2c3.5-4.9,3.6-10.1,1.4-15.5
			c-2.1-5.1-4.7-9.9-7.6-15c-0.4,2.5-0.8,4.7-1,6.9c-0.3,3.1-0.5,6.2-0.6,9.3c-0.2,4.2-1.7,7.8-4.1,11.2c-2.5,3.6-5.3,6.9-9.4,8.7
			c-0.4,0.2-0.5,0.4-0.5,0.8c-0.1,1-0.3,1.9-0.2,2.9c-0.3,0.8-0.2,1.7-0.2,2.5c0,0.5-0.1,1.1,0,1.6c0,0.6-0.2,1-0.8,1.1
			s-0.8-0.4-0.8-1c0-1,0-2.1,0-3.1c0-0.5,0-0.8-0.7-0.9c-3.8-0.5-7.1-2.1-10-4.5c-2-1.6-3.8-3.2-5.8-4.6c-1.7-1.2-3.1-2.8-4.2-4.6
			c-0.3-0.5-0.4-0.9,0.1-1.3c0.5-0.3,0.9-0.1,1.1,0.4c3.3,4.9,8.2,7.2,13.5,9.1c4.9,1.7,9,0.5,12.5-3.1c3.7-3.8,6.6-7.9,7.6-13.2
			c0.3-1.6,0.4-3.3,0.5-5c0.1-4.4,0.7-8.8,1.3-13.1c0.2-1.7-0.1-3.3-0.8-4.9c-1.8-3.8-3.1-7.7-4.5-11.6c-0.2-0.5-0.3-1-0.7-1.4
			c0-0.1,0-0.3-0.2-0.3l0,0c-0.9-2.4-2.5-3-4.5-1.5c-0.5,0.3-0.9,0.5-1.3,0c-0.4-0.5-0.1-0.9,0.3-1.3c1.8-1.7,4-1.6,5.7,0.2
			c0.9,1,1.5,2.2,1.9,3.4c0.8,2.2,1.6,4.4,2.4,6.6c1.4,3.8,3.2,7.5,5.2,11c2.3,3.8,4.3,7.8,6.2,11.9c0.8,2.2,1.6,4.5,2.2,6.8
			c0.7,3.1,0.3,6.1-1.1,8.9c-0.8,1.6-1.8,3.2-2.7,4.8c-0.5,0.9-1.1,1.9-1.4,2.9c-0.5,1.6-0.2,2.6,1,3.6c0.5,0.4,1.1,0.8,0.6,1.4
			c-0.6,0.8-1.1,0.1-1.6-0.3C75.1,89,74.8,88.8,74.6,88.6L74.6,88.6z"/>
		<path class="st2" d="M332.4,45.4c-0.1-0.9-0.2-1.9-0.3-2.8c0-0.4-0.2-0.6-0.5-0.8c-0.6-0.5-0.6-1.1,0.2-1.4c3.3-1.1,3.8-3.9,4-6.8
			c0.1-1.8,0.1-3.6,0.7-5.3c0.4-1.3,1-2.5,1.9-3.6c0.4-0.4,0.8-0.7,1.3-0.2c0.5,0.4,0.3,0.9-0.1,1.3c-1.6,1.8-2.1,4.1-2.2,6.4
			c-0.1,2.4-0.4,4.7-1.4,6.8l-0.1,0.1h0.1c0,0,0-0.1,0-0.2c0.3,0.3,0.5,0,0.8-0.1c1.8-0.6,3.6-0.5,5.4,0.1c0.5,0.2,0.9,0.5,0.7,1.1
			c-0.2,0.6-0.7,0.6-1.2,0.4c-1.7-0.6-3.4-0.7-5.1,0.2c-0.7,0.4-1-0.1-1.3-0.6c-0.1,0-0.1,0-0.2,0.1c-1.8,0.8-1.6,2.3-1.3,3.9
			c0.4,2.1,0.9,4.2,1.3,6.2c0.6,3,0.4,6,0.6,9c0.2,2.7,1.1,5.3,2.1,7.8c1.8,4.2,4.3,8,7.5,11.3c3.4,3.5,7.2,4.4,11.8,2.6
			c4.1-1.6,7.8-3.6,11.2-6.3c2-1.6,3.5-3.8,4.8-6c0.3-0.5,0.6-1.1,1.3-0.7c0.7,0.4,0.4,0.9,0.1,1.5c-1.7,3-3.7,5.7-6.6,7.6
			c-1.7,1.1-3.1,2.6-4.6,3.9c-3.3,2.7-6.9,4.8-11.2,5.1c-0.5,0-0.7,0.2-0.7,0.8c0,0.5,0,1.1,0,1.6c0,0.6,0.1,1.4-0.8,1.3
			c-0.8,0-0.8-0.8-0.8-1.4c0-0.7-0.1-1.4-0.1-2.2c0-0.2,0-0.4,0-0.6c0.1-1.5-0.2-2.5-1.9-3.2c-1.9-0.8-3.4-2.3-4.7-3.8
			c-4.5-5.1-7.7-10.8-9-17.5c-0.3-1.6-0.4-3.2-0.3-4.9C334,52.4,333.3,48.9,332.4,45.4L332.4,45.4z"/>
		<path class="st2" d="M90.5,159.7c-0.1,0.5-0.4,0.9-1.1,0.6c-0.4-0.2-0.7-0.5-1-0.8c-8-7.2-15.1-15.3-22.1-23.4
			c-7.6-8.7-14.9-17.6-22.9-25.9c-3.7-3.8-7.4-7.5-12-10.2c-0.5-0.3-0.8-0.6-0.5-1.2c0.3-0.5,0.8-0.4,1.3-0.1c2.1,1.2,4,2.7,5.8,4.3
			c5.8,5,10.8,10.7,15.9,16.4c8.5,9.7,16.8,19.7,25.6,29.1c3.3,3.5,6.7,6.9,10.2,10.1C90.1,158.8,90.5,159.1,90.5,159.7L90.5,159.7z
			"/>
		<path class="st2" d="M21.8,18.4c0.2,0.5,0.3,0.9-0.2,1.3c-4.5,3.1-6.5,7.8-8.2,12.7c-1.5,4.5-2.6,9.1-4.6,13.4
			C7.3,49.3,5.6,52.6,4,56.1c-1,2.2-1.9,4.4-2.3,6.8c-0.5,2.9,0.1,5.5,1.9,7.8c0.6,0.8,1.2,1.6,1.9,2.2c2.9,2.8,3.3,6.8-0.4,9.6
			c0,0.1-0.1,0.1-0.2,0.1c-0.5,0.3-1.1,0.8-1.6,0c-0.5-0.9,0.3-1.1,0.8-1.4c2.3-1.5,2.7-4.1,1-6.2c-0.4-0.5-0.9-1.1-1.4-1.5
			C0,69.6-0.9,65,0.8,59.9c0.5-1.6,1.1-3.2,1.8-4.6c3.9-7.6,7.1-15.5,9.4-23.7c0.9-3.2,2.3-6.2,4.3-9c1.1-1.5,2.4-2.8,3.9-3.9
			C20.8,18.3,21.3,18.1,21.8,18.4z"/>
		<path class="st2" d="M78.4,58.7c-0.4-0.3-0.6-0.7-0.5-1.3c0.5-9.7-1.5-19-4.8-28c-0.8-2.1-1.9-4.1-3.4-5.8c-2-2.2-4.4-3.5-7.4-3.2
			c-0.5,0-0.9-0.1-1-0.6c-0.1-0.7,0.5-0.8,1-1c4.4-0.1,7.6,2.1,10,5.5c2.2,3.3,3.4,7,4.4,10.8c1.7,6,2.8,12.2,3,18.5
			c0,1.4-0.1,2.7-0.1,4.1C79.5,58.1,79.2,58.6,78.4,58.7L78.4,58.7z"/>
		<path class="st2" d="M370.8,8c-0.4,0.6-0.9,0.8-1.5,0.3c-6-4.6-12.5-4.5-19.2-1.7c-2.4,1-4.6,2.4-6.8,3.8c-2.2,1.5-4.5,2.9-7,4
			c-0.1,0-0.3,0-0.3,0.2v-0.1h-0.1c-1.4,0.5-2.9,0.8-4.4,1c-0.6,0.1-1.1,0-1.2-0.7s0.4-0.9,1-0.9c3.1-0.2,5.8-1.4,8.4-3
			c2-1.3,4-2.7,6.1-3.9c4.5-2.6,9.2-4.4,14.5-4c3.7,0.2,7,1.7,10,3.9C370.6,7.2,370.7,7.6,370.8,8z"/>
		<path class="st2" d="M378.8,60.9c-0.5,0-1,0-1.1-0.7s0.5-0.8,1-1c3-0.8,5.3-2.5,6.2-5.6c0.3-1.1,0.4-2.2,0.2-3.4
			c-0.6-2.8-2.7-4-5.4-3.3c-0.6,0.1-1.2,0.4-1.4-0.4c-0.2-0.8,0.5-1,1-1.2c2.9-0.8,5.1,0.1,6.8,2.7c1.9-4.2,3-8.5,3.3-13
			c0-0.7,0-1.4,0.9-1.6c0.6,0.3,0.7,0.7,0.7,1.4c-0.3,5.1-1.6,10-3.9,14.6c-0.3,0.5-0.4,1-0.3,1.6c0.2,3.7-2,7.2-5.5,8.8
			C380.5,60.3,379.6,60.6,378.8,60.9L378.8,60.9z"/>
		<path class="st2" d="M59.8,16.5c-0.1,0.8-0.6,0.9-1.2,0.6c-6.2-3.4-13-3.9-20-3.8c-3,0-6,0.5-8.9,1.6c-1.3,0.5-2.5,1.2-3.5,2.3
			c-0.3,0.4-0.7,0.7-1.2,0.4c-0.5-0.2-0.5-0.6-0.4-1.1c2.6-2.9,6.1-4,9.8-4.5c7.5-1,14.8-0.3,22,2.2c0.9,0.3,1.7,0.8,2.5,1.2
			C59.4,15.7,59.7,16.1,59.8,16.5L59.8,16.5z"/>
		<path class="st2" d="M333.4,17.2c0.3,0.7-0.1,1-0.6,1.4c-3.9,3.3-5.8,7.5-6.3,12.4c-0.2,1.9,0.2,3.8,1.2,5.4
			c0.8,1.3,1.6,2.6,2.4,3.8c1,1.6,1.5,3.4,1.3,5.3c-0.1,0.2-0.1,0.4-0.2,0.6c-0.1,0.4-0.4,0.8-0.9,0.7s-0.8-0.5-0.6-1
			c0.5-1.8-0.1-3.4-1-4.9c-0.5-0.9-1.1-1.8-1.7-2.7c-2.1-3-2.6-6.2-1.8-9.7c1-4.4,3-8.2,6.5-11.2C332.2,17,332.8,16.6,333.4,17.2
			L333.4,17.2z"/>
		<path class="st2" d="M390,28.1c-1.3-2-1.8-4.4-2.5-6.6c-0.8-2.6-1.7-5.1-3.4-7.3c-2.4-3.2-5.5-4.9-9.6-4.1
			c-0.4,0.1-0.8,0.1-1.1-0.2c-0.3-0.4-0.1-0.8,0.1-1.1c4.6-1.2,8.4,0.3,11.4,3.8c2.4,2.8,3.5,6.1,4.5,9.6c0.8,2.7,1.7,5.3,4.1,7.2
			c0.4,0.3,0.5,0.8,0.2,1.2c-0.4,0.4-0.8,0.4-1.2,0C391.6,29.7,390.8,28.9,390,28.1L390,28.1z"/>
		<path class="st2" d="M8.1,122.3c0-0.5,0-1.1,0-1.6s0.2-0.9,0.8-0.9s0.7,0.4,0.8,0.9c0.1,1.6,0.1,3.2,0.3,4.8
			c0.9,7.1,2.8,13.9,6.6,20c0.3,0.5,0.5,1-0.1,1.4s-1-0.1-1.3-0.6c-2.6-4-4.2-8.4-5.4-13.1C8.9,129.6,8.3,126,8.1,122.3L8.1,122.3z"
			/>
		<path class="st2" d="M68.1,87.7c-0.8-1.4-1.7-2.8-1.6-4.5c0-0.2,0-0.5,0-0.7c0.1-0.5,0.3-0.8,0.8-0.8c0.4,0,0.7,0.3,0.7,0.8
			c0,0.2,0,0.4,0,0.6c0.1,2.5,1.3,4.1,3.8,4.8c0.5,0.1,1.1,0.2,1.3,0.8c-0.1,0.9-0.6,1-1.4,0.9C70.4,89.2,69.3,88.3,68.1,87.7
			L68.1,87.7z"/>
		<path class="st2" d="M56.5,88.4c-0.1-0.8,0.2-1.1,1-1.2c2.5-0.2,4.3-1.4,5-4c0.1-0.5,0.4-0.8,1-0.7c0.5,0.1,0.7,0.6,0.5,1.1
			c-0.1,0.5-0.3,1-0.5,1.5c-1.3,2.2-3.1,3.4-5.7,3.7C57.4,88.9,56.9,88.9,56.5,88.4L56.5,88.4z"/>
		<path class="st2" d="M8.2,83.7C8.4,83.1,8.8,83,9.3,83c2.1,0,3.6-0.9,4.2-3.1c0.1-0.5,0.4-0.9,1-0.7c0.6,0.2,0.7,0.6,0.6,1.2
			c-0.4,1.5-1.3,2.6-2.5,3.5c-1,0.4-2,0.8-3.1,0.7C8.7,84.6,8.2,84.4,8.2,83.7L8.2,83.7z"/>
		<path class="st5" d="M314.7,276c-0.9-4.1-1.9-8.2-3.7-12c-0.3-0.6-0.6-1.3-1-1.9c-0.3-0.5-0.6-1.1-1.3-0.6
			c-0.6,0.4-0.4,0.9-0.1,1.4c2.3,4,3.5,8.4,4.4,12.9c0,0.1,0,0.1,0,0.2c-8,0-16,0-24,0c-0.2-9.8-0.5-19.6-0.1-29.4
			c0-0.1,0-0.1,0.1-0.1c14.2,5.8,29,8.1,44.2,7.1c15.1-1,29.7-4.1,43.4-10.9c0.4,1.6,0.5,3.3,0.6,5c0.6,8.8,0.3,17.7-0.5,26.5
			c-0.1,0.6-0.1,1.2-0.1,1.8c-19.8,0-39.6,0-59.5,0C316.3,275.9,315.5,275.9,314.7,276L314.7,276z"/>
		<path class="st2" d="M391.1,117.4c-0.6,6.7-1.6,13.2-4.4,19.4c-1.4,3.2-3.3,6-6.1,8.2c-0.3,0.2-0.6,0.5-1,0.5
			c-0.3,0-0.6-0.2-0.7-0.5c-0.1-0.4,0-0.7,0.2-0.9c6.5-5.2,8.2-12.8,9.5-20.4c0.4-2.3,0.6-4.7,0.8-7c0.1-0.6,0-1.4,0.8-1.4
			c1,0,0.7,0.9,0.7,1.5C391.1,117.1,391.1,117.2,391.1,117.4L391.1,117.4z"/>
		<path class="st6" d="M160.6,275.9c-0.5-4.1-1-8.1-1.5-12.2c-1.4-11.4-3-22.7-2.6-34.2c0.1-2.1,0.2-4.2,0.4-6.4
			c6,2.5,12.1,4,18.3,4.9c18.6,2.6,37.2,3.3,55.8-0.8c5.4-1.2,10.7-2.8,15.8-5.1c0.7-0.3,0.8-0.2,0.9,0.5
			c0.8,10.1,0.7,20.2,0.3,30.4c-0.3,7.7-0.8,15.3-1.5,22.9c-11.3,0-22.6,0-34,0c-0.4,0-0.8,0-1.1,0c-2-8.8-4-17.5-6-26.3
			c-0.2-0.7-0.2-1.3,0-2c0.7-2.8,1.8-5.5,3.4-7.9c0.3-0.5,0.6-1-0.1-1.4c-0.6-0.4-1,0.1-1.3,0.6c-0.9,1.3-1.6,2.8-2.2,4.2
			c-1.6,3.7-2.1,7.6-2.6,11.5c-1,7.1-1.9,14.2-2.7,21.3C186.8,275.9,173.7,275.9,160.6,275.9L160.6,275.9z"/>
		<path class="st5" d="M17.1,276.2c0.1-4.9,0.6-9.7,1.2-14.5c0.5-4.8,1.2-9.5,1.7-14.2c0.1-0.5,0.1-0.9,0.8-0.6
			c6.9,3.2,14.3,4.9,21.8,6.2c11.3,1.9,22.7,3,34.2,2.8c10.9-0.2,21.7-1.8,32-5.6c1.2-0.5,2.4-1.1,3.6-1.6c0.4-0.2,0.7-0.4,0.7,0.3
			c1.1,9,1.9,18.1,2.4,27.2c-0.3,0-0.7,0.1-1,0.1C82.1,276.2,49.6,276.2,17.1,276.2L17.1,276.2z"/>
		<path class="st2" d="M200,275.9c0.8-7.1,1.7-14.2,2.7-21.3c0.5-3.9,1-7.8,2.6-11.5c0.6-1.5,1.3-2.9,2.2-4.2
			c0.3-0.5,0.6-0.9,1.3-0.6c0.6,0.4,0.4,0.9,0.1,1.4c-1.5,2.5-2.6,5.1-3.4,7.9c-0.2,0.7-0.2,1.3,0,2c2,8.8,4,17.5,6,26.3
			c-0.2,0.4-0.5,0.7-1,0.5c-0.6-0.1-0.6-0.7-0.7-1.1c-1.5-6.4-2.9-12.8-4.4-19.3c-0.2-0.9-0.4-1.9-0.9-2.8
			c-0.6,4.7-1.2,9.5-1.8,14.2c-0.3,2.6-0.6,5.3-0.9,7.9c-0.1,0.4-0.1,0.9-0.6,1C200.6,276.5,200.2,276.3,200,275.9L200,275.9z"/>
		<path class="st1" d="M178.2,218.4c0.3,0.9,0.4,1.9,0.8,2.7c1,2,2.6,2.4,4.3,0.8c0.3,0.5,0.5,1.1,0.8,1.6c1.1,1.7,3,1.7,4.1,0.1
			c0.2-0.3,0.4-0.6,0.5-0.9c0.3-0.9,0.6-1.7,1.9-1.4c0.6,0.1,1.1-0.4,1.4-0.9c0.4-0.7,0.9-0.7,1.6-0.5c0.7,0.1,1.4,0.1,2,0.1
			c0.5,0,1.2-0.1,1.4-0.6c0.8-1.6,2-1.1,3.2-1c0.1,0,0.1,0,0.2,0c1.6-0.3,3.1-1.3,4.8-1.5c1.1-0.2,1.4-2,0.9-3.2
			c-0.3-0.6-0.4-1.1-0.1-1.7c0.5-1.1,0.1-2.2-0.4-3.3c-0.8-1.8-2.1-3.3-3.5-4.8c-1.5-1.6-3.1-3-4.9-4.5c3.1,0,5.9-0.1,8.7,0
			c3.8,0.1,7.4-0.6,10.9-1.9c2.2-0.8,4.4-1.3,6.7-2.1c0.6-0.2,0.9-0.1,1.2,0.4c0.9,1.3,1.8,2.6,3,3.7c0.9,0.8,1.8,1.1,3,0.9
			c3.4-0.7,6.8-1.7,10-2.9c1-0.4,2-0.8,3-1.2c0.6-0.3,0.7-0.1,0.9,0.5c1.4,7.3,2.8,14.5,4.2,21.8c0.1,0.8-0.3,0.9-0.8,1.2
			c-3.2,1.7-6.6,2.9-10,3.9c-12.6,3.8-25.5,5-38.6,4.7c-9.6-0.2-19.2-0.9-28.6-2.9c-4.8-1-9.5-2.2-13.9-4.4
			c-2.2-1.1-1.8-0.8-1.5-2.9c0.4-2.5,0.9-4.9,1.2-7.4c0.1-0.9,0.4-1.1,1.3-0.8c5,1.6,10,3.2,14.9,4.7c0.4,0.1,0.6,0.3,0.7,0.8
			c0.1,0.7,0.3,1.3,0.5,2C174.8,219.4,176.2,219.7,178.2,218.4L178.2,218.4z"/>
		<path class="st3" d="M207.3,25.5c0.1,0.8,0.5,1.5,0.8,2.2c-0.4,1,0.3,1.9,0.3,2.9c-1.1,0-2.1,0.2-3,0.6c-0.5,0.2-0.9,0.5-0.7,1.1
			c0.2,0.6,0.7,0.6,1.2,0.4c0.7-0.3,1.5-0.5,2.3-0.5c0.4,0,0.8-0.1,1.1,0.4c1.3,2.7,3.6,4.3,6.2,5.5c0.8,0.9,2,0.7,3,1.1
			c-0.1,0.1-0.3,0.2-0.4,0.2c-0.5,0.2-0.7,0.6-0.5,1.1s0.6,0.5,1.1,0.3s1-0.4,1.5-0.5c2.5-0.5,4.2,0.9,4.4,3.5
			c0.1,3-1.6,5.5-4.5,6.5c-0.2-0.1-0.1-0.3-0.1-0.5c0.1-0.6,0.3-1.3-0.5-1.5c-0.8-0.1-0.8,0.6-1,1.1c-0.4,1.4-0.8,2.9-1.3,4.2
			c-1.7,4.8-4.1,9-8.3,12.1c-2.7,2-5.7,3.2-8.9,4c-0.1,0-0.2,0.1-0.3,0c-3.2-0.8-6.3-1.7-8.8-3.9c-0.1-0.1-0.1-0.1-0.2-0.1
			c-5.8-3.9-8.1-9.9-9.7-16.3c0-0.1-0.1-0.2-0.1-0.3c-0.1-0.5-0.3-0.9-0.9-0.8c-0.6,0.1-0.7,0.5-0.6,1c0,0.2,0.2,0.5,0,0.8
			c-3.3-0.7-5.5-4.4-4.6-7.6c0.6-2.3,2.6-3.1,5.4-2.1c1.1,0.4,1.4,0.2,1.4-1c1.9-0.1,3.7-0.6,5.4-1.4c0.3-0.2,0.7-0.2,0.9-0.6l0,0
			c0.2,0.1,0.4,0,0.5-0.2c2.3-1,4.5-2.2,6.5-3.8c0.8,0.2,1.5,0,2.3,0.1c0.3,0.9,1,0.7,1.6,0.5c3.8-1.1,6.2-3.7,7.8-7.2
			C206.9,26.4,206.9,25.9,207.3,25.5L207.3,25.5z M200.3,62.1c0.2,0,0.7,0,1.2-0.1c3.4-0.8,5.1-3.3,6.3-6.3c0.4-1.1,0.1-1.5-1.1-1.4
			c-3.5,0.4-7.1,0.7-10.6,0.3c-1.1-0.1-2.1-0.2-3.2-0.3c-0.8-0.1-1.1,0.3-0.9,1.1C192.7,59,196.4,62,200.3,62.1L200.3,62.1z
			 M201.2,44.8c-0.2-2.8-0.8-4.6-1.5-6.4c-0.2-0.5-0.4-1.1-1.1-0.8c-0.7,0.3-0.5,0.9-0.3,1.4c0.5,1.3,0.9,2.6,1.2,3.9
			c0.3,1.4,0.1,2.6-1.2,3.6c-1.7,1.3-1.5,3.4,0.3,4.6c0.3,0.2,0.6,0.3,0.9,0c0.4-0.3,0.4-0.6,0.2-1c-0.1-0.2-0.3-0.4-0.5-0.6
			c-0.7-0.8-0.8-1.4,0.2-2C200.6,46.7,201.3,45.6,201.2,44.8L201.2,44.8z M188.6,41c0,1.2,0.8,2.3,1.7,2.3c1,0,1.9-1,1.9-2.3
			c0-1.2-0.8-2.2-1.8-2.2S188.6,39.8,188.6,41z M210.3,41c0-1.2-0.8-2.2-1.8-2.2s-1.8,1-1.8,2.2s0.8,2.2,1.8,2.3
			C209.5,43.3,210.3,42.3,210.3,41L210.3,41z M222.7,44.4c0-0.7-0.7-1-1.3-0.6c-0.7,0.4-1.2,1-1.6,1.7c-0.3,0.4-0.2,0.8,0.2,1.1
			s0.8,0.2,1.1-0.2c0.4-0.5,0.9-1,1.4-1.5C222.6,44.8,222.6,44.5,222.7,44.4L222.7,44.4z M179.6,45.7c0-0.6-1.5-2.3-2.1-2.4
			c-0.3,0-0.6,0-0.8,0.3s-0.2,0.6,0,0.8c0.6,0.6,1.1,1.1,1.6,1.7c0.2,0.2,0.5,0.3,0.8,0.2C179.4,46.3,179.6,46.1,179.6,45.7z"/>
		<path class="st3" d="M206,162.3c-4.4-2.4-8.9-4.4-13.5-6.1c-0.5-0.2-1.1-0.4-1.4,0.3c-0.3,0.8,0.3,1,0.9,1.2
			c5.2,2,10.3,4.2,15.1,7.1c1.5,0.9,3,1.9,4.4,3.1c0.5,0.4,1,0.9,1.4,1.5c0.3,0.4,0.8,0.9,0.1,1.2c-0.8,0.4-0.6-0.5-0.7-0.8
			c-0.8-1.2-1.9-2-3.1-2.7c-4.3-2.5-8.8-4.6-13.4-6.4c-1.5-0.6-3-1.1-4.5-1.7c-0.6-0.2-1.2-0.6-1.6,0.2c-0.3,0.8,0.4,1,1,1.2
			c5.4,1.9,10.6,4.1,15.6,6.8c1.4,0.8,2.8,1.5,4,2.6c0.3,0.3,0.7,0.6,0.5,1.1c-0.2,0.4-0.7,0.4-1.1,0.4c-1.5,0-3-0.5-4.4-1
			c-2.1-0.7-4.3-1.6-6.4-2.4c-0.2-0.1-0.5-0.1-0.6-0.3c-2.4-2.3-5.5-3.1-8.6-3.8c-1.8-0.5-3.7-0.9-5.4-1.8c-0.5-0.3-1-0.3-1.3,0.2
			c-0.3,0.6,0.1,0.9,0.6,1.1c1.8,1,3.8,1.5,5.8,1.9c2,0.5,4,1.1,5.9,2c0.7,0.4,1.4,0.8,1.9,1.5c0.6,0.9,0.4,1.4-0.7,1.6
			c-1.4,0.3-2.7,0-4.1-0.2c-3.4-0.5-6.8-1.1-10.3-1.1c-2.9-0.1-5.8-0.7-8.6-1.6c-4.7-1.5-9.4-1.5-14.1,0.3c-2.2,0.8-4.4,1.6-6.5,2.4
			c-0.5,0.2-0.7,0.2-0.8-0.4c-0.6-5.1,0.2-10,2.5-14.6c0.4-0.8,1.1-0.6,1.7-0.7c4.1-0.2,8.1-0.5,12.2-0.6c5.6-0.2,11.3-0.3,17,0.1
			c2.1,0.1,4.1,0.5,6,1.1c4.7,1.6,9.2,3.6,13.4,6.1C205.6,161.5,205.6,161.6,206,162.3L206,162.3z"/>
		<path class="st4" d="M185,108.7c-0.8,0.1-1.5-0.2-2.3-0.3c-0.1-0.6-0.5-0.8-0.9-1.1c-1.7-1-2.1-2-1.7-3.9c0.2-0.9,0.4-1.8,0.7-2.8
			c0.9-3,0.3-5.6-1.6-8c-1.3-1.7-2.8-3.2-4.2-4.8c-1-1.2-1.9-2.5-2.7-3.9c-1.2-2.4-1.4-4.9-0.5-7.4c0.5-1.4,1.1-2.8,1.6-4.1
			c2-4.9,3.9-9.8,5.2-14.9c0.4-1.5,0.5-3,0.6-4.5c0-0.3-0.2-0.9,0.3-1c0.6-0.1,0.6,0.5,0.7,0.9c0.6,1.9,1.3,3.7,2.1,5.5
			c0.7,1.5,1.5,3,2.6,4.3c0.6,0.7,0.6,1.5,0.8,2.3c1.1,5.6,1.1,11.2-0.3,16.7c-0.9,3.5-0.1,6.5,2.4,9.1c0.7,0.7,1.4,1.5,2.1,2.3
			c1.6,1.8,2.1,4,1.5,6.4c-0.3,1.1-0.6,2.1-0.9,3.2c-0.6,2.2-0.2,4.1,1.4,5.8c-0.8,0.1-1.6,0.2-2.4,0.3c-0.5-0.4-1.1-0.3-1.6-0.4
			c-1.9-0.4-2.9-1.6-3-3.4c0-0.6,0-1.1,0.1-1.7c0.1-0.7,0.2-1.3-0.7-1.4c-0.7-0.1-0.9,0.6-0.9,1.2
			C183.1,105.1,183.4,107.1,185,108.7L185,108.7z"/>
		<path class="st3" d="M177.1,199.9c2.3-1,3.6-3.2,5.2-5c0.6-0.6,1-0.9,1.8-0.6c1.3,0.5,2.4,0,3.5-0.8c1.4-1.1,2.6-2.4,3.8-3.8
			c1.8-2.1,3.6-4.2,5.4-6.3c0.9-1,1.9-1.9,2.8-3c1-1.2,2.2-1.6,3.8-1.3c4.5,0.6,9,0.2,13.3-1.5c0.8-0.3,0.9-0.1,1,0.6
			c0.6,5.2,2.2,10.1,4.9,14.5c0.6,1,0.4,1.2-0.6,1.4c-2.1,0.5-4.2,1-6.2,1.8c-4.9,1.8-9.9,2-15.1,1.9c-3.2-0.1-6.4-0.1-9.6-0.3
			c-4.4-0.3-8.5,0.7-12.6,2.1C178,199.8,177.6,199.9,177.1,199.9C177.2,200.1,177.2,200,177.1,199.9z"/>
		<path class="st3" d="M188.4,66.3c2.1,1.6,4.4,2.6,6.5,3.9c4.6,2.7,9.3,2.8,14.1,0.8c1-0.4,2-0.9,3.2-1.4c0.3,3.8,1.5,6.9,6.1,7.2
			c-1.2,2-2.7,3.5-4.4,4.7c-4.5,3-9.5,3.9-14.8,3.5c-3.9-0.3-7.5-1.4-11-3.2c-0.6-0.3-0.9-0.6-0.7-1.4
			C188.4,75.8,188.3,71.1,188.4,66.3L188.4,66.3z"/>
		<path class="st3" d="M205.9,172.6c-1.5,1.4-3.1,2.8-4.6,4.2c-3.7,3.3-7,7-10.1,10.9c-1.2,1.5-2.4,2.9-3.9,4.2
			c-0.6,0.5-1.2,1-1.9,1.1c-1,0.2-1.3-0.2-1-1.1c0.3-0.9,0.7-1.7,1.2-2.6c1.9-3.4,4.2-6.6,6.7-9.8c0.2-0.2,0.4-0.5,0.5-0.7
			c0.2-0.4,0.1-0.7-0.2-0.9c-0.3-0.3-0.6-0.2-0.9,0c-0.1,0.1-0.2,0.2-0.3,0.3c-2.8,3.6-5.8,7.2-7.6,11.4c-1.2,2.8-3.2,4.9-5.2,7.1
			c-0.7,0.7-1.2,1.5-2.3,1.8s-1.3,0.1-1.2-1s0.6-2,1.1-3c2.8-5.6,6.2-10.9,9.9-16c0.4-0.5,1.1-0.9,0.5-1.8c-0.2-0.3,0.2-0.4,0.4-0.5
			c3.3-1.6,6.6-3.1,10.1-4.2c0.7-0.2,1.2-0.5,1.6-1.1c0.4-0.6,0.9-0.8,1.6-0.6c1.7,0.6,3.4,1.3,5.1,1.9
			C205.7,172.3,205.8,172.5,205.9,172.6L205.9,172.6z"/>
		<path class="st3" d="M219.5,157.3c-3.6,1.1-6.8,2.7-9.7,4.7c-0.4,0.2-0.6,0.2-1,0c-4.8-3.6-10.2-5.8-16-8.1c7-2.9,13.7-6,20.4-9.4
			C214.1,149.3,216.5,153.4,219.5,157.3L219.5,157.3z"/>
		<path class="st1" d="M136.1,181.8c5.8-1.7,11.3-3.4,16.9-5.1c1.4-0.4,2.2-1.2,2.7-2.5c0.2-0.6,0.5-1.2,0.6-1.8
			c0.2-1.6,1-2.4,2.5-2.6c0.7-0.1,1.4-0.4,2.2-0.7c-0.2,1.8-0.3,3.5-0.6,5.2c-0.7,5.3-1.5,10.7-2.2,16c-0.2,1.4-0.2,1.4-1.5,0.9
			c-0.9-0.3-1.7-0.6-2.6-0.9c-1-0.3-2-0.5-1.9-1.9c0-0.6-0.6-0.7-1.1-0.9c-4.8-1.8-9.6-3.6-14.3-5.5
			C136.7,182,136.5,182,136.1,181.8L136.1,181.8z"/>
		<path class="st3" d="M152.4,191.4c1.4,0.5,2.6,0.9,3.9,1.3c0.6,0.2,0.5,0.4,0.3,0.8c-0.7,1.2-1.4,2.4,0,3.7c0.3,0.3,0,0.6-0.1,0.9
			c-1.2,2.2-0.3,3.6,2.2,3.7c0.2,0,0.5-0.1,0.7,0.2c1.1,1.6,2,2,3.8,1.4c0.8-0.2,1.2-0.2,1.7,0.5c0.4,0.6,1.2,0.7,2,0.7
			c1.6,0.1,3.1-0.4,4.6-0.8c0.3-0.1,0.7-0.4,0.8,0.3c0.3,3,0.6,6,0.9,9.2c-2.7-0.9-5.3-1.7-7.9-2.5c-5.3-1.8-10.6-3.3-16.1-4.4
			c-0.3-0.1-1,0-0.6-0.7C150.9,201.3,151.9,196.4,152.4,191.4L152.4,191.4z"/>
		<path class="st1" d="M243.6,156.9c-2.6,3.7-5.9,6.5-10.1,8.4c-3.7,1.7-7.5,3.2-11.6,3.9c-0.1-1.1-0.1-2.2-0.2-3.3
			c-0.2-2.2-0.9-4.4-1.9-6.4c-0.1-0.2-0.6-0.5-0.1-0.7c0.3-0.2,0.7-0.4,1.1,0c0.7,0.7,1.4,1.3,2.1,1.9c1.1,0.9,2.2,1.1,3.6,0.7
			c5.3-1.6,10.7-3.1,16-4.6c0.3-0.1,0.6-0.1,0.9-0.2C243.5,156.8,243.6,156.9,243.6,156.9L243.6,156.9z"/>
		<path class="st1" d="M214.5,166.8c0.3,0.5,0.8,0.6,1.3,0.4c0.9-0.4,1.4-0.1,1.8,0.7c0.1,0.2,0.2,0.3,0.3,0.4
			c1.5,2.1,3.3,3.2,5.9,2.1c0.3-0.1,0.7-0.3,1.2-0.2c-0.5,0.5-1.2,0.7-1.8,0.9c-1.2,0.6-2.5,1.2-3.8,1.8c-1,0.4-1.7,1-1.8,2.2
			c0,0.3-0.1,0.6-0.4,0.7c-4.6,1.8-9.4,2.4-14.4,1.6c1.5-1.6,3-3.1,4.4-4.7c0.3-0.3,0.6-0.2,0.8-0.1c1.9,0.6,3.6-0.3,5.3-0.7
			c1.5-0.3,1.9-1.8,1.1-3.3c-0.4-0.6-1.1-1.1-1-2C213.8,166.8,214.2,166.8,214.5,166.8L214.5,166.8z"/>
		<path class="st3" d="M189.6,204.7c-0.3,5-0.5,10.1-1.6,15c-0.2,1-0.5,1.9-1,2.8c-0.5,0.9-1.2,0.9-1.7,0c-0.6-1.2-1-2.6-0.7-4
			c1.2-5.9,1.2-11.9,1.1-17.9c0-1,0.2-1.4,1.3-1.4c2.7-0.2,2.7-0.2,2.7,2.4C189.5,202.7,189.6,203.7,189.6,204.7L189.6,204.7z"/>
		<path class="st3" d="M184.1,206.8c-0.1,4-0.3,8-1.2,12c-0.1,0.5-0.3,1-0.5,1.5s-0.4,1.1-1.1,1.1c-0.6,0-0.9-0.6-1.1-1.1
			c-0.7-1.8-1.1-3.6-0.7-5.5c0.7-4.2,0.7-8.4,0.4-12.6c-0.1-1,0.1-1.6,1.2-1.7c1-0.2,2.1-1,2.8-0.5c0.5,0.3,0.2,1.8,0.2,2.7
			C184.1,204.1,184.1,205.5,184.1,206.8L184.1,206.8z"/>
		<path class="st3" d="M184.7,177.5c0.2,0.5-0.2,0.6-0.4,0.9c-3.5,4.9-6.7,10-9.4,15.4c-0.6,1.2-0.9,2.5-1.9,3.6
			c-0.7,0.7-1.4,1.4-2.4,1.5c-0.6,0.1-0.8-0.1-0.7-0.8c0.2-1.2,0.6-2.4,1.1-3.6c2.3-5.1,5.1-9.8,8.1-14.5c0.2-0.2,0.3-0.5,0.6-0.6
			C181.5,179.1,183.1,178.2,184.7,177.5L184.7,177.5L184.7,177.5z"/>
		<path class="st3" d="M180.8,170.7c-1.9,1.5-3.5,2.9-4.5,4.9c-0.1,0.1-0.2,0.2-0.3,0.3c-2.7,2.2-5.3,4.5-8.3,6.4
			c-0.8,0.5-1.6,1-2.6,1.2c-0.4,0.1-0.8,0.1-1.1-0.2s-0.1-0.7,0-1.1c0.3-0.8,0.8-1.5,1.4-2.1c3-3.6,6.5-6.8,10-10
			c0.4-0.3,0.7-0.4,1.1-0.2C177.9,170.4,179.2,170.6,180.8,170.7L180.8,170.7z"/>
		<path class="st1" d="M270.7,148.4c-4,2-8,3.9-12,5.9c-5.7,2.8-11.4,5.5-17.1,8.2c-0.3,0.2-0.7,0.3-1.1,0.5
			c0.1-0.6,0.5-0.7,0.7-0.9c1.8-1.7,3.3-3.5,4.6-5.6c0.2-0.4,0.5-0.7,1-0.9c7.9-2.5,15.8-4.9,23.7-7.4
			C270.6,148.3,270.6,148.4,270.7,148.4L270.7,148.4z"/>
		<path class="st3" d="M178.5,206.6c0.2,2.9,0.1,5.7-0.6,8.5c-0.1,0.7-0.4,1.3-0.7,1.9c-0.2,0.4-0.6,0.7-1.1,0.7
			c-0.5-0.1-0.7-0.5-0.8-0.9c-0.5-1.5-0.6-3.1-0.7-4.7c-0.3-2.7-0.5-5.4-0.8-8.1c-0.1-0.7,0.1-0.9,0.7-1.1c1.1-0.3,2.2-0.7,3.2-1.1
			c0.5-0.2,0.8-0.1,0.8,0.5C178.5,203.6,178.5,205.1,178.5,206.6L178.5,206.6z"/>
		<path class="st3" d="M167.5,194.4c-0.6,0-0.8-0.2-0.6-0.8c0.2-1.1,0.6-2.2,1.1-3.2c1.5-3.4,3.3-6.7,5.2-9.9
			c0.6-1.1,1.8-1.6,2.7-2.4c0.3-0.2,0.4,0,0.5,0.2c0.1,0.7,1.2,0.8,1.1,1.4c-0.1,0.6-0.6,1-0.9,1.5c-2.2,3.6-4.4,7.4-6.2,11.2
			C169.6,193.6,168.7,194.2,167.5,194.4L167.5,194.4z"/>
		<path class="st3" d="M192.3,172.1c-3.9,1.6-7.6,3.9-11.5,5.4c-0.6,0.2-1.2,0.4-1.9,0.5c-1.1,0.1-1.5-0.4-1.3-1.5
			c0.2-0.7,0.6-1.3,1.1-1.9c1.2-1.4,2.7-2.5,4.1-3.5c0.4-0.3,0.8-0.3,1.2-0.2C186.8,171.1,189.6,171.6,192.3,172.1L192.3,172.1z"/>
		<path class="st3" d="M193.7,202.5c-0.3,4.7-0.6,9.3-1.7,13.9c-0.2,0.9-0.5,1.8-1,2.6c-0.2,0.4-0.6,0.8-1.1,0.6s-0.2-0.7-0.1-1
			c1-6,1.2-12.1,1.3-18.2c0-0.8,0-1.3,1-1.2c0.8,0.1,1.8-0.2,1.6,1.3C193.6,201.2,193.7,201.9,193.7,202.5L193.7,202.5z"/>
		<path class="st3" d="M214.5,166.8c-0.4,0-0.7,0-1.1,0c-0.7-1.3-1.7-2.4-2.9-3.5c2.2-1.5,4.3-2.7,6.6-3.6c0.6-0.3,1-0.2,1.3,0.4
			c0.6,1.2,1,2.4,1.4,3.7c0.1,0.6,0,0.8-0.6,0.9c-1.3,0.2-2.5,0.6-3.8,0.8C214.8,165.8,214.4,166.1,214.5,166.8z"/>
		<path class="st3" d="M195.3,204.5c3,2.6,5.9,5.1,8.4,8.1c0.4,0.5,0.8,1.1,1,1.6s0.3,1.1-0.3,1.4c-0.6,0.3-1.3,0.3-1.6-0.3
			c-1.6-2.6-3.8-4.7-6.1-6.5C195,207.6,194.7,206.3,195.3,204.5L195.3,204.5z"/>
		<path class="st3" d="M169,184.4c-0.8,1.9-1.4,3.8-3.2,5.1c-2.7,1.8-5.2,3.8-7.5,6.1c-0.2,0.2-0.4,0.6-0.7,0.3
			c-0.3-0.2-0.2-0.6-0.1-0.8c0.1-0.3,0.3-0.6,0.5-0.9C160.9,190,164.7,186.9,169,184.4L169,184.4L169,184.4z"/>
		<path class="st3" d="M174.1,169.4c-2.3,2.1-4.5,4.1-6.6,6.3c-1.4,1.4-2.7,2.8-3.8,4.3c-0.7,1-1.4,1.9-1.3,3.2
			c0,0.4-0.1,0.6-0.5,0.6s-0.7-0.1-0.7-0.6c0-0.6,0.1-1.1,0.4-1.5c0.7-1.5,1.6-2.8,2.6-4.1c2.2-3,4.9-5.6,7.5-8.2
			C172.5,168.5,173.2,169.3,174.1,169.4L174.1,169.4z"/>
		<path class="st3" d="M194.8,209.2c2.3,2,4.4,3.8,6.1,6c0.2,0.3,0.7,0.6,0.4,1.1c-0.2,0.5-0.8,0.6-1.3,0.5
			c-1.2-0.1-2.4-0.3-3.1-1.5c-0.4-0.8-1.2-1.4-1.9-1.9c-0.6-0.4-0.8-0.8-0.6-1.5C194.7,211.1,194.7,210.3,194.8,209.2L194.8,209.2z"
			/>
		<path class="st3" d="M165.9,191.2c-0.2,1.1-0.6,2-0.6,3c0,0.4-0.3,0.6-0.6,0.8c-1.8,1.2-3.1,2.8-4.4,4.5c-0.2,0.3-0.4,0.6-0.9,0.7
			c-0.6,0.1-1.4,0.4-1.8-0.2c-0.4-0.6,0.2-1,0.5-1.5C160.1,195.4,163,193.5,165.9,191.2L165.9,191.2z"/>
		<path class="st3" d="M168.7,195.8c-0.1,1.2-0.5,2.1-1.7,2.7c-0.8,0.4-1.5,1.1-1.9,1.9c-0.7,1.2-2,1.4-3.2,1.6
			c-0.4,0.1-0.8,0-1-0.4s0.1-0.6,0.3-0.9c1.2-1.8,2.9-3.1,4.5-4.6c0.2-0.2,0.4-0.4,0.8-0.3C167.2,196.1,168,196,168.7,195.8
			L168.7,195.8z"/>
		<path class="st3" d="M204.6,210.9c-2.8-2.9-5.9-5.6-9-8.2c-0.8-0.7-0.2-1.7-0.2-2.6C199.1,203.2,203,206.1,204.6,210.9
			L204.6,210.9z"/>
		<path class="st3" d="M177.3,200.1c-2.8,1.1-5.6,2.1-8.5,2.8c-0.6,0.1-1.3,0.2-1.9,0.1c-1.1-0.1-1.3-0.5-0.7-1.5
			c0.3-0.5,0.7-1,1.2-1.4c0.5-0.5,0.8-0.8,1.6-0.2c1.2,0.9,2.5,0.5,3.7-0.3c0.5-0.4,0.9-0.6,1.5,0c0.8,0.7,1.9,0.5,2.9,0.2
			C177.2,200,177.2,200.1,177.3,200.1L177.3,200.1z"/>
		<path class="st1" d="M167.4,168.1c-2.1,2.2-3.8,4.4-5.4,7c0.2-2.1,0.5-3.9,0.6-5.8c0-0.5,0.2-0.7,0.7-0.8
			C164.6,168.2,165.8,168.1,167.4,168.1z"/>
		<path class="st1" d="M164.8,185.3c-1.6,1.2-3.1,2.5-4.7,4c0.2-1.4,0.4-2.6,0.6-3.8c0-0.1,0.2-0.3,0.2-0.3
			C162.1,185.7,163.3,184.7,164.8,185.3L164.8,185.3z"/>
		<path class="st3" d="M194.1,214.6c0.9,0.7,1.6,1.3,2.1,2.2c0.5,0.8,0.2,1.3-0.7,1.5c-0.1,0-0.3,0-0.4,0.1
			c-1.8,0.1-1.9-0.1-1.4-1.8C193.7,216,193.9,215.4,194.1,214.6z"/>
		<path class="st3" d="M164.4,174.3c1.2-2.1,2.9-3.9,4.6-5.6c0.4-0.4,0.8-0.4,1.3-0.1c-2,1.9-3.9,3.9-5.7,6
			C164.6,174.4,164.5,174.4,164.4,174.3L164.4,174.3z"/>
		<path class="st1" d="M155,171.3c-0.3,1.2-0.6,2.4-1.3,3.5c-0.1-0.2-0.2-0.4-0.3-0.6C152.6,171.7,152.3,172.2,155,171.3z"/>
		<path class="st1" d="M220.3,168.7c-0.7-0.8-1.1-1.4-1.6-2C220.3,166.1,220.3,166.1,220.3,168.7z"/>
		<path class="st3" d="M164.6,174.5c-0.1,0.1-0.2,0.2-0.3,0.3l-0.1-0.1c0.1-0.1,0.2-0.3,0.3-0.4
			C164.5,174.4,164.6,174.4,164.6,174.5L164.6,174.5z"/>
		<path class="st1" d="M270.5,148.2c0.2-0.1,0.4-0.1,0.5,0l-0.4,0.2C270.6,148.4,270.6,148.3,270.5,148.2L270.5,148.2z"/>
		<path class="st1" d="M240.3,163.1c-0.1,0-0.2,0.1-0.2,0.1l-0.1-0.1c0.1,0,0.1-0.1,0.2-0.1C240.2,163,240.2,163,240.3,163.1
			L240.3,163.1z"/>
		<path class="st1" d="M243.5,156.8l0.2-0.1C243.7,156.8,243.7,156.9,243.5,156.8C243.6,156.9,243.5,156.8,243.5,156.8z"/>
		<path class="st1" d="M290.6,177.9c0,0,0.1-0.1,0.2-0.1c0,0.1,0,0.2,0,0.3C290.8,178,290.7,178,290.6,177.9L290.6,177.9z"/>
		<path class="st3" d="M169,184.4l0.1-0.1c0,0.1,0,0.1,0,0.1S169.1,184.4,169,184.4L169,184.4L169,184.4z"/>
		<path class="st3" d="M164.3,174.8c0,0.1-0.1,0.2-0.2,0.1L164.3,174.8C164.2,174.7,164.2,174.8,164.3,174.8L164.3,174.8z"/>
		<path class="st3" d="M184.7,177.5c0.1,0,0.1-0.1,0.2-0.1v0.1C184.8,177.5,184.8,177.5,184.7,177.5L184.7,177.5L184.7,177.5z"/>
		<path class="st2" d="M355.6,40.2c-0.6,0-1.2,0.2-1.8-0.2c-0.5,0.2-1,0.1-1.4-0.2c-0.3-0.1-0.6-0.2-0.9-0.3c-0.3,0-0.7-0.2-0.9-0.5
			c-2.9-1.6-4.7-4-5.6-7.2c-0.4-1.4-0.7-2.9-1-4.4c-0.5-2-1-4.1-2.2-5.8c-1-1.4-2.4-2.1-4.2-1.9c-0.5,0-0.9,0.3-0.9,0.8
			s0.3,0.8,0.8,0.8c1.9-0.2,2.8,0.8,3.5,2.1c0-0.1,0-0.2,0-0.3c0,0.1,0,0.2,0,0.3c0.2,0.4,0.3,0.8,0.5,1.2c0.6,1.7,1,3.4,1.3,5.2
			c0.6,3.4,1.8,6.5,4.4,8.9c2.2,2.1,4.9,3.2,8,3.1c0.6-0.1,1.2,0,1.5-0.7C356.7,40.4,356.3,40.2,355.6,40.2z"/>
		<path class="st2" d="M353.3,39.5c-0.1-0.7,0.2-1,0.8-1.2c1.1-0.5,2.2-0.7,3.4-0.8c-0.3-0.8-0.5-1.7-0.8-2.5
			c-0.1-0.5-0.1-1,0.5-1.2s0.9,0.2,1,0.8c0.1,0.3,0.1,0.5,0.2,0.8c0.4,1.4,0.9,2.7,2.6,2.8c0.2,0,0.4,0.2,0.6,0.2
			c0.4,0.2,1,0.4,0.9,1c-0.1,0.7-0.6,0.7-1.2,0.8c0,0.5,0.4,0.7,0.7,0.9c3.5,3,7.5,4.3,12.1,3.7c0.1,0,0.1,0,0.2,0
			c0.6-0.1,1.4-0.3,1.5,0.6c0.1,0.9-0.7,0.9-1.3,1c-5.6,0.8-10.5-0.8-14.5-4.9c-0.1-0.1-0.3-0.3-0.4-0.4c-1.6-2.2-1.8-2.3-4.1-1.7
			c-0.7,0.2-1.3,0.7-2,0.6l0,0C353.6,39.8,353.5,39.7,353.3,39.5z"/>
		<path class="st2" d="M350.7,54.5c0,1.6-0.7,2.8-1.7,3.8c-1.2,1.1-1.1,1.4-0.1,2.6c0.2,0.2,0.4,0.4,0.6,0.7
			c0.3,0.4,0.3,0.8-0.1,1.1c-0.3,0.3-0.7,0.3-1,0c-2.2-2.1-2.6-3.7-0.5-5.5c1.1-1,1.4-2.2,1.2-3.7c-0.3-1.8-0.9-3.6-1.5-5.3
			c-0.2-0.6-0.5-1.2,0.2-1.5c0.8-0.3,1,0.4,1.2,0.9C349.9,49.8,350.6,52.1,350.7,54.5L350.7,54.5z"/>
		<path class="st2" d="M350.1,69.9c-1.5,0-3-0.1-4.4-0.6c-0.5-0.2-1.1-0.4-0.9-1.2c0.3-0.7,0.8-0.4,1.3-0.3c4.1,1.2,8,0.5,11.8-1.2
			c0.3-0.1,0.4-0.4,0.6-0.6c0.4-0.3,0.9-0.5,1.3,0c0.3,0.5,0.3,1-0.2,1.4c-0.5,0.3-0.9,0.6-1.4,0.8
			C355.7,69.3,352.9,69.8,350.1,69.9L350.1,69.9z"/>
		<path class="st2" d="M360.7,11.3c0,0.6-0.5,0.8-1,0.9c-1.6,0.3-3.1,0.8-4.5,1.5c-1.8,0.9-3.5,2-4.2,4.1c-0.2,0.5-0.5,0.8-1.1,0.5
			c-0.5-0.2-0.6-0.7-0.4-1.1c0.4-1.1,1.1-2.1,2-2.9c2.3-2.1,5.2-3.1,8.2-3.7C360.3,10.4,360.7,10.7,360.7,11.3L360.7,11.3z"/>
		<path class="st2" d="M357.5,49.2c0-1.4,0.8-2.5,1.9-2.5c1.2,0,2.2,1.2,2.2,2.7c0,1.4-0.9,2.5-2,2.5
			C358.5,52,357.5,50.7,357.5,49.2L357.5,49.2z"/>
		<path class="st2" d="M343.5,50.6c0,1.4-0.7,2.4-1.6,2.5s-1.8-0.7-2.1-1.9c-0.3-1.1-0.2-2.1,0.7-2.9c0.5-0.4,1-0.5,1.6-0.2
			C343.1,48.7,343.4,49.7,343.5,50.6L343.5,50.6z"/>
		<path class="st2" d="M382,51.8c-0.1,0.2-0.2,0.4-0.3,0.5c-0.6,0.5-1,1.1-1.5,1.7c-0.3,0.4-0.7,0.5-1.1,0.3s-0.5-0.7-0.2-1.1
			c0.5-0.8,1-1.5,1.7-2.1c0.3-0.2,0.6-0.3,0.9-0.1C381.8,51.2,381.9,51.4,382,51.8L382,51.8z"/>
		<path class="st1" d="M335.9,14.7c0-0.2,0.2-0.2,0.3-0.2C336.2,14.5,336,14.6,335.9,14.7z"/>
		<path class="st2" d="M55.2,30.2c0,1.1-0.4,1.4-1.3,0.9c-2-1-3.2-0.7-4.2,1.4c-1.3,2.8-2.4,5.6-3.6,8.4c-0.3,0.7-0.7,1.4-1,2.2
			c1,0.1,2,0.3,2.8,0.6c0.5,0.2,0.8,0.4,0.7,1c-0.2,0.6-0.7,0.6-1.2,0.5c-0.3-0.1-0.7-0.2-1-0.3c-2-0.5-2.1-0.4-3.2,1.2
			c-1.4,2-3,3.8-5.2,5c-3,1.6-6.1,1.6-9.2,0.4c-0.2-1.2,0.1-1.5,1.2-1.2c4.8,1.2,8.4-0.2,11.3-4.4c0-0.1,0.1-0.2,0.1-0.2
			c-0.1-0.2-0.2-0.1-0.3,0c-0.5,0.2-1,0.1-1.2-0.5c-0.2-0.5,0.3-0.8,0.7-1c0.3-0.2,0.7-0.4,1-0.5c1.4-0.2,2-1.2,2.5-2.3
			c1.2-2.5,2.1-5.1,3.2-7.6c0.3-0.8,0.7-1.7,1.2-2.5C50.2,28.4,52.6,28,55.2,30.2L55.2,30.2z"/>
		<path class="st2" d="M26.3,51.6c0,0.9-0.5,1.2-1.2,0.9c-3.2-1-5.9,1.6-5.1,5.4c0.6,3.1,2.5,5,5.5,5.9c0.3,0.1,0.6,0.2,0.9,0.2
			c0.5,0.1,1.1,0.2,1,1c-0.1,0.6-0.6,0.7-1.1,0.7c-1.1-0.4-2.2-0.7-3.2-1.2c-3.5-1.8-5.4-5.8-4.6-9.4c0.8-3.2,3.6-5,6.9-4.1
			C25.7,51,26.1,51.2,26.3,51.6L26.3,51.6z"/>
		<path class="st2" d="M48.2,18.2c0.3,0.1,0.6,0.2,0.9,0.4c2.8,1.3,4.3,3.7,5.5,6.4c0.2,0.5,0,0.8-0.4,1c-0.5,0.2-0.8,0-1-0.4
			c-0.4-0.8-0.8-1.6-1.2-2.3c-0.9-1.5-2.2-2.8-3.9-3.5c-0.5-0.2-0.8-0.5-0.7-1C47.4,18.4,47.8,18.3,48.2,18.2L48.2,18.2z"/>
		<path class="st2" d="M52.6,77.9c-2.8,0-4.6-1-6-2.8c-1.2-1.5-1.9-3.3-2.3-5.2c-0.3-1.4-0.1-1.7,1.4-1.5c3.6,0.5,7.2,0.7,10.8,0.6
			c0.4,0,0.8,0,1.2-0.1c2.2-0.3,2.2,0.5,1.5,2.2c-0.7,1.8-1.6,3.4-3,4.8C55.2,77.1,53.8,77.9,52.6,77.9L52.6,77.9z M46,70.1
			c0.5,1.9,1.2,3.4,2.5,4.7c2,2,4.7,2,6.8,0.1c1.2-1.2,2-2.6,2.6-4.3C53.9,70.8,50,70.6,46,70.1L46,70.1z"/>
		<path class="st2" d="M55.7,51.8c-0.5,1.5-1,3.1-1.3,4.7c-0.4,1.9-0.2,3.5,1.5,4.8c1.3,1.1,1.4,2.2,0.5,3.6
			c-0.3,0.4-0.7,0.8-0.9,1.2c-0.3,0.6-0.6,0.8-1.1,0.5s-0.6-1-0.2-1.3c1.8-1.6,1.1-2.8-0.4-4.1c-0.8-0.7-1-1.7-1-2.7
			c0-2.5,0.7-4.8,1.5-7.1c0.2-0.4,0.4-0.7,0.9-0.6C55.6,50.9,55.8,51.3,55.7,51.8z"/>
		<path class="st2" d="M46,53.9c0,1.3-0.9,2.5-2,2.5s-1.9-1.1-1.9-2.5s0.9-2.5,2-2.5C45.2,51.4,46,52.5,46,53.9z"/>
		<path class="st2" d="M63.1,54.2c0,1.4-0.9,2.7-1.9,2.6c-0.9,0-1.7-1-1.7-2.3c0-1.4,0.9-2.7,1.9-2.7C62.3,51.9,63.1,52.9,63.1,54.2
			L63.1,54.2z"/>
		<path class="st2" d="M66.7,45.1c-0.2,0.5-0.5,1-1.2,0.6c-1.7-0.9-3.3-0.9-5-0.2c-0.5,0.2-0.8,0.1-1.1-0.3c-0.2-0.5,0-0.9,0.5-1.1
			c2.1-0.9,4.2-0.9,6.2,0.2C66.5,44.5,66.7,44.7,66.7,45.1L66.7,45.1z"/>
		<path class="st2" d="M23.5,56.2c0.7,0,2.6,2,2.4,2.7c-0.1,0.3-0.3,0.5-0.6,0.6c-0.3,0.1-0.6,0-0.8-0.3c-0.4-0.6-0.9-1.2-1.5-1.7
			c-0.2-0.2-0.3-0.5-0.2-0.8C23,56.4,23.2,56.3,23.5,56.2L23.5,56.2z"/>
		<path class="st0" d="M62.2,30.6c0.2,0,0.2,0.1,0.2,0.3C62.3,30.8,62.2,30.8,62.2,30.6z"/>
		<path class="st2" d="M194.9,33.5c-2,1.6-4.2,2.8-6.5,3.8c-0.2,0-0.4-0.1-0.5,0.2l0,0c-1.8,0.2-3.6,0.7-5.4,0.3
			c-0.3-0.1-0.7-0.1-1-0.2c-0.5-0.1-0.9-0.4-0.8-1c0.2-0.6,0.6-0.7,1.2-0.5c4.1,0.8,7.5-0.5,10.7-2.9c0,0,0-0.1,0.1-0.2
			c-1.7-0.8-3.3-0.9-5,0c-0.6,0.3-1.2,0.7-1.5-0.1c-0.4-0.8,0.3-1.1,0.9-1.3c1.9-0.9,3.8-1,5.7-0.3c0.5,0.2,0.9,0.4,1.1,1
			c2-1.8,3.6-3.7,4.5-6c0.2-0.6,0.4-1.3,1.2-1s0.5,1,0.3,1.5C198.9,29.4,197,31.5,194.9,33.5L194.9,33.5z"/>
		<path class="st2" d="M207.3,25.5c-0.4,0.3-0.4,0.9-0.6,1.3c-1.6,3.5-4,6.1-7.8,7.2c-0.6,0.2-1.3,0.4-1.6-0.5c0-0.7,0.4-0.9,1-1
			c4.9-1.1,8.7-7,7.9-12.9c0-0.3-0.1-0.6-0.2-0.9c-0.2-0.6-0.1-1.1,0.6-1.2c0.7-0.1,0.9,0.4,1,0.9c0.5,2.1,0.4,4.1-0.1,6.2
			C207.3,24.9,207.3,25.2,207.3,25.5L207.3,25.5z"/>
		<path class="st2" d="M215.5,38.1c-2.6-1.3-4.9-2.9-6.2-5.5c-0.2-0.5-0.7-0.4-1.1-0.4c-0.8,0-1.6,0.2-2.3,0.5
			c-0.5,0.2-1,0.2-1.2-0.4c-0.2-0.6,0.2-0.9,0.7-1.1c0.9-0.4,1.9-0.6,3-0.6c0-1-0.6-1.9-0.3-2.9c0.9-0.5,1.3-0.2,1.5,0.7
			c0.1,0.5,0.3,1,0.3,1.5c0.1,0.8,0.7,1,1.3,1.2c0.8,0.4,1.5,0.8,0.5,1.7c-0.4,0.3,0,0.5,0.2,0.7c1.1,1.3,2.4,2.2,4,2.7
			c0.6,0.2,1.4,0.2,1.3,1.1C217,38.6,216.1,38.1,215.5,38.1L215.5,38.1z"/>
		<path class="st2" d="M204.6,16c-0.7-0.2-0.9-0.6-0.7-1.3c0.8-2.2,2.3-3.8,4.4-4.9c0.5-0.2,0.9-0.1,1.1,0.3c0.2,0.5,0,0.9-0.5,1.1
			c-1.4,0.8-2.6,1.8-3.3,3.3c-0.1,0.3-0.2,0.6-0.3,0.8C205.3,15.8,205,16,204.6,16L204.6,16z"/>
		<path class="st3" d="M336,39.1c0,0,0,0.1,0,0.2h-0.1C335.9,39.2,336,39.1,336,39.1L336,39.1L336,39.1z"/>
		<path class="st2" d="M225.1,133.2c0.7-6.3,1.4-12.5,2.2-18.7c0.3-2.8,0.7-5.5,1-8.2c0.1-0.6,0.2-1.1,0.9-1s0.7,0.6,0.7,1.2
			c-1,8.9-2.1,17.8-3.1,26.6c-0.1,0.6-0.2,1.1-0.9,1.1C225.2,134.1,225,133.6,225.1,133.2L225.1,133.2z"/>
		<path class="st2" d="M185,108.7c-1.6-1.7-1.9-3.7-1.6-5.8c0.1-0.6,0.2-1.2,0.9-1.2c0.8,0.1,0.8,0.8,0.7,1.4s-0.1,1.1-0.1,1.7
			c0.1,1.9,1.1,3.1,3,3.4c0.6,0.1,1.1,0.1,1.6,0.4c0.2,1.1-0.1,1.3-1.2,1.2C187.2,109.9,186.1,109.4,185,108.7L185,108.7z"/>
		<path class="st2" d="M200.3,62.1c-3.9-0.1-7.6-3.1-8.4-6.7c-0.2-0.8,0.1-1.2,0.9-1.1c1.1,0.1,2.1,0.2,3.2,0.3
			c3.6,0.4,7.1,0.1,10.6-0.3c1.2-0.2,1.6,0.3,1.1,1.4c-1.2,3-2.9,5.5-6.3,6.3C201,62,200.5,62,200.3,62.1L200.3,62.1z M193.9,55.9
			c0.9,2.7,3.6,4.6,6.3,4.6c2.4,0,4.8-2,5.6-4.6C201.9,56.4,197.9,56.4,193.9,55.9L193.9,55.9z"/>
		<path class="st2" d="M201.2,44.8c0.1,0.8-0.6,1.9-1.8,2.7c-0.9,0.7-0.9,1.3-0.2,2c0.2,0.2,0.4,0.4,0.5,0.6c0.2,0.4,0.1,0.7-0.2,1
			c-0.3,0.2-0.6,0.2-0.9,0c-1.8-1.2-2-3.3-0.3-4.6c1.3-1,1.5-2.2,1.2-3.6c-0.3-1.3-0.7-2.6-1.2-3.9c-0.2-0.5-0.4-1.1,0.3-1.4
			c0.7-0.3,0.9,0.3,1.1,0.8C200.4,40.2,201.1,42.1,201.2,44.8L201.2,44.8z"/>
		<path class="st2" d="M188.6,41c0-1.2,0.8-2.2,1.8-2.2s1.8,1,1.8,2.2s-0.9,2.3-1.9,2.3C189.4,43.3,188.6,42.2,188.6,41z"/>
		<path class="st2" d="M210.3,41c0,1.3-0.8,2.3-1.8,2.3c-0.9,0-1.8-1.1-1.8-2.3s0.8-2.2,1.8-2.2S210.3,39.8,210.3,41L210.3,41z"/>
		<path class="st2" d="M222.7,44.4c-0.1,0.1-0.1,0.4-0.3,0.5c-0.5,0.5-1,1-1.4,1.5c-0.3,0.4-0.7,0.5-1.1,0.2
			c-0.4-0.3-0.4-0.7-0.2-1.1c0.4-0.7,0.9-1.3,1.6-1.7C222,43.4,222.7,43.7,222.7,44.4L222.7,44.4z"/>
		<path class="st2" d="M179.6,45.7c0,0.3-0.2,0.6-0.5,0.7c-0.3,0.2-0.6,0.1-0.8-0.2c-0.5-0.6-1-1.2-1.6-1.7c-0.2-0.2-0.2-0.5,0-0.8
			s0.5-0.4,0.8-0.3C178.1,43.5,179.6,45.1,179.6,45.7z"/>
		<path class="st0" d="M187.9,37.5c0.1-0.2,0.3-0.2,0.5-0.2C188.3,37.5,188.1,37.5,187.9,37.5z"/>
		<path class="st0" d="M41.1,45.8c0.1-0.1,0.2-0.2,0.3,0L41.3,46C41.3,45.9,41.2,45.8,41.1,45.8L41.1,45.8z"/>
		<path class="st1" d="M46,70.1c4,0.5,7.9,0.7,11.9,0.5c-0.6,1.7-1.4,3.1-2.6,4.3c-2,2-4.8,1.9-6.8-0.1C47.2,73.5,46.6,71.9,46,70.1
			L46,70.1z"/>
		<path class="st1" d="M193.9,55.9c4.1,0.5,8,0.5,11.9,0c-0.8,2.6-3.2,4.6-5.6,4.6C197.4,60.5,194.8,58.7,193.9,55.9L193.9,55.9z"/>
	</g>
</g>
</svg>
