<?xml version="1.0" encoding="UTF-8"?>
<svg id="Capa_2" data-name="Capa 2" xmlns="http://www.w3.org/2000/svg" viewBox="0 0 330 285">
  <defs>
    <style>
      .cls-1 {
        fill: #fefefe;
      }

      .cls-1, .cls-2, .cls-3, .cls-4, .cls-5, .cls-6 {
        stroke-width: 0px;
      }

      .cls-2 {
        fill: #7c8ea3;
      }

      .cls-3 {
        fill: #c1ccd9;
      }

      .cls-4 {
        fill: #fddbbf;
      }

      .cls-5 {
        fill: #cb885f;
      }

      .cls-6 {
        fill: #090909;
      }
    </style>
  </defs>
  <g id="Capa_1-2" data-name="Capa 1">
    <g>
      <path class="cls-1" d="M231.75,284.98c-76.93,0-153.87,0-230.8.02-.77,0-.95-.17-.95-.95.02-54.58.02-109.15.02-163.73.35.19.31.57.4.87,1.07,3.51,2.1,7.03,3.17,10.54,3.75,12.23,7.52,24.46,11.28,36.7,6,19.55,12,39.1,18,58.64.15.49.26,1.03.64,1.39.89.83,1.96,1.42,2.75,2.43.52.67,1.58.54,2.44.54,6.09,0,12.17,0,18.26,0,.33,0,.72-.15.97.17.94,1.22,2.35,1.3,3.68,1.58.37.08.76.06,1.06.34.68.66,1.54.85,2.45.93,5.58.52,11.15,1.07,16.73,1.57,5.87.53,11.72.74,17.59-.19,5.99-.95,12.01-1.43,18.09-.99.67.05,1.12.13,1.34.92.33,1.16,1.16,1.72,2.44,1.82,6.72.48,13.45.9,20.18,1.24,15.73.77,31.47,1.34,47.22.51,4.38-.23,8.81-.3,13.04-1.73.64-.22.58.1.57.54-.13,2.92-.25,5.84-.37,8.76-.5,11.85-1,23.7-1.51,35.56-.02.51,0,1.04.64,1.08.74.05.75-.52.77-1.06.54-12.88,1.07-25.77,1.63-38.65.3-6.97.64-13.95.96-20.92.13-2.75.25-5.5.39-8.24.03-.52-.02-1.04-.66-1.07-.65-.04-.76.46-.75.99,0,.1,0,.21-.01.31-.32,6.73-.65,13.46-.95,20.2-.03.57-.2.84-.74,1.03-1.23.44-2.49.8-3.78.98-6.66.91-13.36,1.1-20.06,1.19-12.9.17-25.79-.3-38.67-.99-5.56-.3-11.12-.69-16.68-1.03-.49-.03-.8-.06-.55-.69.46-1.19.81-2.41.82-3.7,0-.47.29-.46.61-.46,4.64,0,9.29,0,13.93,0,.57,0,.71.22.66.73-.09.82-.12,1.65-.24,2.46-.07.5-.06.94.51,1.05.64.13.83-.33.88-.86.08-.85.22-1.71.22-2.56,0-.7.28-.83.91-.82,3.47.03,6.95.02,10.42.01,1.55,0,2.44-.81,2.57-2.35.1-1.14-.08-2.26-.47-3.34-3.14-8.71-6.27-17.43-9.4-26.15-.77-2.13-1.36-2.54-3.64-2.54-22.46,0-44.91,0-67.37.02-.9,0-1.3-.23-1.56-1.12-1.01-3.46-2.08-6.9-3.19-10.33-.22-.67-.07-.86.56-1.05,4.03-1.24,8.05-2.54,12.07-3.81,2.6-.82,3.48-1.99,3.47-4.75,0-.48.15-.67.56-.8,1.34-.42,2.69-.84,4-1.33.58-.22.87-.15,1.24.4,1.26,1.9,2.89,2.42,5.09,1.73,4.71-1.49,9.42-2.99,14.12-4.49,2.46-.78,3.4-2.06,3.31-4.63-.02-.53.13-.7.61-.85,1.25-.37,2.49-.78,3.71-1.24.59-.23.87-.12,1.22.42,1.24,1.91,2.91,2.46,5.07,1.77,4.78-1.51,9.55-3.03,14.32-4.55,2.23-.71,3.32-2.21,3.18-4.54-.04-.6.17-.76.66-.91,1.21-.38,2.42-.77,3.61-1.21.57-.22.86-.17,1.21.41,1.23,2.01,2.96,2.6,5.2,1.89,2.36-.74,4.71-1.5,7.06-2.24,1.14-.36,2.34-.61,3.31-1.37.46-.36.5.04.63.28,1.14,2.12,2.98,3.28,5.28,3.74.69.14,1.11.43,1.48,1.06,6.35,10.68,12.42,21.53,19.66,31.66.21.3.31.57.23.95-.65,3.16-1.29,6.32-2.12,9.44-.31,1.15-.85,1.65-2.02,1.9-10.31,2.18-20.77,3.22-31.25,4.09-1.4.12-2.81.18-4.22.27-.5.03-.91.23-.87.79.04.5.42.66.9.62.24-.02.48-.01.72-.03,6.21-.38,12.41-.97,18.58-1.73,6-.74,11.99-1.54,17.87-3.02.62-.16,1.14.04,1.65.38.93.63,1.62,1.48,2.23,2.4.98,1.46,1.69,3.06,2.29,4.71.17.46.4.87.95.68.59-.2.57-.66.37-1.18-.57-1.55-1.22-3.06-2.1-4.46-.95-1.53-2.02-2.97-3.72-3.74-.53-.24-.27-.53-.2-.83.43-1.73.9-3.45,1.32-5.19.31-1.27.55-2.56.86-4,.39.52.66.87.93,1.22,4.19,5.55,8.64,10.87,13.54,15.81,4.61,4.65,9.55,8.87,15.16,12.32,5.02,3.09,10.29,3.71,15.94,2.41,6.14-1.41,11.85-3.9,17.38-6.83,10.76-5.69,20.65-12.67,30.18-20.2,11.99-9.49,23.31-19.71,33.59-31.05.37-.41.85-.87.24-1.39-.55-.47-.93.04-1.28.42-9.05,10.03-18.99,19.12-29.45,27.65-10.35,8.43-21.1,16.28-32.85,22.68-5.95,3.24-12.07,6.07-18.77,7.47-4.83,1.01-9.39.54-13.69-2.09-3.03-1.85-5.93-3.87-8.63-6.16-8.95-7.59-16.48-16.46-23.23-26.01-7.34-10.39-13.51-21.5-20.03-32.4-.7-1.17-.59-2.02.09-3.06,1.65-2.53,3.71-4.69,6.06-6.57,4.57-3.65,9.76-5.96,15.5-7.04.54-.1,1.12-.35,1.51.4,1.95,3.74,4.56,7.03,7.26,10.23,9.33,11.04,19.67,21.05,30.84,30.19,2.7,2.2,4.31,4.91,5.14,8.2.48,1.91.7,3.85.76,5.81.02.49.11.93.71.92.6,0,.69-.46.68-.95,0-.21,0-.41-.01-.62-.21-4.77-1.28-9.24-4.59-12.94,3.97-2.43,7.34-5.51,10.63-8.68,1.71-1.64,3.4-3.31,5.04-5.03,11.55-12.16,22.69-24.69,33.34-37.66,2.88-3.51,6.01-6.81,9.36-9.88,4.13-3.77,8.4-7.33,14.05-8.65.42-.1.69-.38.59-.82-.1-.48-.47-.68-.94-.55-.8.21-1.6.41-2.37.69-4.38,1.58-8.01,4.34-11.4,7.44-4.31,3.95-8.22,8.27-11.94,12.78-7.54,9.15-15.4,18.04-23.41,26.8-5.15,5.64-10.34,11.24-15.99,16.38-2.34,2.13-4.75,4.17-7.47,5.81-.46.28-.78.32-1.24-.06-7.09-5.85-13.82-12.09-20.24-18.66-.27-.28-.47-.53-.42-.98.17-1.36.27-2.74.42-4.1.83-7.35,2.18-14.6,3.82-21.81.12-.54.34-1.17-.45-1.33-.72-.15-.81.48-.92.97-1.26,5.6-2.4,11.22-3.19,16.9-.38,2.77-.71,5.56-1.08,8.46-2.42-2.49-4.66-4.98-6.88-7.49-.34-.39-.11-.72,0-1.05,1.57-4.83,3.09-9.67,4.76-14.47,1.88-5.44,3.75-10.9,6.57-15.96,1.12-2.02,2.42-3.9,4.26-5.38,3.11-2.49,6.59-4.32,10.25-5.84,4.92-2.04,10.05-3.46,15.02-5.37.59-.23,1.17-.45,1.9-.73-.11.4-.17.62-.23.84-.85,3.11-1.7,6.22-2.54,9.34-.12.45-.36.97.22,1.28.64.33.92-.2,1.23-.61,1.79-2.31,3.58-4.61,5.38-6.92.71-.91,1.41-1.81,2.18-2.8.28.4.52.7.71,1.02,2.02,3.39,2.37,6.88.72,10.53-.71,1.57-1.67,2.98-2.61,4.41-2.18,3.32-3.53,7.02-4.83,10.76-3.92,11.23-6.38,22.8-7.91,34.57-.22,1.67-.35,3.35-.53,5.02-.05.49.15.84.64.88.43.04.69-.25.74-.69.02-.21.07-.41.09-.61.61-6.47,1.61-12.88,2.94-19.24,1.75-8.38,4.02-16.61,7.25-24.55.88-2.16,1.78-4.36,3.35-6.12,2.62-2.93,4.58-6.24,6.18-9.8.87-1.94,1.77-3.87,2.64-5.81.44-.99,1.23-1.1,2.15-.87.72.18,1.27.67,1.76,1.21.79.88,1.37,1.89,1.87,2.95,1.36,2.87,2.25,5.89,2.9,8.99.32,1.52.67,1.66,1.84.67,2.74-2.3,5.53-4.53,8.41-6.64,6.7-4.93,13.5-9.7,21.27-12.85.47-.19.8-.49.55-1.02-.24-.51-.67-.45-1.15-.27-1.79.7-3.53,1.51-5.23,2.42-8.47,4.51-16.11,10.22-23.53,16.25-.26.21-.45.52-.89.58-.04-.16-.07-.32-.11-.47-.74-2.97-1.58-5.9-2.99-8.64-.99-1.92-2.14-3.69-4.32-4.61.49-.3.9-.55,1.31-.8,5.05-3,10.32-5.57,15.71-7.91,6.67-2.9,13.43-5.58,20.43-7.63.89-.26,1.16-.03,1.29.86.35,2.59.53,5.2.74,7.8.06.74.34,1.28.85,1.79,2.3,2.32,4.78,4.45,7.21,6.63,3.74,3.36,7.33,6.85,10.37,10.89,5.68,7.54,8.27,15.98,7.25,25.41-.81,7.49-2.43,14.84-4.27,22.14-5.36,21.36-12.91,41.95-21.82,62.06-.11.25-.24.49-.34.75-.15.4-.1.76.31.97.42.21.73.02.94-.36.15-.27.27-.55.4-.84,2.61-5.78,5.07-11.64,7.36-17.55,8.13-20.97,15.09-42.27,18.54-64.58,1.48-9.52-.22-18.38-5.56-26.48-3.07-4.66-6.93-8.61-11.02-12.36-2.64-2.41-5.36-4.73-7.93-7.22-.64-.62-.91-1.29-.96-2.16-.15-2.57-.39-5.14-.77-7.69-.16-1.07-.71-1.65-1.65-2.01-1.1-.42-2.25-.62-3.41-.74-.58-.06-.71-.3-.73-.83-.06-2.41-.17-4.81-.25-7.22-.02-.51-.05-.97-.61-1.18,0-.79,0-1.58-.01-2.37.23-.06.46-.13.7-.18,4.74-1.07,7.63-3.96,8.63-8.72.09-.44.34-.73.61-1.04,4.13-4.91,7.02-10.46,8.66-16.67.12-.44.26-.86-.04-1.27.42-1.38.97-2.73,1.08-4.19.34-.27.48-.65.64-1.04.79-1.96,1.25-4,1.28-6.12.09-5.85-2-10.72-6.62-14.42-.45-.36-.9-.65-1.48-.26-.53-.58-1.2-.94-1.9-1.26.05-.42-.02-.81-.14-1.22-.65-2.21-1.95-3.99-3.59-5.56-2.66-2.55-5.86-4.14-9.37-5.17-4.32-1.26-8.92-1.78-12.67-4.64-.32-.24-.66-.13-.9.19-.25.33-.2.67.1.92.39.33.83.6,1.25.9-.33.32-.69.1-1.04.06-.73-.08-1.46-.17-2.18-.26-1.74-.69-3.58-.94-5.42-1.07-5.48-.38-10.71.65-15.71,2.92-1.4.64-2.78,1.32-4.2,1.92-2,.85-4.06,1.48-6.28,1.26-.51-.05-.93.03-.97.62-.04.59.4.7.88.77,1.49.2,2.94-.07,4.37-.43-1.33,1.27-2.93,2.24-4.17,3.62-3.91,2.42-6.32,5.89-6.98,10.43-.67,4.6,1.11,8.33,4.52,11.36.32.29.67.47.52,1.08-.93,3.87-1.23,7.79-1,11.77.15,2.58-.06,5.15-.52,7.7-.61,3.31-1.34,6.61-1.15,10.01.41,7.36,2.7,14.13,6.66,20.32,2,3.13,4.35,5.93,8.14,7.26-.59.3-1.06.54-1.53.79-2.65,1.37-5.32,2.72-7.71,4.53-1.33,1.01-2.52,2.15-3.01,3.81-.18.62-.56.94-1.14,1.19-2.52,1.09-5.12,1.98-7.72,2.86-5.07,1.71-10.14,3.42-14.88,5.96-4.91,2.63-8.72,6.25-10.97,11.44-1.31,3.02-2.64,6.02-3.77,9.12-2.24,6.12-4.27,12.32-6.27,18.52-.08.24-.05.54-.39.69-.78-.96-1.53-1.95-2.35-2.87-.44-.49-.47-.81-.05-1.37,1.54-2.06,2.1-4.36,1.03-6.79-2.01-4.51-3.83-9.1-5.74-13.65-.53-1.26-1.4-2.1-2.61-2.61-.86-.36-1.74-.7-2.67-.73-1.16-.03-1.35-.64-1.2-1.59.03-.17.04-.34.06-.51.33-2.98,1.4-5.74,2.66-8.4,2.4-5.08,3.4-10.33,2.57-15.92-.49-3.3-1-6.59-2.48-9.63-.83-1.7-1.9-3.22-3.64-4.08-.7-.34-.98-.79-1.18-1.5-.55-1.98-1.09-3.98-2.16-5.77-.99-1.66-2.62-2.4-4.36-2.06-1.73.34-3.08,1.77-3.36,3.61-.09.57-.15,1.17-.11,1.74.05.74-.11,1.02-.96,1.06-2.31.11-4.07,1.21-4.96,3.4-.25.63-.53.84-1.21.95-2.39.36-4.47,1.28-5.17,3.88-.17.61-.38.79-1,.83-2.38.15-3.94,1.49-4.53,3.8-.14.53-.26,1.07-.33,1.61-.04.34-.16.54-.47.71-1.57.82-2.4,2.22-2.87,3.85-.81,2.78-.6,5.59-.1,8.38,1.21,6.78,3.68,13.13,6.8,19.24.5.98.93,1.98,1.35,3,.19.45.11.68-.25,1.03-1.2,1.16-2.46,2.27-3.52,3.57-2.01,2.45-3.35,5-1.44,8.14.21.35.19.56-.3.71-3.05.93-6.09,1.9-9.13,2.86-2.23.7-3.19,1.94-3.24,4.3-.01.51-.17.72-.62.87-1.28.4-2.55.81-3.81,1.27-.53.19-.8.16-1.15-.36-1.31-1.9-2.9-2.4-5.11-1.69-4.68,1.48-9.35,2.97-14.03,4.46-2.44.78-3.37,1.97-3.39,4.49,0,.51-.16.71-.63.86-1.28.39-2.55.81-3.8,1.28-.54.2-.81.1-1.15-.39-1.29-1.85-2.9-2.36-5.02-1.69-4.68,1.48-9.36,2.95-14.04,4.43-2.57.81-3.44,1.94-3.45,4.65,0,.48-.15.65-.57.78-1.41.44-2.82.88-4.2,1.4-.56.21-.75.04-1.05-.39-1.32-1.89-2.91-2.39-5.12-1.7-3.92,1.24-7.86,2.45-11.76,3.76-1,.33-1.33.22-1.65-.84-4.31-14.29-8.68-28.56-13.02-42.83-.41-1.36-1.08-2.24-2.59-2.56-14.2-3.02-28.41-6.06-42.59-9.19-2.14-.47-3.85-.52-4.93,1.69C.02,79.02.02,39.99,0,.97,0,.22.13,0,.93,0,110.29.02,219.64.02,328.99,0c.83,0,1.01.15,1.01,1-.02,94.32-.03,188.64,0,282.96,0,.91-.23,1.04-1.07,1.04-32.05-.02-64.1-.02-96.15-.02.1-.35.24-.68.24-1.07,0-4.13.02-8.25.02-12.38,0-13.68-.09-27.37.64-41.04.03-.54.08-1.14-.63-1.18-.72-.05-.73.56-.76,1.1-.29,4.56-.44,9.13-.52,13.71-.22,11.65-.09,23.31-.13,34.96,0,1.97-.19,3.94.11,5.9ZM307.6,282.63c-.57-8-1.22-16.22-1.95-24.43-.78-8.69-1.65-17.37-2.72-26.02-.06-.52-.19-1.03-.81-.97-.71.07-.67.65-.6,1.19.15,1.23.3,2.45.45,3.68,1.16,9.51,2.04,19.05,2.83,28.6.5,6.09.96,12.19,1.42,18.29.04.5.18.95.73.93.61-.02.76-.49.66-1.27ZM120.31,148.43c1.1.16,2,0,2.86-.4.43-.2.68-.49.48-.97-.2-.49-.61-.52-1.03-.32-.81.38-1.64.39-2.51.27-1.04-.13-2.03.13-2.72.93-.79.91-1.7,1.17-2.84,1.02-1.21-.16-2.24.24-3.03,1.18-.67.78-1.44,1.04-2.47.77-1.18-.32-2.44-.25-3.18.84-.73,1.07-1.62,1.34-2.81,1.21-.71-.08-1.36.16-1.9.63-.3.26-.36.59-.17.93.17.31.54.46.79.27.81-.59,1.71-.37,2.58-.41.84-.04,1.59-.36,2.01-1.07.67-1.12,1.57-1.29,2.72-.98,1.29.35,2.39-.05,3.24-1.03.71-.81,1.53-1.07,2.56-.92,1.23.18,2.31-.16,3.14-1.14.64-.75,1.46-.97,2.26-.8ZM168.77,171.29c-.53.03-.92.7-.54,1.03.78.67.85,1.61,1.17,2.46.28.75.77,1.36,1.54,1.56,1.24.32,1.73,1.11,1.75,2.31.03,1.33.7,2.29,1.89,2.83.97.44,1.49,1.15,1.64,2.18.19,1.27.84,2.22,2.05,2.76.79.35,1.19.97,1.32,1.83.14.96.49,1.85,1.15,2.6.32.36.66.67,1.13.3.46-.36.34-.77,0-1.15-.54-.61-.78-1.35-.91-2.14-.18-1.06-.66-2.01-1.67-2.46-1.14-.51-1.63-1.36-1.82-2.52-.17-1.03-.71-1.9-1.69-2.32-1.23-.52-1.75-1.4-1.8-2.71-.04-1.24-.72-2.19-1.9-2.56-1-.31-1.45-.92-1.63-1.88-.12-.68-.4-1.31-.96-1.77-.21-.17-.43-.35-.73-.34ZM128.72,171.86c1.29.16,2.23.01,3.1-.44.37-.19.59-.51.38-.93-.19-.38-.53-.56-.94-.34-.87.45-1.79.38-2.72.31-1.06-.09-2.01.21-2.69,1.01-.73.86-1.6,1.06-2.67.92-1.11-.15-2.17.12-2.89,1-.87,1.05-1.86,1.21-3.12.9-1.16-.29-2.23.08-2.91,1.07-.6.89-1.33,1.19-2.35,1.08-.8-.09-1.58.03-2.21.62-.28.26-.4.57-.16.92.22.32.56.49.88.25.61-.46,1.29-.38,1.97-.36,1.05.03,2-.25,2.59-1.18.64-1,1.45-1.2,2.56-.9,1.2.32,2.37.09,3.2-.89.8-.95,1.74-1.23,2.92-1.07,1.08.14,2.06-.13,2.79-.99.69-.81,1.53-1.12,2.27-.95ZM215.39,156.36c-.39,0-.65.13-.76.47-.1.33-.01.66.3.8.68.3.89.91,1.17,1.5.43.92,1.06,1.69,2.1,1.78,1.28.11,1.9.76,2.15,1.94.28,1.3,1.12,2.13,2.38,2.43,1.05.25,1.67.84,2.02,1.83.4,1.12,1.11,1.99,2.33,2.27,1.01.23,1.61.84,1.93,1.79.3.9.86,1.63,1.6,2.22.36.29.74.41,1.09.04.37-.38.25-.78-.13-1.06-.75-.56-1.13-1.35-1.46-2.19-.39-.98-1.07-1.72-2.1-1.96-1.14-.27-1.74-.96-2.12-2-.4-1.1-1.17-1.87-2.33-2.13-1.14-.26-1.76-.9-2.01-2.05-.24-1.14-.92-2.11-2.11-2.27-1.31-.18-1.99-.83-2.45-1.99-.28-.72-.84-1.25-1.61-1.41ZM195.42,150.55c-.16-.7-.6-.75-1.24-.6-7.49,1.78-13.1,6.09-17.08,12.62-.07.12-.15.23-.2.36-.14.36-.11.7.24.91.38.23.73.13.98-.24.17-.26.32-.53.49-.79,2.91-4.6,6.78-8.07,11.83-10.18,1.33-.56,2.71-.99,4.11-1.32.44-.1.78-.25.86-.76Z"/>
      <path class="cls-6" d="M.02,118.05c1.09-2.21,2.79-2.16,4.93-1.69,14.18,3.13,28.38,6.17,42.59,9.19,1.5.32,2.18,1.21,2.59,2.56,4.34,14.28,8.71,28.55,13.02,42.83.32,1.06.65,1.17,1.65.84,3.9-1.31,7.84-2.52,11.76-3.76,2.21-.7,3.8-.19,5.12,1.7.3.43.5.6,1.05.39,1.38-.52,2.79-.96,4.2-1.4.42-.13.57-.3.57-.78.02-2.71.88-3.84,3.45-4.65,4.68-1.48,9.36-2.96,14.04-4.43,2.12-.67,3.73-.16,5.02,1.69.34.48.61.59,1.15.39,1.25-.46,2.53-.88,3.8-1.28.47-.14.62-.35.63-.86.03-2.53.95-3.72,3.39-4.49,4.68-1.49,9.35-2.98,14.03-4.46,2.21-.7,3.8-.2,5.11,1.69.35.51.63.55,1.15.36,1.26-.46,2.53-.87,3.81-1.27.45-.14.61-.36.62-.87.05-2.35,1.01-3.59,3.24-4.3,3.04-.96,6.08-1.93,9.13-2.86.5-.15.51-.37.3-.71-1.91-3.14-.56-5.7,1.44-8.14,1.06-1.3,2.32-2.4,3.52-3.57.36-.35.44-.58.25-1.03-.42-1.02-.85-2.02-1.35-3-3.12-6.11-5.59-12.46-6.8-19.24-.5-2.79-.7-5.6.1-8.38.47-1.63,1.3-3.03,2.87-3.85.31-.16.43-.36.47-.71.07-.54.2-1.08.33-1.61.6-2.31,2.15-3.64,4.53-3.8.62-.04.83-.21,1-.83.71-2.6,2.78-3.52,5.17-3.88.68-.1.95-.32,1.21-.95.89-2.2,2.65-3.29,4.96-3.4.85-.04,1.01-.31.96-1.06-.04-.58.02-1.17.11-1.74.28-1.83,1.63-3.26,3.36-3.61,1.74-.35,3.37.39,4.36,2.06,1.06,1.79,1.6,3.79,2.16,5.77.2.71.48,1.16,1.18,1.5,1.74.85,2.81,2.38,3.64,4.08,1.48,3.04,1.99,6.33,2.48,9.63.83,5.59-.17,10.85-2.57,15.92-1.26,2.67-2.33,5.43-2.66,8.4-.02.17-.03.34-.06.51-.16.95.04,1.56,1.2,1.59.93.02,1.81.37,2.67.73,1.22.52,2.09,1.35,2.61,2.61,1.91,4.55,3.73,9.14,5.74,13.65,1.08,2.42.51,4.73-1.03,6.79-.42.56-.38.88.05,1.37.82.92,1.57,1.91,2.35,2.87.33-.15.31-.45.39-.69,2-6.2,4.03-12.39,6.27-18.52,1.13-3.1,2.46-6.1,3.77-9.12,2.25-5.19,6.06-8.81,10.97-11.44,4.75-2.54,9.81-4.25,14.88-5.96,2.6-.88,5.2-1.77,7.72-2.86.58-.25.95-.56,1.14-1.19.49-1.67,1.68-2.8,3.01-3.81,2.39-1.81,5.06-3.16,7.71-4.53.47-.24.95-.49,1.53-.79-3.79-1.33-6.15-4.13-8.14-7.26-3.96-6.19-6.24-12.96-6.66-20.32-.19-3.4.55-6.7,1.15-10.01.47-2.55.67-5.11.52-7.7-.23-3.97.07-7.9,1-11.77.15-.61-.2-.79-.52-1.08-3.41-3.03-5.19-6.76-4.52-11.36.66-4.54,3.08-8.01,6.98-10.43,1,.43,1.08.86.23,1.48-.81.59-1.58,1.21-2.27,1.93-4.85,5.09-4.88,12.09-.11,16.76.63.62.83.52,1.09-.27.82-2.46,2.07-4.7,3.79-6.65.4-.45.79-.77,1.41-.41.31.56.03.95-.34,1.36-1.3,1.44-2.29,3.08-3.03,4.87-1.99,4.79-2.54,9.82-2.31,14.95.14,3.11-.06,6.18-.64,9.23-.6,3.17-1.22,6.34-1.01,9.6.32,4.75,1.58,9.26,3.48,13.6,1.61,3.67,3.61,7.1,6.59,9.87,1.47,1.37,3.15,2.26,5.21,2.43,3.66.29,7.18-.37,10.68-1.31,6.38-1.72,12.21-4.39,16.48-9.71.09-.11.18-.21.29-.29.29-.21.58-.19.84.04.27.23.35.53.17.83-.16.26-.37.49-.57.73-2.02,2.32-4.46,4.15-6.92,5.98-5.9,4.37-12.11,7.96-19.54,8.92-.5.06-.61.25-.56.72.11,1.09.17,2.19.25,3.29.04.51-.1.94-.65.97-.56.03-.73-.39-.77-.89-.07-.85,0-1.72-.24-2.56.03-1.45-.25-2.85-.48-4.39-3.59,1.86-7.22,3.5-10.25,6.14-.23.2-.42.46-.64.66-.38.35-.34.57.13.81,1.33.67,2.5,1.58,3.48,2.7.64.73,1.2,1.52,1.91,2.44.04-3.05,1.15-5.55,2.76-7.86.56-.8.96-.75,1.48.13-.11.52-.49.9-.77,1.33-1.34,2.06-2.13,4.3-2.11,6.78.02,2.31.41,4.61,0,6.94.58-.03.59-.51.73-.8.94-2.02,1.89-4.04,2.74-6.09.86-2.07,2.21-3.58,4.18-4.74,10.34-6.06,21.28-10.77,32.56-14.73.64-.22.84-.47.81-1.14-.16-3.22-.27-6.45-.4-9.68-.03-.63-.02-1.2.81-1.26.56.21.6.67.61,1.18.08,2.41.19,4.81.25,7.22.01.54.15.77.73.83,1.16.12,2.31.32,3.41.74.94.36,1.49.94,1.65,2.01.39,2.55.63,5.12.77,7.69.05.87.32,1.54.96,2.16,2.57,2.49,5.29,4.81,7.93,7.22,4.09,3.75,7.95,7.7,11.02,12.36,5.34,8.1,7.03,16.95,5.56,26.48-3.46,22.31-10.42,43.61-18.54,64.58-2.29,5.92-4.75,11.77-7.36,17.55-.13.28-.25.57-.4.84-.21.38-.51.57-.94.36-.41-.21-.46-.57-.31-.97.1-.26.23-.5.34-.75,8.91-20.11,16.46-40.7,21.82-62.06,1.83-7.3,3.45-14.65,4.27-22.14,1.03-9.43-1.57-17.87-7.25-25.41-3.04-4.03-6.63-7.52-10.37-10.89-2.43-2.18-4.91-4.31-7.21-6.63-.51-.51-.79-1.05-.85-1.79-.21-2.6-.39-5.21-.74-7.8-.12-.89-.39-1.12-1.29-.86-7,2.04-13.75,4.73-20.43,7.63-5.38,2.34-10.65,4.91-15.71,7.91-.41.24-.82.5-1.31.8,2.19.92,3.34,2.69,4.32,4.61,1.41,2.74,2.25,5.67,2.99,8.64.04.15.07.31.11.47.44-.06.63-.37.89-.58,7.42-6.03,15.07-11.73,23.53-16.25,1.7-.9,3.44-1.71,5.23-2.42.48-.19.9-.24,1.15.27.26.53-.08.83-.55,1.02-7.77,3.16-14.57,7.93-21.27,12.85-2.88,2.12-5.67,4.35-8.41,6.64-1.17.98-1.52.85-1.84-.67-.65-3.1-1.54-6.12-2.9-8.99-.5-1.06-1.08-2.07-1.87-2.95-.49-.54-1.03-1.03-1.76-1.21-.91-.23-1.7-.12-2.15.87-.87,1.94-1.77,3.87-2.64,5.81-1.6,3.56-3.56,6.87-6.18,9.8-1.57,1.76-2.47,3.95-3.35,6.12-3.23,7.94-5.49,16.17-7.25,24.55-1.33,6.36-2.33,12.77-2.94,19.24-.02.21-.07.41-.09.61-.05.45-.31.73-.74.69-.49-.04-.69-.39-.64-.88.18-1.67.32-3.35.53-5.02,1.53-11.78,3.99-23.34,7.91-34.57,1.3-3.73,2.66-7.44,4.83-10.76.94-1.44,1.9-2.84,2.61-4.41,1.65-3.65,1.3-7.14-.72-10.53-.19-.32-.43-.61-.71-1.02-.77.98-1.47,1.89-2.18,2.8-1.79,2.31-3.58,4.61-5.38,6.92-.31.4-.6.94-1.23.61-.58-.3-.34-.83-.22-1.28.84-3.11,1.69-6.23,2.54-9.34.06-.22.12-.45.23-.84-.73.28-1.31.51-1.9.73-4.96,1.91-10.1,3.33-15.02,5.37-3.66,1.52-7.14,3.35-10.25,5.84-1.84,1.47-3.13,3.35-4.26,5.38-2.81,5.06-4.68,10.52-6.57,15.96-1.66,4.8-3.18,9.64-4.76,14.47-.11.33-.33.66,0,1.05,2.22,2.52,4.47,5.01,6.88,7.49.37-2.91.7-5.69,1.08-8.46.79-5.68,1.92-11.31,3.19-16.9.11-.5.2-1.13.92-.97.79.17.57.79.45,1.33-1.64,7.2-2.99,14.46-3.82,21.81-.15,1.37-.25,2.74-.42,4.1-.06.45.14.7.42.98,6.43,6.57,13.15,12.81,20.24,18.66.47.38.78.34,1.24.06,2.72-1.64,5.13-3.68,7.47-5.81,5.65-5.15,10.84-10.75,15.99-16.38,8-8.76,15.86-17.64,23.41-26.8,3.72-4.51,7.63-8.83,11.94-12.78,3.39-3.1,7.01-5.86,11.4-7.44.77-.28,1.57-.48,2.37-.69.47-.13.84.07.94.55.1.44-.18.72-.59.82-5.64,1.32-9.92,4.87-14.05,8.65-3.35,3.07-6.48,6.37-9.36,9.88-10.65,12.96-21.79,25.5-33.34,37.66-1.63,1.72-3.33,3.39-5.04,5.03-3.29,3.17-6.66,6.25-10.63,8.68,3.31,3.7,4.38,8.17,4.59,12.94,0,.21,0,.41.01.62,0,.49-.08.94-.68.95-.6,0-.69-.43-.71-.92-.06-1.96-.28-3.91-.76-5.81-.83-3.29-2.45-6-5.14-8.2-11.18-9.14-21.52-19.15-30.84-30.19-2.71-3.2-5.31-6.49-7.26-10.23-.39-.75-.97-.5-1.51-.4-5.74,1.08-10.93,3.38-15.5,7.04-2.35,1.88-4.4,4.03-6.06,6.57-.68,1.05-.79,1.89-.09,3.06,6.52,10.9,12.69,22.01,20.03,32.4,6.74,9.55,14.28,18.41,23.23,26.01,2.7,2.29,5.6,4.3,8.63,6.16,4.3,2.64,8.86,3.1,13.69,2.09,6.69-1.4,12.82-4.23,18.77-7.47,11.75-6.4,22.5-14.25,32.85-22.68,10.46-8.53,20.4-17.62,29.45-27.65.35-.39.73-.89,1.28-.42.61.52.13.97-.24,1.39-10.28,11.34-21.6,21.57-33.59,31.05-9.52,7.53-19.42,14.52-30.18,20.2-5.54,2.93-11.24,5.42-17.38,6.83-5.65,1.3-10.92.68-15.94-2.41-5.61-3.45-10.55-7.67-15.16-12.32-4.9-4.94-9.35-10.26-13.54-15.81-.27-.35-.54-.7-.93-1.22-.31,1.44-.55,2.73-.86,4-.42,1.73-.88,3.46-1.32,5.19-.07.29-.33.59.2.83,1.7.77,2.77,2.21,3.72,3.74.87,1.4,1.52,2.91,2.1,4.46.2.53.22.99-.37,1.18-.55.19-.78-.22-.95-.68-.6-1.65-1.31-3.25-2.29-4.71-.61-.92-1.31-1.77-2.23-2.4-.5-.34-1.02-.54-1.65-.38-5.88,1.48-11.87,2.28-17.87,3.02-6.18.76-12.37,1.35-18.58,1.73-.24.01-.48.01-.72.03-.47.04-.86-.12-.9-.62-.04-.56.36-.76.87-.79,1.41-.09,2.82-.15,4.22-.27,10.48-.88,20.94-1.91,31.25-4.09,1.16-.25,1.71-.75,2.02-1.9.83-3.12,1.47-6.28,2.12-9.44.08-.38-.02-.65-.23-.95-7.23-10.13-13.31-20.98-19.66-31.66-.37-.63-.79-.92-1.48-1.06-2.3-.46-4.14-1.62-5.28-3.74-.13-.24-.18-.64-.63-.28-.97.76-2.16,1.01-3.31,1.37-2.35.75-4.71,1.5-7.06,2.24-2.25.71-3.98.12-5.2-1.89-.36-.58-.64-.63-1.21-.41-1.19.45-2.4.84-3.61,1.21-.49.15-.7.31-.66.91.14,2.33-.95,3.83-3.18,4.54-4.77,1.52-9.55,3.03-14.32,4.55-2.16.68-3.83.13-5.07-1.77-.35-.54-.63-.65-1.22-.42-1.22.47-2.46.87-3.71,1.24-.48.14-.63.32-.61.85.09,2.57-.85,3.85-3.31,4.63-4.71,1.5-9.41,3-14.12,4.49-2.2.7-3.83.17-5.09-1.73-.37-.55-.65-.62-1.24-.4-1.32.49-2.66.9-4,1.33-.42.13-.56.32-.56.8.01,2.76-.86,3.92-3.47,4.75-4.02,1.27-8.04,2.56-12.07,3.81-.63.2-.78.38-.56,1.05,1.11,3.43,2.18,6.87,3.19,10.33.26.88.66,1.12,1.56,1.12,22.46-.03,44.91-.02,67.37-.02,2.28,0,2.88.41,3.64,2.54,3.13,8.72,6.26,17.43,9.4,26.15.39,1.08.57,2.2.47,3.34-.13,1.54-1.03,2.34-2.57,2.35-3.47,0-6.95.02-10.42-.01-.63,0-.91.12-.91.82,0,.85-.14,1.71-.22,2.56-.05.53-.24.99-.88.86-.57-.11-.58-.55-.51-1.05.12-.82.15-1.64.24-2.46.06-.51-.09-.74-.66-.73-4.64.02-9.29.01-13.93,0-.32,0-.61-.02-.61.46-.01,1.29-.36,2.51-.82,3.7-.24.63.06.66.55.69,5.56.34,11.12.73,16.68,1.03,12.88.69,25.77,1.17,38.67.99,6.7-.09,13.41-.28,20.06-1.19,1.3-.18,2.55-.54,3.78-.98.54-.19.71-.46.74-1.03.3-6.73.62-13.46.95-20.2,0-.1.01-.21.01-.31,0-.53.1-1.03.75-.99.64.04.68.55.66,1.07-.13,2.75-.26,5.5-.39,8.24-.32,6.97-.66,13.94-.96,20.92-.56,12.88-1.09,25.77-1.63,38.65-.02.54-.03,1.12-.77,1.06-.65-.05-.66-.57-.64-1.08.5-11.85,1.01-23.7,1.51-35.56.12-2.92.24-5.84.37-8.76.02-.43.08-.75-.57-.54-4.23,1.43-8.66,1.5-13.04,1.73-15.75.82-31.49.26-47.22-.51-6.73-.33-13.46-.75-20.18-1.24-1.28-.09-2.11-.66-2.44-1.82-.22-.78-.67-.87-1.34-.92-6.07-.44-12.1.04-18.09.99-5.87.93-11.72.72-17.59.19-5.58-.5-11.16-1.05-16.73-1.57-.91-.09-1.77-.28-2.45-.93-.3-.29-.69-.27-1.06-.34-1.33-.28-2.75-.36-3.68-1.58-.25-.32-.64-.17-.97-.17-6.09,0-12.17,0-18.26,0-.86,0-1.93.13-2.44-.54-.78-1.01-1.85-1.6-2.75-2.43-.39-.36-.49-.9-.64-1.39-6-19.55-12-39.1-18-58.64-3.76-12.23-7.53-24.46-11.28-36.7-1.08-3.51-2.11-7.03-3.17-10.54-.09-.3-.05-.68-.4-.87v-2.27ZM47.87,181.78c-.36.09-.73.15-1.09.26q-2.63.82-1.73,3.39.6,1.72,2.31,1.18c.6-.19,1.19-.38,1.84-.59-1.61-1.45-1.87-2.41-1.2-4.12.01-.07.03-.15.04-.22-.06.03-.12.06-.17.1ZM151.74,152.86c.3.46.63.06.89-.01,1.61-.48,3.21-1.01,4.81-1.52,2.25-.72,2.45-1.16,1.55-3.27-.53-1.24-1.11-1.56-2.41-1.18-1.9.56-3.78,1.17-5.69,1.78,1.65,1.69,1.89,2.94.85,4.22.05.05.11.1.16.14,0-.02.01-.06,0-.06-.05-.03-.11-.06-.17-.08ZM67.46,179.93c.07.17.18.15.32.1,3.17-1,6.33-2.01,9.6-3.04-1.64-1.12-2.03-2.56-1.19-4.39-3.44,1.09-6.71,2.14-10.08,3.21,1.66,1.25,1.97,2.24,1.38,4.13-.03.04-.06.08-.09.12.04,0,.08,0,.12,0l-.06-.13ZM124.05,161.81c3.22-.98,6.44-1.96,9.82-2.99-1.71-1.14-2.01-2.57-1.27-4.39-3.43,1.09-6.69,2.12-10.03,3.18,1.67,1.33,1.98,2.32,1.34,4.08-.05.09-.12.18.01.25.02,0,.08-.08.12-.12ZM104.46,163.67c-.63-.24-1.14.18-1.69.35-2.87.88-5.74,1.8-8.68,2.73,1.72,1.17,2.09,2.19,1.52,4.02-.04.09-.12.19.03.25.03,0,.09-.08.14-.12,3.28-1.01,6.55-2.01,9.95-3.05-1.68-1.35-1.95-2.29-1.31-4.2.03-.04.07-.08.1-.12-.04,0-.08,0-.12,0,.02.04.03.09.05.13ZM166.88,156.92c.07,0,.14,0,.21.01-.04-.04-.07-.08-.11-.12-.36-.45.04-1.25-.6-1.53-2.08-.91-2.27-3.17-.84-5.15,1-1.39,2.25-2.51,3.63-3.48,5.47-3.83,11.54-6.19,18.1-7.32,2.34-.41,4.72-.62,7.05.11,2.37.75,3.09,2.43,2.05,4.64-.07.16-.21.3-.23.46-.07.47.33.72.57,1.04.19.25.34,0,.47-.14,2.18-2.36,1.39-5.73-1.62-6.82-1.84-.67-3.77-.87-5.69-.69-8.12.75-15.51,3.5-22.08,8.35-1.7,1.25-3.16,2.77-4.1,4.7-1.17,2.39-.65,4.04,1.66,5.37.48.27.96.53,1.53.58ZM7.16,122.12c9.98,32.73,19.91,65.32,29.83,97.89.18-.04.22-.04.24-.06,9.8-7.88,19.6-15.76,29.42-23.63.39-.31.45-.55.3-1.03-.95-2.97-1.87-5.96-2.76-8.95-.18-.6-.45-.99-1.07-1.21-.86-.31-1.53-.96-1.95-1.76-.3-.57-.61-.57-1.14-.37-1.16.43-2.33.82-3.52,1.16-.63.18-.83.45-.81,1.14.09,2.24-1,3.69-3.14,4.37-1.55.5-3.1,1-4.77,1.53.5.57.79,1.16,1.59,1.12.4-.02.61.27.63.67.02.42-.26.63-.61.72-.67.17-1.21-.12-1.7-.53-.81-.67-1.36-1.54-1.85-2.45-1.55-2.85-2.6-5.89-3.32-9.05-.32-1.41-.54-2.84-.39-4.29.09-.88.35-1.68,1.16-2.19.38-.24.73-.21,1,.14.23.31.23.68-.1.92-.58.42-.63,1.01-.68,1.64-.05.58.11.73.68.53,1.36-.47,2.74-.89,4.11-1.33,2.4-.76,3.87-.3,5.35,1.77.28.39.48.44.91.29,1.29-.46,2.6-.88,3.91-1.29.48-.15.71-.33.66-.93-.09-.93.12-1.87.69-2.64.36-.48.34-.89.17-1.41-2.51-8.02-5-16.05-7.49-24.08-1.85-5.96-3.7-11.93-5.49-17.91-.24-.8-.54-1.16-1.39-1.32-10.08-1.93-20.16-3.9-30.24-5.86-2.69-.52-5.37-1.04-8.23-1.59ZM185.85,83.83c.1.48.14.72.19.95.99,4.29,1.75,8.62,2.17,13,.05.53.1,1.14-.61,1.19-.7.05-.76-.54-.81-1.08-.56-5.9-1.71-11.68-3.34-17.37-.45-1.58-.92-3.17-1.75-4.61-.67-1.15-1.67-1.62-2.84-1.41-1.12.19-2.02,1.05-2.27,2.25-.1.47-.12.95-.13,1.43-.02,3,.37,5.96.71,8.93.11.99.25,1.98.38,2.96.06.49-.13.84-.62.9-.43.05-.69-.24-.76-.67-.03-.17-.08-.34-.1-.51-.3-2.7-.63-5.39-.87-8.09-.06-.7-.29-.85-.93-.82-2.43.1-4.07,1.7-4.22,4.19-.14,2.35.14,4.67.52,6.98.09.53.2,1.11-.5,1.24-.71.13-.81-.44-.89-.98-.33-2.11-.58-4.22-.59-6.36,0-.26.26-.7-.38-.73-1.98-.09-3.97,1.49-4.22,3.48-.3,2.47-.25,4.94-.03,7.41.05.55.11,1.12-.58,1.21-.71.09-.76-.49-.82-1.04-.22-1.89-.21-3.78-.13-5.66.02-.54-.11-.71-.67-.66-1.64.13-2.8,1.11-3.22,2.85-.49,2.02-.53,4.08-.49,6.15,0,.34,0,.69.04,1.03.04.52,0,1.05-.63,1.09-.7.04-.79-.53-.8-1.08-.01-1.22,0-2.44,0-3.86-.91.75-1.37,1.54-1.66,2.42-.56,1.69-.67,3.43-.53,5.19.39,4.84,1.86,9.41,3.51,13.94,1.29,3.56,3.17,6.85,4.63,10.32.36.85.61.77,1.26.35,6.24-3.95,13.07-5.99,20.45-6.12.99-.02,1.5-.12,1.36-1.27-.08-.6.07-1.23.18-1.84.51-2.79,1.53-5.42,2.73-7.96,2.28-4.83,3.13-9.84,2.29-15.14-.48-3.02-.93-6.04-2.27-8.84-.61-1.27-1.37-2.43-2.78-3.36ZM37,227.62c.39.25.82.15,1.22.15,37.38,0,74.76,0,112.14,0,1.57,0,1.65-.1,1.13-1.55-3.13-8.72-6.26-17.45-9.4-26.17-.55-1.53-.65-1.59-2.31-1.59-22.32,0-44.64.01-66.95-.03-1.41,0-2.48.41-3.53,1.31-10.48,9.02-20.98,18-31.47,27-.3.26-.69.44-.83.87ZM196.72,137.2c.03-.08-.15-.27-.23-.48-1.3-3.14-2.72-6.23-3.88-9.42-.73-2.02-2.1-2.92-4.06-3.3-4.18-.81-8.29-.34-12.36.66-6.14,1.51-11.69,4.15-16.16,8.76-1.15,1.19-2.22,2.44-2.86,4-.38.93-.41,1.82.02,2.78,1.51,3.43,2.94,6.88,4.41,10.33.09.22.21.44.38.78,1.09-2.66,2.78-4.67,4.95-6.17,8.95-6.16,18.55-10.02,29.8-7.94ZM3.01,117.43c.08.35.12.58.18.8,1.37,4.53,2.72,9.07,4.11,13.6,9.54,31.05,19.08,62.1,28.62,93.15q.37,1.22,1.37.36c10.74-9.18,21.48-18.37,32.23-27.54.35-.3.31-.54.2-.88-1.14-3.64-2.27-7.28-3.42-10.91-.09-.28,0-.8-.57-.63-.57.17-.21.56-.13.84.93,3.05,1.86,6.11,2.84,9.15.25.77.11,1.24-.54,1.75-10.12,8.1-20.21,16.23-30.31,24.35-1.09.88-1.4.78-1.82-.59-1.7-5.58-3.4-11.17-5.1-16.75-8.32-27.33-16.63-54.66-24.94-81.99-.46-1.5-.22-1.77,1.27-1.48,13.22,2.57,26.44,5.14,39.66,7.69.82.16,1.22.5,1.46,1.31,1.48,4.97,3,9.92,4.53,14.88,2.83,9.15,5.67,18.3,8.53,27.44.09.28-.03.89.61.73.65-.17.25-.6.16-.91-4.41-14.49-8.83-28.97-13.24-43.45-.25-.81-.66-1.24-1.52-1.43-12.03-2.56-24.05-5.16-36.07-7.75-2.67-.58-5.35-1.15-8.12-1.74ZM92.67,231.42h-9.28c-6.26,0-12.51,0-18.77,0-.45,0-.93-.07-1.03.56-.12.68.41.83.86.94.56.14,1.15.19,1.73.25,5.75.53,11.49,1.1,17.25,1.57,4.45.36,8.91.64,13.37,0,7.8-1.13,15.63-1.9,23.52-1.07,1.45.15.91-.96,1.07-1.58.23-.95-.55-.64-.98-.64-9.25-.01-18.49-.01-27.74-.01ZM94.31,229.17h0c-4.61,0-9.21,0-13.82,0-14.37,0-28.74,0-43.11,0-.21,0-.52-.18-.59.17-.06.29.19.42.42.5.46.16.94.19,1.42.19,37.26,0,74.53,0,111.79,0,.27,0,.56.01.82-.06.31-.09.59-.33.5-.67-.08-.31-.41-.12-.62-.12-18.94,0-37.88,0-56.82,0ZM35.37,228.02C24.13,191.4,12.93,154.9,1.66,118.16c-.3.88-.23,1.46-.05,2.07,1.16,3.81,2.28,7.63,3.45,11.44,4.37,14.24,8.75,28.48,13.13,42.72,5.35,17.42,10.71,34.85,16.06,52.27.17.55.29,1.12,1.13,1.37ZM122.81,160.36c.01-1-.74-1.58-1.7-1.28-1.08.34-2.15.71-3.22,1.06-3.81,1.27-7.61,2.54-11.42,3.8-.78.26-1.15.77-.9,1.57.23.72.68,1.21,1.55.92,4.94-1.65,9.89-3.29,14.83-4.94.55-.18.87-.53.86-1.13ZM94.48,169.61c.03-1.07-.8-1.66-1.82-1.33-4.86,1.61-9.71,3.24-14.56,4.85-.83.27-1.06.82-.86,1.6.2.79.83,1.12,1.69.83,4.89-1.62,9.77-3.26,14.66-4.88.56-.19.84-.55.89-1.07ZM50.35,184.72c.23-.07.5-.14.76-.23,4.69-1.57,9.38-3.13,14.07-4.7,1.05-.35,1.37-.86,1.1-1.71-.27-.85-.83-1.07-1.91-.71-2.93.97-5.86,1.96-8.79,2.94-1.89.63-3.78,1.27-5.67,1.88-.75.24-.92.78-.79,1.46.13.63.5,1.05,1.23,1.08ZM150.9,151.42c.02-1.07-.74-1.68-1.71-1.36-4.92,1.62-9.84,3.27-14.75,4.92-.85.28-.96.93-.71,1.66.25.72.79,1.01,1.55.76,4.92-1.64,9.83-3.28,14.75-4.91.55-.18.87-.53.86-1.05ZM121.34,165.91c.1-.02.34-.06.56-.13,5.04-1.6,10.09-3.2,15.13-4.79.95-.3,1.48-.97,1.68-1.91.09-.41.4-1-.09-1.19-.43-.16-.99.11-1.38.49-.07.07-.1.18-.15.27-.32.58-.85.87-1.46,1.07-4.29,1.36-8.58,2.71-12.87,4.09-.75.24-1.45.32-2.19-.06-.67-.35-1.44,0-1.77.42-.29.37.42.82.79,1.14.45.39.99.62,1.74.61ZM64.95,184.09s.31-.04.57-.13c4.98-1.57,9.95-3.15,14.92-4.72,1.03-.32,1.61-1.02,1.84-2.02.09-.38.29-.92-.08-1.14-.33-.2-.78.13-1.15.29-.17.07-.29.28-.39.45-.35.6-.89.91-1.54,1.11-4.26,1.34-8.51,2.69-12.76,4.05-.78.25-1.51.33-2.29-.07-.61-.32-1.38.02-1.68.41-.34.44.36.84.72,1.17.44.4.98.63,1.83.6ZM90.63,173.2c.73,1.41,1.87,2.01,3.17,1.6,5.04-1.58,10.07-3.18,15.1-4.77.99-.31,1.52-1.02,1.71-2,.07-.37.32-.91-.13-1.1-.39-.17-.86.13-1.25.35-.1.06-.16.22-.22.34-.32.63-.89.93-1.53,1.13-4.31,1.37-8.63,2.74-12.94,4.1-.49.15-1.02.37-1.5.11-.89-.49-1.64-.11-2.42.24ZM88.92,167.27c.06.21-.15.69.22.63.53-.09,1.22-.08,1.5-.71.38-.83,1.07-1.19,1.89-1.44,4.09-1.28,8.18-2.58,12.26-3.89.9-.29,1.76-.5,2.67.04.49.29,1.09,0,1.38-.36.21-.28-.29-.62-.56-.86-.71-.62-1.51-.92-2.47-.62-5.03,1.6-10.07,3.2-15.1,4.81-1.11.35-1.73,1.23-1.8,2.4ZM60.53,176.56c.06.14-.12.61.35.45.52-.17,1.19-.14,1.49-.78.35-.74,1.01-1.05,1.76-1.29,3.86-1.21,7.71-2.45,11.57-3.66,1.16-.37,2.29-.96,3.55-.18.36.23.98-.03,1.21-.34.27-.35-.24-.64-.5-.88-.83-.78-1.78-.89-2.86-.54-4.86,1.56-9.74,3.09-14.61,4.64-1.18.38-1.88,1.28-1.96,2.58ZM117,158.32c.05.18-.12.6.24.51.54-.14,1.23-.11,1.52-.72.4-.84,1.12-1.15,1.93-1.4,3.7-1.16,7.39-2.36,11.1-3.5,1.27-.39,2.53-1.16,3.94-.28.33.21.98-.05,1.2-.37.23-.34-.27-.64-.53-.88-.73-.65-1.55-.95-2.56-.63-5,1.6-10.01,3.18-15.01,4.77-1.13.36-1.82,1.33-1.83,2.5ZM149.38,157.04c.18-.04.41-.08.64-.15,3.04-.96,6.08-1.93,9.12-2.89.5-.16.94-.4,1.37-.7.76-.53.32-1.12.02-1.61-.41-.66-.62.15-.93.24-.35.11-.65.4-1,.51-2.71.87-5.42,1.72-8.13,2.58-.52.17-1.07.22-1.49-.09-.65-.49-1.21-.21-1.82,0-.32.11-.48.22-.25.57.58.88,1.34,1.45,2.49,1.54ZM145.17,149.01c-.12.75.04.91.52.72.56-.23,1.2-.28,1.49-.96.13-.31.44-.54.78-.65,2.97-.95,5.9-2.08,8.95-2.73.99-.21.75-.5.5-1.09-.29-.68-.76-.43-1.2-.29-3.11.97-6.22,1.96-9.33,2.94-1.14.36-1.55,1.26-1.71,2.06ZM244.46,110.84c1.36-1.75,2.72-3.5,4.08-5.25,1.8-2.31,1.76-2.48-.87-3.84-.06-.03-.13-.06-.18-.1-.29-.21-.49-.16-.61.2-.96,2.94-1.8,5.92-2.42,8.99ZM54.28,185.63c-.06-.2.14-.63-.33-.54-.46.08-1.03.1-1.27.57-.43.87-1.19,1.17-2.04,1.42-1.15.34-2.3.71-3.43,1.11-.34.12-1.06.02-.7.77.23.49.33,1.12,1.22.79,1.54-.57,3.14-1.01,4.7-1.52,1.15-.38,1.85-1.38,1.84-2.6ZM49.84,178.11c-1.84.58-3.86,1.2-5.87,1.89-.54.19-.18.73-.12,1.09.08.49.45.27.73.18,1.21-.38,2.42-.74,3.62-1.15.96-.33,1.87-.61,2.85,0,.45.27,1.07,0,1.3-.31.28-.38-.27-.68-.55-.95-.49-.46-1.09-.7-1.97-.73ZM166.04,152.7c.02.63.39,1.08.99,1.26.57.18.58-.44.8-.73.67-.86,1.26-1.79,1.96-2.63.7-.83.07-1.51-.3-2.01-.37-.5-.76.24-1.06.5-.56.49-1.07,1.06-1.55,1.63-.46.56-.81,1.18-.84,1.97ZM177.79,143.69c-1.91.63-3.67,1.53-5.37,2.54-.5.3-1.02.57-1.47.93-.66.52.06.97.17,1.43.09.42.34.17.51,0,1.89-1.85,3.98-3.44,6.16-4.91ZM193.51,140.79c.57.87.93,1.75,1.64,2.47.55-1.46.08-2.17-1.64-2.47ZM298.8,85.36c-.35-.3-.74-.27-1.09-.32-.33-.05-.4.12-.38.41.02.3.21.3.42.24.34-.1.68-.2,1.06-.32Z"/>
      <path class="cls-6" d="M231.75,284.98c-.3-1.96-.11-3.93-.11-5.9.04-11.65-.09-23.31.13-34.96.08-4.57.23-9.14.52-13.71.03-.53.05-1.14.76-1.1.7.04.66.64.63,1.18-.73,13.67-.65,27.36-.64,41.04,0,4.13-.03,8.25-.02,12.38,0,.39-.14.72-.24,1.07h-1.03Z"/>
      <path class="cls-4" d="M259.4,97.21c.24.84.17,1.7.24,2.56.04.5.21.93.77.89.56-.03.69-.47.65-.97-.09-1.1-.14-2.2-.25-3.29-.05-.47.06-.66.56-.72,7.43-.96,13.64-4.55,19.54-8.92,2.47-1.83,4.9-3.65,6.92-5.98.2-.23.42-.46.57-.73.18-.3.1-.6-.17-.83-.27-.23-.56-.25-.84-.04-.11.08-.21.18-.29.29-4.27,5.32-10.1,7.99-16.48,9.71-3.5.94-7.02,1.6-10.68,1.31-2.06-.16-3.74-1.06-5.21-2.43-2.98-2.76-4.98-6.19-6.59-9.87-1.9-4.34-3.16-8.85-3.48-13.6-.22-3.26.4-6.43,1.01-9.6.58-3.05.77-6.12.64-9.23-.22-5.13.33-10.15,2.31-14.95.74-1.79,1.73-3.44,3.03-4.87.37-.41.66-.8.34-1.36,1.46-.6,2.93-1.18,4.53-1.28.58.4,1.03.31,1.33-.35,2.01-.05,4.02-.31,6.03-.2.02.43.13.83.61.93.56.11.72-.37.94-.74.37.06.74.12,1.11.18,4.2.6,8.11,1.92,11.49,4.58.23.18.41.49.79.38h0c-.07.24.05.36.28.4.42.55.7,1.18.96,1.81.81,1.97,1.4,4.01,2.06,6.03,1.07,3.24,2.2,6.44,4.75,8.88.01.12.06.21.2.22h0c.14,1.09.61,2.03,1.25,2.91-.19.43-.17.83,0,1.28,1.08,2.69,2.97,4.21,5.95,4.16,1.12.54,2.42.55,3.53,1.12-.39.22-.69.49-.47.98.24.53.69.43,1.15.39,3.44-.34,5.85,1.81,5.93,5.25.08,3.75-2.56,7.38-6.28,8.64-1.18.4-2.39.62-3.63.67-.53.02-1.14.05-1.12.75.02.79.68.71,1.24.67.58-.04,1.16-.11,1.74-.17,0,.79,0,1.58.01,2.37-.83.06-.84.63-.81,1.26.14,3.23.24,6.45.4,9.68.03.67-.17.92-.81,1.14-11.29,3.95-22.22,8.67-32.56,14.73-1.98,1.16-3.32,2.66-4.18,4.74-.85,2.06-1.8,4.07-2.74,6.09-.14.3-.15.77-.73.8.41-2.33.03-4.63,0-6.94-.02-2.48.77-4.72,2.11-6.78.28-.43.65-.8.77-1.33.54-.21,1.08-.42,1.61-.63ZM262.52,54.63c-.02-1.93-.25-3.83-.59-5.73-.09-.52-.24-1-.88-.87-.62.12-.6.6-.51,1.14.31,1.76.47,3.53.57,5.32.15,2.74-.44,5.06-3.16,6.34-.06.03-.11.08-.17.12-1.13.88-1.45,1.81-1.05,3.18.25.86.7,1.64,1.2,2.38.27.4.63.55,1.05.27.38-.26.35-.64.15-1.01-.29-.54-.64-1.06-.89-1.62-.49-1.12-.34-1.55.66-2.26.28-.2.57-.38.86-.57,1.48-.94,2.35-2.25,2.59-4.01.12-.89.14-1.78.16-2.67ZM250.72,51.34c.02,1.75.87,2.94,2.04,3.11,1.13.17,2.32-.77,2.73-2.19.38-1.31.22-2.53-.82-3.5-.64-.6-1.43-.68-2.2-.29-1.28.64-1.71,1.8-1.76,2.88ZM275.97,53.25c-.04-.25-.05-.63-.16-.99-.29-.95-.85-1.68-1.88-1.83-1.04-.16-1.78.41-2.31,1.23-.22.34-.38.73-.48,1.13-.32,1.29-.12,2.46.92,3.37.63.55,1.39.61,2.12.25,1.24-.61,1.7-1.72,1.78-3.16ZM257.43,71.99c-1.11-.01-2.2.09-3.27.37-.47.12-.89.3-.77.88.13.64.6.62,1.13.48,1.11-.29,2.24-.37,3.37-.32,2.93.14,5.6,1,7.83,2.97.26.23.53.45.92.25.23-.12.38-.29.41-.55.04-.45-.29-.68-.57-.92-2.61-2.2-5.69-3.1-9.05-3.17ZM274.76,45.87c1.13-.07,2.26-.15,3.39-.2.49-.02.83-.25.8-.73-.03-.48-.4-.68-.87-.67-.24,0-.48.04-.72.05-1.98.02-3.96.38-5.95.15-.97-.11-1.7-.49-1.96-1.51-.13-.5-.45-.8-.99-.6-.49.18-.46.62-.36,1.05.3,1.33,1.4,2.23,2.97,2.44,1.23.17,2.46.1,3.69.03ZM254.32,43.76c1.65.03,2.65-.53,3.05-1.52.16-.41.12-.73-.26-.98-.31-.21-.67-.16-.82.12-.77,1.38-1.96,1.04-3.07.73-1.25-.35-2.46-.82-3.69-1.25-.45-.16-.83-.12-1.03.34-.18.41,0,.75.4.91,1.85.72,3.67,1.51,5.42,1.65ZM300.05,62.33c-.16-.57-.53-.8-1.13-.5-.93.47-1.72,1.12-2.41,1.9-.31.36-.36.74.02,1.08.36.32.71.19,1-.12.61-.66,1.3-1.22,2.09-1.65.26-.14.42-.34.43-.71ZM265.24,41.81c.08.88.21,1.72.55,2.51.19.43.48.69.96.5.47-.18.55-.54.36-1-.28-.67-.44-1.36-.45-2.08,0-.52-.18-.9-.75-.87-.57.04-.68.48-.67.94Z"/>
      <path class="cls-5" d="M297.79,54.89c-1.11-.58-2.41-.58-3.53-1.12.47-.1.94-.18,1.4-.29.47-.11.89-.34.77-.89-.13-.61-.6-.61-1.14-.49-2.83.64-4.65-.32-5.63-3.02-.26-.73-.61-1.03-1.36-.74-.64-.88-1.11-1.82-1.25-2.91.07.02.14.02.19.06,2.64,1.92,5.62,1.97,8.68,1.59.47-.06.81-.29.75-.79-.05-.49-.42-.67-.9-.63-.34.03-.68.09-1.02.12-3.33.33-6.3-.27-8.35-3.26-.98-1.43-1.69-2.98-2.25-4.61-.84-2.43-1.61-4.89-2.48-7.3-.73-2.01-1.68-3.91-3.24-5.44-1.51-1.47-3.34-2.24-5.41-2.49-.47-.06-.85.06-.95.56-.1.51.25.74.7.83.24.05.48.06.71.11,2.35.51,4.26,1.64,5.32,3.91-.38.11-.56-.2-.79-.38-3.38-2.66-7.29-3.98-11.49-4.58-.37-.05-.74-.12-1.11-.18.12-.32.21-.65.36-.96,1.47-3.09,3.5-4.16,6.86-3.57.47.08.84.02.98-.46.14-.5-.17-.76-.61-.9-2.44-.77-4.59-.25-6.47,1.47-1.27,1.17-2.01,2.67-2.66,4.23-2.02-.12-4.02.14-6.03.2-.04-.13-.03-.31-.11-.39-1.46-1.43-1.87-3.2-1.74-5.16.03-.42-.2-.77-.63-.8-.56-.04-.77.36-.79.86-.12,2.2.36,4.21,1.95,5.84-1.6.1-3.07.68-4.53,1.28-.61-.36-1.01-.04-1.41.41-1.72,1.96-2.97,4.19-3.79,6.65-.26.79-.45.89-1.09.27-4.77-4.66-4.73-11.66.11-16.76.69-.72,1.46-1.35,2.27-1.93.85-.62.77-1.04-.23-1.48,1.24-1.38,2.84-2.35,4.17-3.62,2.08-.6,4.02-1.55,5.97-2.47,6.49-3.06,13.22-4.16,20.29-2.45.96.23,1.19-.02,1.08-1.08.73.09,1.46.18,2.18.26.35.04.71.26,1.04-.06.79.41,1.55.87,2.36,1.22,2.66,1.16,5.5,1.72,8.28,2.45,3.08.81,6.01,1.93,8.55,3.92,2.2,1.73,4.01,3.75,4.73,6.56.22.86.75.87,1.4.43.7.32,1.37.68,1.9,1.26-.19.57-.02.97.49,1.31.92.61,1.72,1.37,2.41,2.23,4.05,5.09,4.82,10.69,2.6,16.75-.3.81-.42,1.42.69,1.54-.1,1.46-.65,2.81-1.08,4.19-.9-.41-1.13.16-1.31.87-1.39,5.3-3.8,10.12-7.08,14.5-.2.27-.3.71-.79.7-.58-2.58-1.95-4.44-4.57-5.2-1.11-.32-2.23-.29-3.36-.17Z"/>
      <path class="cls-6" d="M307.6,282.63c.1.77-.05,1.24-.66,1.27-.55.02-.69-.43-.73-.93-.46-6.1-.92-12.19-1.42-18.29-.79-9.55-1.67-19.09-2.83-28.6-.15-1.23-.3-2.45-.45-3.68-.07-.54-.1-1.12.6-1.19.62-.06.75.45.81.97,1.07,8.66,1.95,17.33,2.72,26.02.73,8.21,1.37,16.43,1.95,24.43Z"/>
      <path class="cls-6" d="M297.79,54.89c1.13-.12,2.25-.15,3.36.17,2.62.76,3.99,2.62,4.57,5.2.48,0,.58-.43.79-.7,3.28-4.38,5.69-9.2,7.08-14.5.19-.71.41-1.28,1.31-.87.31.42.16.84.04,1.27-1.64,6.21-4.54,11.76-8.66,16.67-.26.31-.52.6-.61,1.04-1,4.76-3.9,7.65-8.63,8.72-.23.05-.47.12-.7.18-.58.06-1.16.12-1.74.17-.55.04-1.21.12-1.24-.67-.02-.7.59-.73,1.12-.75,1.24-.05,2.45-.28,3.63-.67,3.73-1.25,6.37-4.89,6.28-8.64-.08-3.44-2.49-5.59-5.93-5.25-.45.04-.91.14-1.15-.39-.22-.49.08-.77.47-.98Z"/>
      <path class="cls-6" d="M279.35,2.14c.11,1.05-.12,1.31-1.08,1.08-7.07-1.71-13.8-.61-20.29,2.45-1.95.92-3.88,1.87-5.97,2.47-1.44.36-2.88.63-4.37.43-.48-.06-.92-.18-.88-.77.04-.59.47-.67.97-.62,2.22.23,4.28-.41,6.28-1.26,1.42-.6,2.8-1.28,4.2-1.92,4.99-2.27,10.23-3.3,15.71-2.92,1.84.13,3.68.37,5.42,1.07Z"/>
      <path class="cls-6" d="M307.89,16.91c-.65.44-1.18.43-1.4-.43-.72-2.81-2.52-4.82-4.73-6.56-2.53-1.99-5.47-3.11-8.55-3.92-2.79-.73-5.62-1.3-8.28-2.45-.81-.35-1.58-.81-2.36-1.22-.42-.3-.86-.57-1.25-.9-.3-.25-.35-.59-.1-.92.24-.32.59-.43.9-.19,3.74,2.86,8.34,3.37,12.67,4.64,3.52,1.03,6.71,2.61,9.37,5.17,1.63,1.57,2.94,3.35,3.59,5.56.12.4.19.8.14,1.22Z"/>
      <path class="cls-6" d="M120.31,148.43c-.79-.17-1.61.05-2.26.8-.83.98-1.91,1.31-3.14,1.14-1.04-.15-1.86.11-2.56.92-.85.98-1.95,1.39-3.24,1.03-1.15-.32-2.06-.14-2.72.98-.42.71-1.17,1.03-2.01,1.07-.87.04-1.77-.18-2.58.41-.25.18-.62.04-.79-.27-.19-.34-.13-.67.17-.93.55-.47,1.2-.71,1.9-.63,1.18.13,2.07-.14,2.81-1.21.75-1.08,2-1.15,3.18-.84,1.03.28,1.8.02,2.47-.77.79-.93,1.82-1.34,3.03-1.18,1.14.15,2.06-.11,2.84-1.02.69-.8,1.68-1.07,2.72-.93.87.11,1.7.1,2.51-.27.42-.19.83-.17,1.03.32.2.48-.05.77-.48.97-.86.39-1.76.56-2.86.4Z"/>
      <path class="cls-6" d="M168.77,171.29c.3-.01.52.17.73.34.56.46.84,1.09.96,1.77.17.96.63,1.57,1.63,1.88,1.18.37,1.86,1.31,1.9,2.56.04,1.31.56,2.19,1.8,2.71.99.42,1.52,1.28,1.69,2.32.19,1.16.68,2.01,1.82,2.52,1.01.45,1.49,1.4,1.67,2.46.13.8.37,1.53.91,2.14.34.38.47.79,0,1.15-.48.37-.82.06-1.13-.3-.65-.75-1.01-1.64-1.15-2.6-.13-.86-.53-1.48-1.32-1.83-1.21-.53-1.86-1.48-2.05-2.76-.16-1.03-.67-1.74-1.64-2.18-1.19-.54-1.86-1.5-1.89-2.83-.03-1.21-.51-1.99-1.75-2.31-.76-.2-1.26-.81-1.54-1.56-.32-.85-.39-1.78-1.17-2.46-.39-.33.01-1,.54-1.03Z"/>
      <path class="cls-6" d="M128.72,171.86c-.73-.17-1.58.14-2.27.95-.73.86-1.71,1.13-2.79.99-1.18-.16-2.13.13-2.92,1.07-.83.99-2,1.21-3.2.89-1.11-.29-1.92-.1-2.56.9-.59.93-1.54,1.21-2.59,1.18-.68-.02-1.36-.11-1.97.36-.32.24-.66.08-.88-.25-.24-.35-.12-.66.16-.92.63-.58,1.41-.71,2.21-.62,1.02.12,1.75-.19,2.35-1.08.68-.99,1.75-1.36,2.91-1.07,1.26.32,2.26.16,3.12-.9.73-.89,1.78-1.15,2.89-1,1.06.14,1.93-.06,2.67-.92.69-.8,1.64-1.09,2.69-1.01.93.07,1.85.15,2.72-.31.41-.21.75-.04.94.34.21.42,0,.74-.38.93-.88.45-1.82.6-3.1.44Z"/>
      <path class="cls-6" d="M215.39,156.36c.77.16,1.33.69,1.61,1.41.45,1.15,1.14,1.81,2.45,1.99,1.2.16,1.87,1.13,2.11,2.27.25,1.15.86,1.79,2.01,2.05,1.16.26,1.93,1.03,2.33,2.13.38,1.04.98,1.73,2.12,2,1.03.24,1.71.98,2.1,1.96.33.84.71,1.63,1.46,2.19.38.28.5.68.13,1.06-.36.37-.73.25-1.09-.04-.74-.59-1.3-1.32-1.6-2.22-.32-.95-.91-1.57-1.93-1.79-1.22-.27-1.92-1.15-2.33-2.27-.36-.99-.98-1.58-2.02-1.83-1.27-.3-2.1-1.14-2.38-2.43-.26-1.18-.87-1.83-2.15-1.94-1.04-.09-1.67-.86-2.1-1.78-.27-.59-.49-1.2-1.17-1.5-.31-.14-.4-.47-.3-.8.11-.34.37-.47.76-.47Z"/>
      <path class="cls-6" d="M315.97,40c-1.11-.12-.99-.73-.69-1.54,2.22-6.05,1.45-11.66-2.6-16.75-.69-.86-1.49-1.62-2.41-2.23-.51-.34-.68-.74-.49-1.31.58-.39,1.03-.1,1.48.26,4.62,3.7,6.71,8.57,6.62,14.42-.03,2.11-.49,4.15-1.28,6.12-.16.39-.3.77-.64,1.04Z"/>
      <path class="cls-6" d="M195.42,150.55c-.09.51-.42.66-.86.76-1.4.33-2.78.76-4.11,1.32-5.05,2.11-8.93,5.58-11.83,10.18-.16.26-.32.53-.49.79-.25.38-.6.47-.98.24-.34-.21-.38-.55-.24-.91.05-.13.13-.24.2-.36,3.98-6.53,9.59-10.84,17.08-12.62.64-.15,1.08-.1,1.24.6Z"/>
      <path class="cls-1" d="M7.16,122.12c2.85.55,5.54,1.07,8.23,1.59,10.08,1.96,20.15,3.94,30.24,5.86.84.16,1.15.52,1.39,1.32,1.79,5.98,3.65,11.94,5.49,17.91,2.49,8.03,4.99,16.05,7.49,24.08.16.52.19.93-.17,1.41-.58.76-.78,1.7-.69,2.64.05.6-.18.78-.66.93-1.31.41-2.61.83-3.91,1.29-.42.15-.62.11-.91-.29-1.48-2.06-2.95-2.53-5.35-1.77-1.37.44-2.75.86-4.11,1.33-.58.2-.73.05-.68-.53.05-.63.1-1.22.68-1.64.32-.23.33-.61.1-.92-.27-.36-.62-.38-1-.14-.81.51-1.08,1.31-1.16,2.19-.15,1.45.07,2.88.39,4.29.73,3.16,1.77,6.2,3.32,9.05.49.91,1.05,1.78,1.85,2.45.49.41,1.03.7,1.7.53.35-.09.63-.3.61-.72-.02-.4-.22-.69-.63-.67-.81.05-1.1-.55-1.59-1.12,1.66-.53,3.21-1.03,4.77-1.53,2.14-.68,3.22-2.13,3.14-4.37-.03-.69.17-.96.81-1.14,1.19-.34,2.36-.73,3.52-1.16.54-.2.84-.2,1.14.37.43.8,1.09,1.44,1.95,1.76.62.23.89.61,1.07,1.21.89,2.99,1.81,5.97,2.76,8.95.15.48.09.72-.3,1.03-9.81,7.87-19.61,15.75-29.42,23.63-.02.02-.06.02-.24.06-9.93-32.57-19.86-65.16-29.83-97.89ZM39.37,178.39c-.02.95.11,1.97.33,2.98.11.5.21,1.12.92.99.69-.13.6-.69.48-1.24-.33-1.48-.44-2.98-.21-4.5.39-2.65,1.62-3.46,4.18-2.74.46.13.82.1,1.01-.38.18-.44-.04-.75-.42-.91-2.08-.92-4.16-.63-5.36,1.45-.76,1.32-.95,2.77-.92,4.35ZM49.05,196.46c1.39.03,2.68-.92,3.11-2.26.13-.41.12-.77-.28-.98-.45-.23-.76-.02-1.01.39-1.07,1.71-2.13,1.88-3.74.61-.68-.54-1.21-1.21-1.68-1.93-.24-.36-.57-.5-.97-.28-.36.2-.4.53-.29.89.49,1.56,3.18,3.52,4.86,3.55Z"/>
      <path class="cls-4" d="M185.85,83.83c1.41.92,2.17,2.09,2.78,3.36,1.34,2.79,1.8,5.82,2.27,8.84.84,5.3-.01,10.31-2.29,15.14-1.2,2.54-2.22,5.17-2.73,7.96-.11.61-.26,1.24-.18,1.84.15,1.15-.37,1.25-1.36,1.27-7.38.13-14.21,2.17-20.45,6.12-.65.41-.9.5-1.26-.35-1.46-3.48-3.34-6.76-4.63-10.32-1.64-4.53-3.12-9.09-3.51-13.94-.14-1.76-.03-3.5.53-5.19.29-.88.75-1.66,1.66-2.42,0,1.42,0,2.64,0,3.86,0,.54.1,1.12.8,1.08.63-.04.67-.57.63-1.09-.03-.34-.03-.69-.04-1.03-.05-2.07,0-4.13.49-6.15.42-1.74,1.58-2.72,3.22-2.85.56-.04.69.12.67.66-.07,1.89-.08,3.78.13,5.66.06.54.12,1.12.82,1.04.69-.09.63-.66.58-1.21-.21-2.47-.27-4.95.03-7.41.25-1.99,2.24-3.57,4.22-3.48.65.03.38.46.38.73.01,2.14.26,4.25.59,6.36.09.54.18,1.11.89.98.71-.13.59-.71.5-1.24-.38-2.31-.66-4.63-.52-6.98.15-2.49,1.79-4.09,4.22-4.19.64-.03.86.12.93.82.24,2.7.57,5.4.87,8.09.02.17.07.34.1.51.07.43.32.72.76.67.49-.05.68-.41.62-.9-.13-.99-.27-1.97-.38-2.96-.34-2.97-.73-5.94-.71-8.93,0-.48.03-.97.13-1.43.25-1.2,1.15-2.06,2.27-2.25,1.17-.2,2.18.27,2.84,1.41.83,1.44,1.3,3.03,1.75,4.61,1.63,5.69,2.78,11.48,3.34,17.37.05.54.11,1.13.81,1.08.71-.05.66-.66.61-1.19-.42-4.38-1.18-8.71-2.17-13-.05-.23-.09-.46-.19-.95Z"/>
      <path class="cls-3" d="M37,227.62c.14-.43.53-.61.83-.87,10.49-9,20.99-17.99,31.47-27,1.05-.9,2.12-1.31,3.53-1.31,22.32.04,44.64.03,66.95.03,1.66,0,1.76.06,2.31,1.59,3.14,8.72,6.27,17.45,9.4,26.17.52,1.45.44,1.55-1.13,1.55-37.38,0-74.76,0-112.14,0-.4,0-.82.1-1.22-.15ZM82.08,225.88c12.14,0,24.27,0,36.41,0,.28,0,.55,0,.83,0,.76,0,1.03-.37.94-1.11-.9-8.06-1.81-16.12-2.67-24.18-.11-1.01-.5-1.29-1.5-1.29-14.03.03-28.06.03-42.09.02-.66,0-1.16.18-1.66.62-9.19,8.09-18.39,16.16-27.58,24.23-.18.16-.38.3-.53.49-.45.54-.28,1.08.41,1.21.3.06.62.03.93.03,12.17,0,24.34,0,36.52,0Z"/>
      <path class="cls-2" d="M196.72,137.2c-11.25-2.07-20.84,1.78-29.8,7.94-2.17,1.49-3.86,3.51-4.95,6.17-.17-.35-.28-.56-.38-.78-1.47-3.44-2.9-6.9-4.41-10.33-.42-.97-.4-1.85-.02-2.78.64-1.56,1.71-2.81,2.86-4,4.47-4.61,10.02-7.24,16.16-8.76,4.07-1,8.18-1.47,12.36-.66,1.96.38,3.33,1.28,4.06,3.3,1.16,3.19,2.58,6.28,3.88,9.42.09.21.26.4.23.48Z"/>
      <path class="cls-3" d="M3.01,117.43c2.77.59,5.44,1.16,8.12,1.74,12.02,2.59,24.04,5.19,36.07,7.75.87.18,1.28.62,1.52,1.43,4.4,14.49,8.83,28.97,13.24,43.45.09.3.49.74-.16.91-.64.16-.52-.45-.61-.73-2.86-9.14-5.7-18.29-8.53-27.44-1.53-4.95-3.05-9.91-4.53-14.88-.24-.81-.64-1.15-1.46-1.31-13.22-2.54-26.44-5.12-39.66-7.69-1.48-.29-1.73-.02-1.27,1.48,8.31,27.33,16.63,54.66,24.94,81.99,1.7,5.58,3.4,11.17,5.1,16.75.42,1.37.73,1.47,1.82.59,10.1-8.12,20.19-16.25,30.31-24.35.65-.52.79-.99.54-1.75-.98-3.04-1.91-6.1-2.84-9.15-.09-.28-.44-.66.13-.84.57-.17.48.35.57.63,1.15,3.63,2.28,7.27,3.42,10.91.11.34.15.59-.2.88-10.75,9.17-21.49,18.35-32.23,27.54q-1,.86-1.37-.36c-9.54-31.05-19.08-62.1-28.62-93.15-1.39-4.53-2.75-9.07-4.11-13.6-.07-.22-.1-.45-.18-.8Z"/>
      <path class="cls-4" d="M92.67,231.42c9.25,0,18.49,0,27.74.01.42,0,1.21-.31.98.64-.15.62.38,1.73-1.07,1.58-7.89-.83-15.72-.06-23.52,1.07-4.46.65-8.92.37-13.37,0-5.75-.47-11.5-1.04-17.25-1.57-.58-.05-1.17-.11-1.73-.25-.45-.11-.98-.26-.86-.94.11-.62.58-.56,1.03-.56,6.26,0,12.51,0,18.77,0,3.09,0,6.19,0,9.28,0Z"/>
      <path class="cls-3" d="M94.31,229.17c18.94,0,37.88,0,56.82,0,.21,0,.54-.2.62.12.09.34-.2.58-.5.67-.26.07-.54.06-.82.06-37.26,0-74.53,0-111.79,0-.49,0-.96-.04-1.42-.19-.23-.08-.48-.21-.42-.5.07-.36.38-.17.59-.17,14.37,0,28.74,0,43.11,0,4.61,0,9.21,0,13.82,0h0Z"/>
      <path class="cls-3" d="M35.37,228.02c-.83-.25-.96-.82-1.13-1.37-5.35-17.42-10.71-34.85-16.06-52.27-4.38-14.24-8.76-28.48-13.13-42.72-1.17-3.81-2.29-7.63-3.45-11.44-.18-.61-.25-1.19.05-2.07,11.27,36.74,22.47,73.24,33.71,109.87Z"/>
      <path class="cls-2" d="M166.88,156.92c-.56-.05-1.05-.31-1.53-.59-2.31-1.33-2.82-2.98-1.66-5.37.94-1.93,2.4-3.45,4.1-4.7,6.57-4.85,13.96-7.6,22.08-8.35,1.92-.18,3.85.02,5.69.69,3.01,1.1,3.8,4.46,1.62,6.82-.14.15-.29.39-.47.14-.24-.31-.64-.56-.57-1.04.02-.16.16-.3.23-.46,1.05-2.22.32-3.9-2.05-4.64-2.33-.73-4.71-.51-7.05-.11-6.55,1.13-12.63,3.49-18.1,7.32-1.39.97-2.64,2.1-3.63,3.48-1.43,1.99-1.24,4.24.84,5.15.64.28.23,1.08.6,1.53-.04.03-.07.07-.11.11Z"/>
      <path class="cls-1" d="M259.4,97.21c-.54.21-1.08.42-1.61.63-.53-.88-.92-.93-1.48-.13-1.61,2.31-2.72,4.81-2.76,7.86-.71-.92-1.27-1.72-1.91-2.44-.98-1.12-2.15-2.02-3.48-2.7-.47-.24-.51-.46-.13-.81.23-.21.41-.46.64-.66,3.03-2.64,6.66-4.28,10.25-6.14.23,1.53.52,2.94.48,4.39Z"/>
      <path class="cls-2" d="M122.81,160.36c.02.61-.31.95-.85,1.13-4.94,1.65-9.89,3.3-14.83,4.94-.87.29-1.32-.2-1.55-.92-.25-.8.12-1.31.9-1.57,3.81-1.26,7.61-2.53,11.42-3.8,1.07-.36,2.14-.72,3.22-1.06.95-.3,1.71.28,1.69,1.28Z"/>
      <path class="cls-2" d="M94.48,169.61c-.05.52-.33.88-.89,1.07-4.89,1.62-9.77,3.26-14.66,4.88-.86.28-1.49-.04-1.69-.83-.2-.77.03-1.32.86-1.6,4.86-1.61,9.71-3.24,14.56-4.85,1.02-.34,1.85.26,1.82,1.33Z"/>
      <path class="cls-2" d="M50.35,184.72c-.73-.03-1.1-.45-1.23-1.08-.14-.68.04-1.21.79-1.46,1.89-.62,3.78-1.25,5.67-1.88,2.93-.98,5.86-1.96,8.79-2.94,1.07-.36,1.64-.14,1.91.71.27.85-.05,1.36-1.1,1.71-4.69,1.57-9.38,3.13-14.07,4.7-.26.09-.52.16-.76.23Z"/>
      <path class="cls-2" d="M150.9,151.42c0,.52-.31.87-.86,1.05-4.92,1.64-9.83,3.28-14.75,4.91-.76.25-1.3-.04-1.55-.76-.25-.73-.14-1.37.71-1.66,4.92-1.64,9.83-3.29,14.75-4.92.96-.32,1.73.29,1.71,1.36Z"/>
      <path class="cls-1" d="M95.62,170.77c.57-1.83.2-2.85-1.52-4.02,2.94-.93,5.8-1.85,8.68-2.73.54-.17,1.05-.58,1.69-.35l-.03-.02c-.64,1.9-.38,2.85,1.31,4.2-3.39,1.04-6.67,2.05-9.95,3.05-.06-.04-.11-.08-.17-.13Z"/>
      <path class="cls-1" d="M123.92,161.69c.64-1.76.33-2.76-1.34-4.08,3.34-1.06,6.6-2.09,10.03-3.18-.74,1.82-.44,3.26,1.27,4.39-3.38,1.03-6.6,2.01-9.82,2.99-.04-.04-.09-.09-.14-.12Z"/>
      <path class="cls-1" d="M67.49,179.95c.58-1.89.28-2.88-1.38-4.13,3.37-1.07,6.64-2.12,10.08-3.21-.84,1.83-.45,3.26,1.19,4.39-3.26,1.03-6.43,2.03-9.6,3.04-.14.05-.26.07-.32-.1l.03.02Z"/>
      <path class="cls-2" d="M121.34,165.91c-.76,0-1.3-.22-1.74-.61-.37-.32-1.08-.77-.79-1.14.33-.42,1.1-.77,1.77-.42.74.38,1.44.3,2.19.06,4.29-1.37,8.58-2.73,12.87-4.09.61-.19,1.13-.49,1.46-1.07.05-.09.08-.2.15-.27.38-.38.95-.65,1.38-.49.49.19.18.78.09,1.19-.2.94-.73,1.61-1.68,1.91-5.04,1.6-10.09,3.2-15.13,4.79-.23.07-.46.11-.56.13Z"/>
      <path class="cls-2" d="M64.95,184.09c-.85.03-1.39-.2-1.83-.6-.36-.32-1.06-.72-.72-1.17.3-.4,1.07-.73,1.68-.41.78.4,1.51.32,2.29.07,4.25-1.36,8.5-2.71,12.76-4.05.65-.2,1.19-.51,1.54-1.11.1-.17.23-.38.39-.45.37-.16.83-.49,1.15-.29.37.23.16.76.08,1.14-.23,1.01-.81,1.7-1.84,2.02-4.98,1.56-9.95,3.14-14.92,4.72-.26.08-.53.12-.57.13Z"/>
      <path class="cls-2" d="M90.63,173.2c.78-.35,1.53-.73,2.42-.24.48.26,1.01.05,1.5-.11,4.32-1.36,8.63-2.73,12.94-4.1.64-.2,1.21-.5,1.53-1.13.06-.12.11-.28.22-.34.39-.22.86-.52,1.25-.35.45.19.21.73.13,1.1-.19.98-.73,1.68-1.71,2-5.03,1.59-10.07,3.19-15.1,4.77-1.3.41-2.44-.2-3.17-1.6Z"/>
      <path class="cls-1" d="M151.74,152.86c1.04-1.28.81-2.52-.85-4.22,1.91-.6,3.79-1.22,5.69-1.78,1.3-.38,1.88-.06,2.41,1.18.9,2.11.7,2.55-1.55,3.27-1.6.51-3.19,1.05-4.81,1.52-.26.08-.6.47-.89.01h0Z"/>
      <path class="cls-2" d="M88.92,167.27c.06-1.17.69-2.05,1.8-2.4,5.03-1.61,10.07-3.2,15.1-4.81.96-.3,1.76,0,2.47.62.27.23.77.58.56.86-.28.36-.88.65-1.38.36-.91-.54-1.77-.33-2.67-.04-4.09,1.31-8.17,2.6-12.26,3.89-.82.26-1.51.61-1.89,1.44-.29.63-.97.62-1.5.71-.37.06-.16-.41-.22-.63Z"/>
      <path class="cls-2" d="M60.53,176.56c.08-1.29.78-2.2,1.96-2.58,4.87-1.55,9.75-3.08,14.61-4.64,1.08-.35,2.03-.24,2.86.54.26.24.76.53.5.88-.23.31-.85.57-1.21.34-1.26-.79-2.39-.19-3.55.18-3.86,1.22-7.71,2.46-11.57,3.66-.75.24-1.41.54-1.76,1.29-.3.64-.96.6-1.49.78-.47.16-.29-.31-.35-.45Z"/>
      <path class="cls-2" d="M117,158.32c.01-1.17.7-2.14,1.83-2.5,5-1.6,10.01-3.17,15.01-4.77,1.01-.32,1.83-.03,2.56.63.26.23.76.53.53.88-.22.33-.87.58-1.2.37-1.42-.89-2.67-.11-3.94.28-3.71,1.14-7.4,2.34-11.1,3.5-.81.25-1.53.56-1.93,1.4-.29.61-.98.58-1.52.72-.36.1-.19-.33-.24-.51Z"/>
      <path class="cls-2" d="M149.38,157.04c-1.15-.09-1.91-.66-2.49-1.54-.23-.35-.07-.46.25-.57.61-.21,1.17-.49,1.82,0,.41.31.97.26,1.49.09,2.71-.87,5.43-1.71,8.13-2.58.35-.11.65-.4,1-.51.31-.09.51-.9.93-.24.3.48.74,1.07-.02,1.61-.43.3-.87.54-1.37.7-3.04.96-6.08,1.93-9.12,2.89-.23.07-.46.11-.64.15Z"/>
      <path class="cls-2" d="M145.17,149.01c.16-.8.57-1.7,1.71-2.06,3.11-.98,6.22-1.97,9.33-2.94.44-.14.92-.38,1.2.29.25.59.48.87-.5,1.09-3.05.66-5.98,1.78-8.95,2.73-.33.11-.64.33-.78.65-.29.68-.93.74-1.49.96-.48.19-.64.03-.52-.72Z"/>
      <path class="cls-1" d="M244.46,110.84c.62-3.07,1.46-6.05,2.42-8.99.12-.35.32-.41.61-.2.06.04.12.07.18.1,2.63,1.36,2.67,1.53.87,3.84-1.36,1.75-2.72,3.5-4.08,5.25Z"/>
      <path class="cls-1" d="M48,181.91c-.68,1.71-.41,2.68,1.2,4.12-.65.21-1.24.4-1.84.59q-1.71.55-2.31-1.18-.9-2.57,1.73-3.39c.36-.11.73-.17,1.09-.26.04.04.09.09.13.13Z"/>
      <path class="cls-2" d="M54.28,185.63c0,1.21-.69,2.22-1.84,2.6-1.57.52-3.16.95-4.7,1.52-.89.33-.99-.3-1.22-.79-.36-.76.36-.65.7-.77,1.13-.4,2.28-.77,3.43-1.11.85-.25,1.6-.55,2.04-1.42.24-.47.81-.49,1.27-.57.47-.08.28.34.33.54Z"/>
      <path class="cls-2" d="M49.84,178.11c.88.03,1.48.27,1.97.73.28.26.83.57.55.95-.24.32-.86.59-1.3.31-.98-.6-1.89-.32-2.85,0-1.2.41-2.41.77-3.62,1.15-.28.09-.65.31-.73-.18-.06-.36-.42-.9.12-1.09,2-.69,4.03-1.3,5.87-1.89Z"/>
      <path class="cls-2" d="M166.04,152.7c.03-.79.38-1.42.84-1.97.48-.58.98-1.14,1.55-1.63.3-.26.69-1,1.06-.5.37.5,1,1.19.3,2.01-.7.83-1.29,1.76-1.96,2.63-.22.29-.23.91-.8.73-.59-.19-.97-.63-.99-1.26Z"/>
      <path class="cls-4" d="M177.79,143.69c-2.19,1.47-4.27,3.06-6.16,4.91-.17.17-.42.41-.51,0-.11-.47-.83-.91-.17-1.43.45-.36.97-.64,1.47-.93,1.7-1,3.46-1.91,5.37-2.54Z"/>
      <path class="cls-2" d="M193.51,140.79c1.72.3,2.19,1.02,1.64,2.47-.71-.73-1.07-1.61-1.64-2.47Z"/>
      <path class="cls-3" d="M298.8,85.36c-.38.12-.72.22-1.06.32-.21.06-.4.06-.42-.24-.02-.28.05-.46.38-.41.36.06.74.02,1.09.32Z"/>
      <path class="cls-1" d="M124.05,161.81s-.11.13-.12.12c-.13-.07-.07-.16-.01-.25.05.04.09.08.13.12Z"/>
      <path class="cls-1" d="M104.46,163.67s-.03-.09-.05-.13c.04,0,.08,0,.12,0-.03.04-.07.08-.1.12,0,0,.03.02.03.02Z"/>
      <path class="cls-1" d="M95.79,170.9s-.11.13-.14.12c-.15-.05-.07-.16-.03-.25.06.04.11.08.17.13Z"/>
      <path class="cls-1" d="M67.46,179.93s.04.09.06.13c-.04,0-.08,0-.12,0,.03-.04.06-.08.09-.12,0,0-.03-.02-.03-.02Z"/>
      <path class="cls-1" d="M47.87,181.78c.06-.03.12-.06.17-.1-.01.07-.03.15-.04.22-.05-.04-.09-.08-.13-.13Z"/>
      <path class="cls-1" d="M151.74,152.86c.06.03.11.05.17.08,0,0,0,.04,0,.06-.05-.05-.11-.1-.16-.14,0,0,0,0,0,0Z"/>
      <path class="cls-2" d="M166.99,156.82s.07.08.11.12c-.07,0-.14,0-.22-.01.03-.04.07-.07.11-.1Z"/>
      <path class="cls-6" d="M278.81,28.08c-1.06-2.27-2.97-3.39-5.32-3.91-.23-.05-.48-.07-.71-.11-.45-.09-.8-.32-.7-.83.09-.5.48-.61.95-.56,2.07.25,3.9,1.02,5.41,2.49,1.56,1.52,2.52,3.42,3.24,5.44.87,2.42,1.64,4.87,2.48,7.3.56,1.63,1.28,3.18,2.25,4.61,2.05,2.98,5.01,3.59,8.35,3.26.34-.03.68-.09,1.02-.12.48-.05.85.14.9.63.05.5-.29.73-.75.79-3.06.38-6.04.33-8.68-1.59-.05-.04-.13-.04-.19-.06,0,0,0,0,0,0-.07-.07-.13-.15-.2-.22-2.55-2.44-3.68-5.65-4.75-8.88-.67-2.02-1.25-4.06-2.06-6.03-.26-.64-.54-1.26-.96-1.81-.03-.18-.05-.36-.28-.4h0Z"/>
      <path class="cls-6" d="M262.52,54.63c-.02.89-.04,1.78-.16,2.67-.24,1.76-1.11,3.07-2.59,4.01-.29.18-.58.37-.86.57-1.01.71-1.15,1.14-.66,2.26.24.56.6,1.08.89,1.62.2.37.23.75-.15,1.01-.42.29-.78.14-1.05-.27-.5-.75-.95-1.52-1.2-2.38-.4-1.36-.08-2.3,1.05-3.18.05-.04.11-.09.17-.12,2.72-1.28,3.31-3.6,3.16-6.34-.1-1.79-.26-3.56-.57-5.32-.09-.54-.11-1.02.51-1.14.63-.12.78.35.88.87.34,1.9.57,3.8.59,5.73Z"/>
      <path class="cls-6" d="M250.72,51.34c.05-1.08.48-2.24,1.76-2.88.77-.39,1.56-.3,2.2.29,1.04.97,1.2,2.19.82,3.5-.41,1.42-1.6,2.36-2.73,2.19-1.17-.17-2.03-1.36-2.04-3.11Z"/>
      <path class="cls-6" d="M275.97,53.25c-.09,1.44-.54,2.55-1.78,3.16-.73.36-1.49.3-2.12-.25-1.05-.91-1.25-2.09-.92-3.37.1-.39.26-.79.48-1.13.54-.82,1.27-1.39,2.31-1.23,1.03.15,1.59.88,1.88,1.83.11.36.12.74.16.99Z"/>
      <path class="cls-6" d="M257.43,71.99c3.36.07,6.43.97,9.05,3.17.28.24.61.47.57.92-.03.26-.17.43-.41.55-.39.2-.66-.02-.92-.25-2.24-1.98-4.9-2.84-7.83-2.97-1.14-.05-2.27.03-3.37.32-.53.14-.99.16-1.13-.48-.12-.58.3-.76.77-.88,1.07-.28,2.16-.38,3.27-.37Z"/>
      <path class="cls-6" d="M263.87,22.76c.65-1.56,1.39-3.06,2.66-4.23,1.88-1.72,4.03-2.24,6.47-1.47.44.14.76.4.61.9-.14.48-.51.54-.98.46-3.35-.59-5.39.47-6.86,3.57-.15.31-.24.64-.36.96-.22.37-.38.85-.94.74-.48-.09-.58-.5-.61-.93Z"/>
      <path class="cls-6" d="M274.76,45.87c-1.23.07-2.46.13-3.69-.03-1.57-.21-2.67-1.11-2.97-2.44-.1-.43-.13-.86.36-1.05.53-.2.86.11.99.6.27,1.02.99,1.4,1.96,1.51,1.99.22,3.97-.14,5.95-.15.24,0,.48-.04.72-.05.47-.02.85.18.87.67.03.48-.31.71-.8.73-1.13.06-2.26.13-3.39.2Z"/>
      <path class="cls-6" d="M288.3,48.33c.75-.28,1.09.02,1.36.74.98,2.7,2.8,3.66,5.63,3.02.53-.12,1-.12,1.14.49.12.55-.3.78-.77.89-.46.11-.93.2-1.4.29-2.99.05-4.88-1.46-5.95-4.16-.18-.45-.19-.85,0-1.28Z"/>
      <path class="cls-6" d="M254.32,43.76c-1.75-.14-3.57-.93-5.42-1.65-.41-.16-.58-.51-.4-.91.2-.46.58-.5,1.03-.34,1.22.43,2.44.91,3.69,1.25,1.12.31,2.3.65,3.07-.73.15-.28.51-.33.82-.12.37.25.42.57.26.98-.4.99-1.4,1.56-3.05,1.52Z"/>
      <path class="cls-6" d="M256.51,23.31c-1.59-1.63-2.07-3.64-1.95-5.84.03-.5.24-.9.79-.86.43.03.66.37.63.8-.13,1.96.28,3.73,1.74,5.16.08.08.08.26.11.39-.3.66-.75.75-1.33.35Z"/>
      <path class="cls-6" d="M300.05,62.33c0,.37-.17.57-.43.71-.79.43-1.48.99-2.09,1.65-.29.31-.63.44-1,.12-.38-.34-.34-.73-.02-1.08.69-.78,1.48-1.43,2.41-1.9.6-.3.97-.07,1.13.5Z"/>
      <path class="cls-6" d="M265.24,41.81c0-.45.1-.9.67-.94.57-.04.74.35.75.87.01.72.18,1.42.45,2.08.19.46.1.82-.36,1-.47.18-.77-.07-.96-.5-.34-.79-.47-1.63-.55-2.51Z"/>
      <path class="cls-5" d="M278.8,28.08c.23.04.25.22.28.4-.23-.03-.35-.15-.28-.4Z"/>
      <path class="cls-5" d="M286.85,45.2c.07.07.13.15.2.22-.14,0-.19-.09-.2-.22Z"/>
      <path class="cls-6" d="M39.37,178.39c-.03-1.58.16-3.03.92-4.35,1.21-2.08,3.28-2.37,5.36-1.45.38.17.6.48.42.91-.19.48-.55.51-1.01.38-2.56-.73-3.79.08-4.18,2.74-.22,1.51-.12,3.01.21,4.5.12.54.21,1.1-.48,1.24-.71.14-.81-.49-.92-.99-.22-1.01-.35-2.03-.33-2.98Z"/>
      <path class="cls-6" d="M49.05,196.46c-1.68-.03-4.37-2-4.86-3.55-.11-.36-.07-.69.29-.89.4-.22.73-.09.97.28.48.72,1,1.39,1.68,1.93,1.61,1.27,2.67,1.1,3.74-.61.26-.41.57-.62,1.01-.39.4.21.41.58.28.98-.43,1.34-1.73,2.29-3.11,2.26Z"/>
      <path class="cls-6" d="M82.08,225.88c-12.17,0-24.34,0-36.52,0-.31,0-.63.03-.93-.03-.68-.13-.86-.67-.41-1.21.15-.18.35-.33.53-.49,9.2-8.07,18.4-16.14,27.58-24.23.5-.44,1-.62,1.66-.62,14.03.01,28.06.02,42.09-.02,1,0,1.39.29,1.5,1.29.86,8.06,1.77,16.12,2.67,24.18.08.75-.18,1.12-.94,1.11-.28,0-.55,0-.83,0-12.14,0-24.27,0-36.41,0ZM46.58,224.48h1.22c23.31,0,46.62,0,69.93.02.94,0,1.04-.3.95-1.11-.83-7.24-1.64-14.48-2.41-21.72-.09-.82-.37-.98-1.12-.97-13.58.03-27.16.03-40.74.02-.59,0-1.03.17-1.47.56-8.44,7.43-16.89,14.84-25.34,22.26-.27.24-.54.5-1.02.95Z"/>
      <path class="cls-3" d="M46.58,224.48c.49-.45.75-.71,1.02-.95,8.45-7.42,16.9-14.83,25.34-22.26.44-.39.88-.56,1.47-.56,13.58.01,27.16,0,40.74-.02.75,0,1.03.15,1.12.97.77,7.24,1.58,14.49,2.41,21.72.09.81,0,1.11-.95,1.11-23.31-.03-46.62-.02-69.93-.02h-1.22Z"/>
    </g>
  </g>
</svg>