<?xml version="1.0" encoding="UTF-8"?>
<svg id="Capa_2" data-name="Capa 2" xmlns="http://www.w3.org/2000/svg" viewBox="0 0 580.5 285">
  <defs>
    <style>
      .cls-1 {
        fill: #fce3c2;
      }

      .cls-1, .cls-2, .cls-3, .cls-4, .cls-5, .cls-6, .cls-7, .cls-8, .cls-9, .cls-10, .cls-11, .cls-12, .cls-13, .cls-14, .cls-15, .cls-16 {
        stroke-width: 0px;
      }

      .cls-2 {
        fill: #fcdbbe;
      }

      .cls-3 {
        fill: #fccfa7;
      }

      .cls-4 {
        fill: #af7357;
      }

      .cls-5 {
        fill: #fefdfd;
      }

      .cls-6 {
        fill: #bed7e6;
      }

      .cls-7 {
        fill: #090908;
      }

      .cls-8 {
        fill: #b3c7a5;
      }

      .cls-9 {
        fill: #78a7c5;
      }

      .cls-10 {
        fill: #ddddf3;
      }

      .cls-11 {
        fill: #ca885f;
      }

      .cls-12 {
        fill: #8fc1e6;
      }

      .cls-13 {
        fill: #fdbc8e;
      }

      .cls-14 {
        fill: #c5cbd2;
      }

      .cls-15 {
        fill: #bb5655;
      }

      .cls-16 {
        fill: #df6b56;
      }
    </style>
  </defs>
  <g id="Capa_1-2" data-name="Capa 1">
    <g>
      <path class="cls-5" d="M98.95,284.97c-32.59,0-65.17,0-97.76.03-1,0-1.19-.2-1.19-1.19C.03,189.61.03,95.41,0,1.2,0,.21.2.01,1.19.01,193.9.04,386.6.04,579.31,0c1.25,0,1.17.5,1.17,1.35-.01,75.06-.01,150.12-.01,225.18-.27-.54-.49-1.11-.8-1.63-2.47-4.08-5.75-7.38-9.66-10.08-.67-.46-1.42-.58-2.21-.55-3.34.11-6.68.21-10.01.3-2.54.07-4.71-.78-6.55-2.58-1.49-1.46-2.91-2.97-4.24-4.58-5.37-6.5-10.05-13.48-14.79-20.43-3.86-5.67-7.62-11.42-11.7-16.94-.5-.68-.97-1.38-1.99-1.04l-1.19-3.23c.75-.5.74-1.11.42-1.89-4.77-11.47-8.77-23.24-13.61-34.68-.28-.67-.27-1.1.23-1.66,1.76-1.97,3.03-4.25,3.96-6.72.9-2.39,1.64-4.85,2.59-7.23,2.36-5.88,1.52-11.18-2.7-15.91-2.39-2.67-5.32-4.63-8.45-6.31-3.33-1.8-6.9-3.01-10.46-4.25.06-.41.13-.82.19-1.23,1.05.07,1.46-.43,1.48-1.46.05-2.44-1.13-4.12-3.12-5.35-1.93-1.19-4.12-1.65-6.25-2.25-3.15-.89-3.93-1.99-3.59-5.25.21-2.03.44-4.04-.13-6.05-1.04-3.65-3.17-6.54-6.39-8.48-2.96-1.78-4.54-4.27-5.1-7.66-.6-3.62-1.41-7.21-2.86-10.61-2.04-4.76-5.31-8.24-10.26-10.03-.8-.29-1.39-.27-1.89.45-.62-.27-1-.97-1.76-.98,0,0-.02,0-.02,0,.06-.33-.18-.41-.41-.49-2.2-3.02-5.28-4.6-8.86-5.32-7.35-1.49-14.15.26-20.19,4.29-7.78,5.19-13.32,12.23-15.11,21.67-.93,4.92-2.87,9.29-6.17,13.07-1.44,1.65-2.56,3.54-3.08,5.69-.23.94-.57.94-1.39.76-8.85-1.93-17.82-3.13-26.81-4.21-3-.36-6-.64-9.07-.97.82-2.06,1.59-4.04,2.08-6.11.15-.63.6-.8,1.1-1,2.21-.9,3.82-2.47,4.77-4.64,1.33-3.02,1.63-5.99-1-8.57-.43-.42-.21-.76-.1-1.17.49-1.77,1.04-3.53,1.41-5.32.71-3.47,1.32-6.96.08-10.45.03-.74.06-1.47.08-2.21.26.28.52.56.78.84.5.52,1.05.97,1.72.31.59-.59.28-1.13-.22-1.62-.88-.87-1.32-2-1.75-3.13-1.09-2.84-2.31-5.62-4.11-8.09-2.77-3.8-6.32-6.04-11.23-5.47-1.02-.43-1.98-1-3.12-1.09-4.3-4.99-9.64-5.61-15.56-3.66-3.76,1.23-7.09,3.27-10.25,5.61-2.08,1.53-4.37,2.47-6.99,2.39-.75-.02-1.29.2-1.31.98-.01.7.55.91,1.18,1.04.88.18,1.69-.38,2.56-.19-.29.37-.58.74-.87,1.11-4.02,3.14-5.7,7.45-6.13,12.35-.49,5.58.53,10.99,2.14,16.3.27.88.24,1.49-.44,2.16-.69.69-1,1.64-1.15,2.61-.65,4.15,1.87,8.43,5.86,9.97.46.18,1,.18,1.17.89.83,3.39,2.23,6.57,3.83,9.67-.07,1.06-.16,2.11.18,3.14-1.45-.13-1.77.18-1.47,1.56.26,1.18.55,2.35.94,3.5,1.8,5.34,4.34,10.24,8.74,13.94,5.5,4.63,12.11,5.03,17.81,1.15,2.1-1.43,3.87-3.21,5.43-5.2,3.78-4.84,6.21-10.31,7.76-16.22.23-.86.02-1.41-.78-1.75,0-.41,0-.82.01-1.22,3.78.12,7.51.74,11.26,1.22,7.15.93,14.29,1.98,21.34,3.54.43.09,1.03.03,1.11.71.37,2.96,2.15,5.25,3.71,7.62,1.6,2.41,1.51,4.82.28,7.28-.47.95-1.12,1.8-1.69,2.7-.89,1.42-1.51,2.92-1.37,4.64.19,2.47,2.49,4.74,4.54,4.52,1.02.9,2.27,1.29,3.55,1.65.64.28,1.28.57,1.93.85.7.3,1.4.64,2.16.15,2.62.47,5.25.76,7.92.61.05.02.1.02.14.05.04.02.08.05.1.09.12.29-.16.33-.29.39-5.19,2.3-10.62,4.11-15.38,7.57-.04-1.56.2-2.89.48-4.21.17-.78.22-1.56-.76-1.7-.87-.13-1.07.6-1.21,1.31-.56,2.91-.74,5.86-.83,8.81-.29,9.79-.02,19.56.52,29.34.86,15.66,3.08,31.1,7.45,46.18.52,1.81.21,3.21-.94,4.54-.63.73-1.28,1.46-1.99,2.11-2.5,2.31-5.32,4.19-8.25,5.9-7.3,4.25-14.8,8.22-23.15,9.76-12.84,2.36-25.75,2.08-38.59-.38-3.28-.63-6.52-1.44-9.52-2.98-1.17-.6-1.95-1.35-2.15-2.82-.44-3.23-.68-6.46-.53-9.7.15-3.2-.64-6.06-2.84-8.42-1.68-1.8-1.84-3.73-.82-5.88,1.03-2.15,1.29-4.44,1.15-6.79-.18-2.92-.84-5.75-1.66-8.53-6.71-22.73-11.06-45.97-15.02-69.29-.48-2.81-.96-5.63-1.44-8.44-.13-.75-.27-1.57-1.27-1.4-1.02.17-.8,1.04-.71,1.76.03.29.14.57.16.85.15,1.55.68,3.06.66,4.71-1.68-.58-3.23-1.12-4.79-1.64-5.78-1.94-11.83-2.97-17.48-5.3-.67-.28-1.1.06-1.47.57-.24-.03-.49-.07-.73-.1.14-1.62-.1-3.43.84-4.78,2.11-3.01,3.55-6.32,4.7-9.76.39-1.17,1.02-1.71,2.15-1.99,3.39-.85,6.84-1.35,10.3-1.76,8.47-1.01,16.98-1.5,25.5-1.94.7-.04,1.45-.04,1.43-1.01-.02-.96-.74-.97-1.47-.94-7.17.28-14.32.76-21.46,1.45-3.75.36-7.48.88-11.21,1.46,0-.15-.02-.21,0-.25.24-.41.5-.82.72-1.24,1.4-2.6,1.99-5.28.44-8-.39-.68-.37-1.17-.12-1.84,2.39-6.44,3.17-13.05,1.88-19.83-.73-3.85-2.03-7.47-4.86-10.35-.56-.57-1.11-1.27-2.09-1.07-.58-.59-1.17-1.19-1.75-1.78.52-.31,1.02-.67.74-1.37-.26-.66-.84-.69-1.46-.62-1.11.12-2.1-.26-3.01-.86-1.09-.73-2.14-1.49-3.23-2.21-5.7-3.76-11.77-4.01-18.07-1.86-.98.33-2.03.71-2.62,1.7-1.26.49-2.53.98-3.79,1.47-2.64-.49-4.97.25-7.04,1.87-1.23.96-2.18,2.18-3.15,3.39-1.24,1.53-2.38,3.18-4.4,3.84-.59.19-.76.74-.51,1.31.22.51.69.7,1.2.52.59-.2,1.14-.5,1.71-.75.07.43-.41.75-.22,1.2l-.07-.03.07.03c-.21,0-.29.11-.29.31-2.15,2.59-3.15,5.6-3.39,8.93-.36,4.9.54,9.64,1.78,14.33.35,1.32.8,2.54-.49,3.66-.36.31-.48.94-.62,1.44-.96,3.44.72,7.99,4.21,9.65,2.25,1.07,3.19,2.61,3.75,4.74.07.28.18.55.32.81.42.75.25,1.02-.63,1.21-4.17.87-8.35,1.76-12.34,3.25-3.33,1.25-6.65,1.9-10.18,1.58-.1,0-.2-.01-.29,0-.92.18-1.09-.27-1.17-1.11-.43-4.58-.95-9.14-1.66-13.69-.95-6-2.81-11.65-6.39-16.62-1.99-2.76-4.6-4.72-8.01-5.34-1.24-.23-2.57-.67-3.79.22-.38-.46-.95-.44-1.47-.55-1.32-1.89-3.19-2.96-5.42-3.32-6.78-1.1-13.14.09-18.87,3.92-6.7,4.48-11.08,10.74-13.37,18.42-1.9,6.37-2.88,12.93-3.79,19.5-.12.9-.29,1.21-1.32,1.01-2.61-.5-5.26-.82-7.9-1.19-.77-.11-1.59-.22-1.9.81-.37,0-.74.01-1.11.02.07-.38.11-.76.2-1.13.91-3.5,1.32-7.03.64-10.62-.67-3.54-.86-7.08-.56-10.67.19-2.27.01-4.55-.43-6.78-.18-.91-.02-1.47.69-2.12,3.11-2.85,4.33-6.41,3.21-10.49-.9-3.28-2.53-6.16-6-7.47-.52-.59-1.04-1.18-1.56-1.77.82.01,1.64.06,2.46.02.61-.03,1.01-.43.96-1.05-.05-.6-.48-.95-1.11-.89-2.75.23-5.09-.94-7.39-2.18-3.01-1.62-6.2-2.7-9.58-3.16-3.17-.43-6.36-.53-9.41.74-.23-.08-.54.02-.7-.27.23-.54.27-1.06-.29-1.4-.46-.29-.91-.12-1.34.18-1.65,1.14-3.54,1.7-5.47,2.17-2.2.53-4.44.96-6.57,1.71-3.89,1.37-7.12,3.61-8.87,7.55-.29.65-.41,1.25-.22,1.92-.32.02-.59.15-.77.42-.82-.64-1.49-.28-2.21.26-4.93,3.67-7.01,11.16-4.67,16.88.21.52.53.91,1.03,1.15.14.86.28,1.72.43,2.58-.45.42-.42.94-.29,1.47,1.04,4.36,2.72,8.43,5.53,11.97.43.54.69,1.09.85,1.77.76,3.21,2.62,5.55,5.79,6.68.95.34,1.95.53,2.93.78,0,.31-.01.63-.02.94-1.13,1.61-2.94,1.65-4.62,2.08-3.14.8-6.3,1.55-9.38,2.53-14.15,4.51-26.1,12.12-34.4,24.76-1.27,1.94-2.67,3.8-3.95,5.74-8.16,12.37-15.39,25.27-21.79,38.62-.6,1.25-1.1,1.86-2.61,1.44-1.73-.48-3.47-.05-5.08.7-2.33,1.1-3.53,3.19-3.1,5.66.17.98-.13,1.28-.93,1.68-2.31,1.15-3.48,3.33-2.82,5.61.36,1.26-.02,1.7-.98,2.32-2.07,1.34-2.79,3.56-1.9,5.69.34.81.3,1.15-.48,1.66-2.4,1.56-2.73,3.8-.93,6.05.93,1.17,1.97,2.27,3.06,3.3.63.6.68,1.08.4,1.88-1.87,5.34-3.58,10.73-4.58,16.32-.21,1.18-.18,2.36-.16,3.57.03,1.49-.64,2.99-1.01,4.48-2.4,9.46-4.2,19-3.63,28.84.31,5.37.49,10.74.89,16.1.55,7.34,1.26,14.66,1.9,21.99.05.6.11,1.18.86,1.32.79.15.92-.5,1.18-.98.63.02,1.25.07,1.88.07,14.5,0,29.01,0,43.51,0,.09.62.31,1.15,1.05,1.15.75,0,.89-.62,1.09-1.17,15.13,0,30.26,0,45.4-.01.16.56.43,1.05.85,1.46ZM339.68,189.61c4.21-.06,8.49-.71,12.53-2.55.69-.32,1.61-.59,1.12-1.63-.44-.93-1.2-.51-1.87-.2-1.81.82-3.7,1.4-5.66,1.76-5.78,1.07-11.46.74-17.02-1.24-.53-.19-1-.38-1.47.08-.28.27-.34.59-.25.93.17.6.71.73,1.21.91,3.63,1.35,7.39,1.89,11.42,1.94Z"/>
      <path class="cls-5" d="M322.69,284.97H99.53c.22-.42.71-.66.77-1.18.63.01,1.26.04,1.89.04,15.83,0,31.66,0,47.5,0,4.07,0,8.13-.03,12.2-.04.9,1.19,1.24,1.19,2.1-.01,2.62.02,5.23.05,7.85.05,8.62,0,17.25-.03,25.87-.05.32.56.74.93,1.42.65.78-.33.57-1.04.53-1.64-1.05-14.78-2.56-29.52-3.98-44.27-.18-1.86-.33-3.64.73-5.33.55-.89.6-1.96.31-2.96-.25-.87-.23-2.26-1.57-2-1.46.29-.58,1.45-.4,2.25.35,1.52-.53,3.41-1.75,3.6-10.31,1.63-20.63,1.81-30.99.43-7.57-1.01-14.88-2.98-22.06-5.5-1.78-.62-3.55-1.3-5.55-2.47,1.14,0,1.85,0,2.56,0,8.05-.08,16.08-.42,24.01-2.02,3.04-.61,6.06-1.3,8.89-2.62,1.57-.73,3.06-1.65,3.47-3.46.18-.79.53-1.12,1.19-1.41,1.56-.67,2.72-1.78,2.89-3.53.09-1.02.34-1.57,1.36-1.99,1.77-.73,2.12-2.72.9-4.22-.6-.74-1.41-1.15-2.3-1.45-2-.66-4.08-.83-6.16-.85-2.66-.03-5.31,0-7.97,0,0-.14,0-.27-.01-.41.22-.05.45-.1.67-.14,4.02-.68,8.1-.75,12.15-1.16,2.07-.21,4.17-.37,6.04-1.38,1.79-.97,1.99-2.82.47-4.18-.97-.87-2.19-1.21-3.44-1.43-4.68-.84-9.37-.45-14.06-.1-2.13.16-4.26.44-6.81.71.81-.77,1.33-1.25,1.83-1.75,1.34-1.35,2.55-2.79,3.16-4.63.47-1.41.27-2.7-.91-3.69-1.11-.94-2.29-.59-3.39,0-.89.47-1.78,1-2.57,1.63-4.86,3.85-10.3,6.88-15.19,10.7-1.97,1.54-4.11,2.86-6.2,4.25-.97.64-2.02,1.14-3.18,1.37-.76.15-1.24.1-1.51-.8-.29-.98-.82-2.01-1.89-2.24-1.28-.28-.91-.86-.57-1.59,2.93-6.32,4.31-12.99,4.67-19.93.36-7.04-.36-14.03-.8-21.04-.05-.78.26-2.06-1.03-2.02-1.43.04-.96,1.32-.91,2.15.42,7.59,1.24,15.16.64,22.78-.5,6.34-2.07,12.38-4.75,18.14-.25.53-.49.85-1.18.72-7.48-1.32-14.96-2.7-22.31-4.64-.15-.97.82-1.52.89-2.4,1.14.41,1.54-.38,1.97-1.18,4.31-7.92,9.18-15.47,14.48-22.76,8.51-11.68,16.26-23.86,23.34-36.46,2.3-4.09,4.5-8.23,6.95-12.23.3-.5.48-1.15,1.25-1.3-.09,5.82-.03,11.58.86,17.29.62,3.99,1.56,7.88,3.76,11.35,2.52,3.98,6.15,6.04,10.87,6.2.93.03,1.53-.19,1.5-1.25.27-.02.55-.04.82-.06,1.7,1.33,3.56,2.41,5.74,2.6,1.77.15,3.41.36,4.74,1.68.49.48,1.17.59,1.63-.09.45-.68.08-1.16-.53-1.55-2.15-1.36-3.59-3.35-4.76-5.56-1.64-3.1-2.65-6.42-3.43-9.83-.73-3.19-1.3-6.4-1.58-9.71.88.03,1.01.71,1.33,1.13,2.45,3.26,5.03,6.4,8.47,8.7,3.28,2.19,6.53,2.06,9.79-.02,2.21-1.41,3.85-3.38,5.27-5.53,1.41-2.15,2.49-4.47,3.4-6.87.11-.29.09-.74.56-.72.54.02.37.48.36.77-.07,6.59-.18,13.19-2.01,19.59-.8,2.8-1.79,5.57-4.83,6.86-.49.21-.75.63-.54,1.18.23.58.72.83,1.29.61.67-.26,1.29-.65,1.93-.98.5.15,1,.3,1.5.45.93,1.68,2.08.43,3.16.24.82-.02,1.64-.05,2.46-.07.6.33,1.22.24,1.84.11,2.07-.42,3.74-1.53,5.14-3.07,1.75-1.92,2.92-4.19,3.85-6.6.23-.6.4-1.27,1.19-1.47.35.53.19,1.12.19,1.68-.03,6.1-.11,12.21.33,18.3.24,3.36-.34,6.56-1.66,9.63-1.55,3.59-3.19,7.14-4.74,10.74-2.63,6.1-4.1,12.58-6.17,18.87-1.97,6.01-4.01,12-6.25,17.93-.27.72-.71,1.58.35,1.96,1.07.39,1.23-.61,1.54-1.29.04-.09.05-.19.08-.28,3.57-9.45,6.71-19.05,9.52-28.75,1.77-6.12,4.66-11.76,7.19-17.55,1.88-4.32,2.63-8.78,1.96-13.46.15,0,.31.01.46.02.84,6.18,1.71,12.36,2.51,18.55.79,6.06,1.34,12.13.12,18.21-.42,2.09-1.02,4.27-.41,6.32,1.12,3.78.76,7.46-.02,11.19-.28,1.32-.18,2.62.71,3.72.35.44.33.87.24,1.36-.57,3.1-.84,6.24-1.02,9.37-.95,17.08-.5,34.16.2,51.24.02.54,0,1.09.61,1.35.7.3,1.06-.16,1.4-.64.58.02,1.16.05,1.74.05,12.33,0,24.65,0,36.98,0,.63,0,1.25-.05,1.88-.07,1.15,1.02,1.73.87,2.06-.53.08-.33.12-.66.17-1,.7-4.2,1.39-8.4,2.1-12.65.46.27.43.64.51.96,1.07,4.11,2,8.25,2.7,12.44.09.55.11,1.2.81,1.42.63.19.99-.2,1.33-.64.24.02.48.07.72.07,12.8,0,25.61-.01,38.41-.02.34.47.64,1.03,1.37.76.76-.29.67-.97.67-1.6.11-10.61-.08-21.22-.7-31.81-.47-8.12-1.2-16.22-2.52-24.26-.66-4.03-2.17-7.93-1.32-12.2.34-1.71-.32-3.64-.6-5.45-1.16-7.52-2.28-15.04-2.16-22.67.17-11,1.07-21.96,1.89-32.92.24-3.28.8-6.53.65-9.84.2-.61-.2-1.35.38-1.89.36.39.29.91.4,1.37,1.98,8.52,4.55,16.9,6.69,25.38,1.02,4.06,1.42,8.07-.44,12.06-1.1,2.37-.6,4.67,1.15,6.6,2.04,2.25,2.83,4.85,2.64,7.87-.21,3.34.1,6.68.62,9.98.11.72.16,1.56.76,1.99,1.28.93,1.19,2.15,1.04,3.48-.1.91-.07,1.84-.1,2.76-.59,23.3-.02,46.59.29,69.88,0,.68.27,1.17.6,1.68Z"/>
      <path class="cls-7" d="M322.69,284.97c-.33-.51-.59-1.01-.6-1.68-.3-23.29-.87-46.58-.29-69.88.02-.92,0-1.85.1-2.76.15-1.32.24-2.54-1.04-3.48-.6-.44-.64-1.27-.76-1.99-.52-3.31-.83-6.64-.62-9.98.19-3.02-.6-5.62-2.64-7.87-1.75-1.93-2.25-4.23-1.15-6.6,1.86-3.99,1.46-8,.44-12.06-2.14-8.48-4.71-16.85-6.69-25.38-.11-.46-.04-.98-.4-1.37-.01-.19,0-.39-.05-.58-3.31-14.54-5.93-29.21-8.44-43.9-.2-1.19-.69-1.8-1.82-2.23-5.62-2.14-11.49-3.45-17.23-5.2-1.14-.35-1.55-.25-1.99.97-2.52,6.98-5.84,13.52-11.33,18.69-4.86,4.57-9.05,4.64-14.2.44-.19-.15-.37-.31-.55-.47-3.91-3.44-6.84-7.62-9.26-12.19-1.7-3.22-3.01-6.6-3.8-10.16-.17-.78-.33-1.54.56-2.03,1.14,0,1.24.87,1.43,1.68,1.72,7.43,5.31,13.87,10.48,19.45,1.35,1.46,2.88,2.73,4.6,3.76,2.3,1.38,4.58,1.33,6.87-.03,1.73-1.03,3.18-2.37,4.48-3.89,4.11-4.81,6.95-10.33,9.06-16.26.31-.87.05-1.23-.74-1.46-.72-.2-1.2-.62-1.14-1.45.37-.51.8-.84,1.47-.57,5.66,2.33,11.71,3.37,17.48,5.3,1.56.52,3.1,1.06,4.79,1.64.02-1.65-.51-3.16-.66-4.71-.03-.29-.13-.57-.16-.85-.09-.72-.3-1.58.71-1.76,1-.17,1.14.66,1.27,1.4.48,2.81.96,5.63,1.44,8.44,3.96,23.32,8.31,46.56,15.02,69.29.82,2.78,1.49,5.61,1.66,8.53.14,2.36-.12,4.64-1.15,6.79-1.02,2.14-.86,4.08.82,5.88,2.2,2.36,2.99,5.23,2.84,8.42-.15,3.25.09,6.47.53,9.7.2,1.47.98,2.23,2.15,2.82,3,1.53,6.24,2.35,9.52,2.98,12.84,2.46,25.75,2.74,38.59.38,8.35-1.54,15.85-5.51,23.15-9.76,2.93-1.71,5.75-3.59,8.25-5.9.71-.65,1.36-1.38,1.99-2.11,1.15-1.33,1.46-2.73.94-4.54-4.38-15.08-6.59-30.52-7.45-46.18-.54-9.77-.81-19.55-.52-29.34.09-2.95.28-5.9.83-8.81.14-.72.34-1.44,1.21-1.31.97.14.92.92.76,1.7-.28,1.32-.52,2.65-.48,4.21,4.76-3.46,10.19-5.27,15.38-7.57.13-.06.41-.1.29-.39-.02-.04-.06-.07-.1-.09-.04-.02-.09-.03-.14-.05-1.73-1.18-3.04-2.69-3.47-4.78-.17-.83-.76-2.02.52-2.35,1.43-.38,1.21,1.03,1.41,1.82.92,3.67,4.2,5.01,7.35,2.97.56-.37,1.13-.75,1.62-1.21.59-.54,1.15-.64,1.8-.16.33.83-.08,1.35-.68,1.86-1.72,1.46-3.71,2.44-5.78,3.24-1.19.46-1.12,1-.59,1.91.82,1.43,1.81,2.65,3.05,3.78,3.77,3.42,8.2,5.15,13.22,5.11,12.11-.08,20.25-6.98,27.27-16.06-3.02-.85-5.93-1.5-8.11-3.66-2.25-2.23-2.13-5.35-2.89-8.11-.3-.06-.36.15-.48.29-3.34,3.97-7.59,6.85-11.81,9.74-1.36.93-3,1.3-4.63,1.61-1.48.29-2.98.24-4.59.3.24,1.06.46,2.04.67,3.03.15.71.19,1.43-.73,1.59-.81.14-1.07-.46-1.23-1.12-.36-1.5-.74-2.99-1.11-4.48-.21-.99-.48-1.97-.62-2.97-.22-1.47-.96-2.48-2.13-3.42-3.32-2.67-5.98-5.89-7.39-9.99-.5-1.46-1.06-2.91-1.44-4.41-.21-.82-.59-1.19-1.35-1.47-3.2-1.16-5.06-3.47-5.56-6.82-.38-2.52.17-4.75,2.38-6.27,1.89-1.3,4.59-1.03,6.79.56-.13,1.59-.36,1.73-1.88,1.14-2.51-.99-4.33-.42-5.1,1.59-1.01,2.62.54,6.34,3.1,7.54.71.33.79.14.77-.53-.01-.55.4-.91.94-.92.53,0,.9.31.99.87.08.43.15.86.25,1.28.97,4.08,2.07,8.05,4.67,11.52,2.82,3.75,6.33,6.46,10.61,8.27,1.13.47,2.2.52,3.37.23,7.42-1.8,13.12-5.76,16.37-12.86.38-.83.77-1.62,1.92-1.24.55.69.38,1.39-.06,2.01-.94,1.29-.91,2.73-.71,4.17.22,1.58.59,3.13.88,4.7.38,2.04,1.65,3.36,3.46,4.19,1.01.46,2.06.86,3.12,1.16,4.25,1.19,8.64,1.67,12.98,2.36,2.08.33,2.88-.44,2.7-2.61-.09-1.06-.59-1.93-1.33-2.67-.52-.52-.97-1.06-.26-1.72.7-.65,1.26-.14,1.74.36,1.72,1.79,2.25,3.88,1.58,6.28-.11.4-.74.98.23,1.21,2.54.72,5.15,1.24,7.45,2.59,1.01.59,1.75.94,2.64-.21.53-.69,1.51-.82,2.38-.96,4.32-.7,8.59-.37,12.8.77,2.09.56,4,1.41,5.31,3.32.09-1.11-.1-1.69-1.51-3.28-5.01-5.65-11.58-8.54-18.69-10.47-.21-.09-.42-.19-.64-.28-.53-.21-.95-.55-.81-1.17.15-.66.64-.9,1.31-.78.28.05.56.09.84.13,3.56,1.24,7.13,2.45,10.46,4.25,3.13,1.69,6.06,3.64,8.45,6.31,4.23,4.73,5.07,10.03,2.7,15.91-.95,2.37-1.69,4.83-2.59,7.23-.93,2.46-2.2,4.74-3.96,6.72-.5.56-.51.99-.23,1.66,4.84,11.44,8.83,23.22,13.61,34.68.32.78.33,1.39-.42,1.89-1.1.06-1.32-.81-1.61-1.57-4.22-10.82-8.43-21.64-12.66-32.45-.26-.66-.4-1.39-.98-1.92-1.66,1.17-3.36,2.2-5.44,2.23-3.93.06-7.43-1.19-10.49-3.63-.62-.5-1.25-.84-2.01-1.08-1.96-.63-3.87-1.43-4.93-3.33-.43-.78-.85-1.43-1.6-1.94-1.15-.8-1.36-1.94-.79-3.21.19-.42.47-.75.33-1.33-.39-1.62.11-2.68,1.53-3.54.96-.59,2.03-.9,3.11-1.18,3.19-.81,6.43-1.42,9.54-2.54.36-.13,1.12,0,.79-.79-.26-.63-.65-1.06-1.44-.57-.49.3-1.06.48-1.6.67-1.74.62-3.5,1.15-5.39.97-1.14-.11-2.05-.59-2.53-1.67-.5-1.13-.31-2.2.5-3.11.61-.68,1.33-1.27,2-1.9.59-.55,1.38-.9,1.84-1.67-1.63-1.05-3.41-1.65-5.22-2.16-4.87-1.36-9.9-1.85-14.85-2.75-.92-.17-1.38.04-1.9.77-2.92,4.02-6.29,7.63-10.35,10.53-6.33,4.52-13.28,7.01-21.15,5.96-5.95-.79-10.89-3.49-14.46-8.45-.6-.84-.69-2.36-1.67-2.5-.91-.13-1.96.69-2.93,1.11-3.91,1.69-7.89,3.22-11.24,5.98-.73.6-1.06,1.21-1.09,2.18-.33,9.21-.02,18.41.43,27.6.17,3.52.47,7.03.72,10.6q2.86-1.16,2.77-3.98c-.14-4.7-.25-9.4-.84-14.07-.08-.66.07-1.21.78-1.33.81-.14,1.12.38,1.2,1.11.08.72.19,1.44.25,2.16.59,7.1.72,14.22.85,21.34.06,3.52.71,6.89,2.57,9.85,5.29,8.39,8.3,17.84,12.58,26.7,3.15,6.53,5.96,13.23,9.14,19.76,1.92,3.95,1.93,3.98,6.41,3.85,12.5-.38,24.48-3.11,35.85-8.33,8.53-3.91,16-9.25,21.88-16.66.64-.81.66-1.27-.06-2.04-2.03-2.15-3.89-4.45-5.65-6.82-3.49-4.7-5.97-9.84-6.71-15.71-.62-4.92-.81-9.85-.44-14.79.06-.82.08-1.61-.27-2.41-1.84-4.16-3.66-8.33-5.44-12.51-.34-.8-1.39-1.87-.11-2.5,1.33-.65,1.49.84,1.86,1.63,4.63,10.07,8.69,20.38,13.29,30.46,3.64,7.97,8.36,15.08,14.63,21.29,8.58,8.49,17.24,16.88,26.21,24.97.85.77,1.55.79,2.45.32,3.37-1.76,5.6-4.53,7.17-7.92.29-.62.03-.98-.31-1.42-8.17-10.77-15.17-22.36-23.21-33.22-.48-.64-.54-1.2-.06-1.83,1.02-.34,1.49.36,1.99,1.04,4.08,5.52,7.83,11.27,11.7,16.94,4.74,6.95,9.42,13.94,14.79,20.43,1.33,1.61,2.75,3.12,4.24,4.58,1.83,1.8,4,2.65,6.55,2.58,3.34-.09,6.68-.19,10.01-.3.79-.03,1.54.09,2.21.55,3.91,2.7,7.19,6.01,9.66,10.08.31.51.54,1.08.8,1.63v1.45c-.67.93-1.34,1.87-2.03,2.78-.22.29-.3.53-.22.91.54,2.82-.49,3.98-3.35,3.83-.63-.03-1.17-.06-1.77.34-3.44,2.34-6.51,1.95-8.92-1.47-1.11-1.57-2.36-2.14-4.11-2.36-6.09-.77-11.61-2.65-16.48-6.79-14.93-12.69-29.36-25.88-42.82-40.13-2.51-2.66-4.63-5.58-6.42-8.76-3.57-6.32-6.46-12.97-9.34-19.62-.19-.44-.26-.99-.79-1.36,0,1.86-.05,3.6,0,5.33.23,6.32,1.32,12.39,4.86,17.83,2.54,3.92,5.54,7.46,8.65,10.91,5.22,5.79,10.49,11.53,15.31,17.68,6.05,7.71,10.51,16.17,13.16,25.63,4.66,16.61,6.4,33.62,7.05,50.78.02.58-.2,1.02-.5,1.46h-1.16c.12-.32-.22-.39-.32-.59-.09-2.23-.15-4.45-.28-6.68-.78-13.45-2.34-26.8-5.52-39.92-2.52-10.42-6.61-20.07-13.31-28.56-4.5-5.71-9.29-11.17-14.16-16.56-.68-.75-.93-.39-1.36.17-4.04,5.17-8.88,9.47-14.47,12.87-14.66,8.92-30.64,12.95-47.75,12.67-1.22-.02-1.45.31-1.45,1.4,0,1.71.12,3.41.66,5.02.72,2.15.87,4.33.83,6.58-.32,17.28-.91,34.56-.8,51.85,0,.38-.11.76-.16,1.14-1.34.49-1.7.29-1.78-1.03-.04-.68-.05-1.36-.05-2.03-.03-16.91.5-33.81.81-50.72.03-1.62-.13-3.17-.62-4.72-.74-2.33-1.08-4.73-.77-7.17.12-.92-.1-1.68-.49-2.49-3.54-7.38-7.19-14.71-10.55-22.18-4.18-9.29-7.6-18.93-12.89-27.71-1.7-2.82-2.33-6.03-2.35-9.34-.01-1.62,0-3.24,0-4.96-2.81,1.17-2.85,1.23-2.63,3.27,1.22,10.94,3.18,21.73,6.24,32.32.42,1.45.86,2.89.16,4.39-.13.29,0,.55.11.83,2.77,6.32,4.48,12.97,6.07,19.65,2.09,8.76,4.06,17.54,4.57,26.58.52,9.2.38,18.4-.05,27.6-.25,5.47-.63,10.93-.97,16.39-.04.61,0,1.32-.75,1.6-.62.23-1-.15-1.31-.63.73-9.81,1.1-19.63,1.44-29.47.68-19.85-3.37-38.88-9.47-57.59-.27-.83-.64-1.64-1.01-2.58-3.93,4.32-8.6,7.26-13.47,9.89-6.92,3.74-14,7.23-21.79,8.61-10.17,1.81-20.46,1.82-30.73.73-5.5-.58-10.96-1.44-16.11-3.6-1.11-.47-1.23-.19-1.26.86-.67,24.42-.15,48.84.29,73.25-.2.29-.39.58-.59.87h-.87ZM535.25,215.47c3.98,3.47,7.85,6.77,11.83,9.94,2.17,1.73,4.56,2.93,7.26,3.47,6.45,1.28,12.94,2.44,19.23,4.4.41.13.85.2,1.28.22.55.02,1.27.27,1.55-.41.25-.6-.22-1.1-.62-1.53-1.31-1.44-3.03-2.22-4.78-2.95-2.05-.85-4.22-1.42-6.16-2.55-.6-.35-1.47-.61-1.25-1.55.24-1.01,1-.82,1.74-.59.12.04.29-.02.43-.06,2.39-.79,4.3.12,5.87,1.82,1.1,1.19,2.36,2.1,3.73,2.93,1.67,1.02,1.58,1.04,2.66-.54.68-1,.19-1.77-.28-2.53-2.03-3.3-4.8-5.93-7.77-8.37-.83-.68-1.72-.98-2.8-.93-3,.14-6.01.23-9.01.34-3.32.11-6.15-.98-8.5-3.37-1.7-1.73-3.34-3.51-4.89-5.37-.29-.35-.48-.83-1.03-1.04-1.91,3.7-4.5,6.74-8.49,8.67ZM481.96,123.97c1.01.94,2.22,1.39,3.49,1.69,5.98,1.38,11.73.6,17.3-1.86.39-.17.87-.56,1.18-.46,1.01.33,1.22-.33,1.54-.98,1.76-3.58,3.03-7.33,3.64-11.28.7-4.49-1.76-8.27-6.12-9.53-3.68-1.06-7.44-1.23-11.23-.87-1.19.11-2.18.54-3.05,1.46-1.02,1.09-2.25,1.98-3.39,2.96-.59.5-1.18,1-1.76,1.52-.4.36-.8.78-.59,1.37.25.69.93.64,1.48.64.62,0,1.26-.1,1.87-.25,2.69-.7,5.2-1.83,7.5-3.4.6-.41,1.2-.8,1.76-.04.57.78-.03,1.23-.6,1.65-.2.14-.44.24-.6.41-.31.34-1.31.24-.73,1.19.43.7.76,1.08,1.69.61,1.73-.87,3.48-1.7,5.14-2.69.58-.34,1.12-.39,1.52.22.42.64.09,1.09-.46,1.45-.24.16-.5.29-.75.44-4.47,2.6-9.28,4.33-14.29,5.52-2.11.5-4.28.84-6.3,1.7-.59.25-1.25.6-1.18,1.31.05.57.75.68,1.25.85.32.1.65.19.98.25,3.58.66,7.14.41,10.69-.2,3.77-.65,7.22-2.15,10.44-4.19.63-.4,1.28-.67,1.75.11.43.7-.06,1.17-.63,1.54-.12.08-.24.16-.37.23-7.32,4.44-15.16,5.91-23.56,4.13-.43-.09-.73-.18-.94.28-.22.47.06.75.41.95.46.26.94.49,1.44.67,1.84.66,3.76.91,5.69,1.06,5.97.47,11.65-.74,17.15-3.01.72-.3,1.62-.96,2.07.22.43,1.14-.66,1.35-1.38,1.62-1.67.63-3.36,1.25-5.07,1.77-5.57,1.69-11.24,1.88-16.98.94ZM503.02,125.88c-4.27,1.77-8.57,2.55-13.26,2.41,5.87,3.15,9.87,2.03,13.26-2.41ZM565.86,233.17c1.43,2.08,3.31,2.65,5.11,1.54-1.72-.52-3.35-1.01-5.11-1.54Z"/>
      <path class="cls-5" d="M532.76,284.97c.3-.44.52-.88.5-1.46-.65-17.16-2.39-34.17-7.05-50.78-2.65-9.45-7.11-17.92-13.16-25.63-4.82-6.14-10.09-11.89-15.31-17.68-3.12-3.45-6.11-7-8.65-10.91-3.54-5.44-4.63-11.51-4.86-17.83-.06-1.73,0-3.47,0-5.33.53.37.6.92.79,1.36,2.88,6.65,5.76,13.3,9.34,19.62,1.79,3.17,3.91,6.1,6.42,8.76,13.46,14.25,27.89,27.44,42.82,40.13,4.87,4.14,10.39,6.01,16.48,6.79,1.75.22,3.01.79,4.11,2.36,2.41,3.41,5.48,3.81,8.92,1.47.6-.41,1.14-.38,1.77-.34,2.87.16,3.89-1.01,3.35-3.83-.07-.38,0-.62.22-.91.7-.91,1.36-1.85,2.03-2.78,0,18.61-.01,37.22.03,55.82,0,1-.2,1.19-1.19,1.19-15.52-.04-31.03-.03-46.55-.03Z"/>
      <path class="cls-7" d="M102.15,196.28c7.36,1.94,14.83,3.31,22.31,4.64.69.12.93-.19,1.18-.72,2.69-5.76,4.25-11.8,4.75-18.14.61-7.62-.22-15.19-.64-22.78-.05-.83-.52-2.11.91-2.15,1.29-.04.98,1.24,1.03,2.02.44,7,1.16,13.99.8,21.04-.36,6.94-1.74,13.61-4.67,19.93-.34.74-.71,1.32.57,1.59,1.07.23,1.6,1.27,1.89,2.24.27.9.76.96,1.51.8,1.16-.23,2.21-.73,3.18-1.37,2.09-1.39,4.23-2.71,6.2-4.25,4.89-3.82,10.33-6.85,15.19-10.7.79-.63,1.67-1.16,2.57-1.63,1.11-.59,2.28-.93,3.39,0,1.18,1,1.38,2.28.91,3.69-.61,1.84-1.82,3.28-3.16,4.63-.5.5-1.02.98-1.83,1.75,2.55-.27,4.67-.55,6.81-.71,4.69-.34,9.38-.73,14.06.1,1.25.22,2.47.56,3.44,1.43,1.52,1.36,1.32,3.21-.47,4.18-1.88,1.01-3.98,1.18-6.04,1.38-4.05.4-8.13.48-12.15,1.16-.23.04-.45.09-.67.14,0,.14,0,.27.01.41,2.66,0,5.31-.02,7.97,0,2.09.02,4.16.19,6.16.85.89.29,1.7.71,2.3,1.45,1.22,1.5.87,3.49-.9,4.22-1.03.42-1.27.97-1.36,1.99-.16,1.75-1.33,2.85-2.89,3.53-.66.28-1.01.62-1.19,1.41-.42,1.81-1.91,2.73-3.47,3.46-2.83,1.31-5.85,2.01-8.89,2.62-7.92,1.6-15.95,1.94-24.01,2.02-.71,0-1.42,0-2.56,0,1.99,1.17,3.77,1.85,5.55,2.47,7.18,2.52,14.49,4.49,22.06,5.5,10.36,1.38,20.68,1.2,30.99-.43,1.22-.19,2.1-2.08,1.75-3.6-.18-.8-1.07-1.96.4-2.25,1.34-.27,1.32,1.13,1.57,2,.29,1,.24,2.07-.31,2.96-1.06,1.69-.91,3.48-.73,5.33,1.42,14.75,2.93,29.49,3.98,44.27.04.6.25,1.31-.53,1.64-.68.29-1.1-.09-1.42-.65-1.04-15.65-2.72-31.24-4.15-46.85-.1-1.07-.63-.86-1.24-.76-7.69,1.22-15.42,1.47-23.18,1.03-.94-.05-1.14.25-1.2,1.1-.44,6.04-1.28,12.03-2.28,17.99-1.51,9.11-1.79,18.29-1.68,27.49-.86,1.2-1.2,1.2-2.1.01.02-.72.06-1.45.06-2.17.08-8.09.22-16.16,1.54-24.18,1.04-6.3,1.91-12.63,2.5-19,.11-1.22-.19-1.53-1.34-1.66-12.08-1.34-23.66-4.4-34.5-10.04-1.11-.58-2.23-.72-3.16.59-1.1,1.56-2.6,2.25-4.65,1.97-2.78-.38-5.6-.42-8.4-.68-.83-.08-1.26.13-1.67.91-5.08,9.75-8.9,19.94-11.15,30.72-1.63,7.81-2.79,15.62-.81,23.54-.06.52-.55.76-.77,1.18h-.58c-.42-.41-.69-.9-.85-1.46-.06-.72-.09-1.45-.19-2.16-1.45-11.04-3.29-22.01-5.12-32.99-1.14-6.87-2.36-13.73-3.52-20.6-.15-.87-.36-1.19-1.36-.87-1.74.57-3.53,1.04-5.33,1.39-17.67,3.5-35.08,2.31-52.23-3.06-7.18-2.25-14.21-4.83-20.55-8.97-1.07-.7-2.06-1.52-3.11-2.3-1.95,5.57-4.32,18.55-4.36,24.17-.1,15.18,1.41,30.26,2.83,45.35-.26.48-.38,1.13-1.18.98-.75-.14-.8-.72-.86-1.32-.64-7.33-1.35-14.66-1.9-21.99-.4-5.36-.58-10.73-.89-16.1-.58-9.84,1.23-19.37,3.63-28.84.38-1.49,1.05-3,1.01-4.48-.03-1.21-.05-2.39.16-3.57,1-5.59,2.71-10.98,4.58-16.32.28-.8.23-1.28-.4-1.88-1.09-1.03-2.13-2.13-3.06-3.3-1.8-2.26-1.47-4.49.93-6.05.79-.51.82-.86.48-1.66-.88-2.13-.17-4.34,1.9-5.69.96-.62,1.34-1.06.98-2.32-.66-2.28.51-4.46,2.82-5.61.8-.4,1.1-.7.93-1.68-.43-2.47.77-4.56,3.1-5.66,1.61-.76,3.36-1.18,5.08-.7,1.52.42,2.02-.19,2.61-1.44,6.41-13.35,13.63-26.25,21.79-38.62,1.28-1.94,2.67-3.8,3.95-5.74,8.31-12.64,20.25-20.25,34.4-24.76,3.08-.98,6.24-1.73,9.38-2.53,1.67-.42,3.49-.46,4.62-2.08.88.25,1.24.74,1,1.72-.33,1.3-.53,2.64-.77,3.96-.17.96-.6,1.51-1.67,1.2-.98-1.08.24-2.29-.16-3.47-2.52.61-4.97,1.17-7.4,1.82-15.57,4.14-28.67,11.8-37.96,25.47-10.45,15.38-19.59,31.47-27.51,48.28-.84,1.78-1.19,3.31-.27,5.14.58,1.15.83,2.47,1.15,3.74.41,1.65.77,3.31.31,5.02-.35,1.3-1.04,2.48-2.4,2.63-1.27.14-1.12.71-1.03,1.58.24,2.27-.51,3.84-2.21,4.4-.84.28-.83.61-.67,1.33.54,2.4.02,3.51-2.19,4.68-.54.28-.34.59-.32.94.06,1.21-.3,2.22-1.41,2.81-1.11.59-2.16.31-3.14-.38-.27-.19-.53-.38-.92-.66-1.96,5.62-3.69,11.19-4.73,16.97-.25,1.39.15,2.33,1.11,3.21,1.98,1.82,4.25,3.24,6.65,4.39,20.36,9.82,41.68,13.64,64.15,10.15,2.55-.4,5.11-.82,7.88-1.83-6.45-1.19-12.51-2.48-18.48-4.2-3.97-1.15-7.81-2.63-11.22-5.03-4.03-2.84-6.6-6.6-7.37-11.54-.88-5.71-1.33-11.45-1.62-17.21-.9-17.73-.59-35.46.04-53.19.02-.43.02-.89.19-1.28.31-.73,1.18-.81,1.64-.19.32.43.19.93.18,1.41-.15,5.42-.37,10.85-.45,16.27-.27,17.06-.3,34.11,1.58,51.1.59,5.37,2.37,9.95,7.04,13.06,1.7,1.13,3.48,2.1,5.38,2.86,6.29,2.5,12.89,3.88,19.49,5.19,12.95,2.57,26.06,3.95,39.22,4.86,1.51.1,2.52-.27,3.31-1.47.35-.53.75-1.02,1.04-1.58,3.14-6.16,3.39-12.62,1.93-19.24-.25-1.14-.98-1.61-2.14-1.8-14.42-2.3-28.64-5.46-42.49-10.14-.76-.26-1.52-.33-2.29-.2-3.33.52-6.33,1.77-8.81,4.11-.54.51-1.09,1.15-1.82.37-.73-.77-.07-1.33.46-1.82,3.03-2.79,6.63-4.37,10.72-4.63,1.22-.08,1.35-.5,1.4-1.5.85-16.21,1.92-32.4,3.98-48.51.37-2.88.83-5.75,1.27-8.62.1-.68.42-1.26,1.23-1.1.73.14.83.72.74,1.36-.11.72-.22,1.44-.33,2.15-1.61,10.3-2.6,20.67-3.38,31.05-.61,8.16-1.03,16.34-1.57,24.51-.06.91.14,1.37,1.08,1.66,5.14,1.57,10.27,3.14,15.51,4.36ZM171.25,218.21c-.69.13-1.2.22-1.71.33-3.19.66-6.41.99-9.65,1.27-.76.07-1.45-.1-1.48-.96-.03-.77.57-1.05,1.29-1.04.19,0,.39-.01.58-.03,4.05-.37,8.1-.78,12.02-2.01,1.02-.32,2.04-.67,2.74-1.55.34-.43.63-1.01.37-1.47-.22-.4-.8-.09-1.22-.03-4.58.59-9.18.73-13.78.81-.63.01-1.21-.11-1.26-.87-.06-.84.52-1.06,1.22-1.09.39-.02.78-.03,1.16-.04,2.95-.13,5.91-.22,8.86-.42,2.32-.15,4.64-.33,6.88-1.03.45-.14,1.01-.26,1.07-.84.06-.62-.42-.95-.9-1.2-.74-.38-1.54-.58-2.36-.7-3.47-.52-6.96-.44-10.45-.52-1.41-.03-2.81-.07-4.2-.3-.75-.13-1.27-.51-1.43-1.25-.17-.77.25-1.3.86-1.69.75-.47,1.6-.68,2.46-.85,2.33-.48,4.69-.7,7.06-.91,3.62-.32,7.27-.31,10.82-1.23.49-.13,1.21-.21,1.27-.8.07-.68-.64-.91-1.16-1.11-1.79-.69-3.69-.81-5.58-.84-8.19-.15-16.25.75-24.16,2.92-.76.21-1.53.41-1.8-.54-.27-.98.55-1.19,1.28-1.38,1.41-.35,2.81-.72,4.23-1.05.38-.09.76-.13.98-.52.73-1.3,1.97-2.12,3-3.13,1.25-1.22,2.44-2.5,3.06-4.19.19-.52.27-1.05-.18-1.48-.47-.45-.95-.1-1.32.13-1.19.74-2.35,1.53-3.5,2.34-6.38,4.47-12.74,8.95-19.12,13.41-1.55,1.08-3.18,2.08-5.09,2.36-.83.12-.99.38-.91,1.18.34,3.34.27,6.67-.23,10-.34,2.24-1.09,4.37-1.98,6.55,9.39.23,18.59.14,27.73-1.2,3.93-.57,7.83-1.34,11.54-2.83,1.09-.44,2.24-.88,3-2.19ZM110.69,228.36c-6.23-.59-12.22-1.33-18.19-2.23-1.6-.24-1.57-.27-1.3,1.33,1.73,10.11,3.45,20.22,5.16,30.33.49,2.9.95,5.8,1.43,8.7,2.2-13.4,6.43-26.07,12.91-38.13ZM23.31,159.5c-1.82-.61-3.61-.5-5.11.28-1.6.84-2.36,2.16-1.89,3.81,1.17,4.13,3.31,7.82,5.48,11.47.65,1.09,1.68.84,2.14-.39.34-.89.25-1.81.09-2.72-.53-3.12-1.63-6.06-2.92-8.94-.33-.73-.52-1.72.39-1.76,1.37-.05,1.43-.95,1.81-1.77ZM20.64,179.55c-.2-.84-.36-1.91-.7-2.91-1.13-3.36-3.26-6.25-4.53-9.55-.23-.6-.59-.3-.93-.15-1.93.85-2.57,2.48-1.69,4.55,1.38,3.27,3.35,6.21,5.27,9.17.37.57.79,1.26,1.57,1.03.91-.26.87-1.17,1-2.14ZM17.81,186.14c0-.79-.28-1.51-.56-2.23-1.25-3.33-3.59-6.05-5.14-9.22-.25-.52-.54-.36-.92-.18-1.79.88-2.36,2.57-1.36,4.36,1.67,2.96,3.86,5.54,6.03,8.13.35.42.79.8,1.37.53.57-.27.56-.85.56-1.39ZM15.15,190.54c-.13-.32-.28-.78-.5-1.21-1.36-2.65-3.48-4.76-5.12-7.21-.13-.2-.27-.36-.58-.31-1.18.17-2.25,1.93-1.6,2.9,1.77,2.64,4.15,4.72,6.59,6.71.68.56,1.16.13,1.21-.88Z"/>
      <path class="cls-5" d="M531.27,284.38c.1.2.45.27.32.59h-153.91c.2-.29.39-.58.59-.87,11.99,0,23.98,0,35.97,0,.67,0,1.35-.06,2.02-.09.31.48.7.85,1.31.63.75-.27.71-.99.75-1.6.34-5.46.71-10.93.97-16.39.43-9.2.57-18.4.05-27.6-.51-9.04-2.48-17.82-4.57-26.58-1.59-6.68-3.31-13.33-6.07-19.65-.12-.28-.25-.54-.11-.83.69-1.49.26-2.94-.16-4.39-3.05-10.58-5.01-21.38-6.24-32.32-.23-2.04-.18-2.1,2.63-3.27,0,1.72,0,3.34,0,4.96.02,3.3.65,6.52,2.35,9.34,5.29,8.79,8.71,18.42,12.89,27.71,3.36,7.46,7.01,14.8,10.55,22.18.39.81.6,1.56.49,2.49-.31,2.44.03,4.84.77,7.17.49,1.55.65,3.1.62,4.72-.31,16.91-.84,33.81-.81,50.72,0,.68,0,1.36.05,2.03.08,1.32.44,1.52,1.78,1.03.68,0,1.36.02,2.03.02,31.91,0,63.83,0,95.74,0Z"/>
      <path class="cls-7" d="M378.27,284.1c-.2.29-.39.58-.59.87h-.87c-.61-.46-.64-1.17-.77-1.82-.63-3.28-1.22-6.56-1.86-9.83-.86-4.43-1.76-8.84-2.65-13.27-.56,1.82-.85,3.62-1.13,5.43-.9,5.88-1.8,11.76-2.72,17.63-.09.58-.03,1.32-.81,1.56-.62.19-1-.17-1.32-.64,1.38-8.99,2.71-17.99,4.18-26.96.34-2.05.14-3.86-.72-5.73-1.77-3.83-3.91-7.44-6.33-10.89-.41-.58-.61-1.18.05-1.64.65-.46,1.18-.11,1.58.48,3.68,5.37,7.02,10.88,8.47,17.35,2.04,9.11,3.71,18.29,5.48,27.46Z"/>
      <path class="cls-5" d="M365.56,284.04c.31.47.7.83,1.32.64.78-.24.72-.98.81-1.56.92-5.88,1.81-11.76,2.72-17.63.28-1.81.57-3.61,1.13-5.43.88,4.42,1.78,8.84,2.65,13.27.64,3.27,1.23,6.56,1.86,9.83.12.65.16,1.36.77,1.82h-53.24c.2-.29.39-.58.59-.87,7.02,0,14.05,0,21.07,0,6.78,0,13.56-.03,20.34-.05Z"/>
      <path class="cls-8" d="M102.15,196.28c-5.24-1.22-10.37-2.79-15.51-4.36-.94-.29-1.14-.75-1.08-1.66.54-8.17.96-16.35,1.57-24.51.78-10.39,1.76-20.75,3.38-31.05.11-.72.23-1.43.33-2.15.1-.64-.01-1.22-.74-1.36-.82-.15-1.13.42-1.23,1.1-.44,2.87-.9,5.74-1.27,8.62-2.06,16.11-3.13,32.3-3.98,48.51-.05,1-.18,1.42-1.4,1.5-4.09.27-7.69,1.84-10.72,4.63-.53.49-1.19,1.05-.46,1.82.74.78,1.28.13,1.82-.37,2.48-2.34,5.48-3.59,8.81-4.11.78-.12,1.53-.05,2.29.2,13.86,4.67,28.07,7.83,42.49,10.14,1.16.19,1.89.66,2.14,1.8,1.46,6.62,1.22,13.08-1.93,19.24-.28.56-.69,1.05-1.04,1.58-.79,1.2-1.81,1.57-3.31,1.47-13.16-.91-26.27-2.29-39.22-4.86-6.6-1.31-13.2-2.68-19.49-5.19-1.9-.75-3.68-1.72-5.38-2.86-4.67-3.12-6.44-7.69-7.04-13.06-1.88-17-1.85-34.05-1.58-51.1.09-5.43.3-10.85.45-16.27.01-.47.14-.97-.18-1.41-.45-.62-1.33-.54-1.64.19-.16.38-.17.85-.19,1.28-.63,17.73-.94,35.46-.04,53.19.29,5.76.74,11.5,1.62,17.21.76,4.94,3.34,8.7,7.37,11.54,3.41,2.4,7.24,3.88,11.22,5.03,5.96,1.72,12.02,3.01,18.48,4.2-2.77,1.02-5.33,1.44-7.88,1.83-22.47,3.5-43.79-.32-64.15-10.15-2.4-1.16-4.66-2.58-6.65-4.39-.96-.88-1.36-1.82-1.11-3.21,1.04-5.78,2.77-11.36,4.73-16.97.38.27.65.47.92.66.98.69,2.03.97,3.14.38,1.11-.59,1.47-1.61,1.41-2.81-.02-.35-.21-.65.32-.94,2.21-1.17,2.73-2.28,2.19-4.68-.16-.72-.17-1.05.67-1.33,1.7-.56,2.45-2.13,2.21-4.4-.09-.87-.24-1.44,1.03-1.58,1.36-.15,2.05-1.33,2.4-2.63.46-1.71.1-3.37-.31-5.02-.31-1.27-.57-2.59-1.15-3.74-.92-1.83-.56-3.36.27-5.14,7.92-16.81,17.05-32.9,27.51-48.28,9.29-13.67,22.39-21.33,37.96-25.47,2.43-.65,4.89-1.2,7.4-1.82.41,1.18-.82,2.4.16,3.47-.48.43-.27,1.15-.68,1.62-.45-.77-.57-1.64-.76-2.48-.17-.76-.35-1.56-1.32-1.33-.95.22-.8,1.04-.63,1.79.75,3.34,2.04,6.46,3.94,9.3,4.29,6.39,9.76,11.27,17.46,13.05,6.21,1.44,11.33-1.49,13.31-7.37.27-.81.37-1.51-.51-1.99.1-.77.19-1.53.29-2.3,1.89-.27,3.48-1.13,4.87-2.41,1.8-1.66,3.23-3.62,4.38-5.76,1.44-2.65,2.8-5.35,3.83-8.2.37,0,.74-.01,1.11-.02.09.84.63,1.07,1.39,1.17,2.64.35,5.26.83,7.91,1.11,1.22.13,1.34.65,1.21,1.69-1.18,9.13-1.99,18.29-2.37,27.49-.03.65-.19,1.22-.57,1.76-3.99,5.76-7.28,11.96-10.67,18.06-6.83,12.3-14.51,24.03-22.73,35.41-5.14,7.12-9.84,14.49-14.05,22.19-.38.7-.79,1.35-.2,2.12-.07.89-1.04,1.43-.89,2.4ZM91.18,121.2s.02,0,.04,0c-.14-1.2-.24-2.41-.43-3.6-.95-5.91-2.82-11.46-6.53-16.26-.65-.85-1.38-1.63-2.26-2.24-.49-.34-1.01-.39-1.43.1-.43.49-.31.99.14,1.41,4.36,3.96,6.31,9.18,7.64,14.71.58,2.41.81,4.87.95,7.34.04.69.15,1.32.99,1.31.93-.01,1.04-.71,1-1.44-.02-.44-.07-.87-.1-1.3Z"/>
      <path class="cls-12" d="M518.53,169c-.47.63-.41,1.19.06,1.83,8.04,10.86,15.05,22.44,23.21,33.22.33.44.59.8.31,1.42-1.57,3.39-3.8,6.16-7.17,7.92-.9.47-1.6.45-2.45-.32-8.97-8.08-17.63-16.47-26.21-24.97-6.27-6.2-10.99-13.32-14.63-21.29-4.6-10.08-8.67-20.39-13.29-30.46-.36-.79-.52-2.28-1.86-1.63-1.29.63-.24,1.7.11,2.5,1.78,4.18,3.6,8.35,5.44,12.51.36.8.33,1.58.27,2.41-.36,4.95-.17,9.88.44,14.79.74,5.88,3.22,11.01,6.71,15.71,1.76,2.38,3.63,4.67,5.65,6.82.72.77.7,1.23.06,2.04-5.88,7.42-13.35,12.75-21.88,16.66-11.37,5.22-23.34,7.95-35.85,8.33-4.48.14-4.49.11-6.41-3.85-3.18-6.53-5.99-13.23-9.14-19.76-4.27-8.86-7.28-18.31-12.58-26.7-1.87-2.96-2.51-6.33-2.57-9.85-.13-7.12-.26-14.24-.85-21.34-.06-.72-.17-1.44-.25-2.16-.08-.73-.39-1.24-1.2-1.11-.71.12-.86.67-.78,1.33.59,4.67.69,9.37.84,14.07q.08,2.82-2.77,3.98c-.24-3.56-.55-7.08-.72-10.6-.44-9.2-.76-18.39-.43-27.6.03-.97.36-1.58,1.09-2.18,3.35-2.76,7.33-4.29,11.24-5.98.98-.42,2.02-1.24,2.93-1.11.98.14,1.06,1.66,1.67,2.5,3.57,4.97,8.51,7.66,14.46,8.45,7.87,1.05,14.82-1.44,21.15-5.96,4.06-2.9,7.43-6.51,10.35-10.53.53-.72.98-.94,1.9-.77,4.95.9,9.98,1.39,14.85,2.75,1.81.51,3.59,1.11,5.22,2.16-.46.76-1.25,1.11-1.84,1.67-.67.63-1.39,1.21-2,1.9-.81.9-1,1.98-.5,3.11.48,1.08,1.4,1.56,2.53,1.67,1.89.19,3.65-.34,5.39-.97.55-.2,1.12-.37,1.6-.67.79-.48,1.18-.06,1.44.57.32.79-.44.66-.79.79-3.11,1.12-6.35,1.73-9.54,2.54-1.08.28-2.15.59-3.11,1.18-1.41.87-1.92,1.92-1.53,3.54.14.58-.14.91-.33,1.33-.57,1.27-.36,2.41.79,3.21.75.52,1.17,1.16,1.6,1.94,1.05,1.9,2.97,2.7,4.93,3.33.75.24,1.38.58,2.01,1.08,3.06,2.44,6.56,3.69,10.49,3.63,2.08-.03,3.79-1.07,5.44-2.23.58.53.72,1.26.98,1.92,4.23,10.81,8.44,21.63,12.66,32.45.3.76.51,1.63,1.61,1.57l1.19,3.23Z"/>
      <path class="cls-14" d="M5.17,283.46c-1.43-15.09-2.93-30.17-2.83-45.35.04-5.62,2.41-18.6,4.36-24.17,1.05.78,2.04,1.61,3.11,2.3,6.34,4.15,13.37,6.73,20.55,8.97,17.16,5.37,34.56,6.56,52.23,3.06,1.8-.36,3.59-.82,5.33-1.39,1-.33,1.21,0,1.36.87,1.16,6.87,2.38,13.73,3.52,20.6,1.82,10.98,3.66,21.96,5.12,32.99.09.72.13,1.44.19,2.16-15.13,0-30.26,0-45.4.01,0-.29-.02-.58.02-.87.8-5.65,1.69-11.3,2.4-16.96.88-7.09,2.76-13.75,7.55-19.29.44-.51.49-1.09-.09-1.52-.68-.52-1.18-.08-1.59.45-3.06,3.93-5.6,8.13-6.58,13.1-1.64,8.31-2.63,16.73-3.85,25.11-14.5,0-29.01,0-43.51,0-.63,0-1.25-.04-1.88-.07Z"/>
      <path class="cls-15" d="M417.88,61.12c-2.2-1.59-4.9-1.86-6.79-.56-2.21,1.52-2.76,3.75-2.38,6.27.5,3.36,2.36,5.67,5.56,6.82.76.27,1.15.64,1.35,1.47.37,1.5.94,2.95,1.44,4.41,1.41,4.11,4.07,7.33,7.39,9.99,1.18.95,1.92,1.95,2.13,3.42.15,1,.41,1.98.62,2.97-.52.32-1.05.65-1.57.97-.65-.48-1.21-.38-1.8.16-.49.45-1.06.84-1.62,1.21-3.16,2.05-6.43.7-7.35-2.97-.2-.78.03-2.2-1.41-1.82-1.27.34-.69,1.52-.52,2.35.43,2.1,1.74,3.6,3.47,4.78-2.67.15-5.3-.14-7.92-.61.57-1.14-.11-1.55-1.05-1.87-2.02-.69-3.19-2.1-3.47-4.24-.11-.79.1-1.54.19-2.31.07-.68-.16-1.2-.84-1.3-.71-.11-1.05.4-1.16,1.03-.17,1.05-.28,2.09-.14,3.17.23,1.83,1.39,3.12,2.39,4.52-1.27-.36-2.53-.75-3.55-1.65.51-.93.1-1.47-.7-2.02-1.99-1.39-2.37-2.84-1.31-5.02.57-1.17,1.38-2.21,2.01-3.35,1.86-3.35,2.09-6.67-.17-9.98-.93-1.36-1.76-2.78-2.54-4.23-.89-1.65-.99-3.39-.44-5.2.66-2.19,1.92-4.01,3.35-5.72,2.97-3.53,4.82-7.55,5.68-12.07,1.83-9.65,7.2-16.84,15.48-21.94,5.11-3.15,10.66-4.54,16.66-3.65,3.32.5,6.41,1.57,8.45,4.51.33.47.59,1.07,1.31.96.81-.13.79-.86.97-1.44.76.02,1.14.71,1.76.98-.02.81.44,1.17,1.17,1.43,4.49,1.59,7.41,4.77,9.22,9.09,1.45,3.46,2.19,7.13,2.84,10.78.63,3.49,2.36,6.06,5.35,7.89,1.37.83,2.61,1.83,3.63,3.1,2.24,2.8,2.98,5.9,2.51,9.5-.63,4.82.79,6.63,5.42,7.88,1.68.45,3.38.85,4.94,1.68,1.57.83,2.61,2.01,2.49,3.91-.03.59.19,1.03.55,1.44-.06.41-.13.82-.19,1.23-.28-.04-.56-.08-.84-.13-.66-.12-1.16.12-1.31.78-.14.62.28.96.81,1.17.22.09.43.19.64.28-.8,2.09-2.24,3.64-4.07,4.86-.78-6.09-2.94-8.43-8.97-9.75-.52-.11-1.05-.2-1.57-.3-2.28-.44-4.62-.56-6.84-1.32-2.18-.74-3.08-1.9-3.15-4.18-.04-1.4.05-2.81.08-4.21.06-2.87-1.23-5.01-3.56-6.59-1.5-1.02-3.17-1.72-4.89-2.18-4.93-1.33-6.4-5.56-8.33-9.46.25-.01.41.07.57.16.61.35,1.14.26,1.49-.35.38-.68-.05-1.1-.58-1.42-.41-.25-.85-.57-1.3-.62-1.27-.13-1.65-.97-1.88-2.03-.14-.66-.35-1.31-.53-1.96-.67-2.47-1.12-5.01-2.48-7.25-2.61-4.28-6.81-4.61-10-.76-.36.44-.83.86-.54,1.54.31.7.94.54,1.51.56-.63.47-1.42.37-2.12.61-.55-.65-1.19-.67-1.95-.35-1.41.6-2.36,1.65-3.07,2.96-.79,1.46-1.28,3.02-1.69,4.62-.17.67-.41,1.22-1.15,1.54-.78.33-1.13.98-.44,1.73.41.44.19.77,0,1.16-.76,1.57-2.1,2.04-3.72,1.95-.69-.04-1.36.04-1.41.86-.06.88.63,1.1,1.36,1.16.48.03.97.04,1.45.06-.82.79-1.91.7-2.91.9Z"/>
      <path class="cls-7" d="M217.16,163.08c.67,4.68-.08,9.14-1.96,13.46-2.53,5.8-5.42,11.44-7.19,17.55-2.8,9.7-5.95,19.3-9.52,28.75-.03.09-.04.19-.08.28-.31.68-.47,1.68-1.54,1.29-1.06-.38-.62-1.24-.35-1.96,2.24-5.92,4.28-11.91,6.25-17.93,2.06-6.29,3.53-12.77,6.17-18.87,1.55-3.59,3.2-7.14,4.74-10.74,1.32-3.07,1.9-6.27,1.66-9.63-.44-6.09-.36-12.2-.33-18.3,0-.56.16-1.15-.19-1.68-.79.2-.95.87-1.19,1.47-.92,2.41-2.09,4.68-3.85,6.6-1.4,1.54-3.07,2.65-5.14,3.07-.62.12-1.25.22-1.84-.11-.34-1.07.04-1.64,1.16-1.81,2.15-.31,3.69-1.6,4.98-3.25,1.3-1.65,2.2-3.52,2.93-5.48,2.25-5.99,3.13-12.27,3.71-18.59,1.11-12.03.86-24.08.26-36.13-.09-1.73-.25-3.46-.38-5.19-1,2.75-2.7,4.71-5.35,5.73-1.01.39-1.49.96-1.83,1.97-1.75,5.17-3.86,10.16-8.11,13.86-.99.87-1.56,1.93-2.11,3.07-.42.86-.14,1.2.76,1.32.06-.79-.13-1.78.94-1.85,1.1-.07,1.08.93,1.15,1.67.22,2.31.44,4.63.58,6.94.53,8.57.73,17.13-.76,25.63-.74,4.22-1.75,8.36-5.07,11.46-.64.33-1.26.72-1.93.98-.57.23-1.06-.02-1.29-.61-.22-.55.05-.97.54-1.18,3.04-1.29,4.03-4.06,4.83-6.86,1.83-6.4,1.94-13,2.01-19.59,0-.29.18-.74-.36-.77-.47-.02-.46.44-.56.72-.91,2.4-1.99,4.72-3.4,6.87-1.42,2.16-3.06,4.12-5.27,5.53-3.26,2.08-6.51,2.21-9.79.02-3.44-2.3-6.02-5.44-8.47-8.7-.32-.42-.45-1.1-1.33-1.13.28,3.31.85,6.52,1.58,9.71.78,3.4,1.79,6.73,3.43,9.83,1.17,2.21,2.61,4.19,4.76,5.56.61.39.98.87.53,1.55-.45.69-1.14.57-1.63.09-1.33-1.32-2.98-1.53-4.74-1.68-2.17-.19-4.03-1.27-5.74-2.6-.26-.27-.37-.84-.95-.51h.02c.47-.6-.23-.82-.45-1.13-1.9-2.62-2.69-5.66-3.32-8.75-.13-.66.08-1.21.75-1.37.7-.16,1.06.32,1.22.95.14.56.23,1.14.37,1.7.64,2.55,1.43,5.04,3.24,7.05,1.55,1.72,3.88,2.76,5.7,2.54-2.69-4.08-4.15-8.62-5.22-13.32-1.7-7.45-2.26-15.02-2.47-22.63-.15-5.28.08-10.56.54-15.82.08-.98-.01-2.17,1.68-1.83.58.12.58-.52.41-.94-.3-.71-.65-1.41-1.02-2.09-.33-.62-.36-1.19.09-1.75,1.08-.41,1.46.28,1.82,1.1,3.36,7.8,9.43,12.27,17.54,14.25.95.23,1.78.19,2.67-.2,6.28-2.74,10.83-7.16,13.39-13.57,1.1-2.74,2.09-5.51,2.83-8.37.18-.7.5-1.2,1.29-1,.69.18.86.71.66,1.37-.05.18-.13.38.23.43,1.98-.96,3.13-2.57,3.52-4.77.31-1.72.17-3.34-1.24-4.52-1.38-1.16-2.9-.74-4.37-.07-.48.22-.95.52-1.48.09-.52-.43-.36-.94-.22-1.46,1.5-.85,3.08-1.39,4.85-1.2,1.83.2,3,1.37,4.17,3.07-.6-6.04-1.12-11.73-2.26-17.32-.83-4.07-2.36-7.88-4.53-11.41-2.26-3.66-5.33-6.13-9.86-6.22-1.06-.02-1.33-.59-1.27-1.49,1.21-.89,2.54-.45,3.79-.22,3.41.63,6.02,2.58,8.01,5.34,3.58,4.98,5.44,10.62,6.39,16.62.72,4.54,1.24,9.11,1.66,13.69.08.84.25,1.29,1.17,1.11.09-.02.19-.01.29,0,3.53.32,6.85-.33,10.18-1.58,3.98-1.49,8.17-2.38,12.34-3.25.89-.18,1.05-.46.63-1.21-.14-.25-.25-.53-.32-.81-.56-2.13-1.5-3.66-3.75-4.74-3.49-1.67-5.18-6.21-4.21-9.65.14-.51.26-1.13.62-1.44,1.29-1.12.84-2.35.49-3.66-1.24-4.69-2.13-9.43-1.78-14.33.24-3.33,1.24-6.34,3.39-8.93.17-.03.31-.1.29-.31l-.07-.03s.07.03.07.03c.57.04,1.19,0,1.43.71.22.62-.2.99-.54,1.39-1.42,1.68-2.12,3.66-2.43,5.8-.82,5.59.46,10.94,1.82,16.29.15.57.45.75,1.04.7,1.02-.08,2.03-.03,2.9.65.17,1.3-.47,1.58-1.64,1.42-2.41-.32-3.82.86-3.83,3.3-.02,3,1.3,5.28,3.96,6.73.11,0,.22,0,.33-.01-.05-.06-.09-.12-.14-.19.03-.76-.47-1.81.79-1.97,1.1-.13,1.07.86,1.26,1.6.68,2.72,1.65,5.35,2.67,7.96,2.9,7.37,8.52,11.63,15.82,14.01.46.15.89.3,1.41.13,6.8-2.16,12.44-5.76,15.59-12.48,1.52-3.25,2.74-6.6,3.55-10.1.16-.71.42-1.37,1.33-1.15.82.2.77.87.63,1.52-.04.17-.1.37.2.56,2.31-1.61,3.63-3.78,3.55-6.68-.07-2.34-1.49-3.51-3.8-3.23-1.62.19-1.92-.18-1.41-1.73.99-.23,2.01-.56,2.99-.28,1.11.32,1.39-.22,1.68-1.1,1.85-5.49,2.52-11.11,1.64-16.84-.64-4.15-1.8-8.12-5.18-11.02-.75-.65-.54-1.24.02-1.84.98-.2,1.52.49,2.09,1.07,2.83,2.88,4.13,6.5,4.86,10.35,1.29,6.78.5,13.39-1.88,19.83-.25.67-.27,1.16.12,1.84,1.56,2.73.96,5.4-.44,8-.23.42-.48.82-.72,1.24-.02.04,0,.1,0,.25,3.73-.58,7.46-1.09,11.21-1.46,7.14-.69,14.29-1.17,21.46-1.45.72-.03,1.44-.02,1.47.94.02.97-.73.98-1.43,1.01-8.52.44-17.03.93-25.5,1.94-3.46.41-6.91.92-10.3,1.76-1.13.28-1.76.82-2.15,1.99-1.15,3.44-2.59,6.74-4.7,9.76-.95,1.35-.7,3.15-.84,4.78-.27,1.61-.53,3.23-.79,4.84-.11.67-.45,1.11-1.16.99-.7-.12-.9-.65-.81-1.31.1-.7.33-1.39.15-2.21-.51.28-.97.53-1.43.79-4.56,2.57-9.11,3-13.97.59-3.38-1.68-6.7-3.37-9.65-6.13.17,1.99.31,3.71.48,5.42.07.74.03,1.46-.88,1.53-.92.07-1-.66-1.09-1.38-.24-1.91-.19-3.86-.74-5.73.13-2.43-1.31-4.28-2.31-6.3-.3-.6-.73-.28-1.12-.2-3.98.84-7.92,1.81-11.81,3.01-.28.09-.71,0-.7.5,4.26.34,8.48.95,12.69,1.58.83.12,1.53.35,1.53,1.38-.69,1.21-1.8.43-2.72.56-7.36-1.3-14.77-2.01-22.25-2.08-1.09,0-1.37.24-1.27,1.36.6,6.76.9,13.53,1,20.32.15,10.52-.15,21.02-1.85,31.43-.19,1.18-.58,2.31-.41,3.57,1.91,14.15,4.39,28.23,6.08,42.41.76,6.37,1.25,12.72-.11,19.08-.36,1.66-.74,3.42-.25,5.04,1.15,3.81.86,7.56,0,11.34-.36,1.59.14,2.82,1.39,3.84,1.82,1.49,3.85,2.6,5.96,3.58,6.9,3.2,14.17,5.17,21.62,6.57,14.26,2.66,28.17,1.67,41.64-3.94,4.35-1.81,8.53-3.93,12.02-7.2,2.08-1.94,2.85-4.19,2.42-7.05-.96-6.41-2.04-12.81-2.5-19.3-.47-6.59-.09-13.17.26-19.75.51-9.72,1.33-19.43,2.13-29.13.13-1.54.56-1.79,1.92-1.16.15,3.3-.41,6.56-.65,9.84-.82,10.96-1.72,21.92-1.89,32.92-.12,7.63,1.01,15.15,2.16,22.67.28,1.82.94,3.74.6,5.45-.85,4.27.66,8.17,1.32,12.2,1.33,8.04,2.05,16.14,2.52,24.26.62,10.59.81,21.2.7,31.81,0,.63.09,1.31-.67,1.6-.73.27-1.03-.29-1.37-.76.02-.19.05-.39.05-.58.09-17.06-.32-34.1-2.47-51.06-.48-3.82-1.11-7.62-2.17-11.59-2.16,2.3-4.54,4.03-7.12,5.44-9.73,5.33-20.16,8.2-31.22,8.67-8.69.37-17.21-.97-25.6-3.09-6.21-1.57-12.29-3.53-17.87-6.79-.77-.45-1.51-.94-2.34-1.46-.73,4.68-.99,9.23-1.15,13.77-.57,15.55-.14,31.1.48,46.64-.35.48-.71.94-1.4.64-.61-.26-.59-.81-.61-1.35-.7-17.08-1.15-34.16-.2-51.24.17-3.14.44-6.28,1.02-9.37.09-.49.11-.92-.24-1.36-.89-1.1-.98-2.4-.71-3.72.78-3.73,1.14-7.41.02-11.19-.61-2.05,0-4.23.41-6.32,1.22-6.08.67-12.15-.12-18.21-.81-6.19-1.67-12.37-2.51-18.55-.11-.84-.22-1.68-.33-2.53-.28.85-.35,1.68-.14,2.51ZM172.03,102.22c-.51,1.41-.92,2.71-1.67,3.83-.35.51-.43,1.05-.45,1.64-.19,4.21,0,8.43-.12,12.63-.12,4.08,1.19,7.4,3.66,10.51,2.35,2.96,4.6,6,7.76,8.19,2.84,1.97,5.37,1.96,8.21,0,.75-.52,1.49-1.11,2.09-1.79,5.23-5.98,7.44-13.09,7.87-20.89.08-1.41-.59-2.08-1.72-2.63-.58-.28-.82-.32-1.02.35-.32,1.06-.71,2.11-1.09,3.15-.21.58-.64.86-1.25.66-.6-.2-.81-.65-.63-1.26.19-.66.38-1.32.6-2.07-6.19,1.8-8.52,1.39-13.07-2.99-3.09-2.98-6.67-5.49-9.15-9.31ZM199.81,126.64s-.06-.06-.09-.1c-.03.03-.06.06-.09.1.04.03.09.06.13.09.01-.03.03-.06.04-.1ZM199.59,127.2s-.07-.06-.09-.05c-.13.05-.14.12-.02.19.02.01.07-.02.09-.04.02-.02,0-.06.01-.1Z"/>
      <path class="cls-16" d="M197.16,44.29c-.05.91.22,1.47,1.27,1.49,4.53.08,7.6,2.56,9.86,6.22,2.18,3.53,3.7,7.34,4.53,11.41,1.14,5.6,1.66,11.28,2.26,17.32-1.18-1.69-2.35-2.86-4.17-3.07-1.77-.2-3.34.34-4.85,1.2-.13-.03-.27-.06-.4-.1.24-.72.18-1.29-.59-1.7-2.65-1.38-4.12-3.66-4.99-6.44-.71-2.3-1.23-4.66-2.23-6.86-1.01-2.21-2.55-3.71-5.14-3.85-.62-.03-1.14.1-1.53.61-1.65-.4-3.3-.3-4.98-.09-1.62.2-2.99,1.25-4.65,1.24.56-2.44,2.15-3.42,4.46-2.69.74.23,1.43.6,2.15.88.51.19.97.09,1.26-.4.29-.5.13-.92-.28-1.29-2.71-2.45-7.14-1.8-8.94,1.36-.45.79-.8,1.66-1.1,2.52-.88,2.53-1.18,5.19-1.55,7.82-.24,1.7-.38,3.37-2.59,3.78-.64.12-1.42.63-1.24,1.55.2,1.03,1.11.65,1.77.75l-.03-.02c-.89,1.72-2.25,2.72-4.23,2.78-.71.02-1.3.22-1.27,1.04.04.81.69.98,1.36.96.62-.02,1.25-.11,1.87-.17-1.05,1.17-2.6.73-3.87,1.19-2.08-1.26-4.25-1.37-6.34-.2-1.98,1.1-2.65,3.04-2.54,5.2.23,4.69,3.8,8.08,8.53,8.22.27.13.38.37.45.64-.45.56-.42,1.14-.09,1.75.37.68.71,1.38,1.02,2.09.18.42.18,1.05-.41.94-1.69-.34-1.6.85-1.68,1.83-.46,5.26-.68,10.54-.54,15.82.21,7.61.77,15.18,2.47,22.63,1.07,4.69,2.52,9.24,5.22,13.32-1.82.22-4.14-.82-5.7-2.54-1.81-2.01-2.6-4.5-3.24-7.05-.14-.56-.23-1.14-.37-1.7-.15-.63-.52-1.11-1.22-.95-.67.16-.88.7-.75,1.37.63,3.1,1.42,6.13,3.32,8.75.23.31.92.53.45,1.15-.76-.09-1.53-.19-2.29-.26-2.89-.27-5.28-1.48-7.17-3.69-1.44-1.68-2.38-3.64-3.08-5.72-1.73-5.15-2.2-10.5-2.33-15.88-.26-11.59.63-23.13,1.86-34.64.96-9,2.18-17.97,4.28-26.79,2.15-9.02,6.79-16.35,14.97-21.01,4.94-2.81,10.36-3.7,16-2.57,1.83.37,3.38,1.2,4.08,3.1.21.57.63.89,1.25.7.7-.22.78-.79.61-1.42-.1-.37-.27-.72-.41-1.09.52.11,1.08.09,1.47.55ZM190.82,55.9c.55-.02.87-.28,1-.75.55-1.96,1.75-3.41,3.44-4.51.49-.32.74-.78.38-1.36-.35-.56-.9-.61-1.4-.31-2.15,1.3-3.69,3.11-4.29,5.61-.18.76.14,1.21.86,1.33Z"/>
      <path class="cls-3" d="M128.91,99.26c-.1.77-.19,1.53-.29,2.3-1,.03-1.19.79-1.47,1.53-1.75,4.65-5.16,6.73-10.09,6.02-5.37-.78-9.58-3.72-13.25-7.5-3.06-3.15-5.47-6.74-6.69-11.03.41-.46.19-1.19.68-1.62,1.07.32,1.5-.24,1.67-1.2.23-1.33.44-2.66.77-3.96.25-.98-.11-1.46-1-1.72,0-.31.01-.63.02-.94.14,0,.29-.04.43-.02.71.07,1.31-.09,1.37-.9.06-.8-.51-1.04-1.22-1.1-3.4-.3-6-1.75-7.16-5.14-1.18-3.44.85-6.52,4.22-5.94,1.05.18,1.56-.33,1.35-1.43.61-.21,1.37.29,1.89-.39,3.47,1.15,6.05.16,7.3-2.75.35-.82.33-1.46-.43-2,.44-.75.73-1.53.68-2.42,3.05-2.41,4.82-5.66,6.1-9.25.37-1.03.69-2.1,1.45-2.95.18-.04.31-.12.25-.34h0c1.61-.62,3.06-1.51,4.41-2.58h0c1.72-.02,3.25-1.05,4.99-.94,1.11,1.08,1.48,1.05,2.13-.21,1.35,0,2.71,0,4.06,0,.41,1.51,1.28,1.08,2.18.52.78.4,1.56.81,2.34,1.21-.08,1.13.96,1.59,1.44,2.38,2.38,3.86,3.01,8.13,2.95,12.54-.05,4.09-.33,8.14.81,12.19.81,2.88.31,5.84-.57,8.79-1.5,5.01-3.27,9.81-6.73,13.85-1.85,2.17-4.12,3.37-7.02,3.02-7.59-.92-14.59-3.1-19.66-9.33-.15-.18-.33-.35-.53-.49-.37-.27-.75-.18-1.07.09-.31.26-.52.62-.31,1.02.2.38.46.73.74,1.07,1.58,1.92,3.75,3.24,5.43,5,3.33,3.49,6.98,6.24,11.89,7.19-.31.69-.54,1.27-.82,1.83-.31.63-.22,1.16.4,1.48.67.34,1.1-.06,1.39-.63.57-1.12,1.2-2.21,1.68-3.37.63-1.51,1.66-2.15,3.27-1.89ZM126.64,90.41c1.43-.05,2.78-.38,3.91-1.32,2.44-2.02,3.32-4.81,3.74-7.79.12-.84-.44-1.25-1.29-1.1-1.1.19-2.19.41-3.28.63-3.48.69-7.01.94-10.55.92-1.47,0-1.85.58-1.21,1.9.42.87.89,1.72,1.45,2.51,1.77,2.48,4.04,4.16,7.24,4.24ZM126.98,63.93c0-.55-.17-.98-.75-1.1-.63-.12-1.07.16-1.17.78-.2,1.28-.4,2.57-.5,3.87-.21,2.75.27,5.22,2.96,6.71.56.31.67.79.35,1.35-.24.42-.47.84-.72,1.25-.34.55-.26,1.04.26,1.38.52.34,1.04.19,1.39-.31,1.59-2.24,1.95-4.07-.46-5.53-1.3-.79-1.78-1.93-1.81-3.39-.03-1.7.14-3.37.44-5.02ZM119.88,58.16c.46.07.87-.15,1.07-.65.22-.54-.05-.94-.5-1.21-1.84-1.11-7.17-.08-8.56,1.64-.35.43-.43.88-.08,1.31.34.42.82.55,1.28.21,2.02-1.52,4.25-1.96,6.78-1.3ZM115.73,65.67c-1.1.02-1.94,1.11-1.91,2.47.04,1.44,1.07,2.63,2.21,2.56,1.03-.07,1.82-1.1,1.82-2.41,0-1.46-.96-2.65-2.12-2.62ZM135.69,53.64c-1.83.07-3.25.47-4.53,1.3-.52.34-.7.81-.42,1.36.3.58.87.66,1.37.36,1.57-.91,3.18-1.31,4.98-.77.57.17,1.07-.06,1.21-.71.13-.62-.19-1.04-.78-1.19-.7-.18-1.41-.28-1.83-.36ZM132.11,65.64c-.08,1.49.8,2.84,1.89,2.78,1.36-.07,1.69-1.13,1.8-2.22.15-1.43-.81-2.78-1.9-2.8-.95-.01-1.73.96-1.8,2.24ZM98.01,75.13c.67-.11,1.17-.56.83-1.27-.51-1.07-1.45-1.84-2.57-2.19-.81-.25-1.25.31-1.14,1.16.05.38,2.44,2.3,2.88,2.3Z"/>
      <path class="cls-11" d="M281.98,25.1c-.56.61-.77,1.2-.02,1.84,3.38,2.89,4.54,6.86,5.18,11.02.88,5.73.21,11.35-1.64,16.84-.29.88-.57,1.42-1.68,1.1-.99-.29-2.01.04-2.99.28-1.44-.12-2.38-1.01-3.23-2.06.96.09,1.92.2,2.89.28.77.06,1.6-.02,1.6-1,0-.97-.83-.99-1.6-1.02-4.84-.18-8.74-2.99-10.39-7.49-.25-.68-.55-1.2-1.32-.98-.88.26-.78.93-.58,1.66.33,1.16.98,2.17,1.57,3.43-1.4-.25-2.62-.45-3.83-.7-2.66-.57-4.35-2.23-5.19-4.77-.3-.91-.44-1.88-.62-2.83-.42-2.18-.65-4.42-1.68-6.44-1.01-1.98-2.63-2.98-4.5-2.85-.67.05-1.18.28-1.2.98-.01.69.46,1.04,1.14,1.03,1.82,0,2.71,1.02,3.06,2.68-.79.08-1.58.16-2.37.25-.43-1.48-.83-1.65-2.13-.93-1.41.78-2.22,2-2.46,3.56-.17,1.09-.17,2.21-.28,3.32-.3,2.98-1.25,5.64-3.73,7.55-.08-.07-.16-.15-.24-.22.11-.76.73-1.74-.41-2.11-1.16-.39-1.23.72-1.53,1.45-.7,1.73-1.66,3.27-3.27,4.31-.61.39-1.41.77-.87,1.66.58.95,1.34.43,1.99,0,1.73-1.1,2.85-2.74,3.88-4.54-.04.77.43,1.11.96,1.4-.42.65-.75,1.37-1.27,1.92-1.27,1.36-2.41,2.99-4.64,2.76-.86-.67-1.88-.72-2.9-.65-.59.05-.89-.13-1.04-.7-1.36-5.35-2.64-10.7-1.82-16.29.31-2.14,1.01-4.12,2.43-5.8.34-.4.76-.77.54-1.39-.25-.7-.86-.67-1.43-.71-.19-.45.29-.77.22-1.2,1.9-1.33,3.18-3.23,4.62-4.99,1.71-2.09,3.79-3.4,6.59-3.42,1.32-.01,1.5-.43.99-1.77,1.26-.49,2.53-.98,3.79-1.47.21,1.32.92,1.42,1.96.83,1.84-1.04,3.84-1.54,5.93-1.75,4.88-.49,9.28.65,13.16,3.74,1.92,1.53,3.99,2.75,6.61,2.41.58.59,1.17,1.19,1.75,1.78ZM251.04,22.11c-.15.07-.33.13-.49.23-.96.65-2.6,5.35-2.26,6.44.14.46.46.77.94.78.47.01.92-.25.96-.73.18-1.92.92-3.63,1.8-5.32.4-.77-.06-1.28-.95-1.42Z"/>
      <path class="cls-4" d="M124.9,43.01c-1.74-.11-3.27.93-4.99.95.16-.51.8-.9.33-1.56-.46-.65-1.1-.52-1.71-.41-2.55.44-4.27,1.99-5.34,4.25-.97,2.05-1.75,4.19-2.69,6.26-1.95,4.29-6.26,7.04-10.58,6.84-.85-.04-2.13-.61-2.22.77-.09,1.39,1.3,1.16,2.19,1.22,2.87.2,5.4-.84,7.81-2.25.04.88-.24,1.67-.68,2.42-.76.06-1.14.49-1.44,1.19-.75,1.73-1.96,2.32-3.69,1.98-1.6-.32-1.85-.09-1.73,1.58-.52.67-1.27.18-1.89.39-2.39-1.59-5.51-.34-7.65,3.13-.31-.47-.63-.9-.9-1.35-1.68-2.75-2.83-5.72-3.54-8.86-.22-.96-.61-1.52-1.69-1.08-.14-.86-.28-1.72-.43-2.58,1.15-.35,1.09-1.1.79-2.06-1.8-5.92-.35-10.73,4.42-14.59.57-.46.75-.96.64-1.63.18-.28.45-.4.77-.42.86.5,1.55.48,1.92-.61,1.13-3.34,3.72-5.19,6.74-6.57,1.99-.91,4.14-1.28,6.26-1.77,2.77-.65,5.56-1.26,7.83-3.17.16.28.46.18.69.27-.26,1.47.58,1.66,1.72,1.44,5.77-1.1,11.16.04,16.29,2.74,1.93,1.02,3.89,1.97,6.07,2.34.52.59,1.04,1.18,1.56,1.77-1.34.92-1.21,1.53.57,2.67,4.31,2.78,5.08,9.56,1.51,13.22-.4.41-.58.77-1.09-.06-.98-1.59-1.61-3.38-2.87-4.81-.76-.86-1.45-1.08-2.25-.11-.78-.4-1.56-.81-2.34-1.21.98-1.43,1.59-2.97,1.47-4.75-.05-.68-.34-1.16-1.03-1.16-.61,0-1.03.44-.97,1.04.17,1.74-.68,3.06-1.65,4.35-1.35,0-2.71,0-4.06,0-.25-.68-.43-1.39-.76-2.03-1.42-2.75-3.84-4.04-6.51-3.53-.7.13-1.41.32-1.33,1.21.09.96.82.88,1.54.81,2.64-.27,4.34,1.03,4.93,3.74Z"/>
      <path class="cls-13" d="M348.99,4.99c1.14.08,2.1.66,3.12,1.09-.66.24-1.15.63-.87,1.4.25.66.82.69,1.46.6,2.92-.42,5.31.69,7.35,2.68,2.23,2.18,3.59,4.9,4.79,7.71.68,1.6,1.23,3.25,2.1,4.76-.03.74-.06,1.47-.08,2.21-.48-.26-.97-.49-1.46-.02-.42.4-.34.89-.19,1.35.26.85.32,1.71.33,2.58.05,3.53-.82,6.89-1.75,10.26-.31,1.12-.64,1.95-2.06,1.74-.61-.09-1.23.19-1.75.58-.52-.58-1.67-.45-1.71-1.55.87.05,1.73.12,2.6.13.65.01,1.16-.25,1.16-.99,0-.73-.49-1.05-1.15-.99-2.67.23-4.07-1.34-5.08-3.51-.86-1.85-1.38-3.81-1.95-5.75-.61-2.08-1.21-4.18-2.42-6.02-1.07-1.62-2.49-2.65-4.54-2.66-1.08,0-1.7.33-1.47,1.53-.86-.09-1.73-.17-2.59-.26-.12-.56-.19-1.14-.37-1.69-.75-2.28-2.96-3.98-5-3.92-.71.02-1.29.23-1.31,1.01-.01.69.5.93,1.16,1.02,2.14.3,3.18,1.43,3.38,3.58-.63,0-1.26,0-1.89.01-.06-.59-.42-.93-.91-1.21-1.99-1.11-3.94-.74-5.41,1.1-1.29,1.61-1.97,3.53-2.76,5.4-.99,2.36-1.95,4.73-3.45,6.83-1.86,2.6-4.32,4.09-7.59,4.08-.77,0-1.58,0-1.52,1.04.05,1,.9.98,1.64.98,2.4,0,4.55-.77,6.52-2.1.09.49-.23.79-.51,1.12-1.36,1.62-3.03,2.72-5.14,3.12-.64-1.08-1.73-.96-2.72-.94-.7.02-1.02-.14-1.23-.84-1.27-4.24-2.2-8.55-2.21-12.99,0-5.03,1.02-9.72,5.03-13.28.95-.84.63-1.55-.76-1.93.29-.37.58-.74.87-1.11,2.25-.51,4.26-1.49,6.12-2.87,3.33-2.45,6.89-4.5,10.95-5.49,4.47-1.09,8.47-.41,11.55,3.34.44.53.92.95,1.6.52.7-.45.44-1.08.15-1.67ZM344.82,16.88c-.11.85.14,1.33.74,1.44.79.15,1.11-.38,1.26-1.08.41-1.95.94-3.85,2.23-5.44.45-.55.72-1.1.09-1.64-.72-.61-1.26-.13-1.7.43-1.52,1.91-2.15,4.18-2.61,6.28Z"/>
      <path class="cls-7" d="M317.76,12.27c1.39.37,1.71,1.08.76,1.93-4.01,3.56-5.04,8.25-5.03,13.28,0,4.44.94,8.74,2.21,12.99.21.7.53.86,1.23.84.99-.03,2.08-.14,2.72.94-.04,1.15-.69,1.28-1.68,1.14-2.35-.33-3.66.76-3.91,3.14-.29,2.69,1.62,5.86,4.26,7.01,0-.2.03-.39,0-.57-.15-.71-.23-1.46.66-1.65,1.02-.22,1.15.64,1.32,1.35.25.99.47,1.98.69,2.97,2.21,9.78,7.89,16.41,17.64,19.32.54.16,1.06.48,1.68.28,6.76-2.14,12.64-5.41,15.84-12.18,1.6-3.39,2.65-6.95,3.45-10.6.15-.68.41-1.29,1.19-1.15.84.16.99.81.74,1.58-.06.17-.04.37-.07.59,2.47-1.31,4.08-4.05,3.97-6.67-.11-2.49-1.54-3.76-3.98-3.36-1.31.21-1.73-.24-1.48-1.48.52-.39,1.14-.67,1.75-.58,1.42.21,1.75-.62,2.06-1.74.93-3.36,1.8-6.73,1.75-10.26-.01-.87-.08-1.74-.33-2.58-.14-.47-.23-.95.19-1.35.5-.47.98-.23,1.46.02,1.24,3.49.63,6.99-.08,10.45-.37,1.8-.92,3.55-1.41,5.32-.11.42-.33.76.1,1.17,2.63,2.58,2.33,5.55,1,8.57-.95,2.16-2.56,3.73-4.77,4.64-.5.2-.95.37-1.1,1-.49,2.07-1.26,4.04-2.08,6.11,3.07.32,6.07.61,9.07.97,8.99,1.08,17.96,2.28,26.81,4.21.82.18,1.17.18,1.39-.76.52-2.15,1.64-4.04,3.08-5.69,3.3-3.79,5.24-8.15,6.17-13.07,1.79-9.45,7.33-16.49,15.11-21.67,6.04-4.03,12.84-5.78,20.19-4.29,3.58.72,6.66,2.3,8.86,5.32.04.24.07.49.41.49,0,0,.02,0,.02,0-.18.58-.16,1.31-.97,1.44-.72.11-.98-.48-1.31-.96-2.05-2.94-5.13-4.02-8.45-4.51-6-.89-11.55.5-16.66,3.65-8.28,5.1-13.65,12.29-15.48,21.94-.86,4.52-2.71,8.54-5.68,12.07-1.43,1.71-2.69,3.53-3.35,5.72-.55,1.81-.46,3.55.44,5.2.78,1.44,1.61,2.87,2.54,4.23,2.26,3.31,2.04,6.63.17,9.98-.63,1.14-1.45,2.18-2.01,3.35-1.06,2.18-.67,3.63,1.31,5.02.8.56,1.21,1.09.7,2.02-2.05.23-4.35-2.05-4.54-4.52-.13-1.72.48-3.23,1.37-4.64.57-.9,1.22-1.76,1.69-2.7,1.23-2.46,1.32-4.87-.28-7.28-1.57-2.37-3.34-4.66-3.71-7.62-.09-.68-.69-.61-1.11-.71-7.05-1.56-14.19-2.6-21.34-3.54-3.74-.49-7.47-1.1-11.26-1.22-.98-.35-2.01-.16-3.01-.3-1.2-.17-1.65.36-1.69,1.51-.06,1.69-.19,3.37-.32,5.06-.05.66-.4,1.12-1.12,1.04-.63-.07-.87-.52-.87-1.13,0-.69,0-1.38,0-2.36-3.36,3.81-7.68,5.74-11.65,8.16-3.18,1.94-6.5,1.91-9.85.42-.44-.2-.89-.37-1.33-.56-.11-.03-.22-.06-.33-.09.03.11.06.22.1.33.15.51.31,1.01.46,1.52.17.6-.02,1.07-.62,1.27-.52.17-.95-.04-1.19-.55-.12-.26-.22-.54-.31-.81-1.63-4.51-3.55-8.85-6.9-12.4-1.61-3.09-3-6.27-3.83-9.67-.17-.71-.71-.71-1.17-.89-3.99-1.54-6.51-5.82-5.86-9.97.15-.98.46-1.92,1.15-2.61.68-.68.7-1.28.44-2.16-1.61-5.31-2.63-10.72-2.14-16.3.43-4.9,2.11-9.21,6.13-12.35Z"/>
      <path class="cls-7" d="M195.69,43.74c.14.36.3.72.41,1.09.17.62.1,1.2-.61,1.42-.61.19-1.04-.13-1.25-.7-.7-1.91-2.25-2.74-4.08-3.1-5.64-1.13-11.06-.24-16,2.57-8.18,4.66-12.82,11.99-14.97,21.01-2.11,8.82-3.32,17.79-4.28,26.79-1.23,11.51-2.12,23.05-1.86,34.64.12,5.39.59,10.73,2.33,15.88.7,2.08,1.64,4.03,3.08,5.72,1.88,2.21,4.28,3.42,7.17,3.69.77.07,1.53.17,2.29.26,0,0-.02-.01-.02-.01-.17.24.03.39.13.57.03,1.06-.58,1.28-1.5,1.25-4.72-.16-8.35-2.22-10.87-6.2-2.2-3.46-3.14-7.36-3.76-11.35-.89-5.71-.95-11.47-.86-17.29-.78.14-.95.8-1.25,1.3-2.45,4-4.65,8.14-6.95,12.23-7.08,12.6-14.84,24.77-23.34,36.46-5.31,7.29-10.17,14.84-14.48,22.76-.43.79-.83,1.59-1.97,1.18-.59-.77-.18-1.42.2-2.12,4.22-7.69,8.92-15.07,14.05-22.19,8.22-11.39,15.9-23.11,22.73-35.41,3.39-6.11,6.68-12.3,10.67-18.06.37-.54.54-1.1.57-1.76.38-9.2,1.19-18.36,2.37-27.49.13-1.03.01-1.56-1.21-1.69-2.65-.28-5.27-.76-7.91-1.11-.76-.1-1.31-.33-1.39-1.17.31-1.03,1.13-.92,1.9-.81,2.64.37,5.29.7,7.9,1.19,1.03.2,1.2-.12,1.32-1.01.91-6.57,1.89-13.13,3.79-19.5,2.29-7.69,6.67-13.94,13.37-18.42,5.73-3.83,12.09-5.02,18.87-3.92,2.23.36,4.1,1.43,5.42,3.32Z"/>
      <path class="cls-3" d="M245.32,84.34c.55,1.87.5,3.82.74,5.73.09.72.17,1.45,1.09,1.38.9-.07.95-.79.88-1.53-.17-1.72-.3-3.43-.48-5.42,2.95,2.77,6.27,4.46,9.65,6.13,4.87,2.41,9.42,1.98,13.97-.59.45-.26.91-.5,1.43-.79.18.82-.05,1.51-.15,2.21-.1.66.1,1.19.81,1.31.71.12,1.06-.32,1.16-.99.26-1.62.53-3.23.79-4.84.24.03.49.07.73.1-.06.83.42,1.25,1.14,1.45.79.22,1.05.59.74,1.46-2.11,5.93-4.95,11.45-9.06,16.26-1.3,1.52-2.75,2.86-4.48,3.89-2.29,1.36-4.56,1.41-6.87.03-1.72-1.03-3.24-2.3-4.6-3.76-5.17-5.58-8.75-12.02-10.48-19.45-.19-.81-.29-1.68-1.43-1.68,0-.13-.02-.26-.02-.39.92-.13,2.02.66,2.72-.56.57,0,1.14.02,1.71.03Z"/>
      <path class="cls-1" d="M323.04,66.22c3.35,3.55,5.27,7.89,6.9,12.4.1.27.19.55.31.81.24.51.66.72,1.19.55.6-.2.79-.66.62-1.27-.15-.51-.31-1.01-.46-1.52.08-.08.16-.16.23-.24.44.19.89.36,1.33.56,3.35,1.49,6.67,1.52,9.85-.42,3.98-2.42,8.29-4.35,11.65-8.16,0,.98,0,1.67,0,2.36,0,.61.23,1.06.87,1.13.72.08,1.07-.38,1.12-1.04.13-1.68.26-3.37.32-5.06.04-1.16.49-1.69,1.69-1.51,1,.14,2.03-.05,3.01.3,0,.41,0,.82-.01,1.22-.78.15-1.03.7-1.22,1.42-1.16,4.53-2.94,8.8-5.5,12.73-1.89,2.91-4.1,5.52-7.01,7.47-4.25,2.85-8.61,2.86-13.02.42-2.11-1.17-3.81-2.82-5.27-4.72-2.85-3.7-4.65-7.9-5.79-12.4-.16-.65-.21-1.34-.63-1.91-.35-1.03-.25-2.09-.18-3.14Z"/>
      <path class="cls-7" d="M135.61,44.53c.8-.97,1.48-.76,2.25.11,1.26,1.43,1.89,3.23,2.87,4.81.52.83.7.46,1.09.06,3.58-3.66,2.81-10.43-1.51-13.22-1.78-1.15-1.91-1.75-.57-2.67,3.46,1.31,5.09,4.19,6,7.47,1.12,4.09-.09,7.65-3.21,10.49-.71.65-.86,1.21-.69,2.12.44,2.23.62,4.52.43,6.78-.3,3.59-.11,7.13.56,10.67.68,3.58.27,7.12-.64,10.62-.1.37-.14.75-.2,1.13-1.03,2.85-2.39,5.54-3.83,8.2-1.16,2.14-2.58,4.1-4.38,5.76-1.39,1.28-2.98,2.14-4.87,2.41-1.6-.26-2.64.39-3.27,1.89-.48,1.16-1.11,2.25-1.68,3.37-.29.58-.72.97-1.39.63-.62-.32-.72-.85-.4-1.48.28-.56.51-1.14.82-1.83-4.9-.95-8.56-3.7-11.89-7.19-1.68-1.76-3.85-3.07-5.43-5-.27-.33-.54-.69-.74-1.07-.21-.4,0-.76.31-1.02.32-.27.7-.36,1.07-.09.19.14.38.31.53.49,5.07,6.23,12.07,8.42,19.66,9.33,2.9.35,5.16-.85,7.02-3.02,3.45-4.03,5.23-8.84,6.73-13.85.88-2.95,1.38-5.9.57-8.79-1.14-4.05-.86-8.1-.81-12.19.06-4.41-.57-8.68-2.95-12.54-.49-.79-1.52-1.25-1.44-2.38Z"/>
      <path class="cls-7" d="M489.49,85.89c-.37-.41-.59-.85-.55-1.44.11-1.89-.93-3.07-2.49-3.91-1.55-.83-3.26-1.23-4.94-1.68-4.63-1.25-6.05-3.06-5.42-7.88.47-3.6-.27-6.7-2.51-9.5-1.02-1.27-2.26-2.27-3.63-3.1-2.99-1.82-4.73-4.39-5.35-7.89-.65-3.66-1.39-7.32-2.84-10.78-1.81-4.32-4.73-7.51-9.22-9.09-.72-.26-1.19-.62-1.17-1.43.5-.72,1.09-.74,1.89-.45,4.95,1.79,8.23,5.27,10.26,10.03,1.46,3.4,2.27,6.99,2.86,10.61.56,3.38,2.14,5.87,5.1,7.66,3.22,1.94,5.36,4.83,6.39,8.48.57,2.01.34,4.02.13,6.05-.34,3.26.44,4.36,3.59,5.25,2.13.61,4.32,1.06,6.25,2.25,1.99,1.24,3.17,2.91,3.12,5.35-.02,1.03-.43,1.54-1.48,1.46Z"/>
      <path class="cls-7" d="M323.22,69.36c.42.57.46,1.26.63,1.91,1.14,4.5,2.94,8.7,5.79,12.4,1.46,1.9,3.16,3.55,5.27,4.72,4.41,2.44,8.77,2.43,13.02-.42,2.91-1.95,5.12-4.57,7.01-7.47,2.55-3.93,4.34-8.2,5.5-12.73.19-.72.43-1.27,1.22-1.42.8.35,1,.89.77,1.75-1.55,5.91-3.98,11.38-7.76,16.22-1.56,1.99-3.33,3.77-5.43,5.2-5.7,3.88-12.31,3.48-17.81-1.15-4.4-3.7-6.94-8.6-8.74-13.94-.38-1.14-.67-2.32-.94-3.5-.31-1.38.02-1.69,1.47-1.56Z"/>
      <path class="cls-7" d="M50.56,283.54c1.22-8.38,2.21-16.79,3.85-25.11.98-4.98,3.52-9.17,6.58-13.1.41-.53.91-.96,1.59-.45.58.44.53,1.02.09,1.52-4.79,5.54-6.67,12.2-7.55,19.29-.7,5.67-1.6,11.31-2.4,16.96-.04.28-.02.58-.02.87-.2.54-.34,1.17-1.09,1.17-.74,0-.96-.53-1.05-1.15Z"/>
      <path class="cls-7" d="M84.47,58.47c1.08-.44,1.47.11,1.69,1.08.71,3.14,1.86,6.11,3.54,8.86.27.45.59.88.9,1.35,2.14-3.47,5.26-4.72,7.65-3.13.21,1.1-.3,1.6-1.35,1.43-3.37-.57-5.4,2.51-4.22,5.94,1.16,3.38,3.76,4.84,7.16,5.14.71.06,1.27.3,1.22,1.1-.06.81-.66.97-1.37.9-.14-.01-.29.01-.43.02-.98-.26-1.98-.44-2.92-.78-3.17-1.13-5.02-3.47-5.79-6.68-.16-.69-.42-1.23-.85-1.77-2.81-3.54-4.48-7.61-5.53-11.97-.13-.54-.16-1.05.29-1.47Z"/>
      <path class="cls-7" d="M348.99,4.99c.29.59.55,1.22-.15,1.67-.67.43-1.16.02-1.6-.52-3.08-3.75-7.08-4.43-11.55-3.34-4.06.99-7.62,3.04-10.95,5.49-1.86,1.37-3.87,2.36-6.12,2.87-.87-.19-1.68.37-2.56.19-.63-.13-1.19-.34-1.18-1.04.01-.78.56-1,1.31-.98,2.62.07,4.92-.86,6.99-2.39,3.16-2.34,6.49-4.38,10.25-5.61,5.92-1.94,11.26-1.33,15.56,3.66Z"/>
      <path class="cls-7" d="M280.23,23.32c-2.62.34-4.7-.88-6.61-2.41-3.87-3.09-8.27-4.24-13.16-3.74-2.09.21-4.09.71-5.93,1.75-1.04.59-1.75.49-1.96-.83.6-.99,1.64-1.37,2.62-1.7,6.3-2.15,12.37-1.9,18.07,1.86,1.09.72,2.15,1.49,3.23,2.21.91.61,1.89.99,3.01.86.62-.07,1.2-.04,1.46.62.28.71-.22,1.06-.74,1.37Z"/>
      <path class="cls-7" d="M138.19,31.85c-2.18-.37-4.14-1.32-6.07-2.34-5.13-2.7-10.52-3.84-16.29-2.74-1.15.22-1.98.03-1.72-1.44,3.06-1.27,6.24-1.17,9.41-.74,3.38.46,6.56,1.54,9.58,3.16,2.3,1.24,4.64,2.42,7.39,2.18.63-.05,1.06.29,1.11.89.05.61-.35,1.02-.96,1.05-.82.04-1.64-.01-2.46-.02Z"/>
      <path class="cls-7" d="M339.68,189.61c-4.03-.06-7.8-.59-11.42-1.94-.5-.19-1.04-.31-1.21-.91-.1-.34-.03-.66.25-.93.48-.45.95-.27,1.47-.08,5.56,1.98,11.24,2.32,17.02,1.24,1.96-.36,3.85-.94,5.66-1.76.68-.31,1.43-.72,1.87.2.5,1.04-.43,1.31-1.12,1.63-4.04,1.84-8.31,2.49-12.53,2.55Z"/>
      <path class="cls-7" d="M366.93,23.24c-.87-1.51-1.42-3.17-2.1-4.76-1.2-2.81-2.56-5.54-4.79-7.71-2.04-1.99-4.42-3.1-7.35-2.68-.63.09-1.21.06-1.46-.6-.29-.77.21-1.16.87-1.4,4.91-.57,8.46,1.67,11.23,5.47,1.8,2.47,3.02,5.25,4.11,8.09.43,1.13.87,2.25,1.75,3.13.5.49.81,1.03.22,1.62-.67.66-1.22.21-1.72-.31-.27-.27-.52-.56-.78-.84Z"/>
      <path class="cls-7" d="M113.42,25.06c-2.27,1.9-5.06,2.52-7.83,3.17-2.12.49-4.27.86-6.26,1.77-3.02,1.38-5.62,3.24-6.74,6.57-.37,1.09-1.05,1.11-1.92.61-.19-.67-.06-1.27.22-1.92,1.75-3.95,4.98-6.18,8.87-7.55,2.13-.75,4.37-1.18,6.57-1.71,1.93-.47,3.82-1.02,5.47-2.17.43-.3.88-.46,1.34-.18.56.34.52.87.29,1.4Z"/>
      <path class="cls-7" d="M89.89,37.6c.11.67-.07,1.17-.64,1.63-4.76,3.87-6.22,8.67-4.42,14.59.29.96.36,1.71-.79,2.06-.5-.24-.82-.63-1.03-1.15-2.33-5.72-.25-13.21,4.67-16.88.72-.53,1.39-.89,2.21-.26Z"/>
      <path class="cls-7" d="M248.77,19.55c.51,1.34.33,1.76-.99,1.77-2.8.03-4.88,1.33-6.59,3.42-1.44,1.76-2.72,3.66-4.62,4.99-.57.26-1.13.55-1.71.75-.51.18-.98,0-1.2-.52-.24-.57-.08-1.12.51-1.31,2.03-.66,3.16-2.31,4.4-3.84.97-1.2,1.93-2.43,3.15-3.39,2.08-1.63,4.4-2.36,7.04-1.87Z"/>
      <path class="cls-7" d="M404.4,99c-1.01-1.39-2.17-2.68-2.39-4.52-.13-1.08-.02-2.12.14-3.17.1-.63.45-1.14,1.16-1.03.68.1.92.63.84,1.3-.08.77-.29,1.52-.19,2.31.29,2.13,1.45,3.54,3.47,4.24.94.32,1.62.73,1.05,1.87-.76.49-1.46.15-2.16-.15-.64-.28-1.28-.56-1.93-.85Z"/>
      <path class="cls-15" d="M449.6,28.2c-.34,0-.37-.25-.41-.49.23.08.47.16.41.49Z"/>
      <path class="cls-11" d="M236.35,30.93c.02.21-.12.28-.29.31,0-.2.09-.31.29-.31Z"/>
      <path class="cls-10" d="M240.89,84.87c0,.13.02.26.02.39-.88.49-.73,1.25-.56,2.03.8,3.56,2.1,6.94,3.8,10.16,2.41,4.57,5.35,8.75,9.26,12.19.18.16.37.32.55.47,5.15,4.19,9.34,4.12,14.2-.44,5.5-5.17,8.81-11.71,11.33-18.69.44-1.22.85-1.32,1.99-.97,5.74,1.75,11.6,3.06,17.23,5.2,1.14.43,1.62,1.04,1.82,2.23,2.51,14.69,5.13,29.36,8.44,43.9.04.19.03.38.05.58-.57.54-.17,1.27-.38,1.89-1.36-.62-1.79-.38-1.92,1.16-.81,9.7-1.62,19.4-2.13,29.13-.35,6.58-.72,13.16-.26,19.75.46,6.48,1.54,12.88,2.5,19.3.43,2.86-.34,5.12-2.42,7.05-3.49,3.26-7.67,5.38-12.02,7.2-13.47,5.61-27.38,6.6-41.64,3.94-7.45-1.39-14.72-3.37-21.62-6.57-2.11-.98-4.14-2.09-5.96-3.58-1.25-1.02-1.76-2.26-1.39-3.84.87-3.78,1.16-7.52,0-11.34-.49-1.62-.11-3.38.25-5.04,1.36-6.36.87-12.71.11-19.08-1.69-14.19-4.17-28.26-6.08-42.41-.17-1.26.22-2.39.41-3.57,1.7-10.42,2-20.91,1.85-31.43-.09-6.78-.4-13.56-1-20.32-.1-1.12.19-1.37,1.27-1.36,7.48.07,14.89.78,22.25,2.08ZM269.58,217.28c.58,0,1.16,0,1.74,0,.57,0,.93-.32.99-.86.07-.64-.34-.98-.93-1.08-.33-.06-.68-.04-1.02-.06-12.68-.7-24.21-4.83-34.82-11.69-1.46-.95-2.88-1.98-3.89-3.45-.41-.6-.89-.98-1.55-.54-.77.51-.46,1.16-.03,1.76.92,1.27,2.11,2.28,3.38,3.16,10.88,7.51,22.98,11.61,36.12,12.76Z"/>
      <path class="cls-9" d="M221.97,283.76c-.62-15.54-1.05-31.09-.48-46.64.17-4.55.42-9.1,1.15-13.77.83.52,1.58,1.01,2.34,1.46,5.58,3.26,11.65,5.22,17.87,6.79,8.4,2.12,16.92,3.46,25.6,3.09,11.06-.47,21.5-3.34,31.22-8.67,2.59-1.42,4.96-3.14,7.12-5.44,1.06,3.96,1.68,7.77,2.17,11.59,2.14,16.95,2.55,33.99,2.47,51.06,0,.19-.03.39-.05.58-12.8,0-25.61.02-38.41.02-.24,0-.48-.05-.72-.07-.9-5.79-2.29-11.46-3.82-17.11-1.11-4.1-3.17-7.66-5.66-11.02-.44-.6-.92-1.3-1.75-.68-.82.62-.29,1.27.15,1.87,1.54,2.11,2.97,4.29,4.08,6.67.34.72.42,1.43.28,2.24-1.02,6.01-1.98,12.02-2.96,18.03-.63.02-1.25.07-1.88.07-12.33,0-24.65,0-36.98,0-.58,0-1.16-.04-1.74-.05Z"/>
      <path class="cls-13" d="M100.3,283.79c-1.98-7.93-.82-15.73.81-23.54,2.25-10.78,6.07-20.97,11.15-30.72.41-.78.84-.99,1.67-.91,2.8.25,5.62.3,8.4.68,2.05.28,3.55-.41,4.65-1.97.93-1.32,2.05-1.17,3.16-.59,10.84,5.64,22.42,8.7,34.5,10.04,1.15.13,1.46.44,1.34,1.66-.59,6.37-1.46,12.7-2.5,19-1.32,8.02-1.46,16.09-1.54,24.18,0,.72-.04,1.45-.06,2.17-4.07.01-8.13.04-12.2.04-15.83,0-31.66,0-47.5,0-.63,0-1.26-.02-1.89-.04Z"/>
      <path class="cls-13" d="M163.99,283.77c-.11-9.2.16-18.38,1.68-27.49.99-5.96,1.84-11.95,2.28-17.99.06-.85.27-1.15,1.2-1.1,7.76.45,15.49.2,23.18-1.03.61-.1,1.14-.31,1.24.76,1.43,15.61,3.11,31.2,4.15,46.85-8.62.02-17.25.04-25.87.05-2.62,0-5.23-.03-7.85-.05Z"/>
      <path class="cls-16" d="M195.69,155.73c3.32-3.1,4.33-7.25,5.07-11.46,1.48-8.5,1.29-17.06.76-25.63-.14-2.32-.36-4.63-.58-6.94-.07-.75-.05-1.74-1.15-1.67-1.08.07-.89,1.06-.94,1.85-.9-.12-1.18-.46-.76-1.32.55-1.13,1.12-2.2,2.11-3.07,4.25-3.7,6.35-8.7,8.11-13.86.34-1.01.82-1.58,1.83-1.97,2.65-1.02,4.35-2.98,5.35-5.73.13,1.73.29,3.46.38,5.19.6,12.05.86,24.1-.26,36.13-.58,6.32-1.47,12.59-3.71,18.59-.73,1.96-1.64,3.83-2.93,5.48-1.29,1.64-2.83,2.93-4.98,3.25-1.12.16-1.5.74-1.16,1.81-.82.02-1.64.05-2.46.07,2.56-2.12,3.47-5.04,3.99-8.15.11-.68.1-1.32-.73-1.48-.83-.17-1.1.42-1.22,1.1-.21,1.19-.44,2.38-.9,3.51-.69,1.68-1.43,3.32-3.52,3.68-.56.1-.72.59-.77,1.11-.5-.15-1-.3-1.5-.45Z"/>
      <path class="cls-7" d="M262.57,283.74c.98-6.01,1.94-12.03,2.96-18.03.14-.81.06-1.51-.28-2.24-1.11-2.38-2.53-4.56-4.08-6.67-.44-.6-.97-1.26-.15-1.87.83-.62,1.31.08,1.75.68,2.49,3.36,4.55,6.92,5.66,11.02,1.53,5.65,2.92,11.33,3.82,17.11-.34.44-.7.83-1.33.64-.7-.22-.72-.87-.81-1.42-.7-4.19-1.63-8.33-2.7-12.44-.08-.31-.05-.68-.51-.96-.71,4.25-1.4,8.45-2.1,12.65-.06.33-.1.67-.17,1-.33,1.4-.92,1.55-2.06.53Z"/>
      <path class="cls-7" d="M197.18,156.18c.05-.51.21-1.01.77-1.11,2.1-.36,2.83-2,3.52-3.68.46-1.12.69-2.32.9-3.51.12-.68.39-1.26,1.22-1.1.83.16.84.8.73,1.48-.52,3.11-1.43,6.03-3.99,8.15-1.07.19-2.23,1.43-3.16-.24Z"/>
      <path class="cls-4" d="M217.16,163.08c-.21-.84-.14-1.67.14-2.51.11.84.22,1.69.33,2.53-.15,0-.31-.01-.46-.02Z"/>
      <path class="cls-16" d="M168.03,153.54c-.11-.18-.3-.33-.13-.57.58-.32.69.24.95.51-.27.02-.55.04-.82.06Z"/>
      <path class="cls-1" d="M531.27,284.38c-31.91,0-63.83,0-95.74,0-.68,0-1.36-.02-2.03-.02.06-.38.17-.76.16-1.14-.11-17.29.48-34.57.8-51.85.04-2.25-.11-4.43-.83-6.58-.54-1.61-.65-3.31-.66-5.02,0-1.08.22-1.42,1.45-1.4,17.11.29,33.09-3.75,47.75-12.67,5.59-3.4,10.43-7.7,14.47-12.87.44-.56.68-.92,1.36-.17,4.87,5.39,9.66,10.84,14.16,16.56,6.7,8.5,10.79,18.14,13.31,28.56,3.18,13.13,4.74,26.47,5.52,39.92.13,2.22.19,4.45.28,6.68Z"/>
      <path class="cls-6" d="M365.56,284.04c-6.78.02-13.56.04-20.34.05-7.02,0-14.05,0-21.07,0-.44-24.42-.96-48.83-.29-73.25.03-1.05.15-1.33,1.26-.86,5.14,2.16,10.61,3.02,16.11,3.6,10.27,1.09,20.55,1.08,30.73-.73,7.8-1.38,14.88-4.87,21.79-8.61,4.87-2.63,9.53-5.57,13.47-9.89.37.94.74,1.75,1.01,2.58,6.1,18.71,10.16,37.74,9.47,57.59-.34,9.83-.71,19.66-1.44,29.47-.67.03-1.35.09-2.02.09-11.99,0-23.98,0-35.97,0-1.77-9.16-3.44-18.35-5.48-27.46-1.45-6.47-4.8-11.98-8.47-17.35-.41-.59-.94-.94-1.58-.48-.66.47-.46,1.06-.05,1.64,2.42,3.45,4.56,7.06,6.33,10.89.87,1.88,1.06,3.68.72,5.73-1.47,8.97-2.8,17.97-4.18,26.96Z"/>
      <path class="cls-2" d="M417.88,61.12c1-.19,2.09-.1,2.91-.9,2.39-.46,3.89-2.01,4.57-4.2.51-1.61,1.4-1.76,2.72-1.35.42.13.84.25,1.23.43.65.3,1.16.17,1.46-.46.32-.69-.11-1.1-.68-1.37-.84-.39-1.72-.63-2.65-.71-.31-.03-.94.14-.71-.55.79-2.34,1.07-5.03,3.89-6.07.65-.24.84-.75.81-1.38.7-.23,1.49-.14,2.12-.61,0,0-.01,0-.01,0,2.52.05,5.05-.19,7.55.34.67.81.9,1.8,1.18,2.78.48,1.72.87,3.47,1.41,5.17.29.92.16,1.35-.85,1.52-.76.13-1.68.39-1.33,1.46.31.96,1.1.7,1.82.43.88-.33,1.48-.22,1.86.83.68,1.86,1.82,3.51,2.72,5.27,1.41,2.74,3.63,4.46,6.49,5.46.83.29,1.64.63,2.54.98-.3.37-.49.59-.66.82-.4.51-.57,1.08-.01,1.54.61.5,1.17.24,1.6-.35.09-.12.19-.22.28-.33.49-.64.95-.77,1.68-.22.78.59.55,1.09.17,1.71-.99,1.63-2.49,2.49-4.31,2.93-1.61.39-1.74.79-.82,2.16-.52.4-.63,1.05-.96,1.56-1.15-.38-1.54.41-1.92,1.24-3.24,7.1-8.95,11.06-16.37,12.86-1.17.28-2.24.24-3.37-.23-4.29-1.81-7.8-4.51-10.61-8.27-2.6-3.47-3.71-7.44-4.67-11.52-.1-.42-.17-.85-.25-1.28-.1-.56-.46-.88-.99-.87-.54,0-.95.37-.94.92.02.67-.06.86-.77.53-2.56-1.2-4.11-4.92-3.1-7.54.78-2.01,2.6-2.57,5.1-1.59,1.52.6,1.74.46,1.88-1.14ZM435.02,85.93c3.31.08,7.78-4,7.96-7.3.05-.87-.48-1.21-1.3-1.13-4.46.45-8.88.29-13.27-.65-1.26-.27-1.76.29-1.44,1.53.46,1.75,1.21,3.36,2.38,4.75,1.48,1.75,3.34,2.74,5.66,2.8ZM437.11,66.75c-.12-.76-.19-1.54-.36-2.29-.23-.99-.54-1.96-.81-2.93-.19-.67-.53-1.23-1.31-1.01-.85.25-.82.89-.56,1.64.49,1.42.87,2.87.99,4.38.1,1.17-.27,2.02-1.26,2.72-1.88,1.35-2.04,2.56-.68,4.4.41.56.83,1.39,1.72.83.98-.62.44-1.34-.09-1.94-.71-.81-.43-1.32.37-1.83,1.42-.92,2.07-2.26,2-3.97ZM443.26,64.27c0,1.24.85,2.26,1.83,2.23.96-.03,1.78-1.08,1.81-2.29.03-1.24-.76-2.26-1.75-2.28-1.03-.02-1.89,1.05-1.89,2.34ZM428.6,63.18c0-1.26-.8-2.25-1.79-2.24-.99.02-1.78,1.01-1.81,2.26-.03,1.28.71,2.28,1.71,2.3,1.03.02,1.89-1.03,1.89-2.33ZM413.07,64.63c-.35.06-.63.2-.82.51-.23.38-.18.75.07,1.07.47.61.93,1.22,1.46,1.77.58.62,1.5.37,1.7-.42.2-.8-1.57-2.96-2.41-2.94Z"/>
      <path class="cls-2" d="M425.63,96.89c.52-.32,1.05-.65,1.57-.97.37,1.49.75,2.99,1.11,4.48.16.66.41,1.27,1.23,1.12.93-.16.89-.88.73-1.59-.21-.99-.44-1.97-.67-3.03,1.61-.06,3.11-.01,4.59-.3,1.63-.32,3.27-.69,4.63-1.61,4.22-2.89,8.48-5.76,11.81-9.74.12-.14.18-.35.48-.29.75,2.76.64,5.88,2.89,8.11,2.18,2.16,5.09,2.82,8.11,3.66-7.02,9.08-15.16,15.98-27.27,16.06-5.02.03-9.44-1.69-13.22-5.11-1.24-1.12-2.23-2.35-3.05-3.78-.52-.91-.59-1.45.59-1.91,2.07-.8,4.06-1.78,5.78-3.24.6-.51,1.02-1.04.68-1.86Z"/>
      <path class="cls-2" d="M535.25,215.47c3.99-1.93,6.58-4.97,8.49-8.67.55.21.73.69,1.03,1.04,1.56,1.86,3.19,3.64,4.89,5.37,2.36,2.4,5.18,3.49,8.5,3.37,3-.1,6.01-.2,9.01-.34,1.08-.05,1.97.25,2.8.93,2.98,2.44,5.74,5.07,7.77,8.37.47.76.96,1.54.28,2.53-1.08,1.59-.99,1.56-2.66.54-1.37-.83-2.63-1.74-3.73-2.93-1.57-1.71-3.48-2.61-5.87-1.82-.14.04-.3.1-.43.06-.74-.24-1.5-.42-1.74.59-.22.94.65,1.2,1.25,1.55,1.94,1.12,4.11,1.69,6.16,2.55,1.75.73,3.47,1.51,4.78,2.95.39.43.86.93.62,1.53-.28.68-1,.43-1.55.41-.43-.02-.87-.09-1.28-.22-6.3-1.96-12.78-3.12-19.23-4.4-2.7-.54-5.09-1.74-7.26-3.47-3.98-3.17-7.84-6.47-11.83-9.94Z"/>
      <path class="cls-2" d="M481.96,123.97c5.75.93,11.41.74,16.98-.94,1.71-.52,3.39-1.14,5.07-1.77.73-.27,1.82-.48,1.38-1.62-.45-1.19-1.35-.52-2.07-.22-5.49,2.28-11.17,3.48-17.15,3.01-1.93-.15-3.86-.39-5.69-1.06-.5-.18-.98-.41-1.44-.67-.35-.2-.63-.48-.41-.95.21-.46.51-.37.94-.28,8.4,1.78,16.24.31,23.56-4.13.12-.08.25-.15.37-.23.57-.37,1.06-.83.63-1.54-.48-.78-1.12-.51-1.75-.11-3.22,2.04-6.66,3.54-10.44,4.19-3.55.61-7.12.86-10.69.2-.33-.06-.66-.14-.98-.25-.5-.16-1.2-.28-1.25-.85-.07-.7.59-1.06,1.18-1.31,2.02-.85,4.18-1.19,6.3-1.7,5.02-1.19,9.82-2.92,14.29-5.52.25-.15.51-.28.75-.44.54-.36.88-.81.46-1.45-.4-.61-.94-.57-1.52-.22-1.66.99-3.41,1.82-5.14,2.69-.92.46-1.26.08-1.69-.61-.58-.95.42-.85.73-1.19.16-.17.4-.27.6-.41.57-.42,1.17-.87.6-1.65-.56-.76-1.16-.37-1.76.04-2.3,1.56-4.81,2.69-7.5,3.4-.6.16-1.24.24-1.87.25-.56,0-1.24.06-1.48-.64-.21-.59.19-1.01.59-1.37.57-.52,1.17-1.01,1.76-1.52,1.14-.98,2.36-1.87,3.39-2.96.87-.92,1.86-1.34,3.05-1.46,3.79-.36,7.55-.19,11.23.87,4.36,1.26,6.81,5.03,6.12,9.53-.61,3.94-1.88,7.69-3.64,11.28-.32.65-.53,1.31-1.54.98-.31-.1-.79.28-1.18.46-5.57,2.46-11.32,3.25-17.3,1.86-1.27-.29-2.48-.74-3.49-1.69Z"/>
      <path class="cls-15" d="M453.9,78.01c.33-.51.44-1.16.96-1.56,2.84-.3,5.17-1.54,6.98-4.1.36,1.91.17,3.49.11,5.07-.11,2.89.62,5.37,3.47,6.75,1.14.55,2.36.85,3.59,1.09,2.56.5,5.17.69,7.69,1.42,3.71,1.08,5.41,3.12,5.7,6.92.04.55.21,1.03.45,1.5-1.3,1.27-3.14,1.44-4.63,2.35-.97-.23-.34-.81-.23-1.21.67-2.4.14-4.5-1.58-6.28-.48-.5-1.04-1.01-1.74-.36-.7.65-.25,1.2.26,1.72.74.74,1.24,1.61,1.33,2.67.18,2.16-.62,2.94-2.7,2.61-4.34-.69-8.73-1.18-12.98-2.36-1.07-.3-2.12-.69-3.12-1.16-1.81-.83-3.08-2.15-3.46-4.19-.29-1.57-.67-3.12-.88-4.7-.2-1.44-.23-2.89.71-4.17.45-.61.61-1.32.06-2.01Z"/>
      <path class="cls-5" d="M478.22,97.45c1.48-.9,3.33-1.08,4.62-2.35.82.09,1.43-.17,1.68-1.02,1.84-1.22,3.28-2.77,4.07-4.86,7.11,1.93,13.68,4.81,18.69,10.47,1.41,1.59,1.6,2.17,1.51,3.28-1.31-1.91-3.22-2.76-5.31-3.32-4.21-1.14-8.48-1.47-12.8-.77-.86.14-1.84.27-2.38.96-.89,1.15-1.63.8-2.64.21-2.3-1.35-4.92-1.87-7.45-2.59Z"/>
      <path class="cls-2" d="M503.02,125.88c-3.39,4.44-7.39,5.56-13.26,2.41,4.69.14,8.99-.63,13.26-2.41Z"/>
      <path class="cls-3" d="M565.86,233.17c1.76.53,3.38,1.02,5.11,1.54-1.79,1.11-3.67.54-5.11-1.54Z"/>
      <path class="cls-3" d="M171.25,218.21c-.76,1.31-1.9,1.74-3,2.19-3.71,1.5-7.61,2.26-11.54,2.83-9.14,1.33-18.35,1.43-27.73,1.2.89-2.18,1.64-4.31,1.98-6.55.5-3.32.57-6.66.23-10-.08-.8.09-1.06.91-1.18,1.91-.28,3.54-1.28,5.09-2.36,6.38-4.46,12.75-8.94,19.12-13.41,1.15-.8,2.31-1.6,3.5-2.34.37-.23.85-.58,1.32-.13.46.43.37.96.18,1.48-.62,1.69-1.8,2.96-3.06,4.19-1.04,1.01-2.27,1.83-3,3.13-.22.39-.6.43-.98.52-1.41.33-2.82.7-4.23,1.05-.74.18-1.55.4-1.28,1.38.27.95,1.04.75,1.8.54,7.91-2.18,15.97-3.07,24.16-2.92,1.89.03,3.79.15,5.58.84.52.2,1.23.43,1.16,1.11-.06.59-.78.67-1.27.8-3.55.92-7.2.91-10.82,1.23-2.37.21-4.73.43-7.06.91-.85.18-1.71.38-2.46.85-.61.39-1.03.92-.86,1.69.16.74.68,1.12,1.43,1.25,1.39.24,2.8.27,4.2.3,3.49.08,6.98,0,10.45.52.82.12,1.62.32,2.36.7.48.25.96.59.9,1.2-.05.59-.61.7-1.07.84-2.24.69-4.57.87-6.88,1.03-2.95.19-5.91.28-8.86.42-.39.02-.78.03-1.16.04-.7.03-1.28.25-1.22,1.09.05.76.62.88,1.26.87,4.61-.07,9.21-.22,13.78-.81.42-.05,1-.37,1.22.03.26.47-.03,1.04-.37,1.47-.7.88-1.72,1.23-2.74,1.55-3.91,1.23-7.96,1.64-12.02,2.01-.19.02-.39.03-.58.03-.72,0-1.33.27-1.29,1.04.03.87.72,1.03,1.48.96,3.24-.28,6.46-.61,9.65-1.27.51-.11,1.02-.2,1.71-.33Z"/>
      <path class="cls-5" d="M110.69,228.36c-6.47,12.06-10.7,24.72-12.91,38.13-.47-2.9-.94-5.8-1.43-8.7-1.71-10.11-3.43-20.22-5.16-30.33-.27-1.61-.3-1.58,1.3-1.33,5.97.91,11.96,1.65,18.19,2.23Z"/>
      <path class="cls-2" d="M23.31,159.5c-.38.82-.44,1.72-1.81,1.77-.91.04-.72,1.03-.39,1.76,1.29,2.87,2.38,5.81,2.92,8.94.16.91.24,1.83-.09,2.72-.46,1.23-1.49,1.48-2.14.39-2.17-3.65-4.31-7.35-5.48-11.47-.47-1.65.29-2.98,1.89-3.81,1.5-.78,3.29-.89,5.11-.28Z"/>
      <path class="cls-2" d="M20.64,179.55c-.14.97-.09,1.88-1,2.14-.79.23-1.2-.46-1.57-1.03-1.92-2.96-3.89-5.9-5.27-9.17-.87-2.08-.24-3.71,1.69-4.55.34-.15.69-.45.93.15,1.27,3.3,3.39,6.19,4.53,9.55.34,1,.5,2.06.7,2.91Z"/>
      <path class="cls-2" d="M17.81,186.14c0,.54,0,1.12-.56,1.39-.58.27-1.02-.1-1.37-.53-2.17-2.59-4.37-5.17-6.03-8.13-1-1.79-.43-3.48,1.36-4.36.37-.18.66-.34.92.18,1.55,3.16,3.88,5.89,5.14,9.22.27.73.55,1.44.56,2.23Z"/>
      <path class="cls-2" d="M15.15,190.54c-.04,1.01-.52,1.43-1.21.88-2.44-1.99-4.82-4.07-6.59-6.71-.65-.97.42-2.73,1.6-2.9.3-.04.44.11.58.31,1.64,2.45,3.76,4.57,5.12,7.21.22.42.37.89.5,1.21Z"/>
      <path class="cls-7" d="M97.13,90.59c1.22,4.29,3.63,7.88,6.69,11.03,3.67,3.78,7.88,6.72,13.25,7.5,4.93.72,8.35-1.36,10.09-6.02.28-.74.47-1.51,1.47-1.53.88.48.79,1.18.51,1.99-1.99,5.88-7.1,8.8-13.31,7.37-7.7-1.78-13.18-6.67-17.46-13.05-1.9-2.84-3.19-5.96-3.94-9.3-.17-.75-.32-1.57.63-1.79.97-.23,1.15.57,1.32,1.33.19.84.31,1.71.76,2.48Z"/>
      <path class="cls-7" d="M91.18,121.2c.03.43.08.87.1,1.3.04.74-.07,1.43-1,1.44-.85.01-.96-.62-.99-1.31-.14-2.47-.37-4.93-.95-7.34-1.32-5.53-3.28-10.74-7.64-14.71-.45-.41-.57-.91-.14-1.41.43-.49.94-.43,1.43-.1.89.61,1.61,1.4,2.26,2.24,3.7,4.81,5.58,10.35,6.53,16.26.19,1.19.29,2.4.43,3.6-.01,0-.02,0-.04,0Z"/>
      <path class="cls-7" d="M484.52,94.08c-.25.85-.86,1.11-1.68,1.02-.24-.47-.4-.95-.45-1.5-.29-3.81-1.99-5.84-5.7-6.92-2.51-.73-5.13-.92-7.69-1.42-1.24-.24-2.45-.54-3.59-1.09-2.85-1.38-3.58-3.85-3.47-6.75.06-1.58.26-3.16-.11-5.07-1.81,2.56-4.14,3.8-6.98,4.1-.92-1.37-.79-1.77.82-2.16,1.82-.44,3.32-1.29,4.31-2.93.38-.62.61-1.13-.17-1.71-.73-.55-1.2-.42-1.68.22-.09.12-.19.22-.28.33-.43.59-.99.85-1.6.35-.56-.46-.39-1.03.01-1.54.18-.23.36-.45.66-.82-.9-.35-1.71-.69-2.54-.98-2.86-1-5.07-2.72-6.49-5.46-.91-1.76-2.04-3.41-2.72-5.27-.38-1.05-.98-1.16-1.86-.83-.72.27-1.52.53-1.82-.43-.34-1.07.58-1.33,1.33-1.46,1-.17,1.14-.6.85-1.52-.54-1.7-.93-3.45-1.41-5.17-.27-.97-.51-1.97-1.18-2.78-1.67-3.72-4.34-4.16-6.97-1.15-.22.25-.39.54-.58.81,0,0,.01,0,.01,0-.57-.01-1.2.14-1.51-.56-.3-.67.17-1.1.54-1.54,3.19-3.84,7.39-3.52,10,.76,1.36,2.24,1.82,4.78,2.48,7.25.18.65.38,1.3.53,1.96.23,1.06.61,1.89,1.88,2.03.45.05.89.36,1.3.62.52.32.96.75.58,1.42-.35.61-.88.71-1.49.35-.16-.09-.32-.17-.57-.16,1.93,3.9,3.4,8.13,8.33,9.46,1.72.46,3.39,1.16,4.89,2.18,2.33,1.59,3.62,3.72,3.56,6.59-.03,1.4-.12,2.81-.08,4.21.07,2.27.97,3.43,3.15,4.18,2.22.76,4.56.88,6.84,1.32.52.1,1.05.19,1.57.3,6.03,1.32,8.19,3.66,8.97,9.75Z"/>
      <path class="cls-7" d="M431.43,44.55c.03.64-.15,1.14-.81,1.38-2.82,1.05-3.09,3.73-3.89,6.07-.23.69.4.52.71.55.93.08,1.81.32,2.65.71.57.27,1,.68.68,1.37-.29.63-.81.76-1.46.46-.39-.18-.81-.3-1.23-.43-1.33-.41-2.22-.26-2.72,1.35-.69,2.19-2.19,3.74-4.57,4.2-.48-.02-.97-.02-1.45-.06-.73-.05-1.42-.28-1.36-1.16.06-.82.73-.89,1.41-.86,1.62.09,2.96-.38,3.72-1.95.19-.39.41-.72,0-1.16-.69-.74-.34-1.4.44-1.73.74-.31.98-.87,1.15-1.54.41-1.6.9-3.17,1.69-4.62.71-1.31,1.66-2.36,3.07-2.96.76-.33,1.39-.3,1.95.35Z"/>
      <path class="cls-2" d="M181.56,61.67c1.66.01,3.03-1.04,4.65-1.24,1.68-.21,3.32-.31,4.98.09-.05.88.33,1.41,1.25,1.39,1.89-.03,2.92,1.1,3.6,2.66.93,2.13,1.44,4.39,2.13,6.69-.72,0-1.35-.06-1.97.02-.66.09-1.34.23-1.96.48-.76.3-1.96.49-1.56,1.66.44,1.3,1.39.51,2.15.21.32-.12.64-.23.97-.3,2.03-.42,2.98-.02,4.11,1.69,1.04,1.56,2.39,2.78,4.01,3.71.59.34,1.16.46,1.75.03.13.03.27.06.4.1-.14.52-.3,1.03.22,1.46.53.44,1,.13,1.48-.09,1.47-.67,2.99-1.08,4.37.07,1.41,1.18,1.55,2.8,1.24,4.52-.39,2.2-1.55,3.81-3.52,4.77-.36-.05-.28-.25-.23-.43.2-.66.04-1.19-.66-1.37-.79-.2-1.11.3-1.29,1-.74,2.86-1.73,5.63-2.83,8.37-2.56,6.41-7.11,10.83-13.39,13.57-.88.39-1.72.43-2.67.2-8.11-1.98-14.18-6.45-17.54-14.25-.35-.82-.74-1.51-1.82-1.1-.07-.27-.18-.51-.45-.64.75-1.36.61-1.73-.92-2.05-2.51-.52-4.3-1.85-5.19-4.31-.6-1.67-.79-3.34.46-4.78,1.22-1.41,2.83-1.2,4.43-.73,1.23.36,1.77-.06,1.58-1.35,1.27-.47,2.82-.02,3.86-1.19,1.94-.92,3.57-2.24,4.41-4.23.58-1.36,1.27-1.9,2.71-1.3.67.28,1.31.05,1.48-.71.16-.71-.39-1.18-.98-1.19-1.94-.05-1.73-1.11-1.36-2.44.24-.88.24-1.82.4-2.73.35-1.99.53-4.03,1.46-5.88.17-.08.35-.14.26-.38h0ZM185.69,95.99c-1.21,0-2.42,0-3.63,0-1.23,0-1.66.51-1.23,1.61.87,2.2,2.16,4.12,4.18,5.45,3.37,2.23,7.37,1.51,9.77-1.74,1.05-1.42,1.71-3.03,2.14-4.73.36-1.41-.15-1.92-1.58-1.61-3.18.7-6.38,1.19-9.65,1.02ZM188.1,78.24c-.62.08-.88.43-1.04.93-.63,1.99-1.15,3.99-1.13,6.1.01,1.34.46,2.54,1.59,3.25,1.29.8,1.7,1.56.52,2.78-.42.44-.3,1.03.22,1.39.45.3.89.2,1.31-.18,1.83-1.65,1.77-3.69-.27-5.07-1.11-.75-1.48-1.68-1.37-2.95.14-1.6.52-3.15,1-4.67.28-.89.02-1.39-.83-1.57ZM198.72,81.33c.02-1.32-.9-2.49-1.94-2.47-.98.02-1.78,1.05-1.77,2.28,0,1.27.86,2.35,1.87,2.38,1,.03,1.82-.94,1.84-2.19ZM176.39,82.49c-.03,1.32.88,2.52,1.94,2.45,1.26-.09,1.68-1.01,1.76-2.1.1-1.31-.8-2.51-1.85-2.55-.99-.04-1.83.95-1.86,2.19ZM166.62,89.33c.82.06,1.32-.74.87-1.5-.47-.8-1.15-1.44-1.98-1.87-.76-.39-1.54.16-1.44.97.05.42,2.12,2.37,2.54,2.4ZM209.55,86.36c.15-.06.39-.09.49-.22.61-.73,1.25-1.46,1.77-2.25.25-.38.09-.86-.33-1.14-.41-.28-.82-.23-1.2.07-.69.55-1.24,1.23-1.59,2.03-.34.78,0,1.29.86,1.51Z"/>
      <path class="cls-3" d="M240.56,56.48c2.23.23,3.37-1.39,4.64-2.76.52-.55.85-1.28,1.27-1.92.75-.3,1.44.54,2.31-.06,1.35-.92,2.93-.86,4.46-.33.71.25,1.5.53,1.83-.43.33-.97-.51-1.21-1.18-1.47-1.4-.55-2.88-.4-4.49-.33,1.66-2.67,2.41-5.41,2.36-8.38-.04-1.91.71-3.37,2.56-4.12.17-.04.29-.12.26-.32h0c.79-.08,1.58-.16,2.37-.25.95,1.95,1,4.11,1.41,6.18.79,3.98,2.81,6.82,6.88,7.92.29.08.69.01.8.48.29,1.16,1.04,1.03,1.91.69,1.51-.59,3.09-.72,4.46.22,1.62,1.1,3.36,1.88,5.18,2.53.85,1.05,1.79,1.94,3.23,2.06-.52,1.55-.21,1.92,1.41,1.73,2.31-.27,3.74.89,3.8,3.23.08,2.9-1.24,5.07-3.55,6.68-.3-.19-.23-.39-.2-.56.14-.66.19-1.32-.63-1.52-.91-.22-1.16.44-1.33,1.15-.81,3.5-2.03,6.85-3.55,10.1-3.15,6.72-8.79,10.32-15.59,12.48-.51.16-.95.02-1.41-.13-7.3-2.38-12.93-6.64-15.82-14.01-1.03-2.61-1.99-5.24-2.67-7.96-.18-.73-.16-1.73-1.26-1.6-1.26.15-.76,1.21-.79,1.97-.07.06-.13.13-.19.2-2.66-1.46-3.98-3.74-3.96-6.74.02-2.44,1.42-3.62,3.83-3.3,1.17.16,1.81-.11,1.64-1.42ZM260.15,73.43s0,.02,0,.04c-2.27,0-4.55.03-6.82-.01-1.06-.02-1.57.34-1.35,1.46.81,4.22,5.27,7.69,9.52,7.41,3.41-.23,6.57-3.11,7.78-7.09.43-1.4.05-1.83-1.44-1.81-2.56.03-5.13,0-7.69,0ZM262.19,56.98c.13-.66-.03-1.1-.55-1.3-.6-.24-1.03.06-1.28.61-.64,1.46-1.08,2.99-1.38,4.56-.44,2.29-.13,4.34,1.93,5.8.64.46.68.99.19,1.58-.21.26-.4.54-.61.81-.38.49-.42.99.07,1.41.48.43.95.31,1.41-.1,1.89-1.65,1.98-3.7.1-5.29-1.13-.96-1.46-2.06-1.2-3.47.29-1.62.79-3.18,1.32-4.6ZM271.96,59.14c-.04-1.27-.94-2.35-1.94-2.3-1.02.05-1.81,1.13-1.78,2.43.03,1.3.9,2.35,1.92,2.3.99-.04,1.84-1.2,1.8-2.44ZM252.64,59.19c.01-1.3-.8-2.38-1.8-2.4-1.01-.03-1.88,1.04-1.9,2.33-.02,1.31.78,2.35,1.82,2.38,1.05.03,1.86-.97,1.88-2.3ZM282.26,64.55c.79.01,2.45-2.24,2.19-2.92-.19-.5-.57-.77-1.13-.66-.6.11-2.03,2.06-1.95,2.68.07.56.43.82.89.91ZM239.76,63.25c-.49-.71-.87-1.71-1.82-2.29-.34-.21-.67-.07-.93.15-.3.25-.56.64-.33,1.01.44.73.94,1.44,1.49,2.11.25.3.65.38,1.05.15.37-.21.57-.5.55-1.13Z"/>
      <path class="cls-2" d="M172.03,102.22c2.49,3.82,6.06,6.33,9.15,9.31,4.55,4.38,6.88,4.79,13.07,2.99-.22.75-.41,1.41-.6,2.07-.18.61.03,1.06.63,1.26.61.2,1.04-.08,1.25-.66.38-1.04.77-2.09,1.09-3.15.2-.68.44-.64,1.02-.35,1.13.55,1.8,1.22,1.72,2.63-.43,7.8-2.64,14.92-7.87,20.89-.6.68-1.34,1.27-2.09,1.79-2.84,1.97-5.36,1.98-8.21,0-3.16-2.18-5.41-5.23-7.76-8.19-2.47-3.11-3.77-6.43-3.66-10.51.12-4.2-.06-8.42.12-12.63.03-.59.11-1.12.45-1.64.75-1.12,1.16-2.42,1.67-3.83Z"/>
      <path class="cls-5" d="M245.32,84.34c-.57,0-1.14-.02-1.71-.03,0-1.03-.7-1.25-1.53-1.38-4.21-.63-8.43-1.24-12.69-1.58-.01-.51.42-.42.7-.5,3.89-1.2,7.83-2.17,11.81-3.01.39-.08.82-.4,1.12.2,1,2.02,2.44,3.87,2.31,6.3Z"/>
      <path class="cls-3" d="M239.24,67.73c.05.06.09.12.14.19-.11,0-.22,0-.33.01.06-.07.12-.13.19-.2Z"/>
      <path class="cls-5" d="M199.81,126.64s-.03.06-.04.1c-.04-.03-.09-.06-.13-.09.03-.03.06-.06.09-.1.03.03.06.06.09.1Z"/>
      <path class="cls-5" d="M199.59,127.2s0,.07-.01.1c-.02.02-.07.05-.09.04-.12-.07-.12-.14.02-.19.02,0,.06.03.09.05Z"/>
      <path class="cls-7" d="M181.31,62.05c-.93,1.85-1.11,3.89-1.46,5.88-.16.91-.15,1.85-.4,2.73-.37,1.33-.58,2.39,1.36,2.44.59.02,1.14.49.98,1.19-.17.76-.8.99-1.48.71-1.44-.6-2.13-.06-2.71,1.3-.85,1.99-2.47,3.31-4.41,4.23-.62.06-1.25.16-1.87.17-.67.02-1.33-.15-1.36-.96-.04-.82.56-1.01,1.27-1.04,1.97-.06,3.34-1.06,4.23-2.78.05-.06.1-.13.15-.19-.04,0-.09,0-.13,0,0,.07.01.14.02.21-.66-.1-1.57.28-1.77-.75-.18-.92.6-1.43,1.24-1.55,2.21-.41,2.35-2.08,2.59-3.78.37-2.64.67-5.29,1.55-7.82.3-.86.65-1.73,1.1-2.52,1.8-3.15,6.23-3.81,8.94-1.36.41.37.57.79.28,1.29-.29.49-.75.6-1.26.4-.72-.28-1.41-.65-2.15-.88-2.31-.73-3.9.25-4.46,2.69,0,0,0,0,0,0-.26.01-.26.2-.26.38Z"/>
      <path class="cls-7" d="M205.66,78.77c-.59.44-1.16.31-1.75-.03-1.62-.94-2.97-2.15-4.01-3.71-1.13-1.71-2.08-2.1-4.11-1.69-.33.07-.65.18-.97.3-.77.29-1.72,1.09-2.15-.21-.4-1.18.8-1.36,1.56-1.66.62-.25,1.29-.39,1.96-.48.62-.08,1.25-.02,1.97-.02-.69-2.31-1.21-4.57-2.13-6.69-.68-1.55-1.71-2.69-3.6-2.66-.92.01-1.3-.51-1.25-1.39.39-.51.91-.64,1.53-.61,2.58.13,4.13,1.64,5.14,3.85,1,2.2,1.52,4.57,2.23,6.86.87,2.79,2.34,5.06,4.99,6.44.77.4.83.98.59,1.7Z"/>
      <path class="cls-7" d="M169.34,81.72c.2,1.29-.35,1.71-1.58,1.35-1.59-.47-3.2-.68-4.43.73-1.25,1.44-1.06,3.11-.46,4.78.88,2.46,2.68,3.79,5.19,4.31,1.53.32,1.66.69.92,2.05-4.73-.14-8.29-3.54-8.53-8.22-.11-2.16.57-4.1,2.54-5.2,2.09-1.16,4.27-1.06,6.34.2Z"/>
      <path class="cls-7" d="M190.82,55.9c-.73-.12-1.05-.57-.86-1.33.6-2.5,2.13-4.3,4.29-5.61.49-.3,1.05-.24,1.4.31.36.58.11,1.04-.38,1.36-1.69,1.09-2.9,2.54-3.44,4.51-.13.47-.45.73-1,.75Z"/>
      <path class="cls-7" d="M126.64,90.41c-3.2-.08-5.47-1.76-7.24-4.24-.56-.78-1.04-1.64-1.45-2.51-.63-1.32-.26-1.91,1.21-1.9,3.55.01,7.07-.23,10.55-.92,1.09-.22,2.18-.44,3.28-.63.85-.15,1.41.26,1.29,1.1-.42,2.98-1.3,5.77-3.74,7.79-1.13.93-2.48,1.27-3.91,1.32ZM120.37,83.75c1.57,3.26,4.54,5.11,7.16,4.59,2.22-.44,4.17-3.04,4.32-5.88-3.75.75-7.51,1.28-11.47,1.28Z"/>
      <path class="cls-7" d="M107.7,59.07c-2.42,1.41-4.95,2.45-7.81,2.25-.9-.06-2.29.17-2.19-1.22.09-1.38,1.38-.81,2.22-.77,4.33.2,8.64-2.55,10.58-6.84.94-2.07,1.72-4.21,2.69-6.26,1.07-2.26,2.79-3.81,5.34-4.25.61-.11,1.25-.24,1.71.41.47.66-.17,1.05-.33,1.56,0,0,0,0,0,0-1.98-.01-3.6.59-4.41,2.57,0,0,0,0,0,0-.22,0-.27.15-.25.34-.76.85-1.09,1.92-1.45,2.95-1.28,3.59-3.05,6.84-6.1,9.25Z"/>
      <path class="cls-7" d="M126.98,63.93c-.29,1.65-.47,3.32-.44,5.02.03,1.46.51,2.61,1.81,3.39,2.4,1.46,2.05,3.29.46,5.53-.35.5-.87.65-1.39.31-.52-.34-.6-.84-.26-1.38.25-.41.48-.83.72-1.25.32-.56.21-1.04-.35-1.35-2.69-1.49-3.17-3.96-2.96-6.71.1-1.3.3-2.59.5-3.87.1-.62.54-.9,1.17-.78.58.11.74.55.75,1.1Z"/>
      <path class="cls-7" d="M124.9,43.01c-.59-2.71-2.29-4.01-4.93-3.74-.72.07-1.45.15-1.54-.81-.08-.9.63-1.08,1.33-1.21,2.67-.51,5.09.78,6.51,3.53.33.64.51,1.35.76,2.03-.65,1.26-1.02,1.29-2.13.21Z"/>
      <path class="cls-7" d="M119.88,58.16c-2.53-.67-4.76-.22-6.78,1.3-.46.34-.94.22-1.28-.21-.35-.43-.27-.88.08-1.31,1.39-1.72,6.72-2.76,8.56-1.64.45.27.72.67.5,1.21-.21.5-.61.72-1.07.65Z"/>
      <path class="cls-7" d="M100.15,66.24c-.12-1.67.14-1.9,1.73-1.58,1.73.35,2.94-.25,3.69-1.98.31-.7.68-1.13,1.44-1.19.76.54.78,1.18.43,2-1.25,2.91-3.83,3.9-7.3,2.75Z"/>
      <path class="cls-7" d="M115.73,65.67c1.16-.02,2.13,1.16,2.12,2.62,0,1.3-.79,2.34-1.82,2.41-1.14.07-2.17-1.12-2.21-2.56-.03-1.35.81-2.45,1.91-2.47Z"/>
      <path class="cls-7" d="M135.69,53.64c.41.08,1.13.18,1.83.36.59.15.91.57.78,1.19-.14.65-.63.88-1.21.71-1.8-.54-3.41-.14-4.98.77-.5.29-1.07.21-1.37-.36-.29-.55-.1-1.02.42-1.36,1.29-.83,2.71-1.23,4.53-1.3Z"/>
      <path class="cls-7" d="M132.11,65.64c.07-1.28.85-2.25,1.8-2.24,1.09.01,2.05,1.36,1.9,2.8-.11,1.09-.44,2.15-1.8,2.22-1.09.06-1.97-1.29-1.89-2.78Z"/>
      <path class="cls-7" d="M131.09,42.8c.97-1.29,1.82-2.61,1.65-4.35-.06-.61.37-1.05.97-1.04.68,0,.98.48,1.03,1.16.12,1.78-.49,3.32-1.47,4.75-.9.56-1.78.99-2.18-.52Z"/>
      <path class="cls-7" d="M98.01,75.13c-.45,0-2.84-1.92-2.88-2.3-.1-.85.33-1.42,1.14-1.16,1.12.35,2.05,1.12,2.57,2.19.34.71-.16,1.16-.83,1.27Z"/>
      <path class="cls-4" d="M115.5,46.53c.81-1.98,2.43-2.59,4.41-2.57-1.35,1.07-2.79,1.96-4.41,2.57Z"/>
      <path class="cls-4" d="M115.25,46.87c-.01-.19.03-.33.25-.34.05.22-.07.3-.25.34Z"/>
      <path class="cls-7" d="M277.59,54.12c-1.82-.65-3.56-1.43-5.18-2.53-1.37-.93-2.95-.8-4.46-.22-.87.34-1.63.47-1.91-.69-.11-.46-.51-.4-.8-.48-4.08-1.1-6.1-3.94-6.88-7.92-.41-2.07-.46-4.23-1.41-6.18-.35-1.66-1.25-2.69-3.06-2.68-.68,0-1.16-.34-1.14-1.03.01-.7.53-.93,1.2-.98,1.87-.13,3.49.87,4.5,2.85,1.03,2.02,1.26,4.25,1.68,6.44.18.95.32,1.92.62,2.83.83,2.54,2.53,4.2,5.19,4.77,1.21.26,2.43.45,3.83.7-.59-1.25-1.24-2.27-1.57-3.43-.2-.73-.3-1.4.58-1.66.77-.22,1.07.3,1.32.98,1.65,4.5,5.56,7.31,10.39,7.49.77.03,1.6.04,1.6,1.02,0,.97-.83,1.06-1.6,1-.96-.08-1.92-.18-2.89-.28Z"/>
      <path class="cls-7" d="M254.32,36.68c-1.86.75-2.6,2.22-2.56,4.12.05,2.97-.69,5.71-2.36,8.38,1.61-.07,3.09-.22,4.49.33.68.26,1.52.51,1.18,1.47-.33.96-1.12.67-1.83.43-1.53-.53-3.11-.58-4.46.33-.88.59-1.56-.24-2.31.06-.53-.29-.99-.63-.96-1.4-1.04,1.8-2.15,3.44-3.88,4.54-.66.42-1.42.95-1.99,0-.54-.89.26-1.27.87-1.66,1.61-1.04,2.57-2.58,3.27-4.31.3-.73.37-1.84,1.53-1.45,1.14.38.52,1.35.41,2.12-.09.14-.18.29-.01.43.02.01.16-.13.25-.21,2.48-1.91,3.43-4.57,3.73-7.55.11-1.1.12-2.22.28-3.32.24-1.56,1.05-2.78,2.46-3.56,1.3-.72,1.7-.55,2.13.93,0,0,0,0,0,0-.09.11-.17.22-.26.32Z"/>
      <path class="cls-7" d="M251.04,22.11c.89.14,1.35.65.95,1.42-.88,1.69-1.62,3.39-1.8,5.32-.04.47-.49.74-.96.73-.47-.01-.79-.32-.94-.78-.34-1.09,1.3-5.79,2.26-6.44.15-.1.34-.16.49-.23Z"/>
      <path class="cls-1" d="M359.96,41.94c-.25,1.24.17,1.69,1.48,1.48,2.44-.39,3.87.87,3.98,3.36.11,2.62-1.49,5.36-3.97,6.67.02-.22.01-.42.07-.59.25-.77.1-1.42-.74-1.58-.79-.15-1.04.46-1.19,1.15-.8,3.65-1.85,7.21-3.45,10.6-3.2,6.77-9.08,10.04-15.84,12.18-.62.2-1.14-.12-1.68-.28-9.75-2.9-15.42-9.53-17.64-19.32-.22-.99-.45-1.98-.69-2.97-.18-.7-.31-1.57-1.32-1.35-.89.19-.81.94-.66,1.65.04.17,0,.36,0,.57-2.64-1.14-4.55-4.32-4.26-7.01.25-2.38,1.57-3.47,3.91-3.14.99.14,1.64.02,1.68-1.14,2.1-.4,3.77-1.5,5.14-3.12.28-.33.6-.63.51-1.12,1.89-2.36,4.15-3.55,7.21-2.37.6.23,1.07-.05,1.25-.63.19-.59-.11-1.01-.68-1.25-1.19-.5-2.47-.57-3.86-.58.53-1.14.97-2.1,1.41-3.05.99-2.14,1.69-4.42,2.94-6.44,1.01-1.63,1.75-1.89,3.49-1.15.87.37,1.38.16,1.74-.64.63,0,1.26,0,1.89-.01.12.55.37,1.03.99,1.07.71.05.97-.49,1.15-1.06.86.09,1.73.17,2.59.26.41.38.89.51,1.45.49,1.22-.04,2.11.6,2.78,1.55.59.83,1.01,1.75,1.32,2.72.77,2.43,1.49,4.88,2.31,7.3.82,2.42,2.03,4.58,4.35,5.92.12.27.32.38.61.28h.02c.04,1.09,1.2.96,1.71,1.54ZM333.16,58.49c-1.85-.13-2.22.29-1.66,2.04.79,2.47,1.91,4.76,3.9,6.5,3.18,2.78,7.28,2.5,10.03-.69,1.44-1.68,2.34-3.65,2.99-5.74.6-1.91.3-2.32-1.65-2.13-4.54.44-9.08.5-13.62.02ZM341,48.05c-.12-2.2-.75-4.27-1.54-6.3-.23-.61-.65-1.01-1.34-.76-.8.29-.71.91-.5,1.57.37,1.15.74,2.3,1.08,3.45.59,1.97.36,3.6-1.43,5.01-1.56,1.23-1.01,4.11.79,5.07.54.29,1.05.21,1.38-.34.38-.64-.05-1.11-.45-1.53-.82-.89-.81-1.6.23-2.37,1.24-.91,1.83-2.22,1.77-3.79ZM348.38,33.11c-.87-.01-1.73.1-2.56.37-.65.21-1.21.55-.97,1.33.23.76.84.81,1.53.6,1.74-.55,3.41-.44,4.97.59.56.37,1.13.42,1.51-.18.42-.66.08-1.17-.52-1.56-1.21-.78-2.52-1.17-3.95-1.16ZM350.96,44.89c-.01-1.28-.85-2.35-1.85-2.35-.99,0-1.87,1.09-1.9,2.34-.02,1.31.9,2.46,1.96,2.41,1.02-.05,1.8-1.1,1.79-2.4ZM331.55,44.8c-.03-1.31-.9-2.35-1.93-2.3-1.02.05-1.82,1.13-1.79,2.44.03,1.35.85,2.32,1.93,2.28,1.04-.04,1.82-1.09,1.79-2.42ZM318.81,48.89c-.48-.86-.91-1.84-1.86-2.41-.38-.23-.75-.04-1.04.25-.31.31-.36.73-.15,1.06.43.69.93,1.34,1.44,1.97.27.33.67.35,1.05.15.37-.2.54-.52.56-1.02ZM363.81,47.6c-.05-.87-.53-1.36-1.22-1.05-1.03.47-1.65,1.46-1.88,2.55-.15.71.81,1.28,1.38.84.8-.61,1.27-1.51,1.71-2.33Z"/>
      <path class="cls-7" d="M338.78,21.89c-.36.81-.87,1.01-1.74.64-1.74-.75-2.48-.49-3.49,1.15-1.25,2.02-1.95,4.3-2.94,6.44-.44.96-.88,1.91-1.41,3.05,1.39,0,2.67.08,3.86.58.57.24.87.66.68,1.25-.18.58-.65.87-1.25.63-3.06-1.18-5.32,0-7.21,2.37-1.97,1.33-4.12,2.1-6.52,2.1-.74,0-1.59.02-1.64-.98-.05-1.04.76-1.04,1.52-1.04,3.26.02,5.72-1.47,7.59-4.08,1.5-2.1,2.46-4.47,3.45-6.83.78-1.87,1.47-3.79,2.76-5.4,1.47-1.84,3.43-2.21,5.41-1.1.5.28.86.62.91,1.21Z"/>
      <path class="cls-7" d="M357.62,40.12c-2.32-1.33-3.53-3.5-4.35-5.92-.82-2.42-1.54-4.87-2.31-7.3-.31-.97-.73-1.89-1.32-2.72-.68-.95-1.56-1.59-2.78-1.55-.57.02-1.04-.11-1.45-.49-.22-1.2.4-1.53,1.47-1.53,2.05,0,3.47,1.04,4.54,2.66,1.21,1.84,1.81,3.93,2.42,6.02.57,1.94,1.09,3.9,1.95,5.75,1.01,2.17,2.41,3.73,5.08,3.51.66-.06,1.15.27,1.15.99,0,.74-.51,1-1.16.99-.87-.02-1.73-.09-2.6-.13,0,0-.02.01-.02.01-.13-.26-.38-.25-.61-.28Z"/>
      <path class="cls-7" d="M342.8,21.88c-.18.58-.44,1.11-1.15,1.06-.62-.04-.87-.52-.99-1.07-.2-2.14-1.24-3.27-3.38-3.58-.65-.09-1.17-.33-1.16-1.02.01-.78.59-.99,1.31-1.01,2.04-.06,4.26,1.64,5,3.92.18.54.25,1.12.37,1.69Z"/>
      <path class="cls-7" d="M344.82,16.88c.46-2.09,1.08-4.37,2.61-6.28.45-.56.99-1.04,1.7-.43.63.54.36,1.09-.09,1.64-1.29,1.58-1.82,3.49-2.23,5.44-.14.69-.47,1.22-1.26,1.08-.6-.11-.84-.59-.74-1.44Z"/>
      <path class="cls-1" d="M331.6,77.19c-.03-.11-.06-.22-.1-.33.11.03.22.06.33.09-.08.08-.16.16-.23.24Z"/>
      <path class="cls-7" d="M269.58,217.28c-13.14-1.15-25.24-5.25-36.12-12.76-1.28-.88-2.46-1.89-3.38-3.16-.43-.59-.74-1.24.03-1.76.67-.45,1.14-.06,1.55.54,1.01,1.47,2.43,2.5,3.89,3.45,10.61,6.85,22.14,10.98,34.82,11.69.34.02.68,0,1.02.06.6.1,1,.45.93,1.08-.06.54-.42.86-.99.86-.58,0-1.16,0-1.74,0Z"/>
      <path class="cls-7" d="M435.02,85.93c-2.32-.06-4.18-1.05-5.66-2.8-1.18-1.39-1.93-3-2.38-4.75-.32-1.23.18-1.79,1.44-1.53,4.39.94,8.81,1.09,13.27.65.82-.08,1.34.26,1.3,1.13-.18,3.3-4.65,7.39-7.96,7.3ZM440.48,79.61c-3.89.29-7.45.08-11.17-.52,1.19,2.74,2.76,4.74,5.68,4.84,2.74.09,4.12-1.9,5.5-4.32Z"/>
      <path class="cls-7" d="M437.11,66.75c.08,1.71-.57,3.05-2,3.97-.8.52-1.08,1.03-.37,1.83.53.6,1.07,1.32.09,1.94-.89.56-1.3-.27-1.72-.83-1.35-1.84-1.2-3.05.68-4.4.98-.71,1.35-1.55,1.26-2.72-.12-1.51-.5-2.96-.99-4.38-.26-.75-.29-1.39.56-1.64.78-.23,1.13.33,1.31,1.01.27.98.58,1.95.81,2.93.17.75.25,1.52.36,2.29Z"/>
      <path class="cls-15" d="M433.54,43.95c.19-.27.36-.56.58-.81,2.63-3.01,5.3-2.56,6.97,1.15-2.5-.53-5.03-.29-7.55-.34Z"/>
      <path class="cls-7" d="M443.26,64.27c0-1.29.85-2.36,1.89-2.34,1,.02,1.78,1.04,1.75,2.28-.03,1.21-.85,2.26-1.81,2.29-.98.03-1.82-.99-1.83-2.23Z"/>
      <path class="cls-7" d="M428.6,63.18c0,1.3-.86,2.35-1.89,2.33-1-.02-1.74-1.01-1.71-2.3.03-1.25.82-2.24,1.81-2.26,1-.02,1.8.97,1.79,2.24Z"/>
      <path class="cls-7" d="M413.07,64.63c.83-.02,2.6,2.14,2.4,2.94-.19.78-1.11,1.03-1.7.42-.53-.55-.99-1.17-1.46-1.77-.25-.33-.3-.69-.07-1.07.19-.31.47-.46.82-.51Z"/>
      <path class="cls-7" d="M185.69,95.99c3.27.17,6.47-.32,9.65-1.02,1.43-.31,1.95.19,1.58,1.61-.44,1.7-1.09,3.31-2.14,4.73-2.4,3.25-6.39,3.97-9.77,1.74-2.01-1.33-3.3-3.25-4.18-5.45-.44-1.1,0-1.61,1.23-1.61,1.21,0,2.42,0,3.63,0ZM183.37,98.04c1.35,2.87,3.87,4.55,6.27,4.29,2.24-.25,4.18-2.29,4.85-5.14-3.64.78-7.3,1.05-11.12.86Z"/>
      <path class="cls-7" d="M188.1,78.24c.85.18,1.11.68.83,1.57-.48,1.52-.86,3.06-1,4.67-.11,1.27.27,2.2,1.37,2.95,2.04,1.39,2.1,3.42.27,5.07-.42.38-.86.49-1.31.18-.52-.36-.64-.95-.22-1.39,1.18-1.22.77-1.98-.52-2.78-1.14-.71-1.58-1.9-1.59-3.25-.02-2.11.5-4.11,1.13-6.1.16-.5.43-.86,1.04-.93Z"/>
      <path class="cls-7" d="M198.72,81.33c-.02,1.25-.84,2.22-1.84,2.19-1.01-.03-1.86-1.12-1.87-2.38,0-1.23.8-2.26,1.77-2.28,1.05-.02,1.97,1.15,1.94,2.47Z"/>
      <path class="cls-7" d="M176.39,82.49c.03-1.24.87-2.23,1.86-2.19,1.05.04,1.95,1.24,1.85,2.55-.08,1.09-.5,2.01-1.76,2.1-1.06.07-1.97-1.13-1.94-2.45Z"/>
      <path class="cls-7" d="M166.62,89.33c-.42-.03-2.49-1.98-2.54-2.4-.1-.8.67-1.36,1.44-.97.83.42,1.51,1.07,1.98,1.87.45.76-.06,1.55-.87,1.5Z"/>
      <path class="cls-7" d="M209.55,86.36c-.86-.22-1.19-.74-.86-1.51.35-.8.9-1.48,1.59-2.03.38-.3.79-.34,1.2-.07.42.28.58.76.33,1.14-.53.79-1.16,1.52-1.77,2.25-.11.13-.34.15-.49.22Z"/>
      <path class="cls-16" d="M181.31,62.05c0-.19,0-.37.26-.38.09.25-.09.31-.26.38Z"/>
      <path class="cls-7" d="M260.15,73.43c2.56,0,5.13.02,7.69,0,1.49-.02,1.87.41,1.44,1.81-1.21,3.98-4.37,6.86-7.78,7.09-4.25.28-8.71-3.19-9.52-7.41-.21-1.12.29-1.47,1.35-1.46,2.27.04,4.55.01,6.82.01,0-.01,0-.02,0-.04ZM254.31,75.56c.46.77.74,1.31,1.1,1.81,3.12,4.35,8.76,3.9,11.16-.87.31-.61.58-1.05-.5-.98-3.81.22-7.62.14-11.75.04Z"/>
      <path class="cls-7" d="M262.19,56.98c-.53,1.43-1.03,2.98-1.32,4.6-.25,1.41.07,2.51,1.2,3.47,1.87,1.6,1.78,3.65-.1,5.29-.47.41-.93.53-1.41.1-.48-.43-.44-.92-.07-1.41.21-.27.4-.55.61-.81.49-.6.45-1.13-.19-1.58-2.06-1.46-2.36-3.51-1.93-5.8.3-1.57.74-3.09,1.38-4.56.24-.55.67-.85,1.28-.61.52.2.68.65.55,1.3Z"/>
      <path class="cls-7" d="M271.96,59.14c.03,1.24-.82,2.39-1.8,2.44-1.02.05-1.89-1-1.92-2.3-.03-1.3.76-2.38,1.78-2.43,1-.05,1.91,1.02,1.94,2.3Z"/>
      <path class="cls-7" d="M252.64,59.19c-.01,1.33-.83,2.33-1.88,2.3-1.04-.03-1.84-1.07-1.82-2.38.02-1.28.89-2.35,1.9-2.33,1,.03,1.82,1.11,1.8,2.4Z"/>
      <path class="cls-7" d="M282.26,64.55c-.46-.08-.83-.35-.89-.91-.07-.62,1.35-2.57,1.95-2.68.56-.1.94.17,1.13.66.26.68-1.4,2.94-2.19,2.92Z"/>
      <path class="cls-7" d="M239.76,63.25c.02.63-.18.93-.55,1.13-.4.23-.8.15-1.05-.15-.54-.67-1.04-1.38-1.49-2.11-.23-.38.03-.76.33-1.01.26-.22.6-.36.93-.15.95.58,1.33,1.59,1.82,2.29Z"/>
      <path class="cls-11" d="M254.32,36.68c.09-.11.17-.21.26-.32.03.2-.09.28-.26.32Z"/>
      <path class="cls-16" d="M175.5,75.94c0-.07-.01-.14-.02-.21.04,0,.09,0,.13,0-.05.06-.1.13-.15.19,0,0,.03.02.03.02Z"/>
      <path class="cls-5" d="M120.37,83.75c3.96,0,7.72-.53,11.47-1.28-.15,2.83-2.09,5.44-4.32,5.88-2.62.52-5.58-1.33-7.16-4.59Z"/>
      <path class="cls-11" d="M245.97,49.85c-.09.07-.23.22-.25.21-.17-.14-.08-.29.01-.43.08.07.16.15.24.22Z"/>
      <path class="cls-7" d="M333.16,58.49c4.54.49,9.08.43,13.62-.01,1.95-.19,2.25.22,1.65,2.13-.66,2.09-1.55,4.06-2.99,5.74-2.75,3.19-6.85,3.48-10.03.69-1.99-1.75-3.11-4.03-3.9-6.5-.56-1.75-.19-2.17,1.66-2.04ZM346.33,60.5c-4.31.45-8.44.42-12.69.06.75,2.12,1.71,3.88,3.36,5.18,2.3,1.81,4.92,1.58,6.85-.62,1.13-1.28,1.88-2.79,2.48-4.63Z"/>
      <path class="cls-7" d="M341,48.05c.06,1.57-.53,2.87-1.77,3.79-1.04.77-1.05,1.48-.23,2.37.39.43.83.89.45,1.53-.33.55-.84.63-1.38.34-1.8-.96-2.35-3.84-.79-5.07,1.79-1.41,2.02-3.04,1.43-5.01-.34-1.16-.71-2.3-1.08-3.45-.21-.65-.3-1.28.5-1.57.69-.25,1.11.16,1.34.76.79,2.03,1.42,4.11,1.54,6.3Z"/>
      <path class="cls-7" d="M348.38,33.11c1.43,0,2.75.38,3.95,1.16.61.39.94.89.52,1.56-.38.6-.95.55-1.51.18-1.56-1.04-3.23-1.14-4.97-.59-.68.22-1.3.16-1.53-.6-.24-.78.32-1.12.97-1.33.83-.27,1.69-.38,2.56-.37Z"/>
      <path class="cls-7" d="M350.96,44.89c.01,1.31-.77,2.35-1.79,2.4-1.05.05-1.98-1.1-1.96-2.41.02-1.25.91-2.34,1.9-2.34,1,0,1.84,1.07,1.85,2.35Z"/>
      <path class="cls-7" d="M331.55,44.8c.03,1.32-.75,2.37-1.79,2.42-1.07.04-1.9-.93-1.93-2.28-.03-1.31.77-2.39,1.79-2.44,1.03-.05,1.9.99,1.93,2.3Z"/>
      <path class="cls-7" d="M318.81,48.89c-.02.5-.19.82-.56,1.02-.38.21-.78.19-1.05-.15-.51-.63-1.01-1.28-1.44-1.97-.21-.33-.16-.76.15-1.06.29-.29.65-.48,1.04-.25.95.57,1.38,1.55,1.86,2.41Z"/>
      <path class="cls-7" d="M363.81,47.6c-.44.82-.92,1.72-1.71,2.33-.58.44-1.53-.13-1.38-.84.23-1.09.85-2.08,1.88-2.55.69-.31,1.17.18,1.22,1.05Z"/>
      <path class="cls-13" d="M357.62,40.12c.23.03.48.02.61.28-.29.1-.49-.01-.61-.28Z"/>
      <path class="cls-5" d="M440.48,79.61c-1.38,2.42-2.76,4.42-5.5,4.32-2.92-.1-4.49-2.1-5.68-4.84,3.72.6,7.29.81,11.17.52Z"/>
      <path class="cls-5" d="M183.37,98.04c3.83.19,7.48-.07,11.12-.86-.67,2.86-2.62,4.89-4.85,5.14-2.4.27-4.92-1.41-6.27-4.29Z"/>
      <path class="cls-5" d="M254.31,75.56c4.13.09,7.94.17,11.75-.04,1.08-.06.81.37.5.98-2.4,4.77-8.04,5.22-11.16.87-.35-.49-.63-1.04-1.1-1.81Z"/>
      <path class="cls-5" d="M346.33,60.5c-.61,1.84-1.35,3.34-2.48,4.63-1.93,2.19-4.54,2.43-6.85.62-1.65-1.3-2.61-3.06-3.36-5.18,4.25.36,8.38.38,12.69-.06Z"/>
    </g>
  </g>
</svg>