<?xml version="1.0" encoding="UTF-8"?>
<svg id="Capa_2" data-name="Capa 2" xmlns="http://www.w3.org/2000/svg" viewBox="0 0 154.87 154.87">
  <defs>
    <style>
      .cls-1 {
        fill: #1b9b4a;
        stroke-width: 0px;
      }
    </style>
  </defs>
  <g id="Capa_1-2" data-name="Capa 1">
    <g>
      <circle class="cls-1" cx="77.44" cy="77.44" r="17.16" transform="translate(-5.29 5.68) rotate(-4.07)"/>
      <path class="cls-1" d="M105.13,55.85c-3.42,0-6.24-2.82-6.24-6.24s2.82-6.24,6.24-6.24,6.24,2.82,6.24,6.24-2.75,6.24-6.24,6.24ZM77.44,103.25c-14.28,0-25.88-11.6-25.88-25.88s11.6-25.88,25.88-25.88,25.88,11.6,25.88,25.88c-.07,14.28-11.67,25.88-25.88,25.88ZM100.5,35.33h-46.13c-10.46,0-19.04,8.51-19.04,19.04v46.13c0,10.46,8.51,19.04,19.04,19.04h46.13c10.46,0,19.04-8.51,19.04-19.04v-46.13c-.07-10.53-8.58-19.04-19.04-19.04Z"/>
      <path class="cls-1" d="M128.19,100.5c0,15.29-12.47,27.76-27.76,27.76h-46.06c-15.29,0-27.76-12.47-27.76-27.76v-46.13c0-15.29,12.47-27.76,27.76-27.76h46.13c15.29,0,27.76,12.47,27.76,27.76v46.13h-.07ZM77.44,0C34.66,0,0,34.66,0,77.44s34.66,77.44,77.44,77.44,77.44-34.66,77.44-77.44C154.81,34.66,120.15,0,77.44,0Z"/>
    </g>
  </g>
</svg>