<?xml version="1.0" encoding="utf-8"?>
<!-- Generator: Adobe Illustrator 28.2.0, SVG Export Plug-In . SVG Version: 6.00 Build 0)  -->
<svg version="1.1" id="Capa_2_00000082326581984193429870000009354468139709002888_"
	 xmlns="http://www.w3.org/2000/svg" xmlns:xlink="http://www.w3.org/1999/xlink" x="0px" y="0px" viewBox="0 0 154.9 154.9"
	 style="enable-background:new 0 0 154.9 154.9;" xml:space="preserve">
<style type="text/css">
	.st0{fill:#A1B8C7;}
</style>
<g id="Capa_1-2">
	<g>
		<circle class="st0" cx="77.5" cy="77.4" r="17.2"/>
		<path class="st0" d="M105.1,55.8c-3.4,0-6.2-2.8-6.2-6.2s2.8-6.2,6.2-6.2s6.2,2.8,6.2,6.2S108.6,55.8,105.1,55.8z M77.4,103.2
			c-14.3,0-25.9-11.6-25.9-25.9s11.6-25.9,25.9-25.9s25.9,11.6,25.9,25.9C103.2,91.6,91.7,103.2,77.4,103.2z M100.5,35.3H54.4
			c-10.5,0-19,8.5-19,19v46.1c0,10.5,8.5,19,19,19h46.1c10.5,0,19-8.5,19-19V54.4C119.5,43.8,111,35.3,100.5,35.3z"/>
		<path class="st0" d="M128.2,100.5c0,15.3-12.5,27.8-27.8,27.8H54.4c-15.3,0-27.8-12.5-27.8-27.8V54.4c0-15.3,12.5-27.8,27.8-27.8
			h46.1c15.3,0,27.8,12.5,27.8,27.8L128.2,100.5L128.2,100.5L128.2,100.5z M77.4,0C34.7,0,0,34.7,0,77.4s34.7,77.4,77.4,77.4
			s77.4-34.7,77.4-77.4C154.8,34.7,120.2,0,77.4,0z"/>
	</g>
</g>
</svg>
