<?xml version="1.0" encoding="utf-8"?>
<!-- Generator: Adobe Illustrator 28.2.0, SVG Export Plug-In . SVG Version: 6.00 Build 0)  -->
<svg version="1.1" id="Capa_2_00000019646982706526718640000014087790437252043194_"
	 xmlns="http://www.w3.org/2000/svg" xmlns:xlink="http://www.w3.org/1999/xlink" x="0px" y="0px" viewBox="0 0 439.9 304"
	 style="enable-background:new 0 0 439.9 304;" xml:space="preserve">
<style type="text/css">
	.st0{fill:#E5E6E8;}
	.st1{fill:#BFE9D6;}
	.st2{fill:#5D5D5D;}
	.st3{fill:#0E9C48;}
	.st4{fill:#A7A9AD;}
	.st5{fill:#4277D0;}
	.st6{fill:#0DA54F;}
	.st7{fill:#0A6339;}
	.st8{fill:#11A145;}
	.st9{fill:#0EA249;}
	.st10{fill:url(#SVGID_00000093135178937477151610000001464414646408014237_);}
	.st11{fill:url(#SVGID_00000046313424513316006260000015633736637971129259_);}
</style>
<path class="st0" d="M110.3,27.9l35.4-2.3l56.5,190.8c0,0,51.1-2.9,66-71c2-9.3,3.1-18.8,3.3-28.3L273.9,17l33.9-1.7l-3.2,93.9
	c-0.9,26.8-4.6,56.5-16.2,80.8c-12.5,26.3-35.2,50-66.7,55.3c-65.2,10.9-111.5,13-111.5,13l-3.3-31.3l63-5.2L110.3,27.9z"/>
<path class="st1" d="M91.3,12.7l35.4-2.3l56.5,190.8c0,0,51.1-2.9,66-71c2-9.3,3.1-18.8,3.3-28.3L255,1.7L288.9,0l-3.2,93.9
	c-0.9,26.8-4.6,56.5-16.2,80.8c-12.5,26.3-35.2,50-66.7,55.3c-65.2,10.9-111.5,13-111.5,13L88,211.7l63-5.2L91.3,12.7z"/>
<path class="st2" d="M115.3,26.6H56L0,197.8h44l12-36.6h59.3l11.9,36.6h43.3L115.3,26.6z M65.3,128l20-62.3l20,62.3H65.3z"/>
<polygon class="st3" points="144.4,56.8 242.9,56.8 242.9,80.3 208.2,80.3 208.2,175.5 179.8,175.5 179.8,80.7 144.4,80.7 "/>
<polygon class="st3" points="250.7,56.8 279.4,56.8 279,80.3 279,80.3 279,175.5 250.7,175.5 250.7,80.7 250.7,80.7 "/>
<path class="st3" d="M362.6,56.8h-69v118.7h69c0,0,43.3,0.8,43.3-59.3S362.6,56.8,362.6,56.8z M355.8,152.7h-33.5V80.3h33.5
	c0,0,21-0.5,21,36.2C376.8,153.1,355.8,152.7,355.8,152.7z"/>
<polygon class="st4" points="234.7,190 316.8,190 360.4,215 316.8,240.7 234.7,240.7 297.5,239.1 335.9,216.6 201.8,215.4 
	335.9,213.6 296.4,191.6 "/>
<polygon class="st5" points="334.6,190 357.3,190 400.8,215 357.3,240.7 334.9,240.7 377.6,215.4 "/>
<polygon class="st6" points="373.7,190 396.3,190 439.9,215 396.3,240.7 373.9,240.7 416.7,215.4 "/>
<path class="st7" d="M169.7,226c-6.4,0-11.6,5.2-11.6,11.6c0,6.4,5.2,11.6,11.6,11.6c6.4,0,11.6-5.2,11.6-11.6S176.1,226,169.7,226z
	 M169.8,242c-2.4,0-4.4-2-4.4-4.4s2-4.4,4.4-4.4s4.4,2,4.4,4.4S172.2,242,169.8,242z"/>
<g>
	<g>
		<g>
			<defs>
				<path id="SVGID_1_" d="M176.3,201.9l15.2-2.3c0,0,2.5-0.6,2.9,2.3l0.4,2.1c0.3,1.4-0.7,2.8-2.1,3h-0.1c-2.6,0.3-4.8,0.9-3.5,1.8
					c1.3,0.9,13.8,10,13.8,28.2c0,14.9-9.7,23.1-17.3,27.8c-1.9,1.2-4,2.1-6,2.9c-0.5,0.2-0.9,0.5-0.5,1c0.9,1,28.3,27.8,28.3,27.8
					s2,1.6,0.9,3.3c-1,1.7-3.2,3.6-3.2,3.6s-1.2,1.9-4.2-1c-2.6-2.6-28.2-27.9-33.3-33.1c-0.9-0.9-1.6-2.1-1.8-3.4
					c-0.3-1.9,0.2-4.3,4.8-4.9c7.9-0.9,24-6.9,24-23.5s-11.3-22.9-11.3-22.9s-1.9-1.3-1.8,0.1s0.1,4.4,0.1,4.4s0.6,2.5-0.9,2.6
					s-3.9,0.2-3.9,0.2s-2,0.7-2.4-2.6s-0.9-14.5-0.9-14.5S173.1,202.4,176.3,201.9z"/>
			</defs>
			<clipPath id="SVGID_00000165200028197988072700000016942775102053515913_">
				<use xlink:href="#SVGID_1_"  style="overflow:visible;"/>
			</clipPath>
		</g>
	</g>
</g>
<g>
	<g>
		<g>
			<defs>
				<path id="SVGID_00000163755047228722231200000007945935995507517874_" d="M133.9,287.5L133.9,287.5c-1.1-1-2.8-0.8-3.7,0.3
					l-1.3,1.7c-1.8,2.2,0.2,3.7,0.2,3.7l11.8,9.9c2.5,2,3.8,0,3.8,0s8-7.9,10.2-10.3s0.3-3.5,0.3-3.5s-1.7-1.8-2.7-2.8
					s-2.5,1.1-2.5,1.1l-1.8,2.2c0,0-1.1,1.2-1.1-1.5s0-57.9,0-57.9s-0.6-7.5,8.9-16.3c0,0,2.3-1.6,1.6-3l-3.4-3.9c0,0-1.8-2.2-3.8,0
					c-2.1,2.2-12.2,11.6-12.2,21.3s0,60.8,0,60.8s0.4,2.7-0.9,1.6C136,289.7,133.9,287.5,133.9,287.5z"/>
			</defs>
			<clipPath id="SVGID_00000147920327807836546840000014161457245921231802_">
				<use xlink:href="#SVGID_00000163755047228722231200000007945935995507517874_"  style="overflow:visible;"/>
			</clipPath>
		</g>
	</g>
</g>
<path class="st8" d="M232.7,256.3c0-6.7-8.1-5.6-8.1-5.6c-12.1,1.1-20,14.1-21.3,19.1s-2.7,17.2,8.6,17.2c10.9,0,15.2-9,15.4-9.6
	l0,0c-0.3,0.4-3.8,4.5-10.7,5.8c-7.2,1.3-4.7-10.9-4.7-10.9C224.4,267.4,232.7,263,232.7,256.3z M216.9,258.6
	c3.3-5.5,7.3-7.5,8.2-5.3c0.3,0.8,2.1,10-12.7,17C212.4,270.3,213.6,264.2,216.9,258.6z"/>
<path class="st8" d="M243,251.5l2.8-9.5h8.9l-2.7,9.5h7.6v2.1h-8.3l-7.3,25.3c0,0-2.2,6.2,2.1,5.2s6.3-8.9,6.3-8.9
	s-1.3,12.6-9.4,12.6s-8.6-5.9-7.9-9.3c0.8-3.3,7.4-24.9,7.4-24.9h-6.7v-2.1L243,251.5L243,251.5z"/>
<path class="st9" d="M284,252c-2-1.1-4.4-1.4-6.7-1.2c-12.7,1.2-16.5,11.8-19.1,18.9c-2.8,7.5,1.1,17.5,9.9,17.4
	c8.9-0.2,17.7-5.5,20.9-20.5C290.9,257.6,287.2,253.7,284,252z M279.6,266.7c-2.8,14.5-9.5,19.4-10.9,19.1c-1.1-0.2-5.3,0.3,0-19.5
	c0,0,4.9-14.5,9.5-13.8C278.3,252.5,282.5,252.2,279.6,266.7z"/>
<path class="st9" d="M390.8,252c-2-1.1-4.4-1.4-6.7-1.2c-12.7,1.2-16.5,11.8-19.1,18.9c-2.8,7.5,1.1,17.5,9.9,17.4
	c8.9-0.2,17.7-5.5,20.9-20.5C397.7,257.6,394.1,253.7,390.8,252z M386.5,266.7c-2.8,14.5-9.4,19.4-10.9,19.1
	c-1.1-0.2-5.3,0.3,0-19.5c0,0,4.9-14.5,9.5-13.8C385.2,252.5,389.3,252.2,386.5,266.7z"/>
<path class="st8" d="M293.2,262.3L293.2,262.3c0.2-0.9,3-11.6,10.4-11.6c7.8,0,4.8,10,4.8,10s3.9-10,11.4-10c0,0,6.1-0.3,4.9,6.4
	c-1.2,6.8-6.8,6.2-6.8,6.2s-3.5,0.3-3.5-4.8c0-5,5.2-6.1,5.4-6.1l0,0c-0.2,0-5.7-0.9-10.4,9.3c-4.8,10.4-7.4,24.5-7.4,24.5h-9.4
	l7.6-25.9c0,0,1.7-5.8,0.1-6.5C298.9,253.2,293.6,261.6,293.2,262.3z"/>
<path class="st8" d="M351.1,254.1c-0.2,0-3.6-0.5-8.9,8.3c-5.9,9.9-8.4,23.9-8.4,23.9h-9.4l7.6-25.9c0,0,1.7-5.8,0.1-6.5
	c-1.5-0.6-6.8,7.8-7.2,8.5l0,0c0.2-0.8,2.9-11.6,10.4-11.6s5.6,9.5,5.5,10.2l0,0c0.4-0.6,6.6-10.2,13.8-10.2c0,0,5-0.3,5.1,4.7
	c0,0.9-0.2,1.8-0.4,2.6l-6.6,20.5c0,0-2.1,5.7,0.7,5.7c2.6,0,6-8.1,6.3-8.8l0,0c-0.1,0.8-1.9,11.9-8.7,11.9c-5.3,0-6.8-2.2-7.2-4.9
	c-0.2-1.6,0-3.2,0.5-4.7l7.1-20.2C351.4,257.6,352.7,254.4,351.1,254.1z"/>
<linearGradient id="SVGID_00000103238506566825519510000001140596886063119748_" gradientUnits="userSpaceOnUse" x1="187.2699" y1="199.563" x2="187.2699" y2="303.9292">
	<stop  offset="0" style="stop-color:#8DC83F"/>
	<stop  offset="1" style="stop-color:#008840"/>
</linearGradient>
<path id="SVGID_00000049941632709123745590000012511593129368007606_" style="fill:url(#SVGID_00000103238506566825519510000001140596886063119748_);" d="
	M176.3,201.9l15.2-2.3c0,0,2.5-0.6,2.9,2.3l0.4,2.1c0.3,1.4-0.7,2.8-2.1,3c0,0-0.1,0-0.1,0c-2.6,0.3-4.8,0.9-3.5,1.8
	s13.8,10,13.8,28.2c0,14.9-9.7,23.1-17.3,27.8c-1.9,1.2-4,2.1-6,2.9c-0.5,0.2-0.9,0.5-0.5,1c0.9,1,28.3,27.8,28.3,27.8
	s2,1.6,0.9,3.3c-1,1.7-3.2,3.6-3.2,3.6s-1.2,1.9-4.2-1c-2.6-2.6-28.2-27.9-33.3-33.1c-0.9-0.9-1.6-2.1-1.8-3.4
	c-0.3-1.9,0.2-4.3,4.8-4.9c7.9-0.9,24-6.9,24-23.5s-11.3-22.9-11.3-22.9s-1.9-1.3-1.8,0.1c0.1,1.4,0.1,4.4,0.1,4.4s0.6,2.5-0.9,2.6
	s-3.9,0.2-3.9,0.2s-2,0.7-2.4-2.6s-0.9-14.5-0.9-14.5S173.1,202.4,176.3,201.9z"/>
<linearGradient id="SVGID_00000091704113825372355280000012135398899881584274_" gradientUnits="userSpaceOnUse" x1="142.959" y1="206.1968" x2="142.959" y2="303.9967">
	<stop  offset="0" style="stop-color:#91959A"/>
	<stop  offset="1" style="stop-color:#575759"/>
</linearGradient>
<path id="SVGID_00000071524102570118601570000015002239734422047382_" style="fill:url(#SVGID_00000091704113825372355280000012135398899881584274_);" d="
	M133.9,287.5C133.9,287.4,133.9,287.4,133.9,287.5c-1.1-1-2.8-0.8-3.7,0.3l-1.3,1.7c-1.8,2.2,0.2,3.7,0.2,3.7l11.8,9.9
	c2.5,2,3.8,0,3.8,0s8-7.9,10.2-10.3c2.2-2.4,0.3-3.5,0.3-3.5s-1.7-1.8-2.7-2.8c-1-1-2.5,1.1-2.5,1.1l-1.8,2.2c0,0-1.1,1.2-1.1-1.5
	s0-57.9,0-57.9s-0.6-7.5,8.9-16.3c0,0,2.3-1.6,1.6-3l-3.4-3.9c0,0-1.8-2.2-3.8,0c-2.1,2.2-12.2,11.6-12.2,21.3s0,60.8,0,60.8
	s0.4,2.7-0.9,1.6C136,289.7,133.9,287.5,133.9,287.5z"/>
</svg>
