<?xml version="1.0" encoding="UTF-8"?>
<svg id="Capa_1" data-name="Capa 1" xmlns="http://www.w3.org/2000/svg" viewBox="0 0 631 1191.04">
  <defs>
    <style>
      .cls-1 {
        fill: #a7acb1;
      }

      .cls-1, .cls-2, .cls-3 {
        isolation: isolate;
        opacity: .1;
        stroke-width: 0px;
      }

      .cls-2 {
        fill: #006bab;
      }

      .cls-3 {
        fill: #008d3e;
      }
    </style>
  </defs>
  <polygon class="cls-1" points="134.38 -137.52 261.01 -137.52 512.72 157.17 259.46 458 134.38 458 383 160.24 134.38 -137.52"/>
  <polygon class="cls-2" points="343.98 -137.52 470.61 -137.52 722.33 157.17 469.07 458 343.98 458 592.61 160.24 343.98 -137.52"/>
  <polygon class="cls-3" points="553.59 -137.52 680.22 -137.52 931.92 157.17 678.67 458 553.59 458 802.22 160.24 553.59 -137.52"/>
  <polygon class="cls-3" points="-76.27 -137.52 50.36 -137.52 302.07 157.17 48.81 458 -76.27 458 172.35 160.24 -76.27 -137.52"/>
  <polygon class="cls-1" points="887.61 1053.52 760.98 1053.52 509.27 758.83 762.53 458 887.61 458 638.98 755.76 887.61 1053.52"/>
  <polygon class="cls-1" points="261.92 1053.52 135.29 1053.52 -116.42 758.83 136.84 458 261.92 458 13.3 755.76 261.92 1053.52"/>
  <polygon class="cls-3" points="678.01 1053.52 551.38 1053.52 299.66 758.83 552.92 458 678.01 458 429.38 755.76 678.01 1053.52"/>
  <polygon class="cls-2" points="468.4 1053.52 341.77 1053.52 90.06 758.83 343.32 458 468.4 458 219.78 755.76 468.4 1053.52"/>
</svg>