<?xml version="1.0" encoding="utf-8"?>
<!-- Generator: Adobe Illustrator 28.2.0, SVG Export Plug-In . SVG Version: 6.00 Build 0)  -->
<svg version="1.1" id="Capa_2_00000077299854484364966090000015729778038548539813_"
	 xmlns="http://www.w3.org/2000/svg" xmlns:xlink="http://www.w3.org/1999/xlink" x="0px" y="0px" viewBox="0 0 146 146"
	 style="enable-background:new 0 0 146 146;" xml:space="preserve">
<style type="text/css">
	.st0{fill-rule:evenodd;clip-rule:evenodd;fill:#A1B8C7;}
</style>
<g id="Capa_1-2">
	<path class="st0" d="M110.7,47.4l1.3-1.1v55c0,1.9-1.6,3.5-3.5,3.5H37.6c-2,0-3.5-1.6-3.5-3.5v-55l1.3,1.1l0,0l35.4,28.3
		c1.3,1,3.1,1,4.4,0L110.7,47.4L110.7,47.4L110.7,47.4z M39.8,42L73,68.5L106.2,42l1-0.8H38.9C38.9,41.2,39.8,42,39.8,42z M73,146
		c40.3,0,73-32.7,73-73S113.3,0,73,0S0,32.7,0,73S32.7,146,73,146z"/>
</g>
</svg>
