<?xml version="1.0" encoding="UTF-8"?>
<svg id="Capa_2" data-name="Capa 2" xmlns="http://www.w3.org/2000/svg" viewBox="0 0 146.02 146.02">
  <defs>
    <style>
      .cls-1 {
        fill: #1b9b4a;
        fill-rule: evenodd;
        stroke-width: 0px;
      }
    </style>
  </defs>
  <g id="Capa_1-2" data-name="Capa 1">
    <path class="cls-1" d="M110.67,47.41l1.27-1.06v54.98c0,1.95-1.58,3.54-3.54,3.54H37.61c-1.95,0-3.54-1.59-3.54-3.54v-54.98l1.27,1.06.05.04,35.4,28.32c1.29,1.03,3.13,1.03,4.42,0l35.4-28.32.05-.04ZM39.85,41.95l33.16,26.53,33.16-26.53.96-.8H38.89l.96.8ZM73.01,146.02c40.32,0,73.01-32.69,73.01-73.01S113.33,0,73.01,0,0,32.69,0,73.01s32.69,73.01,73.01,73.01Z"/>
  </g>
</svg>