<?xml version="1.0" encoding="utf-8"?>
<!-- Generator: Adobe Illustrator 28.2.0, SVG Export Plug-In . SVG Version: 6.00 Build 0)  -->
<svg version="1.1" id="Capa_2_00000012432852141505739890000010322135332437510310_"
	 xmlns="http://www.w3.org/2000/svg" xmlns:xlink="http://www.w3.org/1999/xlink" x="0px" y="0px" viewBox="0 0 50.6 50.5"
	 style="enable-background:new 0 0 50.6 50.5;" xml:space="preserve">
<style type="text/css">
	.st0{fill:#A1B8C7;}
</style>
<path class="st0" d="M25.3,25.8c-0.3,0-0.6,0-0.9-0.1s-0.6-0.1-0.9-0.3c-0.3-0.1-0.5-0.3-0.8-0.4c-0.2-0.2-0.5-0.4-0.7-0.6
	s-0.4-0.5-0.6-0.7s-0.3-0.5-0.4-0.8c-0.1-0.3-0.2-0.6-0.3-0.9c-0.1-0.3-0.1-0.6-0.1-0.9s0-0.6,0.1-0.9s0.1-0.6,0.3-0.9
	c0.1-0.3,0.3-0.5,0.4-0.8s0.4-0.5,0.6-0.7c0.2-0.2,0.5-0.4,0.7-0.6s0.5-0.3,0.8-0.4c0.3-0.1,0.6-0.2,0.9-0.3s0.6-0.1,0.9-0.1
	s0.6,0,0.9,0.1s0.6,0.1,0.9,0.3c0.3,0.1,0.5,0.3,0.8,0.4s0.5,0.4,0.7,0.6c0.2,0.2,0.4,0.5,0.6,0.7s0.3,0.5,0.4,0.8
	c0.1,0.3,0.2,0.6,0.3,0.9c0.1,0.3,0.1,0.6,0.1,0.9s0,0.6-0.1,0.9s-0.1,0.6-0.3,0.9c-0.1,0.3-0.3,0.5-0.4,0.8
	c-0.2,0.2-0.4,0.5-0.6,0.7c-0.2,0.2-0.5,0.4-0.7,0.6s-0.5,0.3-0.8,0.4s-0.6,0.2-0.9,0.3C25.9,25.8,25.6,25.8,25.3,25.8z M19,21.2
	c0,0.4,0,0.8,0.1,1.2s0.2,0.8,0.4,1.2c0.2,0.4,0.4,0.7,0.6,1.1s0.5,0.7,0.8,1s0.6,0.5,1,0.8s0.7,0.4,1.1,0.6s0.8,0.3,1.2,0.4
	c0.4,0.1,0.8,0.1,1.2,0.1s0.8,0,1.2-0.1s0.8-0.2,1.2-0.4s0.7-0.4,1.1-0.6s0.7-0.5,1-0.8s0.5-0.6,0.8-1c0.2-0.3,0.4-0.7,0.6-1.1
	s0.3-0.8,0.4-1.2c0.1-0.4,0.1-0.8,0.1-1.2C31.2,12.9,19.4,12.9,19,21.2z"/>
<path class="st0" d="M25.8,40.9c-0.1,0.1-0.3,0.2-0.5,0.2s-0.4-0.1-0.5-0.2c-0.5-0.3-11.2-8.7-11.2-19.7c0-0.8,0.1-1.5,0.2-2.3
	c0.1-0.8,0.4-1.5,0.7-2.2c0.3-0.7,0.6-1.4,1.1-2c0.4-0.6,0.9-1.2,1.5-1.8c0.5-0.5,1.1-1,1.8-1.5c0.6-0.4,1.3-0.8,2-1.1
	c0.7-0.3,1.4-0.5,2.2-0.7c0.8-0.1,1.5-0.2,2.3-0.2s1.5,0.1,2.3,0.2c0.8,0.1,1.5,0.4,2.2,0.7c0.7,0.3,1.4,0.7,2,1.1
	c0.6,0.4,1.2,0.9,1.8,1.5c0.5,0.5,1,1.1,1.5,1.8c0.4,0.6,0.8,1.3,1.1,2c0.3,0.7,0.5,1.4,0.7,2.2c0.2,0.8,0.2,1.5,0.2,2.3
	C37,32.2,26.3,40.5,25.8,40.9z M25.3,0c-0.8,0-1.6,0-2.5,0.1s-1.6,0.2-2.5,0.4c-0.8,0.2-1.6,0.4-2.4,0.6c-0.8,0.2-1.6,0.5-2.3,0.8
	c-0.8,0.3-1.5,0.7-2.2,1.1s-1.4,0.8-2.1,1.3s-1.4,0.9-2,1.5C8.6,6.2,8,6.8,7.4,7.4S6.3,8.6,5.7,9.2c-0.5,0.6-1,1.3-1.5,2
	S3.4,12.6,3,13.4s-0.7,1.5-1.1,2.2s-0.6,1.5-0.8,2.3c-0.2,0.8-0.4,1.6-0.6,2.4S0.2,22,0.1,22.8C0,23.6,0,24.4,0,25.3s0,1.6,0.1,2.5
	c0.1,0.8,0.2,1.6,0.4,2.5c0.2,0.8,0.4,1.6,0.6,2.4c0.2,0.8,0.5,1.6,0.8,2.3s0.7,1.5,1.1,2.2c0.4,0.7,0.8,1.4,1.3,2.1
	c0.5,0.7,0.9,1.3,1.5,2c0.5,0.6,1.1,1.2,1.7,1.8s1.2,1.1,1.8,1.7s1.3,1,2,1.5s1.4,0.9,2.1,1.3c0.7,0.4,1.5,0.7,2.2,1.1
	c0.8,0.3,1.5,0.6,2.3,0.8s1.6,0.4,2.4,0.6c0.8,0.2,1.6,0.3,2.5,0.4c0.8,0.1,1.6,0.1,2.5,0.1s1.6,0,2.5-0.1c0.8-0.1,1.6-0.2,2.5-0.4
	c0.8-0.2,1.6-0.4,2.4-0.6c0.8-0.2,1.6-0.5,2.3-0.8c0.8-0.3,1.5-0.7,2.2-1.1c0.7-0.4,1.4-0.8,2.1-1.3c0.7-0.5,1.3-1,2-1.5
	s1.2-1.1,1.8-1.7s1.1-1.2,1.7-1.8s1-1.3,1.5-2c0.5-0.7,0.9-1.4,1.3-2.1s0.7-1.5,1.1-2.2c0.3-0.8,0.6-1.5,0.8-2.3s0.4-1.6,0.6-2.4
	c0.2-0.8,0.3-1.6,0.4-2.5c0.1-0.8,0.1-1.6,0.1-2.5s0-1.6-0.1-2.5c-0.1-0.8-0.2-1.6-0.4-2.5c-0.2-0.8-0.4-1.6-0.6-2.4
	c-0.2-0.8-0.5-1.6-0.8-2.3s-0.7-1.5-1.1-2.2c-0.4-0.7-0.8-1.4-1.3-2.1s-1-1.4-1.5-2c-0.5-0.6-1.1-1.2-1.7-1.8
	c-0.6-0.6-1.2-1.1-1.8-1.7s-1.3-1-2-1.5c-0.7-0.5-1.4-0.9-2.1-1.3c-0.7-0.4-1.5-0.7-2.2-1.1c-0.8-0.3-1.5-0.6-2.3-0.8
	c-0.8-0.2-1.6-0.4-2.4-0.6c-0.8-0.2-1.6-0.3-2.5-0.4C26.9,0,26.1,0,25.3,0z"/>
</svg>
