<?xml version="1.0" encoding="utf-8"?>
<!-- Generator: Adobe Illustrator 28.3.0, SVG Export Plug-In . SVG Version: 6.00 Build 0)  -->
<svg version="1.1" id="Capa_2_00000141427882482607670590000013804186234236564148_"
	 xmlns="http://www.w3.org/2000/svg" xmlns:xlink="http://www.w3.org/1999/xlink" x="0px" y="0px" viewBox="0 0 135.9 135.9"
	 style="enable-background:new 0 0 135.9 135.9;" xml:space="preserve">
<style type="text/css">
	.st0{fill:#FFFFFF;}
	.st1{fill:#1E9B4B;}
</style>
<circle class="st0" cx="66.4" cy="73.1" r="56.9"/>
<path class="st1" d="M89.8,82.6c-0.3,1.8-4.1,4-6.5,4.7c-6,1.6-14.5-3-22.8-10.3c-8.4-7.3-14.1-15.1-13.3-21.2
	c0.3-2.5,2.1-6.5,3.7-7.1s2.8,0,4.5,0.5c0.8,0.9,1.9,2.1,3.1,3.4c1.6,1.8,2.7,3.3,3.3,4.5c0.5,0.9,0.3,2.1-0.5,2.8l-2.9,2.6
	c-0.5,0.5-0.7,1.2-0.4,1.9c0.9,1.9,2.9,5.8,6.1,8.5c3.1,2.7,7.2,4.2,9.2,4.8c0.7,0.2,1.4-0.1,1.8-0.7l2.2-3.2
	c0.6-0.9,1.8-1.2,2.8-0.8c1.2,0.5,2.9,1.3,4.9,2.7c1.5,1,2.8,1.9,3.8,2.6C89.5,79.8,90.2,80.9,89.8,82.6L89.8,82.6z M69.4,31.2
	c-19.8,0-35.9,16.1-35.9,35.9c0,6.9,2,13.7,5.7,19.5l0.9,1.3l-3.5,12.5l13.2-3.1L51,98c5.5,3.3,11.9,5.1,18.4,5.1
	c19.8,0,35.9-16.1,35.9-35.9S89.2,31.2,69.4,31.2L69.4,31.2z"/>
<path class="st1" d="M69.4,110.1c-7.3,0-14.4-1.8-20.8-5.3L26.5,110l5.8-21c-3.9-6.7-6-14.2-6-21.9c0-23.7,19.3-43,43-43
	s43,19.3,43,43.1S93.1,110.1,69.4,110.1L69.4,110.1z M67.9,0C30.4,0,0,30.4,0,67.9s30.4,67.9,67.9,67.9s67.9-30.4,67.9-67.9
	S105.4,0,67.9,0z"/>
</svg>
