<?xml version="1.0" encoding="UTF-8"?>
<svg id="Capa_2" data-name="Capa 2" xmlns="http://www.w3.org/2000/svg" viewBox="0 0 135.89 135.89">
  <defs>
    <style>
      .cls-1 {
        fill: #1b9b4a;
        stroke-width: 0px;
      }
    </style>
  </defs>
  <g id="Capa_1-2" data-name="Capa 1">
    <g>
      <path class="cls-1" d="M89.83,82.59c-.35,1.76-4.12,4-6.53,4.65-6,1.59-14.47-3-22.82-10.29-8.41-7.29-14.06-15.06-13.35-21.24.29-2.47,2.06-6.53,3.71-7.06s2.82,0,4.53.53c.82.94,1.88,2.06,3.06,3.41,1.59,1.76,2.65,3.35,3.29,4.47.53.94.35,2.12-.47,2.82l-2.88,2.59c-.53.47-.71,1.24-.41,1.88.88,1.88,2.94,5.77,6.06,8.47,3.06,2.71,7.24,4.24,9.24,4.82.65.24,1.41-.06,1.76-.65l2.18-3.18c.59-.88,1.76-1.24,2.76-.82,1.18.53,2.94,1.35,4.88,2.65,1.47,1,2.76,1.88,3.76,2.59.88,1.59,1.59,2.71,1.24,4.35ZM69.36,31.18c-19.82,0-35.94,16.12-35.94,35.94,0,6.94,2,13.65,5.71,19.47l.88,1.35-3.47,12.47,13.18-3.12,1.24.76c5.53,3.29,11.94,5.06,18.41,5.06,19.82,0,35.94-16.12,35.94-35.94s-16.12-36-35.94-36Z"/>
      <path class="cls-1" d="M69.36,110.12c-7.29,0-14.41-1.82-20.77-5.35l-22.06,5.24,5.82-21c-3.94-6.65-6-14.18-6-21.94,0-23.71,19.3-43,43-43s43,19.35,43,43.06-19.3,43-43,43ZM67.95,0C30.41,0,0,30.41,0,67.95s30.41,67.95,67.95,67.95,67.95-30.41,67.95-67.95C135.83,30.41,105.42,0,67.95,0Z"/>
    </g>
  </g>
</svg>